<svg width="133" height="42" viewBox="0 0 133 42" fill="none" xmlns="http://www.w3.org/2000/svg">
<g clip-path="url(#clip0_1059_11858)">
<path d="M18.1798 20.8202C18.1798 21.861 18.0426 22.8651 17.7684 23.8323C17.5046 24.789 17.1249 25.6879 16.6292 26.5289C16.1334 27.3595 15.5427 28.1218 14.857 28.8157C14.1715 29.499 13.4067 30.0878 12.5629 30.5819C11.719 31.0761 10.8119 31.4597 9.84143 31.7331C8.88154 31.996 7.87947 32.1274 6.8352 32.1274H0V9.51294H6.8352C7.87947 9.51294 8.88154 9.64961 9.84143 9.92296C10.8119 10.1858 11.719 10.5643 12.5629 11.0584C13.4067 11.5526 14.1715 12.1466 14.857 12.8405C15.5427 13.5238 16.1334 14.2861 16.6292 15.1271C17.1249 15.9577 17.5046 16.8566 17.7684 17.8238C18.0426 18.7806 18.1798 19.7793 18.1798 20.8202ZM13.6388 20.8202C13.6388 19.8844 13.4595 19.0066 13.1008 18.1866C12.7527 17.3665 12.2675 16.6516 11.6452 16.0418C11.0334 15.4215 10.3108 14.9326 9.47752 14.5752C8.65476 14.2177 7.774 14.0389 6.8352 14.0389H4.57263V27.6014H6.8352C7.774 27.6014 8.65476 27.4279 9.47752 27.081C10.3108 26.7234 11.0334 26.2398 11.6452 25.6301C12.2675 25.0097 12.7527 24.2895 13.1008 23.4695C13.4595 22.6389 13.6388 21.7559 13.6388 20.8202Z" fill="#595959"/>
<path d="M37.1191 23.5326C37.1191 24.7942 36.8923 25.9718 36.4387 27.0652C35.9851 28.148 35.3681 29.0889 34.5875 29.888C33.807 30.6765 32.8893 31.3021 31.8344 31.7646C30.7901 32.2168 29.6667 32.4428 28.4643 32.4428C27.2723 32.4428 26.1489 32.2168 25.0941 31.7646C24.0499 31.3021 23.1322 30.6765 22.341 29.888C21.5606 29.0889 20.9435 28.148 20.4898 27.0652C20.0363 25.9718 19.8096 24.7942 19.8096 23.5326C19.8096 22.25 20.0363 21.062 20.4898 19.9685C20.9435 18.8752 21.5606 17.9341 22.341 17.1457C23.1322 16.3467 24.0499 15.7211 25.0941 15.269C26.1489 14.817 27.2723 14.5909 28.4643 14.5909C29.6667 14.5909 30.7901 14.8065 31.8344 15.2375C32.8893 15.658 33.807 16.2625 34.5875 17.0511C35.3681 17.829 35.9851 18.7701 36.4387 19.8739C36.8923 20.9673 37.1191 22.1869 37.1191 23.5326ZM32.768 23.5326C32.768 22.8387 32.6518 22.2132 32.4198 21.656C32.1983 21.0882 31.8924 20.6046 31.5021 20.2052C31.1118 19.7951 30.653 19.485 30.1256 19.2747C29.6088 19.0538 29.0549 18.9435 28.4643 18.9435C27.8736 18.9435 27.3146 19.0538 26.7871 19.2747C26.2702 19.485 25.8167 19.7951 25.4264 20.2052C25.0466 20.6046 24.7461 21.0882 24.5245 21.656C24.303 22.2132 24.1923 22.8387 24.1923 23.5326C24.1923 24.1844 24.303 24.7889 24.5245 25.3462C24.7461 25.9034 25.0466 26.387 25.4264 26.7971C25.8167 27.2071 26.2702 27.533 26.7871 27.7747C27.3146 28.0061 27.8736 28.1218 28.4643 28.1218C29.0549 28.1218 29.6088 28.0114 30.1256 27.7906C30.653 27.5697 31.1118 27.2596 31.5021 26.8602C31.8924 26.4607 32.1983 25.977 32.4198 25.4092C32.6518 24.8416 32.768 24.216 32.768 23.5326Z" fill="#595959"/>
<path d="M54.3178 18.5966L51.1533 21.7664C50.9952 21.3249 50.779 20.9306 50.5047 20.5836C50.2304 20.2262 49.9192 19.9265 49.5712 19.6848C49.2337 19.4429 48.8644 19.2588 48.4636 19.1327C48.0627 19.0066 47.6514 18.9435 47.2294 18.9435C46.6387 18.9435 46.0797 19.0643 45.5523 19.3062C45.0355 19.548 44.5818 19.8898 44.1916 20.3313C43.8119 20.7623 43.5112 21.2775 43.2898 21.8768C43.0683 22.476 42.9575 23.1383 42.9575 23.8638C42.9575 24.4525 43.0683 25.0044 43.2898 25.5196C43.5112 26.0348 43.8119 26.4869 44.1916 26.8759C44.5818 27.2648 45.0355 27.5697 45.5523 27.7906C46.0797 28.0114 46.6387 28.1218 47.2294 28.1218C47.6514 28.1218 48.0575 28.0639 48.4478 27.9483C48.8381 27.8326 49.2019 27.6696 49.5396 27.4593C49.8876 27.2386 50.1935 26.9758 50.4573 26.6709C50.7314 26.3555 50.9529 26.0085 51.1217 25.6301L54.2862 28.7998C53.8854 29.3676 53.4212 29.8775 52.8938 30.3295C52.3769 30.7817 51.8127 31.1655 51.2009 31.4808C50.5996 31.7962 49.9615 32.0328 49.2863 32.1905C48.6219 32.3586 47.9362 32.4428 47.2294 32.4428C46.0376 32.4428 44.9142 32.222 43.8593 31.7804C42.815 31.3283 41.8973 30.7133 41.1063 29.9352C40.3257 29.1573 39.7086 28.2479 39.2551 27.2071C38.8015 26.1663 38.5747 25.0518 38.5747 23.8638C38.5747 22.5707 38.8015 21.3616 39.2551 20.2367C39.7086 19.1117 40.3257 18.1339 41.1063 17.3034C41.8973 16.4623 42.815 15.8 43.8593 15.3164C44.9142 14.8327 46.0376 14.5909 47.2294 14.5909C47.9362 14.5909 48.6271 14.6803 49.3021 14.859C49.9878 15.0377 50.6365 15.3006 51.2483 15.6475C51.8706 15.9839 52.4403 16.3992 52.9571 16.8933C53.4845 17.3875 53.938 17.9553 54.3178 18.5966Z" fill="#595959"/>
<path d="M68.89 30.1561C68.5419 30.4715 68.1675 30.7711 67.7666 31.0549C67.3763 31.3283 66.9649 31.57 66.5325 31.7803C66.1001 31.9801 65.6517 32.1378 65.1876 32.2535C64.734 32.3796 64.2699 32.4427 63.7952 32.4427C62.751 32.4427 61.7699 32.2587 60.8523 31.8908C59.9346 31.5228 59.1277 31.0024 58.4315 30.3295C57.7458 29.6462 57.2026 28.8209 56.8018 27.8536C56.4115 26.8759 56.2163 25.7824 56.2163 24.5734V15.2374H60.52V24.5734C60.52 25.1412 60.6044 25.6511 60.7732 26.1031C60.9526 26.5446 61.1898 26.9179 61.4852 27.2228C61.7806 27.5277 62.1234 27.7589 62.5137 27.9167C62.9145 28.0743 63.3417 28.1532 63.7952 28.1532C64.2382 28.1532 64.655 28.0533 65.0451 27.8536C65.446 27.6433 65.7942 27.3699 66.0894 27.0335C66.3848 26.6971 66.6169 26.3186 66.7856 25.8981C66.9544 25.4671 67.0388 25.0255 67.0388 24.5734V15.2374H71.3583V32.1273H70.314L68.89 30.1561Z" fill="#595959"/>
<path d="M83.1617 32.1274C82.1175 32.1274 81.1365 31.9329 80.2188 31.5439C79.3011 31.1443 78.4942 30.6029 77.798 29.9195C77.1124 29.2257 76.5691 28.4214 76.1683 27.5067C75.7781 26.5921 75.5829 25.6143 75.5829 24.5734V19.5585H73.4785V15.269H75.5829V8.51941H79.8866V15.269H86.4369V19.5585H79.8866V24.5734C79.8866 25.0256 79.9709 25.4514 80.1397 25.8509C80.3085 26.2398 80.5406 26.5816 80.8359 26.876C81.1313 27.1703 81.4793 27.4069 81.8802 27.5856C82.281 27.7538 82.7082 27.8379 83.1617 27.8379H86.4369V32.1274H83.1617Z" fill="#595959"/>
<path d="M93.9681 10.6484C93.9681 11.0479 93.8891 11.4211 93.7308 11.7681C93.5832 12.115 93.3775 12.4199 93.1137 12.6827C92.8501 12.9351 92.5389 13.1401 92.1802 13.2977C91.8322 13.445 91.4577 13.5185 91.0568 13.5185C90.656 13.5185 90.2763 13.445 89.9176 13.2977C89.5696 13.1401 89.2637 12.9351 88.9999 12.6827C88.7468 12.4199 88.5411 12.115 88.3829 11.7681C88.2352 11.4211 88.1614 11.0479 88.1614 10.6484C88.1614 10.2594 88.2352 9.8914 88.3829 9.54446C88.5411 9.187 88.7468 8.88212 88.9999 8.62979C89.2637 8.36695 89.5696 8.16193 89.9176 8.01475C90.2763 7.85705 90.656 7.7782 91.0568 7.7782C91.4577 7.7782 91.8322 7.85705 92.1802 8.01475C92.5389 8.16193 92.8501 8.36695 93.1137 8.62979C93.3775 8.88212 93.5832 9.187 93.7308 9.54446C93.8891 9.8914 93.9681 10.2594 93.9681 10.6484ZM93.2245 32.1274H88.8734V15.2375H93.2245V32.1274Z" fill="#595959"/>
<path fill-rule="evenodd" clip-rule="evenodd" d="M112.25 0C111.271 0 110.478 0.790781 110.478 1.76626C110.478 2.74173 111.271 3.53253 112.25 3.53253H112.929C114.188 3.53253 115.208 4.54924 115.208 5.80343V13.9832C115.208 15.5162 116.455 16.7589 117.992 16.7589H126.267C127.525 16.7589 128.545 17.7756 128.545 19.0298V24.0193C128.545 25.2735 127.525 26.2902 126.267 26.2902H117.992C116.455 26.2902 115.208 27.5328 115.208 29.0657V32.0002V36.1966C115.208 37.4507 114.188 38.4675 112.929 38.4675H108.341C107.083 38.4675 106.063 37.4507 106.063 36.1966V32.0947C107.657 29.7649 110.839 24.8603 113.026 20.5952C113.708 19.2636 114.003 18.0083 113.917 16.8362C113.831 15.6499 113.364 14.6933 112.767 13.96C111.687 12.6325 110.145 12.0096 109.632 11.8025L109.572 11.7783C108.666 11.4089 107.632 11.8415 107.261 12.7443C106.89 13.6472 107.324 14.6785 108.23 15.0478C108.744 15.2574 109.534 15.5943 110.015 16.1852C110.221 16.4393 110.356 16.7253 110.383 17.093C110.411 17.475 110.332 18.0856 109.869 18.9881C108.216 22.2135 105.938 25.8692 104.291 28.3773C102.644 25.8692 100.365 22.2135 98.7119 18.9881C98.2492 18.0856 98.1707 17.475 98.1986 17.093C98.2255 16.7253 98.3598 16.4393 98.5666 16.1852C99.0473 15.5943 99.8369 15.2574 100.351 15.0478C101.257 14.6785 101.691 13.6472 101.32 12.7443C100.95 11.8415 99.9151 11.4089 99.0093 11.7783L98.9494 11.8025C98.4366 12.0096 96.8943 12.6325 95.814 13.96C95.2172 14.6933 94.7507 15.6499 94.6639 16.8362C94.5782 18.0083 94.8733 19.2636 95.5558 20.5952C97.7418 24.8603 100.924 29.7649 102.519 32.0947V36.1966C102.519 39.4018 105.125 42 108.341 42H112.929C116.145 42 118.752 39.4018 118.752 36.1966V32.0002V29.8228H126.267C129.482 29.8228 132.089 27.2244 132.089 24.0193V19.0298C132.089 15.8247 129.482 13.2263 126.267 13.2263H118.752V5.80343C118.752 2.59829 116.145 0 112.929 0H112.25Z" fill="#595959"/>
</g>
<defs>
<clipPath id="clip0_1059_11858">
<rect width="133" height="42" fill="white"/>
</clipPath>
</defs>
</svg>
