<svg width="76" height="24" viewBox="0 0 76 24" fill="none" xmlns="http://www.w3.org/2000/svg">
<path d="M10.3543 11.8974C10.3543 12.4921 10.2762 13.0659 10.12 13.6186C9.96976 14.1653 9.75348 14.6789 9.47112 15.1595C9.18876 15.6341 8.85233 16.0697 8.46183 16.4662C8.07133 16.8567 7.63577 17.1931 7.15516 17.4755C6.67454 17.7579 6.15788 17.9771 5.60517 18.1333C5.05847 18.2835 4.48774 18.3586 3.89298 18.3586H0V5.43609H3.89298C4.48774 5.43609 5.05847 5.51419 5.60517 5.67039C6.15788 5.82058 6.67454 6.03686 7.15516 6.31922C7.63577 6.60158 8.07133 6.94102 8.46183 7.33753C8.85233 7.72803 9.18876 8.16358 9.47112 8.6442C9.75348 9.11881 9.96976 9.63246 10.12 10.1852C10.2762 10.7319 10.3543 11.3026 10.3543 11.8974ZM7.76794 11.8974C7.76794 11.3627 7.66581 10.861 7.46155 10.3924C7.2633 9.92384 6.98694 9.51531 6.63249 9.16687C6.28404 8.81241 5.87252 8.53306 5.39791 8.32879C4.92931 8.12453 4.42767 8.0224 3.89298 8.0224H2.60433V15.7723H3.89298C4.42767 15.7723 4.92931 15.6732 5.39791 15.4749C5.87252 15.2707 6.28404 14.9943 6.63249 14.6459C6.98694 14.2914 7.2633 13.8799 7.46155 13.4113C7.66581 12.9367 7.76794 12.432 7.76794 11.8974Z" fill="#1E293B"/>
<path d="M21.1411 13.4473C21.1411 14.1683 21.0119 14.8411 20.7536 15.4659C20.4952 16.0847 20.1438 16.6224 19.6992 17.079C19.2546 17.5296 18.732 17.887 18.1312 18.1514C17.5364 18.4097 16.8966 18.5389 16.2117 18.5389C15.5329 18.5389 14.8931 18.4097 14.2923 18.1514C13.6975 17.887 13.1749 17.5296 12.7243 17.079C12.2797 16.6224 11.9283 16.0847 11.6699 15.4659C11.4116 14.8411 11.2824 14.1683 11.2824 13.4473C11.2824 12.7144 11.4116 12.0355 11.6699 11.4107C11.9283 10.7859 12.2797 10.2483 12.7243 9.79767C13.1749 9.34109 13.6975 8.98363 14.2923 8.7253C14.8931 8.46697 15.5329 8.33781 16.2117 8.33781C16.8966 8.33781 17.5364 8.46096 18.1312 8.70728C18.732 8.94759 19.2546 9.29303 19.6992 9.74361C20.1438 10.1882 20.4952 10.7259 20.7536 11.3567C21.0119 11.9815 21.1411 12.6784 21.1411 13.4473ZM18.6629 13.4473C18.6629 13.0508 18.5968 12.6934 18.4646 12.375C18.3385 12.0506 18.1642 11.7742 17.942 11.5459C17.7197 11.3116 17.4583 11.1344 17.158 11.0142C16.8636 10.8881 16.5482 10.825 16.2117 10.825C15.8753 10.825 15.5569 10.8881 15.2565 11.0142C14.9621 11.1344 14.7038 11.3116 14.4815 11.5459C14.2653 11.7742 14.094 12.0506 13.9679 12.375C13.8417 12.6934 13.7786 13.0508 13.7786 13.4473C13.7786 13.8198 13.8417 14.1653 13.9679 14.4837C14.094 14.8021 14.2653 15.0784 14.4815 15.3127C14.7038 15.547 14.9621 15.7333 15.2565 15.8714C15.5569 16.0036 15.8753 16.0697 16.2117 16.0697C16.5482 16.0697 16.8636 16.0066 17.158 15.8805C17.4583 15.7543 17.7197 15.5771 17.942 15.3488C18.1642 15.1205 18.3385 14.8441 18.4646 14.5197C18.5968 14.1953 18.6629 13.8378 18.6629 13.4473Z" fill="#1E293B"/>
<path d="M30.9366 10.6267L29.1343 12.4381C29.0442 12.1857 28.921 11.9604 28.7648 11.7622C28.6086 11.5579 28.4314 11.3867 28.2331 11.2485C28.0409 11.1104 27.8306 11.0052 27.6023 10.9331C27.374 10.861 27.1397 10.825 26.8994 10.825C26.563 10.825 26.2446 10.8941 25.9442 11.0323C25.6498 11.1704 25.3915 11.3657 25.1692 11.618C24.9529 11.8643 24.7817 12.1587 24.6556 12.5011C24.5294 12.8436 24.4663 13.2221 24.4663 13.6366C24.4663 13.973 24.5294 14.2884 24.6556 14.5828C24.7817 14.8772 24.9529 15.1355 25.1692 15.3578C25.3915 15.5801 25.6498 15.7543 25.9442 15.8805C26.2446 16.0066 26.563 16.0697 26.8994 16.0697C27.1397 16.0697 27.371 16.0367 27.5933 15.9706C27.8156 15.9045 28.0229 15.8114 28.2151 15.6912C28.4134 15.5651 28.5876 15.4149 28.7378 15.2406C28.894 15.0604 29.0201 14.8622 29.1163 14.6459L30.9186 16.4572C30.6903 16.7816 30.4259 17.073 30.1256 17.3313C29.8312 17.5896 29.5098 17.8089 29.1613 17.9892C28.8189 18.1694 28.4554 18.3046 28.0709 18.3947C27.6924 18.4908 27.3019 18.5389 26.8994 18.5389C26.2206 18.5389 25.5807 18.4127 24.98 18.1604C24.3852 17.902 23.8625 17.5506 23.412 17.106C22.9674 16.6615 22.6159 16.1418 22.3576 15.547C22.0993 14.9523 21.9701 14.3155 21.9701 13.6366C21.9701 12.8976 22.0993 12.2068 22.3576 11.5639C22.6159 10.9211 22.9674 10.3624 23.412 9.88779C23.8625 9.40718 24.3852 9.02869 24.98 8.75234C25.5807 8.47598 26.2206 8.33781 26.8994 8.33781C27.3019 8.33781 27.6954 8.38887 28.0799 8.491C28.4704 8.59313 28.8399 8.74333 29.1884 8.94158C29.5428 9.13383 29.8672 9.37113 30.1616 9.65349C30.462 9.93585 30.7203 10.2603 30.9366 10.6267Z" fill="#1E293B"/>
<path d="M39.2362 17.2322C39.038 17.4124 38.8247 17.5836 38.5964 17.7458C38.3741 17.902 38.1398 18.0402 37.8935 18.1604C37.6472 18.2745 37.3918 18.3646 37.1275 18.4307C36.8692 18.5028 36.6048 18.5389 36.3345 18.5389C35.7397 18.5389 35.181 18.4337 34.6584 18.2235C34.1357 18.0132 33.6761 17.7158 33.2796 17.3313C32.8891 16.9408 32.5797 16.4692 32.3514 15.9165C32.1291 15.3578 32.018 14.733 32.018 14.0421V8.70728H34.4691V14.0421C34.4691 14.3665 34.5172 14.6579 34.6133 14.9162C34.7154 15.1685 34.8506 15.3818 35.0188 15.556C35.187 15.7303 35.3823 15.8624 35.6046 15.9526C35.8329 16.0427 36.0762 16.0877 36.3345 16.0877C36.5868 16.0877 36.8241 16.0307 37.0464 15.9165C37.2747 15.7964 37.473 15.6402 37.6412 15.4479C37.8094 15.2557 37.9416 15.0394 38.0377 14.7991C38.1338 14.5528 38.1819 14.3004 38.1819 14.0421V8.70728H40.642V18.3586H40.0472L39.2362 17.2322Z" fill="#1E293B"/>
<path d="M47.3646 18.3586C46.7699 18.3586 46.2111 18.2475 45.6885 18.0252C45.1658 17.7969 44.7062 17.4875 44.3097 17.097C43.9192 16.7005 43.6098 16.2409 43.3815 15.7183C43.1592 15.1956 43.0481 14.6369 43.0481 14.0421V11.1764H41.8496V8.7253H43.0481V4.86837H45.4992V8.7253H49.23V11.1764H45.4992V14.0421C45.4992 14.3004 45.5473 14.5437 45.6434 14.772C45.7395 14.9943 45.8717 15.1896 46.0399 15.3578C46.2081 15.526 46.4064 15.6612 46.6347 15.7633C46.863 15.8594 47.1063 15.9075 47.3646 15.9075H49.23V18.3586H47.3646Z" fill="#1E293B"/>
<path d="M53.5195 6.08492C53.5195 6.31322 53.4744 6.52649 53.3843 6.72474C53.3002 6.923 53.1831 7.09722 53.0329 7.24741C52.8827 7.3916 52.7054 7.50875 52.5012 7.59886C52.3029 7.68297 52.0897 7.72502 51.8614 7.72502C51.6331 7.72502 51.4168 7.68297 51.2125 7.59886C51.0143 7.50875 50.8401 7.3916 50.6899 7.24741C50.5457 7.09722 50.4285 6.923 50.3384 6.72474C50.2543 6.52649 50.2123 6.31322 50.2123 6.08492C50.2123 5.86264 50.2543 5.65237 50.3384 5.45412C50.4285 5.24985 50.5457 5.07563 50.6899 4.93145C50.8401 4.78125 51.0143 4.6641 51.2125 4.58C51.4168 4.48988 51.6331 4.44482 51.8614 4.44482C52.0897 4.44482 52.3029 4.48988 52.5012 4.58C52.7054 4.6641 52.8827 4.78125 53.0329 4.93145C53.1831 5.07563 53.3002 5.24985 53.3843 5.45412C53.4744 5.65237 53.5195 5.86264 53.5195 6.08492ZM53.0959 18.3586H50.6178V8.70728H53.0959V18.3586Z" fill="#1E293B"/>
<path fill-rule="evenodd" clip-rule="evenodd" d="M63.9318 0C63.3743 0 62.9225 0.451875 62.9225 1.00929C62.9225 1.56671 63.3743 2.01858 63.9318 2.01858H64.3188C65.0355 2.01858 65.6164 2.59957 65.6164 3.31625V7.99046C65.6164 8.86639 66.3265 9.57648 67.2025 9.57648H71.9151C72.6317 9.57648 73.2127 10.1575 73.2127 10.8741V13.7253C73.2127 14.442 72.6317 15.023 71.9151 15.023H67.2025C66.3265 15.023 65.6164 15.7331 65.6164 16.609V18.2858V20.6838C65.6164 21.4004 65.0355 21.9814 64.3188 21.9814H61.7056C60.9889 21.9814 60.4079 21.4004 60.4079 20.6838V18.3398C61.3159 17.0085 63.1285 14.2059 64.3736 11.7687C64.7623 11.0078 64.9304 10.2905 64.8815 9.62071C64.8321 8.94275 64.5664 8.3962 64.2265 7.97713C63.6112 7.21856 62.7327 6.8626 62.4407 6.74428L62.4066 6.73043C61.8907 6.51939 61.3014 6.76655 61.0904 7.28247C60.8793 7.7984 61.1265 8.38771 61.6424 8.59875C61.9352 8.71852 62.3849 8.91108 62.6588 9.24871C62.7765 9.39391 62.853 9.55732 62.8683 9.76742C62.8842 9.98571 62.8395 10.3346 62.576 10.8503C61.6344 12.6934 60.3367 14.7824 59.3986 16.2156C58.4606 14.7824 57.1628 12.6934 56.2213 10.8503C55.9578 10.3346 55.913 9.98571 55.929 9.76742C55.9443 9.55732 56.0207 9.39391 56.1385 9.24871C56.4123 8.91108 56.862 8.71852 57.1548 8.59875C57.6708 8.38771 57.9179 7.7984 57.7069 7.28247C57.4958 6.76655 56.9065 6.51939 56.3906 6.73043L56.3565 6.74428C56.0645 6.8626 55.186 7.21856 54.5708 7.97713C54.2308 8.3962 53.9651 8.94275 53.9157 9.62071C53.8669 10.2905 54.0349 11.0078 54.4237 11.7687C55.6688 14.2059 57.4813 17.0085 58.3893 18.3398V20.6838C58.3893 22.5153 59.8741 24 61.7056 24H64.3188C66.1503 24 67.635 22.5153 67.635 20.6838V18.2858V17.0416H71.9151C73.7466 17.0416 75.2313 15.5568 75.2313 13.7253V10.8741C75.2313 9.04264 73.7466 7.5579 71.9151 7.5579H67.635V3.31625C67.635 1.48474 66.1503 0 64.3188 0H63.9318Z" fill="#1D4ED8"/>
</svg>
