<svg width="146" height="47" viewBox="0 0 146 47" fill="none" xmlns="http://www.w3.org/2000/svg">
<g clip-path="url(#clip0_230_306)">
<path d="M20.3425 23.4865C20.3425 24.6264 20.1929 25.7261 19.894 26.7854C19.6065 27.8332 19.1924 28.8177 18.6521 29.7389C18.1115 30.6485 17.4675 31.4834 16.72 32.2434C15.9726 32.9918 15.1387 33.6366 14.2188 34.1779C13.2988 34.7191 12.3098 35.1393 11.2518 35.4387C10.2053 35.7266 9.11286 35.8705 7.97437 35.8705H0.522461V11.1023H7.97437C9.11286 11.1023 10.2053 11.252 11.2518 11.5514C12.3098 11.8392 13.2988 12.2538 14.2188 12.795C15.1387 13.3362 15.9726 13.9867 16.72 14.7467C17.4675 15.4951 18.1115 16.33 18.6521 17.2512C19.1924 18.1608 19.6065 19.1454 19.894 20.2046C20.1929 21.2526 20.3425 22.3464 20.3425 23.4865ZM15.3919 23.4865C15.3919 22.4615 15.1963 21.5001 14.8053 20.602C14.4258 19.7038 13.8968 18.9208 13.2183 18.253C12.5513 17.5736 11.7636 17.0381 10.8551 16.6467C9.9581 16.2551 8.99787 16.0593 7.97437 16.0593H5.50766V30.9134H7.97437C8.99787 30.9134 9.9581 30.7234 10.8551 30.3435C11.7636 29.9519 12.5513 29.4222 13.2183 28.7545C13.8968 28.075 14.4258 27.2862 14.8053 26.3881C15.1963 25.4784 15.3919 24.5113 15.3919 23.4865Z" fill="#1E293B"/>
<path d="M40.9905 26.4572C40.9905 27.8389 40.7433 29.1286 40.2487 30.3262C39.7543 31.5122 39.0815 32.5427 38.2305 33.4179C37.3796 34.2815 36.3791 34.9666 35.229 35.4732C34.0905 35.9684 32.8658 36.216 31.5549 36.216C30.2553 36.216 29.0306 35.9684 27.8806 35.4732C26.7422 34.9666 25.7417 34.2815 24.8791 33.4179C24.0282 32.5427 23.3555 31.5122 22.8609 30.3262C22.3665 29.1286 22.1193 27.8389 22.1193 26.4572C22.1193 25.0525 22.3665 23.7512 22.8609 22.5537C23.3555 21.3562 24.0282 20.3255 24.8791 19.462C25.7417 18.5869 26.7422 17.9018 27.8806 17.4066C29.0306 16.9115 30.2553 16.6639 31.5549 16.6639C32.8658 16.6639 34.0905 16.9 35.229 17.3721C36.3791 17.8326 37.3796 18.4947 38.2305 19.3584C39.0815 20.2104 39.7543 21.2411 40.2487 22.45C40.7433 23.6476 40.9905 24.9833 40.9905 26.4572ZM36.2469 26.4572C36.2469 25.6972 36.1202 25.0121 35.8673 24.4019C35.6258 23.78 35.2923 23.2503 34.8668 22.8128C34.4412 22.3638 33.9411 22.0241 33.3661 21.7938C32.8026 21.5519 32.1988 21.431 31.5549 21.431C30.9109 21.431 30.3014 21.5519 29.7263 21.7938C29.1628 22.0241 28.6684 22.3638 28.2429 22.8128C27.8288 23.2503 27.5012 23.78 27.2596 24.4019C27.0181 25.0121 26.8974 25.6972 26.8974 26.4572C26.8974 27.1711 27.0181 27.8332 27.2596 28.4435C27.5012 29.0538 27.8288 29.5835 28.2429 30.0325C28.6684 30.4816 29.1628 30.8386 29.7263 31.1033C30.3014 31.3568 30.9109 31.4834 31.5549 31.4834C32.1988 31.4834 32.8026 31.3625 33.3661 31.1207C33.9411 30.8788 34.4412 30.5391 34.8668 30.1017C35.2923 29.6641 35.6258 29.1344 35.8673 28.5125C36.1202 27.8908 36.2469 27.2057 36.2469 26.4572Z" fill="#1E293B"/>
<path d="M59.741 21.051L56.291 24.5228C56.1186 24.0392 55.8829 23.6074 55.5838 23.2273C55.2848 22.8358 54.9456 22.5077 54.5661 22.2429C54.1982 21.9779 53.7956 21.7764 53.3586 21.6383C52.9216 21.5001 52.4731 21.431 52.0131 21.431C51.3691 21.431 50.7596 21.5634 50.1847 21.8283C49.6212 22.0931 49.1266 22.4674 48.7012 22.951C48.2872 23.4231 47.9594 23.9873 47.7179 24.6436C47.4765 25.3 47.3557 26.0254 47.3557 26.8199C47.3557 27.4647 47.4765 28.0692 47.7179 28.6334C47.9594 29.1976 48.2872 29.6929 48.7012 30.1189C49.1266 30.5449 49.6212 30.8788 50.1847 31.1207C50.7596 31.3625 51.3691 31.4834 52.0131 31.4834C52.4731 31.4834 52.9158 31.42 53.3414 31.2934C53.7669 31.1667 54.1636 30.9882 54.5317 30.7579C54.9111 30.5161 55.2446 30.2283 55.5322 29.8944C55.8311 29.549 56.0725 29.1689 56.2566 28.7545L59.7066 32.226C59.2696 32.8479 58.7635 33.4064 58.1885 33.9014C57.625 34.3967 57.0099 34.817 56.3429 35.1624C55.6874 35.5078 54.9916 35.7669 54.2556 35.9397C53.5312 36.1238 52.7836 36.216 52.0131 36.216C50.7137 36.216 49.489 35.9742 48.3389 35.4904C47.2004 34.9954 46.1999 34.3218 45.3375 33.4696C44.4865 32.6176 43.8137 31.6216 43.3193 30.4816C42.8247 29.3417 42.5775 28.1211 42.5775 26.8199C42.5775 25.4037 42.8247 24.0794 43.3193 22.8473C43.8137 21.6153 44.4865 20.5443 45.3375 19.6347C46.1999 18.7135 47.2004 17.9882 48.3389 17.4584C49.489 16.9287 50.7137 16.6639 52.0131 16.6639C52.7836 16.6639 53.5369 16.7618 54.2728 16.9575C55.0203 17.1533 55.7275 17.4412 56.3945 17.8211C57.073 18.1896 57.6941 18.6444 58.2576 19.1856C58.8326 19.7268 59.327 20.3487 59.741 21.051Z" fill="#1E293B"/>
<path d="M75.6281 33.7114C75.2486 34.0569 74.8404 34.385 74.4034 34.6958C73.9779 34.9953 73.5294 35.2601 73.0579 35.4903C72.5865 35.7091 72.0976 35.8819 71.5917 36.0086C71.0971 36.1467 70.5912 36.2158 70.0736 36.2158C68.9352 36.2158 67.8656 36.0143 66.8653 35.6114C65.8648 35.2083 64.985 34.6383 64.226 33.9013C63.4784 33.153 62.8862 32.2491 62.4492 31.1896C62.0237 30.1188 61.8109 28.9213 61.8109 27.597V17.3719H66.5029V27.597C66.5029 28.2189 66.5949 28.7774 66.779 29.2724C66.9745 29.756 67.2332 30.1648 67.5552 30.4988C67.8773 30.8327 68.251 31.086 68.6765 31.2588C69.1135 31.4314 69.5792 31.5178 70.0736 31.5178C70.5566 31.5178 71.011 31.4084 71.4364 31.1896C71.8734 30.9593 72.253 30.6599 72.5748 30.2915C72.8968 29.923 73.1499 29.5085 73.3338 29.0479C73.5179 28.5758 73.6099 28.0922 73.6099 27.597V17.3719H78.3191V35.8704H77.1807L75.6281 33.7114Z" fill="#1E293B"/>
<path d="M91.1874 35.8705C90.0489 35.8705 88.9795 35.6575 87.979 35.2314C86.9785 34.7938 86.0987 34.2009 85.3397 33.4524C84.5923 32.6925 83.9999 31.8116 83.5629 30.8098C83.1376 29.808 82.9248 28.7371 82.9248 27.5971V22.1046H80.6305V17.4066H82.9248V10.0142H87.6168V17.4066H94.7581V22.1046H87.6168V27.5971C87.6168 28.0924 87.7086 28.5587 87.8927 28.9963C88.0767 29.4222 88.3297 29.7965 88.6517 30.1189C88.9737 30.4414 89.3532 30.7004 89.7902 30.8962C90.2272 31.0803 90.6929 31.1725 91.1874 31.1725H94.7581V35.8705H91.1874Z" fill="#1E293B"/>
<path d="M102.969 12.3458C102.969 12.7834 102.883 13.1921 102.71 13.5721C102.549 13.9521 102.325 14.286 102.038 14.5739C101.75 14.8503 101.411 15.0748 101.02 15.2475C100.64 15.4088 100.232 15.4893 99.7951 15.4893C99.358 15.4893 98.9442 15.4088 98.5531 15.2475C98.1736 15.0748 97.8401 14.8503 97.5526 14.5739C97.2767 14.286 97.0524 13.9521 96.8798 13.5721C96.7189 13.1921 96.6384 12.7834 96.6384 12.3458C96.6384 11.9197 96.7189 11.5167 96.8798 11.1367C97.0524 10.7452 97.2767 10.4113 97.5526 10.135C97.8401 9.84709 98.1736 9.62255 98.5531 9.46135C98.9442 9.28864 99.358 9.20227 99.7951 9.20227C100.232 9.20227 100.64 9.28864 101.02 9.46135C101.411 9.62255 101.75 9.84709 102.038 10.135C102.325 10.4113 102.549 10.7452 102.71 11.1367C102.883 11.5167 102.969 11.9197 102.969 12.3458ZM102.158 35.8704H97.4146V17.372H102.158V35.8704Z" fill="#1E293B"/>
<path fill-rule="evenodd" clip-rule="evenodd" d="M122.9 0.68335C121.833 0.68335 120.968 1.54944 120.968 2.61782C120.968 3.6862 121.833 4.55231 122.9 4.55231H123.641C125.013 4.55231 126.125 5.66585 126.125 7.03949V15.9983C126.125 17.6773 127.484 19.0384 129.161 19.0384H138.182C139.554 19.0384 140.666 20.1518 140.666 21.5255V26.9902C140.666 28.3638 139.554 29.4773 138.182 29.4773H129.161C127.484 29.4773 126.125 30.8384 126.125 32.5172V35.7312V40.3273C126.125 41.7008 125.013 42.8145 123.641 42.8145H118.639C117.267 42.8145 116.155 41.7008 116.155 40.3273V35.8347C117.893 33.283 121.363 27.9113 123.746 23.24C124.49 21.7815 124.812 20.4067 124.718 19.123C124.624 17.8237 124.115 16.776 123.464 15.9729C122.287 14.5189 120.605 13.8367 120.046 13.6099L119.981 13.5833C118.993 13.1789 117.865 13.6526 117.461 14.6414C117.057 15.6303 117.53 16.7598 118.518 17.1643C119.078 17.3939 119.939 17.7629 120.463 18.41C120.689 18.6883 120.835 19.0016 120.865 19.4042C120.895 19.8227 120.809 20.4914 120.305 21.4798C118.503 25.0125 116.019 29.0163 114.223 31.7633C112.427 29.0163 109.943 25.0125 108.141 21.4798C107.636 20.4914 107.551 19.8227 107.581 19.4042C107.611 19.0016 107.757 18.6883 107.982 18.41C108.507 17.7629 109.367 17.3939 109.928 17.1643C110.915 16.7598 111.389 15.6303 110.985 14.6414C110.581 13.6526 109.453 13.1789 108.465 13.5833L108.4 13.6099C107.841 13.8367 106.159 14.5189 104.981 15.9729C104.331 16.776 103.822 17.8237 103.728 19.123C103.634 20.4067 103.956 21.7815 104.7 23.24C107.083 27.9113 110.553 33.283 112.291 35.8347V40.3273C112.291 43.8377 115.133 46.6833 118.639 46.6833H123.641C127.147 46.6833 129.989 43.8377 129.989 40.3273V35.7312V33.3464H138.182C141.688 33.3464 144.529 30.5005 144.529 26.9902V21.5255C144.529 18.0151 141.688 15.1693 138.182 15.1693H129.989V7.03949C129.989 3.5291 127.147 0.68335 123.641 0.68335H122.9Z" fill="#1D56DD"/>
</g>
<defs>
<clipPath id="clip0_230_306">
<rect width="145" height="46" fill="white" transform="translate(0.522461 0.68335)"/>
</clipPath>
</defs>
</svg>
