<svg width="137" height="42" viewBox="0 0 137 42" fill="none" xmlns="http://www.w3.org/2000/svg">
<g filter="url(#filter0_di_1059_11880)">
<path d="M38.2069 1.19995H4.32887C2.60176 1.19995 1.20166 2.598 1.20166 4.32259V38.1512C1.20166 39.8758 2.60176 41.2738 4.32887 41.2738H38.2069C39.934 41.2738 41.3341 39.8758 41.3341 38.1512V4.32259C41.3341 2.598 39.934 1.19995 38.2069 1.19995Z" fill="#595959"/>
<path d="M20.8703 9.07403C20.9957 9.0194 21.131 8.99121 21.2677 8.99121C21.4045 8.99121 21.5398 9.0194 21.6652 9.07403C26.564 11.2122 31.237 13.8333 35.6144 16.8984C35.7687 17.0064 35.889 17.1559 35.9614 17.3296C36.0337 17.5034 36.0551 17.6941 36.023 17.8795C35.9909 18.0649 35.9067 18.2373 35.7803 18.3768C35.6537 18.5162 35.49 18.6168 35.3084 18.6669C30.7639 19.9202 26.3664 21.6549 22.1911 23.8416L22.1871 23.8442L21.7367 24.0824C21.5926 24.1592 21.4318 24.1995 21.2683 24.1995C21.105 24.1995 20.9442 24.1592 20.8001 24.0824C19.01 23.1271 17.1769 22.2544 15.3064 21.4672V21.1708C15.3064 20.9976 15.3953 20.8429 15.5343 20.7595C17.5339 19.5495 19.5909 18.4371 21.6982 17.4261C21.9358 17.3121 22.1182 17.1085 22.2054 16.8602C22.2926 16.6119 22.2775 16.3392 22.1633 16.102C22.049 15.8648 21.8452 15.6826 21.5965 15.5956C21.3478 15.5085 21.0747 15.5236 20.8372 15.6376C18.6723 16.6765 16.5592 17.8194 14.505 19.0624C14.2128 19.2394 13.9607 19.4752 13.7648 19.755C13.5688 20.0346 13.4334 20.352 13.3671 20.6868C11.3551 19.9137 9.30643 19.2396 7.22836 18.6669C7.04674 18.6168 6.88312 18.5162 6.7566 18.3768C6.63006 18.2373 6.54586 18.0649 6.51377 17.8795C6.4817 17.6941 6.50307 17.5034 6.57542 17.3296C6.64777 17.1559 6.76809 17.0064 6.92235 16.8984C11.2994 13.8333 15.9719 11.2123 20.8703 9.07403Z" fill="white"/>
<path d="M22.6729 25.8312C25.9268 24.0953 29.3244 22.6428 32.8282 21.4898C33.0057 23.3603 33.1196 25.2505 33.166 27.1579C33.1708 27.3575 33.1153 27.5539 33.0065 27.7216C32.8979 27.8891 32.7411 28.02 32.5566 28.0972C28.8014 29.6633 25.2058 31.5866 21.8198 33.8406C21.6566 33.9493 21.4648 34.0073 21.2686 34.0073C21.0725 34.0073 20.8808 33.9493 20.7176 33.8406C17.3319 31.5866 13.7368 29.6633 9.98207 28.0972C9.7974 28.0202 9.6403 27.8893 9.53133 27.7218C9.42237 27.5542 9.36662 27.3577 9.37137 27.1579C9.41774 25.2505 9.53166 23.3616 9.70918 21.4885C10.9257 21.8888 12.13 22.3256 13.3204 22.7981V24.478C13.0341 24.6426 12.7935 24.876 12.6203 25.1568C12.4472 25.4377 12.3468 25.7573 12.3284 26.0867C12.3099 26.416 12.3741 26.7446 12.5149 27.0431C12.6557 27.3414 12.8689 27.6001 13.1349 27.7955C13.0157 28.2982 12.8409 28.7916 12.609 29.2638C13.2077 29.5456 13.8025 29.8379 14.3921 30.1381C14.7245 29.4629 14.9696 28.7482 15.122 28.0111C15.457 27.8624 15.7443 27.624 15.952 27.3224C16.1597 27.0208 16.2798 26.6676 16.299 26.302C16.3182 25.9364 16.2358 25.5726 16.0607 25.251C15.8857 24.9293 15.6251 24.6622 15.3075 24.4793V23.6261C16.8548 24.3016 18.3751 25.0376 19.8645 25.8325C20.2965 26.0629 20.7788 26.1835 21.2686 26.1835C21.7585 26.1835 22.2409 26.0629 22.6729 25.8325V25.8312Z" fill="white"/>
<path d="M11.2819 31.1076C11.8383 30.5533 12.2795 29.9303 12.6066 29.2637C13.2068 29.5453 13.8015 29.8378 14.3911 30.138C13.9576 31.0171 13.382 31.8188 12.6875 32.5111C12.5965 32.6086 12.4868 32.6867 12.3649 32.7409C12.2431 32.7952 12.1115 32.8243 11.9781 32.8267C11.8447 32.829 11.7122 32.8045 11.5885 32.7546C11.4648 32.7047 11.3524 32.6304 11.258 32.5362C11.1637 32.442 11.0893 32.3298 11.0393 32.2063C10.9894 32.0827 10.9648 31.9505 10.9672 31.8173C10.9695 31.6841 10.9987 31.5527 11.053 31.431C11.1073 31.3092 11.1856 31.1998 11.2833 31.1089L11.2819 31.1076Z" fill="white"/>
</g>
<path d="M59.4803 26.23H64.2503V29.0368H55.8389V14.1098H59.4803V26.23ZM67.8186 15.9385C67.1797 15.9385 66.6544 15.7542 66.2427 15.3856C65.8453 15.0028 65.6465 14.5351 65.6465 13.9822C65.6465 13.4151 65.8453 12.9474 66.2427 12.5788C66.6544 12.196 67.1797 12.0046 67.8186 12.0046C68.4432 12.0046 68.9542 12.196 69.3518 12.5788C69.7635 12.9474 69.9693 13.4151 69.9693 13.9822C69.9693 14.5351 69.7635 15.0028 69.3518 15.3856C68.9542 15.7542 68.4432 15.9385 67.8186 15.9385ZM69.6286 17.1717V29.0368H65.9872V17.1717H69.6286ZM79.5077 17.0442C80.8989 17.0442 82.0063 17.4978 82.8297 18.4051C83.6673 19.2981 84.0861 20.5315 84.0861 22.1049V29.0368H80.4659V22.594C80.4659 21.8001 80.2601 21.1836 79.8485 20.744C79.4368 20.3046 78.8831 20.0848 78.1874 20.0848C77.4918 20.0848 76.9382 20.3046 76.5265 20.744C76.1147 21.1836 75.9089 21.8001 75.9089 22.594V29.0368H72.2674V17.1717H75.9089V18.7453C76.2781 18.2208 76.7749 17.8096 77.3995 17.5119C78.0242 17.2002 78.7269 17.0442 79.5077 17.0442ZM91.131 17.0017C91.9686 17.0017 92.6997 17.1717 93.3244 17.5119C93.9632 17.8522 94.453 18.2988 94.7937 18.8516V17.1717H98.4352V29.0156C98.4352 30.1071 98.215 31.0924 97.7749 31.9713C97.349 32.8644 96.6889 33.5732 95.7946 34.0976C94.9144 34.6221 93.8142 34.8844 92.4938 34.8844C90.7335 34.8844 89.3068 34.4662 88.2136 33.6298C87.1205 32.8076 86.4959 31.6878 86.3396 30.2702H89.9385C90.0521 30.7238 90.3218 31.0782 90.7477 31.3334C91.1736 31.6027 91.6989 31.7374 92.3235 31.7374C93.0759 31.7374 93.6721 31.5177 94.1122 31.0782C94.5666 30.6529 94.7937 29.9654 94.7937 29.0156V27.3358C94.4387 27.8887 93.949 28.3423 93.3244 28.6966C92.6997 29.0368 91.9686 29.207 91.131 29.207C90.1515 29.207 89.2642 28.959 88.4691 28.4628C87.6742 27.9524 87.0424 27.2366 86.574 26.3151C86.1196 25.3796 85.8925 24.3022 85.8925 23.083C85.8925 21.864 86.1196 20.7937 86.574 19.8722C87.0424 18.9508 87.6742 18.242 88.4691 17.7459C89.2642 17.2497 90.1515 17.0017 91.131 17.0017ZM94.7937 23.1043C94.7937 22.1971 94.5381 21.4812 94.0271 20.9566C93.5302 20.4322 92.9197 20.1699 92.1958 20.1699C91.4717 20.1699 90.8541 20.4322 90.3432 20.9566C89.8462 21.467 89.5978 22.1758 89.5978 23.083C89.5978 23.9904 89.8462 24.7132 90.3432 25.2519C90.8541 25.7764 91.4717 26.0388 92.1958 26.0388C92.9197 26.0388 93.5302 25.7764 94.0271 25.2519C94.5381 24.7274 94.7937 24.0116 94.7937 23.1043ZM112.803 17.1717V29.0368H109.162V27.4208C108.792 27.9453 108.288 28.3706 107.65 28.6966C107.025 29.0085 106.329 29.1645 105.563 29.1645C104.654 29.1645 103.852 28.966 103.156 28.5691C102.461 28.158 101.921 27.5697 101.538 26.8042C101.155 26.0388 100.963 25.1385 100.963 24.1038V17.1717H104.583V23.6146C104.583 24.4086 104.789 25.0251 105.201 25.4646C105.612 25.904 106.166 26.1237 106.862 26.1237C107.572 26.1237 108.132 25.904 108.544 25.4646C108.956 25.0251 109.162 24.4086 109.162 23.6146V17.1717H112.803ZM124.724 26.4002H119.145L118.251 29.0368H114.439L119.848 14.1098H124.064L129.473 29.0368H125.618L124.724 26.4002ZM123.787 23.5934L121.935 18.1286L120.103 23.5934H123.787ZM134.761 14.1098V29.0368H131.119V14.1098H134.761Z" fill="#595959"/>
<defs>
<filter id="filter0_di_1059_11880" x="1.09324" y="1.14574" width="40.3494" height="40.2907" filterUnits="userSpaceOnUse" color-interpolation-filters="sRGB">
<feFlood flood-opacity="0" result="BackgroundImageFix"/>
<feColorMatrix in="SourceAlpha" type="matrix" values="0 0 0 0 0 0 0 0 0 0 0 0 0 0 0 0 0 0 127 0" result="hardAlpha"/>
<feOffset dy="0.0542125"/>
<feGaussianBlur stdDeviation="0.0542125"/>
<feComposite in2="hardAlpha" operator="out"/>
<feColorMatrix type="matrix" values="0 0 0 0 0 0 0 0 0 0 0 0 0 0 0 0 0 0 0.1 0"/>
<feBlend mode="normal" in2="BackgroundImageFix" result="effect1_dropShadow_1059_11880"/>
<feBlend mode="normal" in="SourceGraphic" in2="effect1_dropShadow_1059_11880" result="shape"/>
<feColorMatrix in="SourceAlpha" type="matrix" values="0 0 0 0 0 0 0 0 0 0 0 0 0 0 0 0 0 0 127 0" result="hardAlpha"/>
<feOffset dy="0.0542125"/>
<feGaussianBlur stdDeviation="0.0813187"/>
<feComposite in2="hardAlpha" operator="arithmetic" k2="-1" k3="1"/>
<feColorMatrix type="matrix" values="0 0 0 0 0 0 0 0 0 0 0 0 0 0 0 0 0 0 0.1 0"/>
<feBlend mode="normal" in2="shape" result="effect2_innerShadow_1059_11880"/>
</filter>
</defs>
</svg>
