<svg width="157" height="48" viewBox="0 0 157 48" fill="none" xmlns="http://www.w3.org/2000/svg">
<g filter="url(#filter0_di_526_6452)">
<path d="M43.7847 1.37146H4.96093C2.98169 1.37146 1.3772 2.96924 1.3772 4.94019V43.6015C1.3772 45.5724 2.98169 47.1702 4.96093 47.1702H43.7847C45.7639 47.1702 47.3684 45.5724 47.3684 43.6015V4.94019C47.3684 2.96924 45.7639 1.37146 43.7847 1.37146Z" fill="#2563EB"/>
<path d="M23.9171 10.3704C24.0608 10.308 24.2159 10.2758 24.3726 10.2758C24.5293 10.2758 24.6844 10.308 24.828 10.3704C30.442 12.814 35.7972 15.8096 40.8137 19.3125C40.9905 19.4359 41.1283 19.6068 41.2112 19.8054C41.2942 20.004 41.3187 20.2219 41.2819 20.4338C41.2451 20.6457 41.1486 20.8427 41.0037 21.0021C40.8587 21.1615 40.6711 21.2764 40.463 21.3337C35.255 22.766 30.2156 24.7486 25.4307 27.2476L25.4261 27.2506L24.91 27.5228C24.7448 27.6106 24.5606 27.6567 24.3733 27.6567C24.1861 27.6567 24.0018 27.6106 23.8367 27.5228C21.7852 26.431 19.6845 25.4337 17.541 24.5341V24.1953C17.541 23.9973 17.6428 23.8205 17.8021 23.7252C20.0936 22.3424 22.451 21.0711 24.8659 19.9157C25.1382 19.7854 25.3472 19.5526 25.4471 19.2689C25.5471 18.9851 25.5297 18.6734 25.3989 18.4024C25.2679 18.1313 25.0343 17.9231 24.7494 17.8237C24.4643 17.7241 24.1514 17.7414 23.8791 17.8717C21.3983 19.0589 18.9766 20.3651 16.6226 21.7857C16.2878 21.988 15.9988 22.2575 15.7744 22.5772C15.5497 22.8967 15.3945 23.2595 15.3185 23.6421C13.0129 22.7586 10.6651 21.9882 8.28365 21.3337C8.07551 21.2764 7.88801 21.1615 7.74302 21.0021C7.59801 20.8427 7.50151 20.6457 7.46474 20.4338C7.42798 20.2219 7.45248 20.004 7.53539 19.8054C7.6183 19.6068 7.75618 19.4359 7.93297 19.3125C12.949 15.8096 18.3036 12.8141 23.9171 10.3704Z" fill="white"/>
<path d="M25.9828 29.5214C29.7117 27.5375 33.6053 25.8775 37.6206 24.5599C37.824 26.6975 37.9546 28.8578 38.0078 31.0377C38.0133 31.2657 37.9496 31.4902 37.825 31.6818C37.7005 31.8733 37.5208 32.0229 37.3094 32.1111C33.0059 33.9009 28.8855 36.0991 25.0051 38.675C24.8181 38.7993 24.5983 38.8655 24.3735 38.8655C24.1488 38.8655 23.9291 38.7993 23.7421 38.675C19.8621 36.0991 15.7421 33.9009 11.4393 32.1111C11.2277 32.0232 11.0476 31.8735 10.9228 31.6821C10.7979 31.4905 10.734 31.266 10.7395 31.0377C10.7926 28.8578 10.9231 26.699 11.1266 24.5583C12.5207 25.0159 13.9008 25.5151 15.2649 26.055V27.9749C14.9369 28.163 14.6612 28.4298 14.4627 28.7507C14.2643 29.0717 14.1493 29.4369 14.1282 29.8134C14.107 30.1897 14.1805 30.5653 14.3419 30.9064C14.5032 31.2474 14.7475 31.543 15.0524 31.7663C14.9158 32.3408 14.7154 32.9047 14.4498 33.4444C15.1359 33.7664 15.8175 34.1005 16.4931 34.4436C16.874 33.6719 17.155 32.8551 17.3296 32.0127C17.7134 31.8428 18.0427 31.5703 18.2807 31.2257C18.5188 30.8809 18.6564 30.4773 18.6784 30.0594C18.7005 29.6417 18.606 29.2259 18.4053 28.8583C18.2048 28.4906 17.9061 28.1854 17.5421 27.9764V27.0013C19.3154 27.7733 21.0575 28.6145 22.7644 29.5229C23.2595 29.7862 23.8122 29.9241 24.3735 29.9241C24.9349 29.9241 25.4877 29.7862 25.9828 29.5229V29.5214Z" fill="white"/>
<path d="M12.9291 35.5516C13.5667 34.9181 14.0723 34.206 14.4472 33.4442C15.1349 33.7661 15.8165 34.1003 16.4922 34.4434C15.9954 35.4481 15.3357 36.3644 14.5399 37.1556C14.4356 37.2669 14.3099 37.3562 14.1702 37.4182C14.0306 37.4802 13.8798 37.5135 13.7269 37.5163C13.574 37.5189 13.4222 37.4909 13.2804 37.4338C13.1386 37.3768 13.0098 37.2919 12.9017 37.1842C12.7936 37.0766 12.7084 36.9484 12.6511 36.8072C12.5938 36.666 12.5657 36.5148 12.5684 36.3626C12.5711 36.2104 12.6046 36.0602 12.6668 35.9211C12.729 35.7819 12.8187 35.6569 12.9306 35.5531L12.9291 35.5516Z" fill="white"/>
</g>
<path d="M68.1635 29.9772H73.6299V33.185H63.9905V16.1255H68.1635V29.9772ZM77.719 18.2154C76.9869 18.2154 76.3849 18.0048 75.9131 17.5836C75.4577 17.1461 75.2299 16.6115 75.2299 15.9797C75.2299 15.3316 75.4577 14.797 75.9131 14.3758C76.3849 13.9383 76.9869 13.7196 77.719 13.7196C78.4349 13.7196 79.0205 13.9383 79.476 14.3758C79.9479 14.797 80.1838 15.3316 80.1838 15.9797C80.1838 16.6115 79.9479 17.1461 79.476 17.5836C79.0205 18.0048 78.4349 18.2154 77.719 18.2154ZM79.7934 19.6248V33.185H75.6203V19.6248H79.7934ZM91.1146 19.4791C92.7089 19.4791 93.978 19.9975 94.9215 21.0344C95.8814 22.055 96.3614 23.4646 96.3614 25.2628V33.185H92.2127V25.8218C92.2127 24.9144 91.9768 24.2098 91.5051 23.7074C91.0333 23.2052 90.3988 22.9541 89.6016 22.9541C88.8045 22.9541 88.17 23.2052 87.6982 23.7074C87.2263 24.2098 86.9904 24.9144 86.9904 25.8218V33.185H82.8174V19.6248H86.9904V21.4232C87.4135 20.8237 87.9828 20.3539 88.6987 20.0136C89.4146 19.6573 90.2198 19.4791 91.1146 19.4791ZM104.435 19.4305C105.395 19.4305 106.232 19.6248 106.948 20.0136C107.68 20.4026 108.242 20.9129 108.632 21.5447V19.6248H112.805V33.1607C112.805 34.4082 112.553 35.5342 112.049 36.5387C111.561 37.5593 110.804 38.3694 109.779 38.9687C108.77 39.5682 107.51 39.868 105.997 39.868C103.979 39.868 102.344 39.39 101.092 38.4341C99.8388 37.4944 99.1229 36.2146 98.9439 34.5945H103.068C103.198 35.1129 103.507 35.5179 103.995 35.8096C104.484 36.1174 105.085 36.2714 105.801 36.2714C106.664 36.2714 107.347 36.0203 107.851 35.5179C108.372 35.0319 108.632 34.2462 108.632 33.1607V31.241C108.225 31.8728 107.664 32.3912 106.948 32.7962C106.232 33.185 105.395 33.3794 104.435 33.3794C103.312 33.3794 102.295 33.096 101.384 32.5289C100.473 31.9456 99.7493 31.1276 99.2125 30.0744C98.6917 29.0053 98.4315 27.774 98.4315 26.3806C98.4315 24.9874 98.6917 23.7642 99.2125 22.7111C99.7493 21.6581 100.473 20.848 101.384 20.2811C102.295 19.714 103.312 19.4305 104.435 19.4305ZM108.632 26.4049C108.632 25.3681 108.339 24.5499 107.754 23.9505C107.184 23.3511 106.485 23.0514 105.655 23.0514C104.825 23.0514 104.117 23.3511 103.532 23.9505C102.962 24.5337 102.678 25.3438 102.678 26.3806C102.678 27.4176 102.962 28.2437 103.532 28.8594C104.117 29.4588 104.825 29.7586 105.655 29.7586C106.485 29.7586 107.184 29.4588 107.754 28.8594C108.339 28.2599 108.632 27.4418 108.632 26.4049ZM129.271 19.6248V33.185H125.097V31.3381C124.674 31.9375 124.097 32.4236 123.365 32.7962C122.649 33.1526 121.852 33.3309 120.973 33.3309C119.932 33.3309 119.013 33.1041 118.216 32.6504C117.419 32.1805 116.8 31.5083 116.361 30.6334C115.922 29.7586 115.702 28.7298 115.702 27.5472V19.6248H119.851V26.9882C119.851 27.8955 120.087 28.6002 120.558 29.1024C121.03 29.6046 121.665 29.8557 122.462 29.8557C123.275 29.8557 123.918 29.6046 124.39 29.1024C124.862 28.6002 125.097 27.8955 125.097 26.9882V19.6248H129.271ZM142.932 30.1717H136.539L135.514 33.185H131.145L137.344 16.1255H142.176L148.375 33.185H143.957L142.932 30.1717ZM141.858 26.9639L139.736 20.7184L137.637 26.9639H141.858ZM154.434 16.1255V33.185H150.26V16.1255H154.434Z" fill="#2563EB"/>
<defs>
<filter id="filter0_di_526_6452" x="1.26877" y="1.31725" width="46.2081" height="46.0156" filterUnits="userSpaceOnUse" color-interpolation-filters="sRGB">
<feFlood flood-opacity="0" result="BackgroundImageFix"/>
<feColorMatrix in="SourceAlpha" type="matrix" values="0 0 0 0 0 0 0 0 0 0 0 0 0 0 0 0 0 0 127 0" result="hardAlpha"/>
<feOffset dy="0.0542125"/>
<feGaussianBlur stdDeviation="0.0542125"/>
<feComposite in2="hardAlpha" operator="out"/>
<feColorMatrix type="matrix" values="0 0 0 0 0 0 0 0 0 0 0 0 0 0 0 0 0 0 0.1 0"/>
<feBlend mode="normal" in2="BackgroundImageFix" result="effect1_dropShadow_526_6452"/>
<feBlend mode="normal" in="SourceGraphic" in2="effect1_dropShadow_526_6452" result="shape"/>
<feColorMatrix in="SourceAlpha" type="matrix" values="0 0 0 0 0 0 0 0 0 0 0 0 0 0 0 0 0 0 127 0" result="hardAlpha"/>
<feOffset dy="0.0542125"/>
<feGaussianBlur stdDeviation="0.0813187"/>
<feComposite in2="hardAlpha" operator="arithmetic" k2="-1" k3="1"/>
<feColorMatrix type="matrix" values="0 0 0 0 0 0 0 0 0 0 0 0 0 0 0 0 0 0 0.1 0"/>
<feBlend mode="normal" in2="shape" result="effect2_innerShadow_526_6452"/>
</filter>
</defs>
</svg>
