<svg width="168" height="49" viewBox="0 0 168 49" fill="none" xmlns="http://www.w3.org/2000/svg">
<g clip-path="url(#clip0_214_10331)">
<path d="M25.0887 5.73892L21.1557 4.68506L17.8412 17.0547L14.8489 5.8873L10.9158 6.94116L14.1488 19.0067L6.09618 10.9541L3.21699 13.8332L12.0497 22.6661L1.04995 19.7187L-0.00390625 23.6517L12.0147 26.8721C11.8771 26.2786 11.8043 25.6602 11.8043 25.0248C11.8043 20.5272 15.4503 16.8812 19.948 16.8812C24.4456 16.8812 28.0916 20.5272 28.0916 25.0248C28.0916 25.6561 28.0197 26.2707 27.8838 26.8607L38.8065 29.7874L39.8603 25.8544L27.7939 22.6212L38.7944 19.6736L37.7405 15.7406L25.6746 18.9736L33.7272 10.921L30.848 8.0418L22.1378 16.7521L25.0887 5.73892Z" fill="#FF4405"/>
<path d="M27.8723 26.9065C27.5351 28.3321 26.8232 29.6128 25.8464 30.6389L33.7594 38.552L36.6386 35.6728L27.8723 26.9065Z" fill="#FF4405"/>
<path d="M25.7665 30.7216C24.7779 31.7313 23.5286 32.4848 22.1276 32.8731L25.007 43.6191L28.94 42.5652L25.7665 30.7216Z" fill="#FF4405"/>
<path d="M21.9807 32.9124C21.3307 33.0795 20.6494 33.1683 19.9473 33.1683C19.1951 33.1683 18.4667 33.0663 17.7752 32.8754L14.8932 43.6313L18.8262 44.6851L21.9807 32.9124Z" fill="#FF4405"/>
<path d="M17.6361 32.8358C16.2565 32.4282 15.0294 31.6651 14.061 30.6525L6.1285 38.585L9.00769 41.4642L17.6361 32.8358Z" fill="#FF4405"/>
<path d="M13.9956 30.5824C13.0438 29.5634 12.3505 28.2998 12.0205 26.8962L1.06214 29.8325L2.11599 33.7655L13.9956 30.5824Z" fill="#FF4405"/>
</g>
<path d="M50 33.6851V15.1631H53.699L61.151 25.1531C61.259 25.2791 61.394 25.4591 61.556 25.6931C61.718 25.9091 61.871 26.1251 62.015 26.3411C62.159 26.5571 62.258 26.7281 62.312 26.8541H62.447C62.447 26.5481 62.447 26.2511 62.447 25.9631C62.447 25.6571 62.447 25.3871 62.447 25.1531V15.1631H66.254V33.6851H62.555L54.941 23.4521C54.761 23.2001 54.572 22.9211 54.374 22.6151C54.176 22.3091 54.032 22.0751 53.942 21.9131H53.807C53.807 22.1831 53.807 22.4531 53.807 22.7231C53.807 22.9751 53.807 23.2181 53.807 23.4521V33.6851H50Z" fill="#0A0D12"/>
<path d="M68.9515 17.4041V14.1641H72.7045V17.4041H68.9515ZM68.9515 33.6851V19.4831H72.7045V33.6851H68.9515Z" fill="#0A0D12"/>
<path d="M81.5227 34.0091C79.9567 34.0091 78.6427 33.7481 77.5807 33.2261C76.5187 32.6861 75.7177 31.8671 75.1777 30.7691C74.6377 29.6711 74.3677 28.2761 74.3677 26.5841C74.3677 24.8741 74.6377 23.4791 75.1777 22.3991C75.7177 21.3011 76.5097 20.4911 77.5537 19.9691C78.6157 19.4291 79.9117 19.1591 81.4417 19.1591C82.8817 19.1591 84.0967 19.4201 85.0867 19.9421C86.0767 20.4461 86.8237 21.2381 87.3277 22.3181C87.8317 23.3801 88.0837 24.7571 88.0837 26.4491V27.4211H78.1747C78.2107 28.2491 78.3367 28.9511 78.5527 29.5271C78.7867 30.1031 79.1377 30.5351 79.6057 30.8231C80.0917 31.0931 80.7307 31.2281 81.5227 31.2281C81.9547 31.2281 82.3417 31.1741 82.6837 31.0661C83.0437 30.9581 83.3497 30.7961 83.6017 30.5801C83.8537 30.3641 84.0517 30.0941 84.1957 29.7701C84.3397 29.4461 84.4117 29.0771 84.4117 28.6631H88.0837C88.0837 29.5631 87.9217 30.3461 87.5977 31.0121C87.2737 31.6781 86.8237 32.2361 86.2477 32.6861C85.6717 33.1181 84.9787 33.4511 84.1687 33.6851C83.3767 33.9011 82.4947 34.0091 81.5227 34.0091ZM78.2287 25.0451H84.2227C84.2227 24.5051 84.1507 24.0371 84.0067 23.6411C83.8807 23.2451 83.7007 22.9211 83.4667 22.6691C83.2327 22.4171 82.9447 22.2371 82.6027 22.1291C82.2787 22.0031 81.9097 21.9401 81.4957 21.9401C80.8117 21.9401 80.2357 22.0571 79.7677 22.2911C79.3177 22.5071 78.9667 22.8491 78.7147 23.3171C78.4807 23.7671 78.3187 24.3431 78.2287 25.0451Z" fill="#0A0D12"/>
<path d="M93.9963 34.0091C93.0963 34.0091 92.3673 33.8471 91.8093 33.5231C91.2513 33.1991 90.8463 32.7671 90.5943 32.2271C90.3423 31.6691 90.2163 31.0571 90.2163 30.3911V22.3721H88.4613V19.4831H90.3513L91.0533 15.4331H93.9693V19.4831H96.5613V22.3721H93.9693V29.7701C93.9693 30.2021 94.0683 30.5351 94.2663 30.7691C94.4643 30.9851 94.7883 31.0931 95.2383 31.0931H96.5613V33.5771C96.3453 33.6491 96.0933 33.7121 95.8053 33.7661C95.5173 33.8381 95.2113 33.8921 94.8873 33.9281C94.5633 33.9821 94.2663 34.0091 93.9963 34.0091Z" fill="#0A0D12"/>
<path d="M96.7988 33.6851V32.0921L103.738 22.3721H97.2308V19.4831H109.165V21.0221L102.199 30.7691H109.435V33.6851H96.7988Z" fill="#0A0D12"/>
<path d="M116.578 34.0091C115.588 34.0091 114.697 33.9011 113.905 33.6851C113.113 33.4691 112.438 33.1721 111.88 32.7941C111.322 32.3981 110.89 31.9301 110.584 31.3901C110.296 30.8501 110.152 30.2381 110.152 29.5541C110.152 29.4821 110.152 29.4101 110.152 29.3381C110.152 29.2661 110.161 29.2121 110.179 29.1761H113.797C113.797 29.2121 113.797 29.2481 113.797 29.2841C113.797 29.3201 113.797 29.3561 113.797 29.3921C113.815 29.8421 113.959 30.2111 114.229 30.4991C114.499 30.7691 114.85 30.9671 115.282 31.0931C115.732 31.2191 116.2 31.2821 116.686 31.2821C117.118 31.2821 117.532 31.2461 117.928 31.1741C118.342 31.0841 118.684 30.9311 118.954 30.7151C119.242 30.4991 119.386 30.2201 119.386 29.8781C119.386 29.4461 119.206 29.1131 118.846 28.8791C118.504 28.6451 118.045 28.4561 117.469 28.3121C116.911 28.1681 116.299 28.0061 115.633 27.8261C115.021 27.6821 114.409 27.5201 113.797 27.3401C113.185 27.1421 112.627 26.8901 112.123 26.5841C111.637 26.2781 111.241 25.8821 110.935 25.3961C110.629 24.8921 110.476 24.2621 110.476 23.5061C110.476 22.7681 110.638 22.1291 110.962 21.5891C111.286 21.0311 111.727 20.5721 112.285 20.2121C112.861 19.8521 113.527 19.5911 114.283 19.4291C115.057 19.2491 115.885 19.1591 116.767 19.1591C117.595 19.1591 118.369 19.2491 119.089 19.4291C119.809 19.5911 120.439 19.8431 120.979 20.1851C121.519 20.5091 121.942 20.9231 122.248 21.4271C122.554 21.9131 122.707 22.4621 122.707 23.0741C122.707 23.2001 122.707 23.3171 122.707 23.4251C122.707 23.5331 122.698 23.6051 122.68 23.6411H119.089V23.4251C119.089 23.1011 118.99 22.8311 118.792 22.6151C118.594 22.3811 118.306 22.2011 117.928 22.0751C117.568 21.9491 117.127 21.8861 116.605 21.8861C116.245 21.8861 115.912 21.9131 115.606 21.9671C115.318 22.0211 115.066 22.1021 114.85 22.2101C114.634 22.3181 114.463 22.4531 114.337 22.6151C114.229 22.7591 114.175 22.9391 114.175 23.1551C114.175 23.4611 114.301 23.7131 114.553 23.9111C114.823 24.0911 115.174 24.2441 115.606 24.3701C116.038 24.4961 116.515 24.6311 117.037 24.7751C117.685 24.9551 118.36 25.1351 119.062 25.3151C119.782 25.4771 120.448 25.7021 121.06 25.9901C121.672 26.2781 122.167 26.6921 122.545 27.2321C122.923 27.7541 123.112 28.4651 123.112 29.3651C123.112 30.2291 122.941 30.9581 122.599 31.5521C122.275 32.1461 121.816 32.6231 121.222 32.9831C120.628 33.3431 119.935 33.6041 119.143 33.7661C118.351 33.9281 117.496 34.0091 116.578 34.0091Z" fill="#0A0D12"/>
<path d="M130.987 34.0091C129.475 34.0091 128.206 33.7481 127.18 33.2261C126.154 32.6861 125.371 31.8671 124.831 30.7691C124.309 29.6531 124.048 28.2581 124.048 26.5841C124.048 24.8741 124.309 23.4791 124.831 22.3991C125.371 21.3011 126.154 20.4821 127.18 19.9421C128.224 19.4021 129.493 19.1321 130.987 19.1321C131.959 19.1321 132.832 19.2491 133.606 19.4831C134.398 19.7171 135.082 20.0771 135.658 20.5631C136.234 21.0491 136.666 21.6521 136.954 22.3721C137.26 23.0741 137.413 23.9111 137.413 24.8831H133.66C133.66 24.2351 133.561 23.7041 133.363 23.2901C133.165 22.8761 132.859 22.5611 132.445 22.3451C132.049 22.1291 131.545 22.0211 130.933 22.0211C130.213 22.0211 129.628 22.1831 129.178 22.5071C128.728 22.8311 128.395 23.3081 128.179 23.9381C127.963 24.5681 127.855 25.3511 127.855 26.2871V26.9081C127.855 27.8261 127.963 28.6001 128.179 29.2301C128.413 29.8601 128.764 30.3371 129.232 30.6611C129.7 30.9671 130.312 31.1201 131.068 31.1201C131.68 31.1201 132.184 31.0121 132.58 30.7961C132.994 30.5801 133.309 30.2561 133.525 29.8241C133.741 29.3921 133.849 28.8701 133.849 28.2581H137.413C137.413 29.1761 137.26 29.9951 136.954 30.7151C136.666 31.4351 136.234 32.0381 135.658 32.5241C135.1 33.0101 134.425 33.3791 133.633 33.6311C132.841 33.8831 131.959 34.0091 130.987 34.0091Z" fill="#0A0D12"/>
<path d="M139.147 33.6851V14.1641H142.9V21.0491H143.089C143.395 20.6711 143.755 20.3471 144.169 20.0771C144.601 19.7891 145.078 19.5641 145.6 19.4021C146.14 19.2401 146.725 19.1591 147.355 19.1591C148.291 19.1591 149.11 19.3301 149.812 19.6721C150.514 20.0141 151.054 20.5541 151.432 21.2921C151.828 22.0301 152.026 22.9931 152.026 24.1811V33.6851H148.273V24.7751C148.273 24.3251 148.219 23.9471 148.111 23.6411C148.003 23.3171 147.841 23.0561 147.625 22.8581C147.427 22.6421 147.175 22.4891 146.869 22.3991C146.563 22.3091 146.221 22.2641 145.843 22.2641C145.285 22.2641 144.781 22.3991 144.331 22.6691C143.881 22.9391 143.53 23.3081 143.278 23.7761C143.026 24.2441 142.9 24.7841 142.9 25.3961V33.6851H139.147Z" fill="#0A0D12"/>
<path d="M160.762 34.0091C159.196 34.0091 157.882 33.7481 156.82 33.2261C155.758 32.6861 154.957 31.8671 154.417 30.7691C153.877 29.6711 153.607 28.2761 153.607 26.5841C153.607 24.8741 153.877 23.4791 154.417 22.3991C154.957 21.3011 155.749 20.4911 156.793 19.9691C157.855 19.4291 159.151 19.1591 160.681 19.1591C162.121 19.1591 163.336 19.4201 164.326 19.9421C165.316 20.4461 166.063 21.2381 166.567 22.3181C167.071 23.3801 167.323 24.7571 167.323 26.4491V27.4211H157.414C157.45 28.2491 157.576 28.9511 157.792 29.5271C158.026 30.1031 158.377 30.5351 158.845 30.8231C159.331 31.0931 159.97 31.2281 160.762 31.2281C161.194 31.2281 161.581 31.1741 161.923 31.0661C162.283 30.9581 162.589 30.7961 162.841 30.5801C163.093 30.3641 163.291 30.0941 163.435 29.7701C163.579 29.4461 163.651 29.0771 163.651 28.6631H167.323C167.323 29.5631 167.161 30.3461 166.837 31.0121C166.513 31.6781 166.063 32.2361 165.487 32.6861C164.911 33.1181 164.218 33.4511 163.408 33.6851C162.616 33.9011 161.734 34.0091 160.762 34.0091ZM157.468 25.0451H163.462C163.462 24.5051 163.39 24.0371 163.246 23.6411C163.12 23.2451 162.94 22.9211 162.706 22.6691C162.472 22.4171 162.184 22.2371 161.842 22.1291C161.518 22.0031 161.149 21.9401 160.735 21.9401C160.051 21.9401 159.475 22.0571 159.007 22.2911C158.557 22.5071 158.206 22.8491 157.954 23.3171C157.72 23.7671 157.558 24.3431 157.468 25.0451Z" fill="#0A0D12"/>
<defs>
<clipPath id="clip0_214_10331">
<rect width="40" height="48" fill="white" transform="translate(0 0.685059)"/>
</clipPath>
</defs>
</svg>
