<svg width="27" height="32" viewBox="0 0 27 32" fill="none" xmlns="http://www.w3.org/2000/svg">
<g clip-path="url(#clip0_2292_1107)">
<path d="M17.0591 3.36908L14.4371 2.6665L12.2275 10.9129L10.2327 3.468L7.61058 4.17057L9.76592 12.2142L4.39748 6.84583L2.47801 8.7653L8.36651 14.6538L1.03332 12.6889L0.33075 15.3109L8.34318 17.4578C8.25145 17.0622 8.20291 16.6499 8.20291 16.2263C8.20291 13.2279 10.6336 10.7972 13.632 10.7972C16.6304 10.7972 19.0611 13.2279 19.0611 16.2263C19.0611 16.6472 19.0131 17.0569 18.9225 17.4502L26.2044 19.4014L26.9069 16.7794L18.8626 14.6239L26.1963 12.6588L25.4937 10.0368L17.4497 12.1922L22.8181 6.82379L20.8987 4.90433L15.0919 10.7112L17.0591 3.36908Z" fill="#FF4405"/>
<path d="M18.9149 17.4808C18.6901 18.4312 18.2155 19.285 17.5643 19.9691L22.8396 25.2445L24.7591 23.325L18.9149 17.4808Z" fill="#FF4405"/>
<path d="M17.511 20.0242C16.8519 20.6973 16.0191 21.1997 15.0851 21.4585L17.0047 28.6226L19.6267 27.92L17.511 20.0242Z" fill="#FF4405"/>
<path d="M14.9871 21.4848C14.5538 21.5962 14.0996 21.6554 13.6315 21.6554C13.1301 21.6554 12.6445 21.5874 12.1835 21.4601L10.2621 28.6306L12.8841 29.3332L14.9871 21.4848Z" fill="#FF4405"/>
<path d="M12.0908 21.4337C11.171 21.1619 10.353 20.6532 9.70735 19.9781L4.41902 25.2665L6.33848 27.1859L12.0908 21.4337Z" fill="#FF4405"/>
<path d="M9.66377 19.9314C9.02924 19.252 8.56703 18.4096 8.34703 17.4739L1.04144 19.4314L1.74401 22.0534L9.66377 19.9314Z" fill="#FF4405"/>
</g>
<defs>
<clipPath id="clip0_2292_1107">
<rect width="26.6667" height="32" fill="white" transform="translate(0.333374)"/>
</clipPath>
</defs>
</svg>
