<svg width="122" height="28" viewBox="0 0 122 28" fill="none" xmlns="http://www.w3.org/2000/svg">
<path d="M24 13.5003V20.4003C24 22.3882 22.3882 24 20.4005 24H6.3005C6.79713 22.3518 7.69701 20.8022 8.99887 19.5003L14.9985 13.5003H7.09277C5.54325 13.5003 4.16878 12.5083 3.67735 11.0378L1.22924 3.68662L0 0H10.4991C17.9549 0 23.9987 6.04279 23.9987 13.5003H24Z" fill="#005DF2"/>
<path d="M35.28 21.5V6.7H41.66C42.9 6.7 43.9333 6.94 44.76 7.42C45.5867 7.9 46.2 8.52 46.6 9.28C47.0133 10.04 47.22 10.8333 47.22 11.66C47.22 12.5 47.0133 13.3 46.6 14.06C46.2 14.82 45.5867 15.4467 44.76 15.94C43.9333 16.42 42.9 16.66 41.66 16.66H38.74V21.5H35.28ZM41.64 9.72H38.74V13.66H41.64C42.3467 13.66 42.8733 13.4533 43.22 13.04C43.5667 12.6267 43.74 12.1733 43.74 11.68C43.74 11.1867 43.5667 10.74 43.22 10.34C42.8733 9.92667 42.3467 9.72 41.64 9.72ZM52.8022 10.7C53.4955 10.7 54.0555 10.8133 54.4822 11.04C54.9222 11.2667 55.2489 11.5 55.4622 11.74C55.6889 11.9667 55.8155 12.1067 55.8422 12.16H56.0022V10.9H59.4222V21.5H56.0022V20.24H55.8422C55.8155 20.2933 55.6889 20.44 55.4622 20.68C55.2489 20.92 54.9222 21.1533 54.4822 21.38C54.0555 21.5933 53.4955 21.7 52.8022 21.7C52.0289 21.7 51.3555 21.5467 50.7822 21.24C50.2089 20.92 49.7289 20.5 49.3422 19.98C48.9555 19.4467 48.6689 18.8533 48.4822 18.2C48.2955 17.5467 48.2022 16.88 48.2022 16.2C48.2022 15.52 48.2955 14.8533 48.4822 14.2C48.6689 13.5467 48.9555 12.96 49.3422 12.44C49.7289 11.9067 50.2089 11.4867 50.7822 11.18C51.3555 10.86 52.0289 10.7 52.8022 10.7ZM53.8822 13.44C53.3889 13.44 52.9755 13.58 52.6422 13.86C52.3089 14.1267 52.0622 14.4733 51.9022 14.9C51.7422 15.3133 51.6622 15.7467 51.6622 16.2C51.6622 16.6533 51.7422 17.0933 51.9022 17.52C52.0622 17.9333 52.3089 18.28 52.6422 18.56C52.9755 18.8267 53.3889 18.96 53.8822 18.96C54.3755 18.96 54.7822 18.8267 55.1022 18.56C55.4355 18.28 55.6822 17.9333 55.8422 17.52C56.0155 17.0933 56.1022 16.6533 56.1022 16.2C56.1022 15.7467 56.0155 15.3133 55.8422 14.9C55.6822 14.4733 55.4355 14.1267 55.1022 13.86C54.7822 13.58 54.3755 13.44 53.8822 13.44ZM61.862 25.4V10.9H65.282V12.16H65.442C65.4687 12.1067 65.5887 11.96 65.802 11.72C66.0154 11.48 66.342 11.2533 66.782 11.04C67.222 10.8133 67.782 10.7 68.462 10.7C69.2487 10.7 69.9287 10.86 70.502 11.18C71.0754 11.4867 71.5487 11.9067 71.922 12.44C72.3087 12.96 72.5954 13.5467 72.782 14.2C72.982 14.8533 73.082 15.52 73.082 16.2C73.082 16.88 72.982 17.5467 72.782 18.2C72.5954 18.8533 72.3087 19.4467 71.922 19.98C71.5487 20.5 71.0754 20.92 70.502 21.24C69.9287 21.5467 69.2487 21.7 68.462 21.7C67.782 21.7 67.222 21.5867 66.782 21.36C66.342 21.1333 66.0154 20.9067 65.802 20.68C65.5887 20.44 65.4687 20.2933 65.442 20.24H65.282V25.4H61.862ZM65.182 16.2C65.182 16.6533 65.262 17.0933 65.422 17.52C65.582 17.9333 65.8287 18.28 66.162 18.56C66.4954 18.8267 66.9087 18.96 67.402 18.96C67.8954 18.96 68.3087 18.8267 68.642 18.56C68.9754 18.28 69.222 17.9333 69.382 17.52C69.542 17.0933 69.622 16.6533 69.622 16.2C69.622 15.7467 69.542 15.3133 69.382 14.9C69.222 14.4733 68.9754 14.1267 68.642 13.86C68.3087 13.58 67.8954 13.44 67.402 13.44C66.9087 13.44 66.4954 13.58 66.162 13.86C65.8287 14.1267 65.582 14.4733 65.422 14.9C65.262 15.3133 65.182 15.7467 65.182 16.2ZM80.4414 21.7C79.4947 21.7 78.6747 21.5467 77.9814 21.24C77.2881 20.92 76.7081 20.5 76.2414 19.98C75.7881 19.4467 75.4481 18.8533 75.2214 18.2C75.0081 17.5467 74.9014 16.8733 74.9014 16.18C74.9014 15.5133 75.0081 14.8533 75.2214 14.2C75.4347 13.5467 75.7614 12.96 76.2014 12.44C76.6414 11.9067 77.2014 11.4867 77.8814 11.18C78.5747 10.86 79.3947 10.7 80.3414 10.7C81.3547 10.7 82.2414 10.92 83.0014 11.36C83.7747 11.7867 84.3747 12.42 84.8014 13.26C85.2414 14.0867 85.4614 15.0933 85.4614 16.28V17.08H78.3414C78.3814 17.6267 78.5747 18.1067 78.9214 18.52C79.2814 18.92 79.7881 19.12 80.4414 19.12C80.9347 19.12 81.3081 19.0333 81.5614 18.86C81.8281 18.6733 82.0081 18.4867 82.1014 18.3C82.1947 18.1133 82.2414 18.02 82.2414 18.02H85.3814C85.3814 18.02 85.3481 18.1467 85.2814 18.4C85.2147 18.64 85.0881 18.9467 84.9014 19.32C84.7147 19.68 84.4414 20.0467 84.0814 20.42C83.7214 20.78 83.2414 21.0867 82.6414 21.34C82.0547 21.58 81.3214 21.7 80.4414 21.7ZM78.3214 15.1H82.1814C82.1547 14.4733 81.9614 14 81.6014 13.68C81.2547 13.36 80.8147 13.2 80.2814 13.2C79.7614 13.2 79.3147 13.36 78.9414 13.68C78.5814 14 78.3747 14.4733 78.3214 15.1ZM87.5019 21.5V10.9H90.8819V12.5H91.0019C91.1085 12.22 91.2619 11.9467 91.4619 11.68C91.6752 11.4 91.9685 11.1667 92.3419 10.98C92.7152 10.7933 93.2085 10.7 93.8219 10.7C94.1152 10.7 94.3485 10.72 94.5219 10.76C94.6952 10.8 94.7819 10.82 94.7819 10.82V14.2C94.7819 14.2 94.6885 14.18 94.5019 14.14C94.3152 14.1 94.0552 14.08 93.7219 14.08C92.7752 14.08 92.0685 14.3333 91.6019 14.84C91.1485 15.3467 90.9219 16.1733 90.9219 17.32V21.5H87.5019ZM97.6091 21.5V13.62H95.9491V10.9H97.6091V10.22C97.6091 9.84667 97.6624 9.42667 97.7691 8.96C97.8757 8.48 98.0691 8.02667 98.3491 7.6C98.6291 7.16 99.0291 6.8 99.5491 6.52C100.069 6.24 100.749 6.1 101.589 6.1C102.029 6.1 102.389 6.13333 102.669 6.2C102.949 6.25333 103.089 6.28 103.089 6.28V8.64C103.089 8.64 103.016 8.63333 102.869 8.62C102.736 8.59333 102.602 8.58 102.469 8.58C101.936 8.58 101.562 8.72667 101.349 9.02C101.136 9.31333 101.029 9.71333 101.029 10.22V10.9H103.069V13.62H101.029V21.5H97.6091ZM104.889 21.5V6.3H108.309V21.5H104.889ZM111.686 25.4C111.313 25.4 111.013 25.3867 110.786 25.36C110.573 25.3333 110.466 25.32 110.466 25.32V22.6C110.466 22.6 110.553 22.6067 110.726 22.62C110.899 22.6333 111.119 22.64 111.386 22.64C111.973 22.64 112.459 22.5667 112.846 22.42C113.233 22.2867 113.566 22.0067 113.846 21.58L109.986 10.9H113.406L115.646 17.7L117.826 10.9H121.226L117.546 20.94C117.186 21.94 116.759 22.7667 116.266 23.42C115.786 24.0867 115.179 24.58 114.446 24.9C113.713 25.2333 112.793 25.4 111.686 25.4Z" fill="#181D27"/>
</svg>
