<svg width="158" height="36" viewBox="0 0 158 36" fill="none" xmlns="http://www.w3.org/2000/svg">
<g clip-path="url(#clip0_1059_11866)">
<path d="M30.8984 17.3575V26.229C30.8984 28.7848 28.8242 30.8571 26.2663 30.8571H8.1212C8.76031 28.738 9.91835 26.7457 11.5937 25.0718L19.3145 17.3575H9.14077C7.14671 17.3575 5.37793 16.0821 4.74551 14.1915L1.59507 4.73994L0.0131836 0H13.5243C23.1191 0 30.8968 7.7693 30.8968 17.3575H30.8984Z" fill="#595959"/>
<path d="M45.4146 27.6429V8.61432H53.6249C55.2206 8.61432 56.5504 8.9229 57.6142 9.54004C58.6781 10.1572 59.4673 10.9543 59.9821 11.9315C60.514 12.9086 60.78 13.9286 60.78 14.9915C60.78 16.0715 60.514 17.1 59.9821 18.0772C59.4673 19.0543 58.6781 19.8601 57.6142 20.4943C56.5504 21.1115 55.2206 21.42 53.6249 21.42H49.8672V27.6429H45.4146ZM53.5991 12.4972H49.8672V17.5629H53.5991C54.5086 17.5629 55.1863 17.2971 55.6324 16.7658C56.0786 16.2344 56.3016 15.6514 56.3016 15.0172C56.3016 14.3829 56.0786 13.8086 55.6324 13.2943C55.1863 12.7629 54.5086 12.4972 53.5991 12.4972ZM67.9636 13.7572C68.8558 13.7572 69.5765 13.9029 70.1256 14.1943C70.6918 14.4858 71.1122 14.7858 71.3867 15.0943C71.6785 15.3858 71.8414 15.5658 71.8757 15.6343H72.0816V14.0143H76.4828V27.6429H72.0816V26.0229H71.8757C71.8414 26.0914 71.6785 26.28 71.3867 26.5886C71.1122 26.8972 70.6918 27.1971 70.1256 27.4886C69.5765 27.7629 68.8558 27.9 67.9636 27.9C66.9685 27.9 66.1019 27.7029 65.3641 27.3086C64.6263 26.8972 64.0086 26.3572 63.511 25.6886C63.0134 25.0029 62.6445 24.24 62.4043 23.4C62.164 22.5601 62.0439 21.7029 62.0439 20.8286C62.0439 19.9543 62.164 19.0971 62.4043 18.2572C62.6445 17.4172 63.0134 16.6629 63.511 15.9943C64.0086 15.3087 64.6263 14.7687 65.3641 14.3743C66.1019 13.9629 66.9685 13.7572 67.9636 13.7572ZM69.3534 17.28C68.7186 17.28 68.1866 17.46 67.7577 17.82C67.3288 18.1629 67.0113 18.6086 66.8054 19.1572C66.5995 19.6886 66.4966 20.2458 66.4966 20.8286C66.4966 21.4114 66.5995 21.9771 66.8054 22.5258C67.0113 23.0571 67.3288 23.5029 67.7577 23.8629C68.1866 24.2058 68.7186 24.3772 69.3534 24.3772C69.9883 24.3772 70.5116 24.2058 70.9235 23.8629C71.3524 23.5029 71.6698 23.0571 71.8757 22.5258C72.0988 21.9771 72.2103 21.4114 72.2103 20.8286C72.2103 20.2458 72.0988 19.6886 71.8757 19.1572C71.6698 18.6086 71.3524 18.1629 70.9235 17.82C70.5116 17.46 69.9883 17.28 69.3534 17.28ZM79.6225 32.6572V14.0143H84.0237V15.6343H84.2296C84.264 15.5658 84.4184 15.3772 84.6929 15.0686C84.9675 14.76 85.3878 14.4686 85.954 14.1943C86.5202 13.9029 87.2409 13.7572 88.116 13.7572C89.1284 13.7572 90.0035 13.9629 90.7412 14.3743C91.4791 14.7687 92.0882 15.3087 92.5686 15.9943C93.0662 16.6629 93.4352 17.4172 93.6753 18.2572C93.9327 19.0971 94.0614 19.9543 94.0614 20.8286C94.0614 21.7029 93.9327 22.5601 93.6753 23.4C93.4352 24.24 93.0662 25.0029 92.5686 25.6886C92.0882 26.3572 91.4791 26.8972 90.7412 27.3086C90.0035 27.7029 89.1284 27.9 88.116 27.9C87.2409 27.9 86.5202 27.7544 85.954 27.4629C85.3878 27.1714 84.9675 26.8801 84.6929 26.5886C84.4184 26.28 84.264 26.0914 84.2296 26.0229H84.0237V32.6572H79.6225ZM83.895 20.8286C83.895 21.4114 83.9979 21.9771 84.2038 22.5258C84.4097 23.0571 84.7272 23.5029 85.1562 23.8629C85.5852 24.2058 86.1171 24.3772 86.7519 24.3772C87.3868 24.3772 87.9187 24.2058 88.3476 23.8629C88.7767 23.5029 89.094 23.0571 89.2999 22.5258C89.5058 21.9771 89.6088 21.4114 89.6088 20.8286C89.6088 20.2458 89.5058 19.6886 89.2999 19.1572C89.094 18.6086 88.7767 18.1629 88.3476 17.82C87.9187 17.46 87.3868 17.28 86.7519 17.28C86.1171 17.28 85.5852 17.46 85.1562 17.82C84.7272 18.1629 84.4097 18.6086 84.2038 19.1572C83.9979 19.6886 83.895 20.2458 83.895 20.8286ZM103.532 27.9C102.314 27.9 101.259 27.7029 100.366 27.3086C99.4742 26.8972 98.7278 26.3572 98.1272 25.6886C97.5438 25.0029 97.1063 24.24 96.8146 23.4C96.5401 22.5601 96.4027 21.6943 96.4027 20.8029C96.4027 19.9457 96.5401 19.0971 96.8146 18.2572C97.089 17.4172 97.5095 16.6629 98.0757 15.9943C98.6419 15.3087 99.3626 14.7687 100.238 14.3743C101.13 13.9629 102.185 13.7572 103.403 13.7572C104.707 13.7572 105.848 14.04 106.827 14.6058C107.822 15.1544 108.594 15.9686 109.143 17.0486C109.709 18.1115 109.992 19.4057 109.992 20.9315V21.96H100.83C100.881 22.6629 101.13 23.2801 101.576 23.8115C102.039 24.3258 102.691 24.5829 103.532 24.5829C104.167 24.5829 104.647 24.4714 104.973 24.2486C105.317 24.0086 105.548 23.7687 105.668 23.5286C105.788 23.2886 105.848 23.1686 105.848 23.1686H109.889C109.889 23.1686 109.846 23.3315 109.761 23.6572C109.675 23.9658 109.512 24.3601 109.272 24.84C109.031 25.3029 108.68 25.7744 108.216 26.2543C107.753 26.7172 107.135 27.1115 106.363 27.4372C105.608 27.7458 104.665 27.9 103.532 27.9ZM100.804 19.4143H105.771C105.737 18.6086 105.488 18 105.025 17.5886C104.579 17.1772 104.012 16.9715 103.326 16.9715C102.657 16.9715 102.082 17.1772 101.602 17.5886C101.138 18 100.872 18.6086 100.804 19.4143ZM112.618 27.6429V14.0143H116.968V16.0715H117.122C117.259 15.7115 117.457 15.3601 117.714 15.0172C117.989 14.6572 118.366 14.3572 118.847 14.1172C119.327 13.8771 119.962 13.7572 120.751 13.7572C121.129 13.7572 121.429 13.7829 121.652 13.8343C121.875 13.8858 121.987 13.9115 121.987 13.9115V18.2572C121.987 18.2572 121.866 18.2315 121.626 18.18C121.386 18.1286 121.051 18.1029 120.623 18.1029C119.404 18.1029 118.495 18.4286 117.894 19.08C117.311 19.7315 117.019 20.7943 117.019 22.2686V27.6429H112.618ZM125.625 27.6429V17.5115H123.489V14.0143H125.625V13.14C125.625 12.66 125.694 12.12 125.831 11.52C125.968 10.9029 126.217 10.32 126.577 9.77147C126.938 9.20575 127.452 8.7429 128.122 8.3829C128.791 8.0229 129.666 7.8429 130.747 7.8429C131.313 7.8429 131.776 7.88575 132.136 7.97147C132.497 8.04003 132.677 8.07432 132.677 8.07432V11.1086C132.677 11.1086 132.583 11.1 132.394 11.0829C132.223 11.0486 132.05 11.0315 131.879 11.0315C131.193 11.0315 130.712 11.22 130.438 11.5972C130.164 11.9743 130.026 12.4886 130.026 13.14V14.0143H132.651V17.5115H130.026V27.6429H125.625ZM134.993 27.6429V8.10004H139.395V27.6429H134.993ZM143.74 32.6572C143.26 32.6572 142.874 32.6401 142.582 32.6058C142.308 32.5714 142.17 32.5543 142.17 32.5543V29.0572C142.17 29.0572 142.282 29.0658 142.505 29.0829C142.728 29.1 143.011 29.1086 143.354 29.1086C144.11 29.1086 144.735 29.0144 145.233 28.8258C145.731 28.6544 146.16 28.2944 146.52 27.7458L141.553 14.0143H145.954L148.836 22.7572L151.642 14.0143H156.017L151.281 26.9229C150.818 28.2086 150.269 29.2715 149.634 30.1115C149.017 30.9687 148.235 31.6029 147.292 32.0143C146.349 32.4429 145.165 32.6572 143.74 32.6572Z" fill="#595959"/>
</g>
<defs>
<clipPath id="clip0_1059_11866">
<rect width="157" height="36" fill="white" transform="translate(0.0131836)"/>
</clipPath>
</defs>
</svg>
