<svg width="167" height="39" viewBox="0 0 167 39" fill="none" xmlns="http://www.w3.org/2000/svg">
<g clip-path="url(#clip0_230_325)">
<path d="M33.1333 19.0052V28.3695C33.1333 31.0673 30.9402 33.2548 28.2356 33.2548H9.05035C9.72609 31.0179 10.9505 28.9149 12.7219 27.148L20.8853 19.0052H10.1284C8.01999 19.0052 6.14981 17.6589 5.48115 15.6632L2.15011 5.68662L0.477539 0.68335H14.7632C24.908 0.68335 33.1315 8.88428 33.1315 19.0052H33.1333Z" fill="#005DF2"/>
<path d="M48.4814 29.8619V9.7762H57.1624C58.8496 9.7762 60.2556 10.1019 61.3805 10.7533C62.5053 11.4048 63.3398 12.2462 63.8841 13.2776C64.4464 14.3091 64.7277 15.3857 64.7277 16.5076C64.7277 17.6476 64.4464 18.7333 63.8841 19.7648C63.3398 20.7962 62.5053 21.6467 61.3805 22.3162C60.2556 22.9676 58.8496 23.2933 57.1624 23.2933H53.1893V29.8619H48.4814ZM57.1352 13.8748H53.1893V19.2219H57.1352C58.0968 19.2219 58.8133 18.9414 59.2851 18.3805C59.7568 17.8196 59.9926 17.2043 59.9926 16.5348C59.9926 15.8653 59.7568 15.2591 59.2851 14.7162C58.8133 14.1553 58.0968 13.8748 57.1352 13.8748ZM72.3231 15.2048C73.2665 15.2048 74.0284 15.3585 74.609 15.6662C75.2077 15.9739 75.6522 16.2905 75.9425 16.6162C76.2509 16.9239 76.4232 17.1139 76.4595 17.1862H76.6772V15.4762H81.3307V29.8619H76.6772V28.1519H76.4595C76.4232 28.2242 76.2509 28.4233 75.9425 28.7491C75.6522 29.0748 75.2077 29.3914 74.609 29.6991C74.0284 29.9885 73.2665 30.1333 72.3231 30.1333C71.2709 30.1333 70.3547 29.9253 69.5746 29.5091C68.7945 29.0748 68.1414 28.5048 67.6153 27.7991C67.0891 27.0753 66.6991 26.27 66.4451 25.3833C66.1911 24.4967 66.0641 23.5919 66.0641 22.6691C66.0641 21.7462 66.1911 20.8414 66.4451 19.9548C66.6991 19.0681 67.0891 18.2719 67.6153 17.5662C68.1414 16.8424 68.7945 16.2724 69.5746 15.8562C70.3547 15.4219 71.2709 15.2048 72.3231 15.2048ZM73.7926 18.9233C73.1214 18.9233 72.5589 19.1133 72.1054 19.4933C71.6519 19.8553 71.3162 20.3257 71.0985 20.9048C70.8808 21.4657 70.772 22.0539 70.772 22.6691C70.772 23.2842 70.8808 23.8814 71.0985 24.4605C71.3162 25.0214 71.6519 25.4919 72.1054 25.8719C72.5589 26.2339 73.1214 26.4148 73.7926 26.4148C74.4638 26.4148 75.0172 26.2339 75.4526 25.8719C75.9061 25.4919 76.2418 25.0214 76.4595 24.4605C76.6953 23.8814 76.8133 23.2842 76.8133 22.6691C76.8133 22.0539 76.6953 21.4657 76.4595 20.9048C76.2418 20.3257 75.9061 19.8553 75.4526 19.4933C75.0172 19.1133 74.4638 18.9233 73.7926 18.9233ZM84.6504 35.1548V15.4762H89.3038V17.1862H89.5215C89.5579 17.1139 89.7212 16.9148 90.0114 16.5891C90.3018 16.2633 90.7461 15.9557 91.3448 15.6662C91.9435 15.3585 92.7055 15.2048 93.6307 15.2048C94.7012 15.2048 95.6264 15.4219 96.4065 15.8562C97.1867 16.2724 97.8307 16.8424 98.3386 17.5662C98.8648 18.2719 99.2549 19.0681 99.5088 19.9548C99.7809 20.8414 99.917 21.7462 99.917 22.6691C99.917 23.5919 99.7809 24.4967 99.5088 25.3833C99.2549 26.27 98.8648 27.0753 98.3386 27.7991C97.8307 28.5048 97.1867 29.0748 96.4065 29.5091C95.6264 29.9253 94.7012 30.1333 93.6307 30.1333C92.7055 30.1333 91.9435 29.9796 91.3448 29.6719C90.7461 29.3643 90.3018 29.0567 90.0114 28.7491C89.7212 28.4233 89.5579 28.2242 89.5215 28.1519H89.3038V35.1548H84.6504ZM89.1678 22.6691C89.1678 23.2842 89.2766 23.8814 89.4943 24.4605C89.712 25.0214 90.0477 25.4919 90.5012 25.8719C90.9549 26.2339 91.5172 26.4148 92.1884 26.4148C92.8598 26.4148 93.4221 26.2339 93.8756 25.8719C94.3293 25.4919 94.6648 25.0214 94.8825 24.4605C95.1002 23.8814 95.2091 23.2842 95.2091 22.6691C95.2091 22.0539 95.1002 21.4657 94.8825 20.9048C94.6648 20.3257 94.3293 19.8553 93.8756 19.4933C93.4221 19.1133 92.8598 18.9233 92.1884 18.9233C91.5172 18.9233 90.9549 19.1133 90.5012 19.4933C90.0477 19.8553 89.712 20.3257 89.4943 20.9048C89.2766 21.4657 89.1678 22.0539 89.1678 22.6691ZM109.931 30.1333C108.642 30.1333 107.527 29.9253 106.583 29.5091C105.64 29.0748 104.851 28.5048 104.216 27.7991C103.599 27.0753 103.136 26.27 102.828 25.3833C102.538 24.4967 102.393 23.5828 102.393 22.6419C102.393 21.7371 102.538 20.8414 102.828 19.9548C103.118 19.0681 103.563 18.2719 104.161 17.5662C104.76 16.8424 105.522 16.2724 106.447 15.8562C107.391 15.4219 108.506 15.2048 109.795 15.2048C111.173 15.2048 112.38 15.5033 113.414 16.1005C114.466 16.6796 115.282 17.5391 115.863 18.6791C116.462 19.801 116.761 21.1671 116.761 22.7776V23.8633H107.073C107.128 24.6053 107.391 25.2567 107.862 25.8176C108.352 26.3605 109.042 26.6319 109.931 26.6319C110.602 26.6319 111.11 26.5142 111.455 26.2791C111.817 26.0257 112.062 25.7724 112.189 25.5191C112.316 25.2657 112.38 25.1391 112.38 25.1391H116.652C116.652 25.1391 116.607 25.311 116.516 25.6548C116.425 25.9805 116.253 26.3967 115.999 26.9033C115.745 27.3919 115.373 27.8896 114.883 28.3962C114.394 28.8848 113.74 29.301 112.924 29.6448C112.126 29.9705 111.128 30.1333 109.931 30.1333ZM107.046 21.1762H112.298C112.262 20.3257 111.999 19.6833 111.509 19.2491C111.037 18.8148 110.439 18.5976 109.713 18.5976C109.005 18.5976 108.398 18.8148 107.89 19.2491C107.4 19.6833 107.119 20.3257 107.046 21.1762ZM119.537 29.8619V15.4762H124.136V17.6476H124.3C124.445 17.2676 124.654 16.8967 124.926 16.5348C125.216 16.1548 125.615 15.8381 126.123 15.5848C126.631 15.3314 127.302 15.2048 128.137 15.2048C128.536 15.2048 128.853 15.2319 129.089 15.2862C129.325 15.3405 129.443 15.3676 129.443 15.3676V19.9548C129.443 19.9548 129.316 19.9276 129.062 19.8733C128.808 19.8191 128.454 19.7919 128.001 19.7919C126.713 19.7919 125.751 20.1357 125.116 20.8233C124.499 21.511 124.191 22.6328 124.191 24.1891V29.8619H119.537ZM133.29 29.8619V19.1676H131.031V15.4762H133.29V14.5533C133.29 14.0467 133.362 13.4767 133.508 12.8433C133.653 12.1919 133.916 11.5767 134.297 10.9976C134.678 10.4005 135.222 9.91191 135.93 9.53191C136.637 9.15191 137.562 8.96191 138.705 8.96191C139.304 8.96191 139.794 9.00715 140.175 9.09763C140.556 9.17 140.746 9.2062 140.746 9.2062V12.4091C140.746 12.4091 140.647 12.4 140.447 12.3819C140.266 12.3457 140.084 12.3276 139.903 12.3276C139.177 12.3276 138.668 12.5267 138.379 12.9248C138.089 13.3229 137.943 13.8657 137.943 14.5533V15.4762H140.719V19.1676H137.943V29.8619H133.29ZM143.195 29.8619V9.23334H147.849V29.8619H143.195ZM152.444 35.1548C151.936 35.1548 151.528 35.1367 151.219 35.1005C150.929 35.0642 150.784 35.0462 150.784 35.0462V31.3548C150.784 31.3548 150.902 31.3639 151.137 31.3819C151.373 31.4 151.672 31.4091 152.036 31.4091C152.834 31.4091 153.495 31.3096 154.022 31.1105C154.549 30.9296 155.002 30.5496 155.383 29.9705L150.131 15.4762H154.784L157.832 24.7048L160.798 15.4762H165.424L160.417 29.1019C159.927 30.4591 159.346 31.581 158.676 32.4676C158.022 33.3724 157.196 34.0419 156.199 34.4762C155.202 34.9285 153.95 35.1548 152.444 35.1548Z" fill="#181D27"/>
</g>
<defs>
<clipPath id="clip0_230_325">
<rect width="166" height="38" fill="white" transform="translate(0.477539 0.68335)"/>
</clipPath>
</defs>
</svg>
