<svg width="130" height="33" viewBox="0 0 130 33" fill="none" xmlns="http://www.w3.org/2000/svg">
<path fill-rule="evenodd" clip-rule="evenodd" d="M5.33333 4.68506C2.38781 4.68506 0 7.07287 0 10.0184V23.3517C0 26.2972 2.38781 28.6851 5.33333 28.6851H18.6667C21.6122 28.6851 24 26.2972 24 23.3517V10.0184C24 7.07287 21.6122 4.68506 18.6667 4.68506H5.33333ZM5.33333 8.01839C4.22876 8.01839 3.33333 8.91382 3.33333 10.0184V23.3517C3.33333 24.4563 4.22876 25.3517 5.33333 25.3517H10C11.1046 25.3517 12 24.4563 12 23.3517V10.0184C12 8.91382 11.1046 8.01839 10 8.01839H5.33333Z" fill="#5925DC"/>
<path d="M30.6668 22.6851V8.68506H35.8468C36.9668 8.68506 37.8935 8.87173 38.6268 9.24506C39.3602 9.61839 39.9068 10.1317 40.2668 10.7851C40.6268 11.4384 40.8068 12.1717 40.8068 12.9851C40.8068 13.7584 40.6335 14.4717 40.2868 15.1251C39.9402 15.7651 39.4002 16.2851 38.6668 16.6851C37.9335 17.0717 36.9935 17.2651 35.8468 17.2651H33.2268V22.6851H30.6668ZM33.2268 15.1851H35.6868C36.5802 15.1851 37.2202 14.9917 37.6068 14.6051C38.0068 14.2051 38.2068 13.6651 38.2068 12.9851C38.2068 12.2917 38.0068 11.7517 37.6068 11.3651C37.2202 10.9651 36.5802 10.7651 35.6868 10.7651H33.2268V15.1851Z" fill="#0A0D12"/>
<path d="M45.8075 22.9251C44.8475 22.9251 43.9808 22.7051 43.2075 22.2651C42.4475 21.8251 41.8408 21.2184 41.3875 20.4451C40.9475 19.6584 40.7275 18.7517 40.7275 17.7251C40.7275 16.6984 40.9541 15.7984 41.4075 15.0251C41.8608 14.2384 42.4675 13.6251 43.2275 13.1851C44.0008 12.7451 44.8675 12.5251 45.8275 12.5251C46.7741 12.5251 47.6275 12.7451 48.3875 13.1851C49.1608 13.6251 49.7675 14.2384 50.2075 15.0251C50.6608 15.7984 50.8875 16.6984 50.8875 17.7251C50.8875 18.7517 50.6608 19.6584 50.2075 20.4451C49.7675 21.2184 49.1608 21.8251 48.3875 22.2651C47.6141 22.7051 46.7541 22.9251 45.8075 22.9251ZM45.8075 20.7051C46.4741 20.7051 47.0541 20.4584 47.5475 19.9651C48.0408 19.4584 48.2875 18.7117 48.2875 17.7251C48.2875 16.7384 48.0408 15.9984 47.5475 15.5051C47.0541 14.9984 46.4808 14.7451 45.8275 14.7451C45.1475 14.7451 44.5608 14.9984 44.0675 15.5051C43.5875 15.9984 43.3475 16.7384 43.3475 17.7251C43.3475 18.7117 43.5875 19.4584 44.0675 19.9651C44.5608 20.4584 45.1408 20.7051 45.8075 20.7051Z" fill="#0A0D12"/>
<path d="M53.5648 22.6851L50.6648 12.7651H53.2048L54.9248 19.9051L56.9248 12.7651H59.7648L61.7648 19.9051L63.5048 12.7651H66.0448L63.1248 22.6851H60.4648L58.3448 15.2651L56.2248 22.6851H53.5648Z" fill="#0A0D12"/>
<path d="M70.9284 22.9251C69.9284 22.9251 69.0417 22.7117 68.2684 22.2851C67.4951 21.8584 66.8884 21.2584 66.4484 20.4851C66.0084 19.7117 65.7884 18.8184 65.7884 17.8051C65.7884 16.7784 66.0017 15.8651 66.4284 15.0651C66.8684 14.2651 67.4684 13.6451 68.2284 13.2051C69.0017 12.7517 69.9084 12.5251 70.9484 12.5251C71.9217 12.5251 72.7817 12.7384 73.5284 13.1651C74.2751 13.5917 74.8551 14.1784 75.2684 14.9251C75.6951 15.6584 75.9084 16.4784 75.9084 17.3851C75.9084 17.5317 75.9017 17.6851 75.8884 17.8451C75.8884 18.0051 75.8817 18.1717 75.8684 18.3451H68.3284C68.3817 19.1184 68.6484 19.7251 69.1284 20.1651C69.6217 20.6051 70.2151 20.8251 70.9084 20.8251C71.4284 20.8251 71.8617 20.7117 72.2084 20.4851C72.5684 20.2451 72.8351 19.9384 73.0084 19.5651H75.6084C75.4217 20.1917 75.1084 20.7651 74.6684 21.2851C74.2417 21.7917 73.7084 22.1917 73.0684 22.4851C72.4417 22.7784 71.7284 22.9251 70.9284 22.9251ZM70.9484 14.6051C70.3217 14.6051 69.7684 14.7851 69.2884 15.1451C68.8084 15.4917 68.5017 16.0251 68.3684 16.7451H73.3084C73.2684 16.0917 73.0284 15.5717 72.5884 15.1851C72.1484 14.7984 71.6017 14.6051 70.9484 14.6051Z" fill="#0A0D12"/>
<path d="M76.8615 22.6851V12.7651H79.1415L79.3815 14.6251C79.7415 13.9851 80.2282 13.4784 80.8415 13.1051C81.4682 12.7184 82.2015 12.5251 83.0415 12.5251V15.2251H82.3215C81.7615 15.2251 81.2615 15.3117 80.8215 15.4851C80.3815 15.6584 80.0349 15.9584 79.7815 16.3851C79.5415 16.8117 79.4215 17.4051 79.4215 18.1651V22.6851H76.8615Z" fill="#0A0D12"/>
<path d="M87.6912 22.9251C86.8112 22.9251 86.0379 22.7851 85.3712 22.5051C84.7046 22.2117 84.1712 21.8117 83.7712 21.3051C83.3712 20.7984 83.1312 20.2117 83.0512 19.5451H85.6312C85.7112 19.9317 85.9245 20.2651 86.2712 20.5451C86.6312 20.8117 87.0912 20.9451 87.6512 20.9451C88.2112 20.9451 88.6179 20.8317 88.8712 20.6051C89.1379 20.3784 89.2712 20.1184 89.2712 19.8251C89.2712 19.3984 89.0846 19.1117 88.7112 18.9651C88.3379 18.8051 87.8179 18.6517 87.1512 18.5051C86.7245 18.4117 86.2912 18.2984 85.8512 18.1651C85.4112 18.0317 85.0046 17.8651 84.6312 17.6651C84.2712 17.4517 83.9779 17.1851 83.7512 16.8651C83.5246 16.5317 83.4112 16.1251 83.4112 15.6451C83.4112 14.7651 83.7579 14.0251 84.4512 13.4251C85.1579 12.8251 86.1446 12.5251 87.4112 12.5251C88.5845 12.5251 89.5179 12.7984 90.2112 13.3451C90.9179 13.8917 91.3379 14.6451 91.4712 15.6051H89.0512C88.9045 14.8717 88.3512 14.5051 87.3912 14.5051C86.9112 14.5051 86.5379 14.5984 86.2712 14.7851C86.0179 14.9717 85.8912 15.2051 85.8912 15.4851C85.8912 15.7784 86.0846 16.0117 86.4712 16.1851C86.8579 16.3584 87.3712 16.5184 88.0112 16.6651C88.7046 16.8251 89.3379 17.0051 89.9112 17.2051C90.4979 17.3917 90.9645 17.6784 91.3112 18.0651C91.6579 18.4384 91.8312 18.9784 91.8312 19.6851C91.8446 20.2984 91.6846 20.8517 91.3512 21.3451C91.0179 21.8384 90.5379 22.2251 89.9112 22.5051C89.2845 22.7851 88.5445 22.9251 87.6912 22.9251Z" fill="#0A0D12"/>
<path d="M96.619 22.9251C95.379 22.9251 94.419 22.5384 93.739 21.7651C93.0724 20.9917 92.739 19.8584 92.739 18.3651V12.7651H95.279V18.1251C95.279 18.9784 95.4524 19.6317 95.799 20.0851C96.1457 20.5384 96.6924 20.7651 97.439 20.7651C98.1457 20.7651 98.7257 20.5117 99.179 20.0051C99.6457 19.4984 99.879 18.7917 99.879 17.8851V12.7651H102.439V22.6851H100.179L99.979 21.0051C99.6724 21.5917 99.2257 22.0584 98.639 22.4051C98.0657 22.7517 97.3924 22.9251 96.619 22.9251Z" fill="#0A0D12"/>
<path d="M103.867 22.6851V12.7651H106.147L106.387 14.6251C106.747 13.9851 107.234 13.4784 107.847 13.1051C108.474 12.7184 109.207 12.5251 110.047 12.5251V15.2251H109.327C108.767 15.2251 108.267 15.3117 107.827 15.4851C107.387 15.6584 107.04 15.9584 106.787 16.3851C106.547 16.8117 106.427 17.4051 106.427 18.1651V22.6851H103.867Z" fill="#0A0D12"/>
<path d="M114.562 19.7251C114.082 19.7251 113.636 19.6717 113.222 19.5651L112.482 20.3051C112.709 20.4251 113.016 20.5251 113.402 20.6051C113.789 20.6851 114.416 20.7651 115.282 20.8451C116.602 20.9651 117.562 21.2784 118.162 21.7851C118.762 22.2917 119.062 22.9917 119.062 23.8851C119.062 24.4717 118.902 25.0251 118.582 25.5451C118.262 26.0784 117.769 26.5051 117.102 26.8251C116.436 27.1584 115.582 27.3251 114.542 27.3251C113.129 27.3251 111.989 27.0584 111.122 26.5251C110.256 26.0051 109.822 25.2184 109.822 24.1651C109.822 23.2717 110.256 22.4984 111.122 21.8451C110.856 21.7251 110.622 21.5984 110.422 21.4651C110.236 21.3317 110.069 21.1917 109.922 21.0451V20.5851L111.662 18.7451C110.889 18.0651 110.502 17.1917 110.502 16.1251C110.502 15.4584 110.662 14.8517 110.982 14.3051C111.316 13.7584 111.782 13.3251 112.382 13.0051C112.982 12.6851 113.709 12.5251 114.562 12.5251C115.122 12.5251 115.642 12.6051 116.122 12.7651H119.882V14.3251L118.182 14.4451C118.449 14.9517 118.582 15.5117 118.582 16.1251C118.582 16.7917 118.422 17.3984 118.102 17.9451C117.782 18.4917 117.316 18.9251 116.702 19.2451C116.102 19.5651 115.389 19.7251 114.562 19.7251ZM114.562 17.7651C115.082 17.7651 115.509 17.6251 115.842 17.3451C116.189 17.0651 116.362 16.6651 116.362 16.1451C116.362 15.6251 116.189 15.2251 115.842 14.9451C115.509 14.6651 115.082 14.5251 114.562 14.5251C114.016 14.5251 113.576 14.6651 113.242 14.9451C112.909 15.2251 112.742 15.6251 112.742 16.1451C112.742 16.6651 112.909 17.0651 113.242 17.3451C113.576 17.6251 114.016 17.7651 114.562 17.7651ZM112.162 23.9051C112.162 24.3984 112.389 24.7651 112.842 25.0051C113.309 25.2584 113.876 25.3851 114.542 25.3851C115.182 25.3851 115.702 25.2517 116.102 24.9851C116.502 24.7317 116.702 24.3851 116.702 23.9451C116.702 23.5851 116.569 23.2851 116.302 23.0451C116.049 22.8051 115.536 22.6584 114.762 22.6051C114.216 22.5651 113.709 22.5051 113.242 22.4251C112.856 22.6384 112.576 22.8717 112.402 23.1251C112.242 23.3784 112.162 23.6384 112.162 23.9051Z" fill="#0A0D12"/>
<path d="M124.978 22.9251C123.978 22.9251 123.092 22.7117 122.318 22.2851C121.545 21.8584 120.938 21.2584 120.498 20.4851C120.058 19.7117 119.838 18.8184 119.838 17.8051C119.838 16.7784 120.052 15.8651 120.478 15.0651C120.918 14.2651 121.518 13.6451 122.278 13.2051C123.052 12.7517 123.958 12.5251 124.998 12.5251C125.972 12.5251 126.832 12.7384 127.578 13.1651C128.325 13.5917 128.905 14.1784 129.318 14.9251C129.745 15.6584 129.958 16.4784 129.958 17.3851C129.958 17.5317 129.952 17.6851 129.938 17.8451C129.938 18.0051 129.932 18.1717 129.918 18.3451H122.378C122.432 19.1184 122.698 19.7251 123.178 20.1651C123.672 20.6051 124.265 20.8251 124.958 20.8251C125.478 20.8251 125.912 20.7117 126.258 20.4851C126.618 20.2451 126.885 19.9384 127.058 19.5651H129.658C129.472 20.1917 129.158 20.7651 128.718 21.2851C128.292 21.7917 127.758 22.1917 127.118 22.4851C126.492 22.7784 125.778 22.9251 124.978 22.9251ZM124.998 14.6051C124.372 14.6051 123.818 14.7851 123.338 15.1451C122.858 15.4917 122.552 16.0251 122.418 16.7451H127.358C127.318 16.0917 127.078 15.5717 126.638 15.1851C126.198 14.7984 125.652 14.6051 124.998 14.6051Z" fill="#0A0D12"/>
</svg>
