<svg width="192" height="32" viewBox="0 0 192 32" fill="none" xmlns="http://www.w3.org/2000/svg">
<path d="M176.627 0.680045C176.467 1.08004 175.307 4.28003 174.027 7.80001C172.747 11.32 171.587 14.52 171.427 14.88C171.187 15.52 171.387 15.6 173.227 15.6C175.547 15.6 177.827 14.68 178.627 13.44C178.947 12.96 180.027 10.28 181.067 7.40001C182.787 2.64004 182.867 2.12004 182.347 1.20004C181.867 0.320047 181.507 0.200047 179.347 0.0800486C177.307 4.86374e-05 176.867 0.0800486 176.627 0.680045Z" fill="#595959"/>
<path d="M186.147 0.800046C185.467 1.20004 184.667 1.96004 184.387 2.44004C183.667 3.80003 180.427 12.76 180.427 13.44C180.427 14.72 181.947 15.6 184.187 15.6H186.347L187.627 12.08C188.347 10.16 189.587 6.68002 190.467 4.28003L191.987 4.95911e-05H189.707C188.147 4.95911e-05 187.027 0.240049 186.147 0.800046Z" fill="#595959"/>
<path d="M0.0266113 15.8002V24.8002H1.42661H2.82661V21.4002V18.0002H7.58661C11.8266 18.0002 12.4266 17.9202 13.6266 17.0802C17.3866 14.5202 17.1866 9.64024 13.2266 7.56025C12.0666 6.92025 10.9066 6.80025 5.94661 6.80025H0.0266113V15.8002ZM11.8266 10.0802C13.7466 10.9602 13.6666 13.9602 11.6266 15.0002C10.8266 15.4002 9.26661 15.6002 6.62661 15.6002H2.82661V12.6002V9.60024H6.82661C8.98661 9.60024 11.2666 9.80024 11.8266 10.0802Z" fill="#595959"/>
<path d="M24.4265 15.8002V24.8002H25.8265H27.1865L27.3065 21.4802L27.4265 18.2002L30.3065 18.0802L33.1865 17.9602L35.1065 20.4402C38.5465 24.9202 38.4665 24.8802 40.1465 24.7202L41.6665 24.6002L39.1865 21.2802C37.8265 19.4802 36.7865 17.9202 36.8665 17.8802C36.9465 17.8002 37.5465 17.4402 38.1465 17.0402C40.7465 15.4402 41.5465 12.0402 39.9065 9.56024C38.3465 7.20025 36.9865 6.80025 30.3465 6.80025H24.4265V15.8002ZM36.1465 10.0402C37.4665 10.6402 38.1065 12.1202 37.6265 13.3602C37.0265 15.0402 35.3065 15.6002 31.0265 15.6002H27.2265V12.6002V9.60024H31.2265C33.3865 9.60024 35.6265 9.80024 36.1465 10.0402Z" fill="#595959"/>
<path d="M49.9064 8.56014C50.7464 9.52014 52.5064 11.5201 53.7864 12.9601L56.1464 15.6401L55.3464 16.5201C54.9464 17.0001 53.3064 18.8401 51.7864 20.6001C47.9864 24.8801 48.0264 24.8001 50.1064 24.8001C51.7864 24.8001 51.9064 24.7201 54.7864 21.2001L57.7464 17.5601L58.6664 18.4401C59.1464 18.8801 60.6264 20.5201 61.9064 22.0401C64.1864 24.7201 64.2664 24.8001 66.1864 24.8001H68.1064L65.1864 21.5601C63.5464 19.7601 61.7464 17.7201 61.1864 17.0401L60.1064 15.7601L62.7064 12.8001C64.1064 11.1601 65.8264 9.12014 66.4664 8.28015L67.7064 6.80015H65.9464C64.1864 6.80015 64.1464 6.84015 61.3064 10.4001L58.4264 14.0001L55.1864 10.4001C52.0264 6.88015 51.9464 6.80015 50.1864 6.80015H48.3464L49.9064 8.56014Z" fill="#595959"/>
<path d="M72.8267 7.00026C72.8267 7.12025 74.8267 9.64024 77.2267 12.6402L81.6267 18.0402V21.4402V24.8002H83.0267H84.4267V21.3602V17.9202L88.3467 12.8402C93.4267 6.32026 93.1866 6.80026 91.2667 6.80026C89.6667 6.80026 89.5867 6.88026 86.5467 11.0002C84.8267 13.2802 83.3067 15.1602 83.1467 15.2002C82.9867 15.2002 81.3867 13.3202 79.6267 11.0002L76.3467 6.80026H74.5867C73.6267 6.80026 72.8267 6.88026 72.8267 7.00026Z" fill="#595959"/>
<path d="M110.027 15.4402C107.707 20.2002 105.787 24.2802 105.707 24.4402C105.627 24.6402 106.227 24.8002 106.987 24.8002C108.347 24.8002 108.507 24.6402 109.507 22.6002L110.587 20.3602L115.827 20.4802L121.027 20.6002L122.147 22.6802C123.187 24.6402 123.387 24.8002 124.667 24.8002C125.467 24.8002 126.027 24.6402 125.947 24.4402C125.907 24.2402 123.947 20.2002 121.667 15.4402L117.467 6.80025H115.867H114.227L110.027 15.4402ZM119.587 17.6802C119.627 17.8802 117.907 18.0002 115.827 18.0002C113.587 18.0002 112.027 17.8402 112.027 17.6002C112.027 17.4002 112.867 15.4802 113.947 13.3602L115.827 9.52024L117.707 13.4802C118.747 15.6402 119.587 17.5202 119.587 17.6802Z" fill="#595959"/>
<path d="M133.626 8.20025V9.60024H135.826H138.026V15.8002V22.0002H135.826H133.626V23.4002V24.8002H139.626H145.626V23.4002V22.0002H143.226H140.826V15.8002V9.60024H143.226H145.626V8.20025V6.80025H139.626H133.626V8.20025Z" fill="#595959"/>
<path d="M171.026 16.8801C169.386 21.2801 165.626 31.72 165.626 31.84C165.626 31.92 166.666 32 167.946 32C170.786 32 172.626 30.96 173.506 28.88C173.826 28.08 174.826 25.48 175.666 23.08C177.746 17.3201 177.346 16.4001 172.906 16.4001C171.906 16.4001 171.106 16.6001 171.026 16.8801Z" fill="#595959"/>
<path d="M181.026 16.9601C180.386 17.2401 179.546 17.8401 179.186 18.2401C178.426 19.1201 174.826 28.84 174.826 30C174.826 31.36 175.946 32 178.386 32H180.706L183.346 24.64C184.826 20.6001 186.026 17.0801 186.026 16.8401C186.026 16.2401 182.506 16.3201 181.026 16.9601Z" fill="#595959"/>
</svg>
