<svg width="192" height="32" viewBox="0 0 192 32" fill="none" xmlns="http://www.w3.org/2000/svg">
<g clip-path="url(#clip0_3140_14059)">
<path d="M176.627 0.679636C176.467 1.07963 175.307 4.27962 174.027 7.7996C172.747 11.3196 171.587 14.5196 171.427 14.8796C171.187 15.5196 171.387 15.5996 173.227 15.5996C175.547 15.5996 177.827 14.6796 178.627 13.4396C178.947 12.9596 180.027 10.2796 181.067 7.3996C182.787 2.63963 182.867 2.11963 182.347 1.19963C181.867 0.319638 181.507 0.199638 179.347 0.0796392C177.307 -0.00036075 176.867 0.0796393 176.627 0.679636Z" fill="#101010"/>
<path d="M186.147 0.799996C185.467 1.19999 184.667 1.95999 184.387 2.43999C183.667 3.79998 180.427 12.7599 180.427 13.4399C180.427 14.7199 181.947 15.6 184.187 15.6H186.347L187.627 12.08C188.347 10.16 189.587 6.67997 190.467 4.27998L191.987 0H189.707C188.147 0 187.027 0.239999 186.147 0.799996Z" fill="#101010"/>
<path d="M0.0266113 15.7998V24.7998H1.42661H2.82661V21.3998V17.9998H7.58661C11.8266 17.9998 12.4266 17.9198 13.6266 17.0798C17.3866 14.5198 17.1866 9.63979 13.2266 7.5598C12.0666 6.9198 10.9066 6.7998 5.94661 6.7998H0.0266113V15.7998ZM11.8266 10.0798C13.7466 10.9598 13.6666 13.9598 11.6266 14.9998C10.8266 15.3998 9.26661 15.5998 6.62661 15.5998H2.82661V12.5998V9.59979H6.82661C8.98661 9.59979 11.2666 9.79979 11.8266 10.0798Z" fill="#101010"/>
<path d="M24.4265 15.7998V24.7998H25.8265H27.1865L27.3065 21.4798L27.4265 18.1998L30.3065 18.0798L33.1865 17.9598L35.1065 20.4398C38.5465 24.9198 38.4665 24.8798 40.1465 24.7198L41.6665 24.5998L39.1865 21.2798C37.8265 19.4798 36.7865 17.9198 36.8665 17.8798C36.9465 17.7998 37.5465 17.4398 38.1465 17.0398C40.7465 15.4398 41.5465 12.0398 39.9065 9.55979C38.3465 7.1998 36.9865 6.7998 30.3465 6.7998H24.4265V15.7998ZM36.1465 10.0398C37.4665 10.6398 38.1065 12.1198 37.6265 13.3598C37.0265 15.0398 35.3065 15.5998 31.0265 15.5998H27.2265V12.5998V9.59979H31.2265C33.3865 9.59979 35.6265 9.79979 36.1465 10.0398Z" fill="#101010"/>
<path d="M49.9064 8.55979C50.7464 9.51979 52.5064 11.5198 53.7864 12.9598L56.1464 15.6398L55.3464 16.5198C54.9464 16.9998 53.3064 18.8398 51.7864 20.5998C47.9864 24.8798 48.0264 24.7998 50.1064 24.7998C51.7864 24.7998 51.9064 24.7198 54.7864 21.1998L57.7464 17.5598L58.6664 18.4398C59.1464 18.8798 60.6264 20.5198 61.9064 22.0398C64.1864 24.7198 64.2664 24.7998 66.1864 24.7998H68.1064L65.1864 21.5598C63.5464 19.7598 61.7464 17.7198 61.1864 17.0398L60.1064 15.7598L62.7064 12.7998C64.1064 11.1598 65.8264 9.1198 66.4664 8.27981L67.7064 6.7998H65.9464C64.1864 6.7998 64.1464 6.8398 61.3064 10.3998L58.4264 13.9998L55.1864 10.3998C52.0264 6.8798 51.9464 6.7998 50.1864 6.7998H48.3464L49.9064 8.55979Z" fill="#101010"/>
<path d="M72.8267 6.9999C72.8267 7.11989 74.8267 9.63988 77.2267 12.6398L81.6267 18.0398V21.4398V24.7998H83.0267H84.4267V21.3598V17.9198L88.3467 12.8398C93.4267 6.3199 93.1866 6.7999 91.2667 6.7999C89.6667 6.7999 89.5867 6.8799 86.5467 10.9998C84.8267 13.2798 83.3067 15.1598 83.1467 15.1998C82.9867 15.1998 81.3867 13.3198 79.6267 10.9998L76.3467 6.7999H74.5867C73.6267 6.7999 72.8267 6.8799 72.8267 6.9999Z" fill="#101010"/>
<path d="M110.027 15.4398C107.707 20.1998 105.787 24.2798 105.707 24.4398C105.627 24.6398 106.227 24.7998 106.987 24.7998C108.347 24.7998 108.507 24.6398 109.507 22.5998L110.587 20.3598L115.827 20.4798L121.027 20.5998L122.147 22.6798C123.187 24.6398 123.387 24.7998 124.667 24.7998C125.467 24.7998 126.027 24.6398 125.947 24.4398C125.907 24.2398 123.947 20.1998 121.667 15.4398L117.467 6.7998H115.867H114.227L110.027 15.4398ZM119.587 17.6798C119.627 17.8798 117.907 17.9998 115.827 17.9998C113.587 17.9998 112.027 17.8398 112.027 17.5998C112.027 17.3998 112.867 15.4798 113.947 13.3598L115.827 9.51979L117.707 13.4798C118.747 15.6398 119.587 17.5198 119.587 17.6798Z" fill="#101010"/>
<path d="M133.626 8.1998V9.59979H135.826H138.026V15.7998V21.9998H135.826H133.626V23.3998V24.7998H139.626H145.626V23.3998V21.9998H143.226H140.826V15.7998V9.59979H143.226H145.626V8.1998V6.7998H139.626H133.626V8.1998Z" fill="#101010"/>
<path d="M171.026 16.8804C169.386 21.2804 165.626 31.7203 165.626 31.8403C165.626 31.9203 166.666 32.0003 167.946 32.0003C170.786 32.0003 172.626 30.9603 173.506 28.8803C173.826 28.0803 174.826 25.4803 175.666 23.0803C177.746 17.3204 177.346 16.4004 172.906 16.4004C171.906 16.4004 171.106 16.6004 171.026 16.8804Z" fill="#101010"/>
<path d="M181.026 16.9597C180.386 17.2397 179.546 17.8397 179.186 18.2397C178.426 19.1197 174.826 28.8396 174.826 29.9996C174.826 31.3596 175.946 31.9996 178.386 31.9996H180.706L183.346 24.6396C184.826 20.5997 186.026 17.0797 186.026 16.8397C186.026 16.2397 182.506 16.3197 181.026 16.9597Z" fill="#101010"/>
</g>
<defs>
<clipPath id="clip0_3140_14059">
<rect width="192" height="32" fill="white"/>
</clipPath>
</defs>
</svg>
