<svg width="217" height="37" viewBox="0 0 217 37" fill="none" xmlns="http://www.w3.org/2000/svg">
<path d="M199.197 1.44835C199.017 1.89835 197.712 5.49833 196.272 9.45832C194.832 13.4183 193.527 17.0183 193.347 17.4233C193.077 18.1433 193.302 18.2333 195.372 18.2333C197.982 18.2333 200.547 17.1983 201.447 15.8033C201.807 15.2633 203.022 12.2483 204.192 9.00832C206.127 3.65334 206.217 3.06835 205.632 2.03335C205.092 1.04335 204.687 0.908354 202.257 0.773355C199.962 0.683355 199.467 0.773355 199.197 1.44835Z" fill="black"/>
<path d="M209.908 1.58335C209.143 2.03335 208.243 2.88835 207.928 3.42834C207.118 4.95834 203.473 15.0383 203.473 15.8033C203.473 17.2433 205.183 18.2333 207.703 18.2333H210.133L211.573 14.2733C212.383 12.1133 213.778 8.19832 214.768 5.49833L216.478 0.683357H213.913C212.158 0.683357 210.898 0.953356 209.908 1.58335Z" fill="black"/>
<path d="M0.522461 18.4585V28.5835H2.09746H3.67246V24.7585V20.9335H9.02746C13.7975 20.9335 14.4725 20.8435 15.8225 19.8985C20.0525 17.0185 19.8275 11.5286 15.3725 9.18858C14.0675 8.46859 12.7625 8.33359 7.18246 8.33359H0.522461V18.4585ZM13.7975 12.0236C15.9575 13.0136 15.8675 16.3885 13.5725 17.5585C12.6725 18.0085 10.9175 18.2335 7.94746 18.2335H3.67246V14.8586V11.4836H8.17246C10.6025 11.4836 13.1675 11.7086 13.7975 12.0236Z" fill="black"/>
<path d="M27.9725 18.4585V28.5835H29.5475H31.0775L31.2125 24.8485L31.3475 21.1585L34.5875 21.0235L37.8275 20.8885L39.9875 23.6785C43.8575 28.7185 43.7675 28.6735 45.6575 28.4935L47.3675 28.3585L44.5775 24.6235C43.0475 22.5985 41.8775 20.8435 41.9675 20.7985C42.0575 20.7085 42.7325 20.3035 43.4075 19.8535C46.3325 18.0535 47.2325 14.2286 45.3875 11.4386C43.6325 8.78358 42.1025 8.33359 34.6325 8.33359H27.9725V18.4585ZM41.1575 11.9786C42.6425 12.6536 43.3625 14.3186 42.8225 15.7136C42.1475 17.6035 40.2125 18.2335 35.3975 18.2335H31.1225V14.8586V11.4836H35.6225C38.0525 11.4836 40.5725 11.7086 41.1575 11.9786Z" fill="black"/>
<path d="M56.6374 10.3135C57.5824 11.3935 59.5624 13.6434 61.0024 15.2634L63.6574 18.2784L62.7574 19.2684C62.3074 19.8084 60.4624 21.8784 58.7524 23.8584C54.4774 28.6734 54.5224 28.5834 56.8624 28.5834C58.7524 28.5834 58.8874 28.4934 62.1274 24.5334L65.4574 20.4384L66.4924 21.4284C67.0324 21.9234 68.6974 23.7684 70.1374 25.4784C72.7024 28.4934 72.7924 28.5834 74.9524 28.5834H77.1124L73.8274 24.9384C71.9824 22.9134 69.9574 20.6184 69.3274 19.8534L68.1124 18.4134L71.0374 15.0834C72.6124 13.2385 74.5474 10.9435 75.2674 9.99846L76.6624 8.33347H74.6824C72.7024 8.33347 72.6574 8.37847 69.4624 12.3835L66.2224 16.4334L62.5774 12.3835C59.0224 8.42347 58.9324 8.33347 56.9524 8.33347H54.8824L56.6374 10.3135Z" fill="black"/>
<path d="M82.4225 8.55858C82.4225 8.69358 84.6725 11.5286 87.3725 14.9036L92.3225 20.9785V24.8035V28.5835H93.8975H95.4725V24.7135V20.8435L99.8825 15.1286C105.597 7.79359 105.327 8.33359 103.167 8.33359C101.367 8.33359 101.277 8.42359 97.8575 13.0586C95.9225 15.6236 94.2125 17.7385 94.0325 17.7835C93.8525 17.7835 92.0525 15.6686 90.0725 13.0586L86.3825 8.33359H84.4025C83.3225 8.33359 82.4225 8.42359 82.4225 8.55858Z" fill="black"/>
<path d="M124.273 18.0535C121.663 23.4085 119.503 27.9985 119.413 28.1785C119.323 28.4035 119.998 28.5835 120.853 28.5835C122.383 28.5835 122.563 28.4035 123.688 26.1085L124.903 23.5885L130.798 23.7235L136.648 23.8585L137.908 26.1985C139.078 28.4035 139.303 28.5835 140.743 28.5835C141.643 28.5835 142.273 28.4035 142.183 28.1785C142.138 27.9535 139.933 23.4085 137.368 18.0535L132.643 8.33359H130.843H128.998L124.273 18.0535ZM135.028 20.5735C135.073 20.7985 133.138 20.9335 130.798 20.9335C128.278 20.9335 126.523 20.7535 126.523 20.4835C126.523 20.2585 127.468 18.0985 128.683 15.7136L130.798 11.3936L132.913 15.8486C134.083 18.2785 135.028 20.3935 135.028 20.5735Z" fill="black"/>
<path d="M150.822 9.90858V11.4836H153.297H155.772V18.4585V25.4335H153.297H150.822V27.0085V28.5835H157.572H164.322V27.0085V25.4335H161.622H158.922V18.4585V11.4836H161.622H164.322V9.90858V8.33359H157.572H150.822V9.90858Z" fill="black"/>
<path d="M192.897 19.6734C191.052 24.6234 186.822 36.3684 186.822 36.5034C186.822 36.5934 187.992 36.6833 189.432 36.6833C192.627 36.6833 194.697 35.5134 195.687 33.1734C196.047 32.2734 197.172 29.3484 198.117 26.6484C200.457 20.1684 200.007 19.1334 195.012 19.1334C193.887 19.1334 192.987 19.3584 192.897 19.6734Z" fill="black"/>
<path d="M204.147 19.7634C203.427 20.0784 202.482 20.7534 202.077 21.2034C201.222 22.1934 197.172 33.1284 197.172 34.4334C197.172 35.9634 198.432 36.6833 201.177 36.6833H203.787L206.757 28.4034C208.422 23.8584 209.772 19.8984 209.772 19.6284C209.772 18.9534 205.812 19.0434 204.147 19.7634Z" fill="black"/>
</svg>
