<svg width="134" height="33" viewBox="0 0 134 33" fill="none" xmlns="http://www.w3.org/2000/svg">
<path fill-rule="evenodd" clip-rule="evenodd" d="M12.2186 22.8227C12.7713 22.1594 13.5901 21.7759 14.4535 21.7759H26.1818C29.3951 21.7759 32 19.171 32 15.9577V13.0487C32 9.83536 29.3951 7.23047 26.1818 7.23047H23.908C23.0446 7.23047 22.2259 7.61395 21.6732 8.27721L19.7814 10.5474C19.2287 11.2106 18.4099 11.5941 17.5465 11.5941H5.81818C2.60489 11.5941 0 14.199 0 17.4123V20.3214C0 23.5347 2.60489 26.1396 5.81818 26.1396H8.092C8.95536 26.1396 9.77412 25.7561 10.3268 25.0928L12.2186 22.8227ZM27.6364 13.0487C27.6364 12.2453 26.9851 11.5941 26.1818 11.5941H21.7262C20.8628 11.5941 20.0441 11.9776 19.4914 12.6408L17.5996 14.911C17.0468 15.5743 16.2281 15.9577 15.3647 15.9577H5.81818C5.01486 15.9577 4.36364 16.609 4.36364 17.4123V20.3214C4.36364 21.1247 5.01486 21.7759 5.81818 21.7759H10.2738C11.1372 21.7759 11.9559 21.3924 12.5086 20.7292L14.4004 18.459C14.9532 17.7958 15.7719 17.4123 16.6353 17.4123H26.1818C26.9851 17.4123 27.6364 16.7611 27.6364 15.9577V13.0487Z" fill="#0A0D12"/>
<path d="M50.0967 22.6856L48.0987 15.6476L47.8107 14.3516L47.5047 15.6476L45.5247 22.6856H42.2847L38.6667 10.4456H41.7447L43.7067 18.4736L44.0307 19.9316L44.3547 18.4736L46.6227 10.4456H49.1427L51.3927 18.4736L51.7167 19.9316L52.0407 18.4736L54.0027 10.4456H56.9188L53.3007 22.6856H50.0967Z" fill="#0A0D12"/>
<path d="M59.7757 16.2056H57.0217C57.3097 14.0276 58.9837 12.6956 61.4677 12.6956C64.2397 12.6956 65.6797 14.3156 65.6797 16.5656V20.2736C65.6797 21.5336 65.7877 22.1816 65.9497 22.6856H63.1057C63.0157 22.3616 62.9617 21.9476 62.9437 21.4796C62.1877 22.5236 61.0357 22.9736 59.8837 22.9736C58.0477 22.9736 56.6797 22.0376 56.6797 20.1836C56.6797 18.8696 57.4357 17.8616 58.9657 17.3216C60.2257 16.9076 61.4317 16.7816 62.9257 16.7636V16.5476C62.9257 15.4856 62.4037 14.9276 61.3417 14.9276C60.4057 14.9276 59.9017 15.4496 59.7757 16.2056ZM59.4337 20.0036C59.4337 20.6516 59.9197 21.0656 60.7297 21.0656C61.9537 21.0656 62.9257 20.0756 62.9257 18.7436V18.3656C60.1357 18.4196 59.4337 19.1036 59.4337 20.0036Z" fill="#0A0D12"/>
<path d="M67.2801 22.6856V13.0016H70.0341V14.3516C70.6461 13.1996 71.5821 12.6956 72.5721 12.6956C72.9681 12.6956 73.3281 12.8036 73.5261 13.0016V15.3236C73.2021 15.2516 72.8601 15.2156 72.4281 15.2156C70.7721 15.2156 70.0341 16.1516 70.0341 17.6816V22.6856H67.2801Z" fill="#0A0D12"/>
<path d="M77.0218 26.6636H74.2678V13.0016H77.0218V14.0096C77.6158 13.1636 78.4438 12.6956 79.4518 12.6956C81.9538 12.6956 83.5198 14.6576 83.5198 17.8256C83.5198 21.1196 81.9178 22.9736 79.4518 22.9736C78.4258 22.9736 77.5978 22.5416 77.0218 21.7136V26.6636ZM78.8758 14.9276C77.6518 14.9276 77.0218 15.9536 77.0218 17.8256C77.0218 19.6976 77.6698 20.7416 78.8758 20.7416C80.0638 20.7416 80.6938 19.7156 80.6938 17.8256C80.6938 15.9536 80.0458 14.9276 78.8758 14.9276Z" fill="#0A0D12"/>
<path d="M87.0069 15.6836C87.0069 17.5916 93.0009 15.9176 93.0009 19.7516C93.0009 21.6596 91.2369 22.9736 88.7169 22.9736C86.2689 22.9736 84.5049 21.8936 84.1449 19.4996H86.8989C87.0249 20.3996 87.7629 20.8856 88.7889 20.8856C89.7609 20.8856 90.2469 20.5076 90.2469 19.9136C90.2469 18.0416 84.3789 19.7156 84.3789 15.8276C84.3789 14.2076 85.6929 12.6956 88.2849 12.6956C90.6069 12.6956 92.3709 13.7576 92.6409 16.2056H89.9049C89.7429 15.2156 89.1669 14.8016 88.1949 14.8016C87.4749 14.8016 87.0069 15.1616 87.0069 15.6836Z" fill="#0A0D12"/>
<path d="M96.7803 26.6636H94.0263V13.0016H96.7803V14.0096C97.3743 13.1636 98.2023 12.6956 99.2103 12.6956C101.712 12.6956 103.278 14.6576 103.278 17.8256C103.278 21.1196 101.676 22.9736 99.2103 22.9736C98.1843 22.9736 97.3563 22.5416 96.7803 21.7136V26.6636ZM98.6343 14.9276C97.4103 14.9276 96.7803 15.9536 96.7803 17.8256C96.7803 19.6976 97.4283 20.7416 98.6343 20.7416C99.8223 20.7416 100.452 19.7156 100.452 17.8256C100.452 15.9536 99.8043 14.9276 98.6343 14.9276Z" fill="#0A0D12"/>
<path d="M113.497 19.4996C112.993 21.7316 111.193 22.9736 108.817 22.9736C105.811 22.9736 103.957 21.0296 103.957 17.8436C103.957 14.5496 105.829 12.6956 108.709 12.6956C111.607 12.6956 113.425 14.6216 113.425 17.7896V18.4016H106.765C106.909 19.9496 107.629 20.7776 108.817 20.7776C109.717 20.7776 110.329 20.3816 110.617 19.4996H113.497ZM108.709 14.8916C107.683 14.8916 107.035 15.5576 106.819 16.8176H110.581C110.365 15.5576 109.717 14.8916 108.709 14.8916Z" fill="#0A0D12"/>
<path d="M123.702 19.4996C123.198 21.7316 121.398 22.9736 119.022 22.9736C116.016 22.9736 114.162 21.0296 114.162 17.8436C114.162 14.5496 116.034 12.6956 118.914 12.6956C121.812 12.6956 123.63 14.6216 123.63 17.7896V18.4016H116.97C117.114 19.9496 117.834 20.7776 119.022 20.7776C119.922 20.7776 120.534 20.3816 120.822 19.4996H123.702ZM118.914 14.8916C117.888 14.8916 117.24 15.5576 117.024 16.8176H120.786C120.57 15.5576 119.922 14.8916 118.914 14.8916Z" fill="#0A0D12"/>
<path d="M128.416 22.9736C125.932 22.9736 124.366 21.0296 124.366 17.8436C124.366 14.5496 125.968 12.6956 128.416 12.6956C129.442 12.6956 130.27 13.1276 130.864 13.9556V9.72559H133.618V22.6856H130.864V21.6596C130.27 22.5056 129.424 22.9736 128.416 22.9736ZM129.01 20.7416C130.234 20.7416 130.864 19.7336 130.864 17.8436C130.864 15.9716 130.216 14.9276 129.01 14.9276C127.822 14.9276 127.192 15.9536 127.192 17.8436C127.192 19.7156 127.84 20.7416 129.01 20.7416Z" fill="#0A0D12"/>
</svg>
