<svg width="243" height="259" viewBox="0 0 243 259" fill="none" xmlns="http://www.w3.org/2000/svg">
<path d="M140.444 51.1269C151.16 61.8438 166.081 67.0847 181.389 65.2732L197.416 63.3787L196.987 59.7419L180.96 61.6364C165.003 63.517 149.487 57.1422 139.489 44.5723L136.627 46.8539C137.83 48.3612 139.102 49.7855 140.444 51.1269Z" fill="white" stroke="#CCCCCC" stroke-width="0.63" stroke-miterlimit="10"/>
<path d="M172.138 169.43C182.855 180.147 197.776 185.387 213.083 183.576L229.11 181.681L228.682 178.045L212.655 179.939C196.697 181.82 181.195 175.445 171.184 162.875L168.321 165.157C169.524 166.664 170.797 168.088 172.138 169.43Z" fill="white" stroke="#CCCCCC" stroke-width="0.63" stroke-miterlimit="10"/>
<path d="M187.304 24.6663L187.29 24.6698C186.317 24.9309 185.739 25.9319 186 26.9056L238.406 222.351C238.667 223.325 239.668 223.902 240.642 223.641L240.655 223.638C241.629 223.377 242.207 222.376 241.946 221.402L189.54 25.9566C189.278 24.9829 188.277 24.4052 187.304 24.6663Z" fill="white" stroke="#CCCCCC" stroke-width="0.63" stroke-miterlimit="10"/>
<path d="M128.158 8.81665L128.145 8.82023C127.171 9.08132 126.593 10.0823 126.855 11.056L179.261 206.501C179.522 207.475 180.523 208.053 181.496 207.792L181.51 207.788C182.483 207.527 183.061 206.526 182.8 205.552L130.394 10.107C130.133 9.13326 129.132 8.55556 128.158 8.81665Z" fill="white" stroke="#CCCCCC" stroke-width="0.63" stroke-miterlimit="10"/>
<path d="M199.199 153.539C220.95 153.539 238.582 135.907 238.582 114.156C238.582 92.4058 220.95 74.7734 199.199 74.7734C177.449 74.7734 159.816 92.4058 159.816 114.156C159.816 135.907 177.449 153.539 199.199 153.539Z" fill="white"/>
<path d="M199.199 153.539C220.95 153.539 238.582 135.907 238.582 114.156C238.582 92.4058 220.95 74.7734 199.199 74.7734C177.449 74.7734 159.816 92.4058 159.816 114.156C159.816 135.907 177.449 153.539 199.199 153.539Z" stroke="#CCCCCC" stroke-width="0.75" stroke-miterlimit="10"/>
<path d="M161.144 124.363C166.067 142.741 183.2 154.578 201.467 153.499C184.984 152.545 170.229 141.192 165.721 124.363C160.093 103.344 172.566 81.7444 193.571 76.1163C196.171 75.4249 198.798 74.9962 201.384 74.8303C197.319 74.5952 193.142 74.9962 188.994 76.1163C167.989 81.7444 155.516 103.344 161.144 124.363Z" fill="#EBEBEB"/>
<path d="M199.199 153.539C220.95 153.539 238.582 135.907 238.582 114.156C238.582 92.4058 220.95 74.7734 199.199 74.7734C177.449 74.7734 159.816 92.4058 159.816 114.156C159.816 135.907 177.449 153.539 199.199 153.539Z" stroke="#CCCCCC" stroke-width="0.75" stroke-miterlimit="10"/>
<path d="M105.526 249.978L99.3449 256.159C97.7685 257.666 95.1964 258.164 91.9882 257.307L74.3295 252.577C67.8302 250.835 61.165 244.197 59.4364 237.74L54.7348 220.205C53.8775 216.997 54.3891 214.439 55.9379 212.89L62.1191 206.709C61.0405 207.788 60.4735 209.336 60.5012 211.272C60.5012 212.13 60.6395 213.042 60.9022 214.024L65.6038 231.558C67.3324 238.016 73.9976 244.654 80.5107 246.396L98.1695 251.125C99.1928 251.388 100.147 251.54 101.018 251.54C102.913 251.554 104.448 251.015 105.526 249.978Z" fill="#EBEBEB"/>
<path d="M60.9167 214.024C59.1881 207.566 63.0601 203.75 69.5594 205.492L87.2181 210.221C93.7174 211.964 100.396 218.601 102.125 225.059L106.827 242.593C108.555 249.051 104.683 252.868 98.1839 251.125L80.5252 246.396C74.0259 244.654 67.3468 238.016 65.6183 231.558L60.9167 214.024Z" fill="white" stroke="#CCCCCC" stroke-width="0.75" stroke-linecap="round" stroke-linejoin="round"/>
<path d="M105.526 249.978L99.3449 256.159C97.7685 257.666 95.1964 258.164 91.9882 257.307L74.3295 252.577C67.8302 250.835 61.165 244.197 59.4364 237.74L54.7348 220.205C53.8775 216.997 54.3891 214.439 55.9379 212.89L62.1191 206.709C61.0405 207.788 60.4735 209.336 60.5012 211.272C60.5012 212.13 60.6395 213.042 60.9022 214.024L65.6038 231.558C67.3324 238.016 73.9976 244.654 80.5107 246.396L98.1695 251.125C99.1928 251.388 100.147 251.54 101.018 251.54C102.913 251.554 104.448 251.015 105.526 249.978Z" stroke="#CCCCCC" stroke-width="0.75" stroke-linecap="round" stroke-linejoin="round"/>
<path fill-rule="evenodd" clip-rule="evenodd" d="M83.8306 220.011C82.8488 219.749 82.2819 220.343 82.5446 221.325L83.0286 223.109L84.7986 223.579C85.7804 223.842 86.3474 223.247 86.0847 222.265C85.8219 221.284 84.8124 220.274 83.8445 220.011M85.1167 224.768C84.1349 224.506 83.5679 225.1 83.8306 226.082C84.0934 227.064 85.1028 228.073 86.0708 228.336L90.7863 229.594C91.7681 229.857 92.3351 229.263 92.0723 228.281C91.8096 227.299 90.8001 226.289 89.8321 226.027L85.1167 224.768Z" fill="#CCCCCC"/>
<path fill-rule="evenodd" clip-rule="evenodd" d="M76.6256 225.82L78.3957 226.29L77.9117 224.506C77.6489 223.524 76.6395 222.515 75.6715 222.252C74.6897 221.989 74.1227 222.584 74.3854 223.566C74.6482 224.548 75.6576 225.557 76.6256 225.82ZM81.3411 227.078C82.3229 227.341 82.8899 226.746 82.6271 225.765L81.3549 221.008C81.0922 220.026 80.0827 219.016 79.1147 218.754C78.1329 218.491 77.566 219.085 77.8287 220.067L79.1009 224.824C79.3636 225.806 80.3731 226.816 81.3411 227.078Z" fill="#CCCCCC"/>
<path fill-rule="evenodd" clip-rule="evenodd" d="M85.1856 235.292L84.7016 233.509L82.9316 233.038C81.9498 232.776 81.3828 233.37 81.6456 234.352C81.9083 235.334 82.9178 236.343 83.8857 236.606C84.8675 236.869 85.4345 236.274 85.1718 235.292H85.1856ZM82.6135 231.849C83.5953 232.112 84.1623 231.517 83.8996 230.536C83.6368 229.554 82.6274 228.544 81.6594 228.281L76.9439 227.023C75.9621 226.76 75.3952 227.355 75.6579 228.337C75.9206 229.319 76.9301 230.328 77.8981 230.591L82.6135 231.849Z" fill="#CCCCCC"/>
<path fill-rule="evenodd" clip-rule="evenodd" d="M91.0899 230.799L89.3199 230.329L89.8039 232.113C90.0666 233.095 91.0761 234.104 92.044 234.367C93.0259 234.63 93.5928 234.035 93.3301 233.053C93.0673 232.071 92.0579 231.062 91.0899 230.799ZM88.6285 231.795C88.3657 230.813 87.3563 229.803 86.3883 229.541C85.4065 229.278 84.8395 229.873 85.1022 230.854L86.3744 235.611C86.6372 236.593 87.6467 237.603 88.6146 237.865C89.5964 238.128 90.1634 237.533 89.9007 236.552L88.6285 231.795Z" fill="#CCCCCC"/>
<path d="M86.0705 177.382L79.8893 183.563C78.3128 185.07 75.7408 185.568 72.5326 184.711L54.8739 179.981C48.3746 178.239 41.7093 171.601 39.9808 165.144L20.9946 94.2874C20.1372 91.0793 20.6489 88.521 22.1976 86.9723L28.3789 80.791C27.3003 81.8696 26.7333 83.4184 26.761 85.3544C26.761 86.2117 26.8993 87.1244 27.162 88.1062L46.1482 158.962C47.8768 165.42 54.542 172.058 61.0551 173.8L78.7139 178.529C79.7372 178.792 80.6913 178.944 81.5625 178.944C83.457 178.958 84.9919 178.419 86.0705 177.382Z" fill="#EBEBEB"/>
<path d="M27.1618 88.0923C25.4332 81.6345 29.3052 77.8179 35.8045 79.5602L53.4632 84.2895C59.9625 86.0319 66.6416 92.6695 68.3701 99.1273L87.3563 169.983C89.0849 176.441 85.213 180.258 78.7137 178.516L61.0549 173.786C54.5556 172.044 47.8766 165.406 46.148 158.948L27.1618 88.0923Z" fill="white" stroke="#CCCCCC" stroke-width="0.75" stroke-linecap="round" stroke-linejoin="round"/>
<path d="M86.0705 177.382L79.8893 183.563C78.3128 185.07 75.7408 185.568 72.5326 184.711L54.8739 179.981C48.3746 178.239 41.7093 171.601 39.9808 165.144L20.9946 94.2874C20.1372 91.0793 20.6489 88.521 22.1976 86.9723L28.3789 80.791C27.3003 81.8696 26.7333 83.4184 26.761 85.3544C26.761 86.2117 26.8993 87.1244 27.162 88.1062L46.1482 158.962C47.8768 165.42 54.542 172.058 61.0551 173.8L78.7139 178.529C79.7372 178.792 80.6913 178.944 81.5625 178.944C83.457 178.958 84.9919 178.419 86.0705 177.382Z" stroke="#CCCCCC" stroke-width="0.75" stroke-linecap="round" stroke-linejoin="round"/>
<path d="M128.178 8.84048L122.632 14.3856C111.998 25.0196 94.7683 25.0196 84.1482 14.3856C73.5142 3.75167 56.2842 3.75167 45.6641 14.3856" stroke="#CCCCCC" stroke-width="0.63" stroke-linecap="round" stroke-linejoin="round"/>
<path d="M128.178 16.6813C132.508 16.6813 136.018 13.1709 136.018 8.84064C136.018 4.51038 132.508 1 128.178 1C123.847 1 120.337 4.51038 120.337 8.84064C120.337 13.1709 123.847 16.6813 128.178 16.6813Z" fill="white" stroke="#CCCCCC" stroke-width="0.63" stroke-linecap="round" stroke-linejoin="round"/>
<path d="M52.2049 50.9914L46.0236 57.1726C44.4472 58.6799 41.8751 59.1777 38.6669 58.3204L21.0082 53.5911C14.5089 51.8487 7.84368 45.2112 6.11514 38.7533L1.41351 21.2191C0.556157 18.0109 1.06782 15.4527 2.61659 13.9039L8.79784 7.72266C7.71923 8.80126 7.15227 10.35 7.17993 12.286C7.17993 13.1433 7.3182 14.056 7.58094 15.0378L12.2826 32.5721C14.0111 39.0299 20.6763 45.6675 27.1894 47.4099L44.8482 52.1391C45.8715 52.4019 46.8256 52.554 47.6968 52.554C49.5913 52.5678 51.1262 52.0285 52.2049 50.9914Z" fill="#EBEBEB"/>
<path d="M7.59538 15.0376C5.86684 8.5798 9.73876 4.76319 16.2381 6.50556L33.8968 11.2348C40.3961 12.9772 47.0752 19.6148 48.8037 26.0726L53.5053 43.6069C55.2339 50.0647 51.3619 53.8813 44.8626 52.1389L27.2039 47.4097C20.7046 45.6673 14.0255 39.0297 12.297 32.5719L7.59538 15.0376Z" fill="white" stroke="#CCCCCC" stroke-width="0.75" stroke-linecap="round" stroke-linejoin="round"/>
<path d="M52.2049 50.9914L46.0236 57.1726C44.4472 58.6799 41.8751 59.1777 38.6669 58.3204L21.0082 53.5911C14.5089 51.8487 7.84368 45.2112 6.11514 38.7533L1.41351 21.2191C0.556157 18.0109 1.06782 15.4527 2.61659 13.9039L8.79784 7.72266C7.71923 8.80126 7.15227 10.35 7.17993 12.286C7.17993 13.1433 7.3182 14.056 7.58094 15.0378L12.2826 32.5721C14.0111 39.0299 20.6763 45.6675 27.1895 47.4099L44.8482 52.1391C45.8715 52.4019 46.8256 52.554 47.6968 52.554C49.5913 52.5678 51.1262 52.0285 52.2049 50.9914Z" stroke="#CCCCCC" stroke-width="0.75" stroke-linecap="round" stroke-linejoin="round"/>
<path d="M45.6512 22.2262C49.9815 22.2262 53.4918 18.7158 53.4918 14.3856C53.4918 10.0553 49.9815 6.54492 45.6512 6.54492C41.3209 6.54492 37.8105 10.0553 37.8105 14.3856C37.8105 18.7158 41.3209 22.2262 45.6512 22.2262Z" fill="white" stroke="#CCCCCC" stroke-width="0.63" stroke-linecap="round" stroke-linejoin="round"/>
<path d="M181.5 207.831L175.955 213.376C165.321 224.01 148.091 224.01 137.47 213.376C126.836 202.742 109.606 202.742 98.9863 213.376" stroke="#CCCCCC" stroke-width="0.63" stroke-linecap="round" stroke-linejoin="round"/>
<path d="M181.5 215.672C185.83 215.672 189.34 212.161 189.34 207.831C189.34 203.501 185.83 199.99 181.5 199.99C177.17 199.99 173.659 203.501 173.659 207.831C173.659 212.161 177.17 215.672 181.5 215.672Z" fill="white" stroke="#CCCCCC" stroke-width="0.63" stroke-linecap="round" stroke-linejoin="round"/>
<path d="M98.9725 221.216C103.303 221.216 106.813 217.706 106.813 213.376C106.813 209.046 103.303 205.535 98.9725 205.535C94.6422 205.535 91.1318 209.046 91.1318 213.376C91.1318 217.706 94.6422 221.216 98.9725 221.216Z" fill="white" stroke="#CCCCCC" stroke-width="0.63" stroke-linecap="round" stroke-linejoin="round"/>
<mask id="mask0_18603_10812" style="mask-type:luminance" maskUnits="userSpaceOnUse" x="26" y="79" width="62" height="100">
<path d="M27.1618 88.0923C25.4332 81.6345 29.3052 77.8179 35.8045 79.5602L53.4632 84.2895C59.9625 86.0319 66.6416 92.6695 68.3701 99.1273L87.3563 169.97C89.0849 176.427 85.213 180.244 78.7137 178.502L61.0549 173.772C54.5556 172.03 47.8766 165.392 46.148 158.935L27.1618 88.0923Z" fill="white"/>
</mask>
<g mask="url(#mask0_18603_10812)">
<path d="M31.1452 130.861L1.73242 219.114" stroke="#CCCCCC" stroke-width="0.25" stroke-linecap="round" stroke-linejoin="round"/>
<path d="M37.6991 130.861L8.27246 219.114" stroke="#CCCCCC" stroke-width="0.25" stroke-linecap="round" stroke-linejoin="round"/>
<path d="M44.2399 130.861L14.8271 219.114" stroke="#CCCCCC" stroke-width="0.25" stroke-linecap="round" stroke-linejoin="round"/>
<path d="M50.7946 130.861L21.3818 219.114" stroke="#CCCCCC" stroke-width="0.25" stroke-linecap="round" stroke-linejoin="round"/>
<path d="M57.3485 130.861L27.9219 219.114" stroke="#CCCCCC" stroke-width="0.25" stroke-linecap="round" stroke-linejoin="round"/>
<path d="M63.8903 130.861L34.4775 219.114" stroke="#CCCCCC" stroke-width="0.25" stroke-linecap="round" stroke-linejoin="round"/>
<path d="M70.445 130.861L41.0322 219.114" stroke="#CCCCCC" stroke-width="0.25" stroke-linecap="round" stroke-linejoin="round"/>
<path d="M76.9989 130.861L47.5723 219.114" stroke="#CCCCCC" stroke-width="0.25" stroke-linecap="round" stroke-linejoin="round"/>
<path d="M83.5397 130.861L54.127 219.114" stroke="#CCCCCC" stroke-width="0.25" stroke-linecap="round" stroke-linejoin="round"/>
<path d="M90.0944 130.861L60.6816 219.114" stroke="#CCCCCC" stroke-width="0.25" stroke-linecap="round" stroke-linejoin="round"/>
<path d="M96.6493 130.861L67.2227 219.114" stroke="#CCCCCC" stroke-width="0.25" stroke-linecap="round" stroke-linejoin="round"/>
<path d="M103.19 130.861L73.7773 219.114" stroke="#CCCCCC" stroke-width="0.25" stroke-linecap="round" stroke-linejoin="round"/>
<path d="M109.745 130.861L80.332 219.114" stroke="#CCCCCC" stroke-width="0.25" stroke-linecap="round" stroke-linejoin="round"/>
<path d="M116.299 130.861L86.8721 219.114" stroke="#CCCCCC" stroke-width="0.25" stroke-linecap="round" stroke-linejoin="round"/>
<path d="M27.7977 42.6094L-1.62891 130.862" stroke="#CCCCCC" stroke-width="0.25" stroke-linecap="round" stroke-linejoin="round"/>
<path d="M34.3522 42.6094L4.93945 130.862" stroke="#CCCCCC" stroke-width="0.25" stroke-linecap="round" stroke-linejoin="round"/>
<path d="M40.9069 42.6094L11.4941 130.862" stroke="#CCCCCC" stroke-width="0.25" stroke-linecap="round" stroke-linejoin="round"/>
<path d="M47.4608 42.6094L18.0342 130.862" stroke="#CCCCCC" stroke-width="0.25" stroke-linecap="round" stroke-linejoin="round"/>
<path d="M54.0026 42.6094L24.5898 130.862" stroke="#CCCCCC" stroke-width="0.25" stroke-linecap="round" stroke-linejoin="round"/>
<path d="M60.5573 42.6094L31.1445 130.862" stroke="#CCCCCC" stroke-width="0.25" stroke-linecap="round" stroke-linejoin="round"/>
<path d="M67.112 42.6094L37.6992 130.862" stroke="#CCCCCC" stroke-width="0.25" stroke-linecap="round" stroke-linejoin="round"/>
<path d="M73.652 42.6094L44.2393 130.862" stroke="#CCCCCC" stroke-width="0.25" stroke-linecap="round" stroke-linejoin="round"/>
<path d="M80.2067 42.6094L50.7939 130.862" stroke="#CCCCCC" stroke-width="0.25" stroke-linecap="round" stroke-linejoin="round"/>
<path d="M86.7624 42.6094L57.3496 130.862" stroke="#CCCCCC" stroke-width="0.25" stroke-linecap="round" stroke-linejoin="round"/>
<path d="M93.3024 42.6094L63.8896 130.862" stroke="#CCCCCC" stroke-width="0.25" stroke-linecap="round" stroke-linejoin="round"/>
<path d="M99.8571 42.6094L70.4443 130.862" stroke="#CCCCCC" stroke-width="0.25" stroke-linecap="round" stroke-linejoin="round"/>
<path d="M106.412 42.6094L76.999 130.862" stroke="#CCCCCC" stroke-width="0.25" stroke-linecap="round" stroke-linejoin="round"/>
<path d="M112.952 42.6094L83.5391 130.862" stroke="#CCCCCC" stroke-width="0.25" stroke-linecap="round" stroke-linejoin="round"/>
</g>
<path d="M27.1618 88.0923C25.4332 81.6345 29.3052 77.8179 35.8045 79.5602L53.4632 84.2895C59.9625 86.0319 66.6416 92.6695 68.3701 99.1273L87.3563 169.97C89.0849 176.427 85.213 180.244 78.7137 178.502L61.0549 173.772C54.5556 172.03 47.8766 165.392 46.148 158.935L27.1618 88.0923Z" stroke="#CCCCCC" stroke-width="0.25" stroke-linecap="round" stroke-linejoin="round"/>
<path d="M38.7082 38.1031C38.1689 38.1031 37.4913 37.9233 36.3435 37.6191L27.853 35.3374C26.4563 34.964 25.6819 34.7566 24.9905 34.2864C24.3959 33.8854 23.8566 33.3461 23.4556 32.7515C22.9854 32.0601 22.778 31.2995 22.4046 29.9029L21.008 24.7173C20.8697 24.1918 20.7452 23.7493 20.6623 23.3898C20.6069 23.2791 20.5793 23.1547 20.5931 23.044C20.4963 22.5601 20.4963 22.2005 20.5931 21.8686C20.7729 21.2464 21.2292 20.79 21.8653 20.6103C22.5014 20.4305 23.2067 20.6103 24.7416 21.0389L33.2322 23.3206C34.6288 23.694 35.4032 23.9014 36.0946 24.3716C36.6892 24.7726 37.2285 25.3119 37.6296 25.9065C37.8785 26.2522 38.0444 26.6256 38.2103 27.0957C38.2103 27.1096 38.238 27.1234 38.238 27.151C38.2795 27.2478 38.3071 27.3446 38.321 27.4414C38.4316 27.8148 38.5561 28.2435 38.6943 28.7551L40.091 33.9407C40.5058 35.4757 40.6856 36.1671 40.5058 36.8032C40.3261 37.4255 39.8697 37.8818 39.2336 38.0616C39.0677 38.1031 38.9156 38.1307 38.722 38.1307L38.7082 38.1031ZM22.5152 24.9662L23.746 29.5572C24.0917 30.8432 24.2576 31.4793 24.6033 31.9771C24.9075 32.4196 25.3224 32.8345 25.7787 33.1525C26.2765 33.4982 26.9264 33.6642 28.2263 34.0099L36.7169 36.2916C37.8093 36.5819 38.5975 36.7894 38.8603 36.7202C39.0262 36.6787 39.123 36.5819 39.1645 36.416C39.2336 36.1533 39.0262 35.3651 38.7358 34.2864L37.3392 29.1008C37.2839 28.8796 37.2285 28.6722 37.1732 28.4786L32.5131 30.9262C32.0153 31.1889 31.6972 31.3272 31.2409 31.341C30.8952 31.341 30.5356 31.2304 30.1623 31.0645C29.7751 30.8847 29.4432 30.6081 28.7656 30.055L22.5152 24.98V24.9662ZM21.9483 22.726L29.6368 28.9626C30.2176 29.4327 30.5357 29.6955 30.7707 29.8061C30.9505 29.889 31.1303 29.9444 31.2686 29.9444C31.2962 29.9582 31.5313 29.8614 31.8632 29.6816L36.7307 27.1234C36.6478 26.9436 36.5786 26.8053 36.4818 26.6532C36.1776 26.2107 35.7627 25.7959 35.3064 25.4778C34.8086 25.1321 34.1587 24.9662 32.8588 24.6205L24.3682 22.3388C23.2758 22.0484 22.4876 21.8272 22.2248 21.9101C22.0589 21.9516 21.9621 22.0484 21.9206 22.2143C21.893 22.3111 21.9068 22.4771 21.9483 22.6983V22.726Z" fill="#CCCCCC"/>
</svg>
