<svg width="115" height="122" viewBox="0 0 115 122" fill="none" xmlns="http://www.w3.org/2000/svg">
<path d="M1.69757 99.0341L45.7949 73.5762L67.9878 120.905H32.1238C30.3357 120.905 28.5815 120.435 27.031 119.541L1.69757 104.913C-0.565858 103.606 -0.565858 100.341 1.69757 99.0341Z" fill="#F5F5F5"/>
<path d="M113.728 18.3535V66.7231C113.728 67.8661 113.162 69.0148 112.03 69.6655L73.031 92.181C69.8792 94.0031 65.9974 94.0031 62.8456 92.181L40.2396 79.1267C39.1079 78.4759 38.542 77.3329 38.542 76.1899V27.826C38.542 28.969 39.1079 30.112 40.2396 30.7628L62.8456 43.8171C65.9974 45.6335 69.8792 45.6335 73.031 43.8171L112.03 21.296C113.162 20.6396 113.728 19.4965 113.728 18.3535Z" fill="white" stroke="#CCCCCC" stroke-width="0.75" stroke-linecap="round" stroke-linejoin="round"/>
<path d="M73.031 43.8173V92.1812C69.8792 94.0033 65.9974 94.0033 62.8456 92.1812L40.2396 79.1269C39.1079 78.4761 38.542 77.3331 38.542 76.1901V27.8262C38.542 28.9692 39.1079 30.1122 40.2396 30.763L62.8456 43.8173C65.9974 45.6337 69.8792 45.6337 73.031 43.8173Z" fill="#F5F5F5" stroke="#CCCCCC" stroke-width="0.75" stroke-linecap="round" stroke-linejoin="round"/>
<path d="M113.728 66.7227V94.0819C113.728 95.2249 113.162 96.3736 112.03 97.0244L73.031 119.54C69.8792 121.362 65.9974 121.362 62.8456 119.54L40.2396 106.486C39.1079 105.835 38.542 104.692 38.542 103.549V76.1895C38.542 77.3325 39.1079 78.4755 40.2396 79.1263L62.8456 92.1806C65.9974 94.0027 69.8792 94.0027 73.031 92.1806L112.03 69.6651C113.162 69.0144 113.728 67.8657 113.728 66.7227Z" fill="#F5F5F5" stroke="#CCCCCC" stroke-width="0.75" stroke-linecap="round" stroke-linejoin="round"/>
<path d="M73.031 92.1826V119.542C69.8792 121.364 65.9974 121.364 62.8456 119.542L40.2396 106.487C39.1079 105.837 38.542 104.694 38.542 103.551V76.1914C38.542 77.3344 39.1079 78.4775 40.2396 79.1282L62.8456 92.1826C65.9974 94.0046 69.8792 94.0046 73.031 92.1826Z" fill="#EBEBEB" stroke="#CCCCCC" stroke-width="0.75" stroke-linecap="round" stroke-linejoin="round"/>
<path d="M40.2337 24.884L79.2383 2.3685C82.3901 0.546437 86.2719 0.546437 89.4237 2.3685L112.03 15.4228C114.293 16.73 114.293 19.995 112.03 21.3021L73.0252 43.8176C69.8734 45.6397 65.9916 45.6397 62.8397 43.8176L40.2337 30.7633C37.9703 29.4561 37.9703 26.1911 40.2337 24.884Z" fill="white" stroke="#CCCCCC" stroke-width="0.75" stroke-linecap="round" stroke-linejoin="round"/>
<path d="M84.331 3.26909C85.7174 3.26909 87.0868 3.6369 88.292 4.3329L110.898 17.3872C111.407 17.6815 111.464 18.1738 111.464 18.3662C111.464 18.5586 111.407 19.0509 110.898 19.3451L71.8935 41.8663C70.6882 42.5623 69.3188 42.9301 67.9325 42.9301C66.5461 42.9301 65.1767 42.5623 63.9715 41.8663L41.3654 28.8119C40.8562 28.5177 40.7996 28.031 40.7996 27.833C40.7996 27.6349 40.8562 27.1483 41.3654 26.8541L80.37 4.32725C81.5753 3.63124 82.9447 3.26343 84.331 3.26343M84.331 1C82.5712 1 80.8114 1.45269 79.2383 2.36372L40.2337 24.8792C37.9703 26.1863 37.9703 29.4513 40.2337 30.7585L62.8397 43.8128C64.4128 44.7239 66.1726 45.1765 67.9325 45.1765C69.6923 45.1765 71.4521 44.7239 73.0252 43.8128L112.03 21.2917C114.293 19.9845 114.293 16.7195 112.03 15.4124L89.4237 2.36938C87.8507 1.45835 86.0908 1.00566 84.331 1.00566V1Z" fill="white"/>
<path d="M84.331 3.26909C85.7174 3.26909 87.0868 3.6369 88.292 4.3329L110.898 17.3872C111.407 17.6815 111.464 18.1738 111.464 18.3662C111.464 18.5586 111.407 19.0509 110.898 19.3451L71.8935 41.8663C70.6882 42.5623 69.3188 42.9301 67.9325 42.9301C66.5461 42.9301 65.1767 42.5623 63.9715 41.8663L41.3654 28.8119C40.8562 28.5177 40.7996 28.031 40.7996 27.833C40.7996 27.6349 40.8562 27.1483 41.3654 26.8541L80.37 4.32725C81.5753 3.63124 82.9447 3.26343 84.331 3.26343M84.331 1C82.5712 1 80.8114 1.45269 79.2383 2.36372L40.2337 24.8792C37.9703 26.1863 37.9703 29.4513 40.2337 30.7585L62.8397 43.8128C64.4128 44.7239 66.1726 45.1765 67.9325 45.1765C69.6923 45.1765 71.4521 44.7239 73.0252 43.8128L112.03 21.2917C114.293 19.9845 114.293 16.7195 112.03 15.4124L89.4237 2.36938C87.8507 1.45835 86.0908 1.00566 84.331 1.00566V1Z" stroke="#CCCCCC" stroke-width="0.75" stroke-linecap="round" stroke-linejoin="round"/>
<path d="M108.164 20.9185L71.8985 41.8553C70.6932 42.5513 69.3238 42.9191 67.9375 42.9191C66.5511 42.9191 65.1761 42.5513 63.9764 41.8553L44.1035 30.3853L80.3694 9.44858C81.5746 8.75257 82.944 8.38477 84.3304 8.38477C85.7167 8.38477 87.0917 8.75257 88.2914 9.44858L108.164 20.9185Z" fill="white" stroke="#CCCCCC" stroke-width="0.75" stroke-linecap="round" stroke-linejoin="round"/>
<path d="M73.0244 43.8164V119.54" stroke="#CCCCCC" stroke-width="0.75" stroke-linecap="round" stroke-linejoin="round"/>
<path d="M62.8398 43.8164V119.54" stroke="#CCCCCC" stroke-width="0.75" stroke-linecap="round" stroke-linejoin="round"/>
<path d="M113.728 66.7285C113.728 67.8715 113.162 69.0202 112.03 69.671L73.031 92.1865C69.8792 94.0085 65.9974 94.0085 62.8456 92.1865L40.2396 79.1321C39.1079 78.4814 38.542 77.3384 38.542 76.1953" stroke="#CCCCCC" stroke-width="0.75" stroke-linecap="round" stroke-linejoin="round"/>
<path d="M67.9583 34.1556C71.7521 34.1318 74.8165 32.3366 74.8027 30.1459C74.789 27.9552 71.7023 26.1986 67.9084 26.2225C64.1146 26.2463 61.0502 28.0415 61.064 30.2322C61.0778 32.4229 64.1644 34.1795 67.9583 34.1556Z" fill="#EBEBEB" stroke="#CCCCCC" stroke-width="0.75" stroke-linecap="round" stroke-linejoin="round"/>
<path d="M67.9488 26.2451C70.2864 26.2305 72.1745 25.1241 72.166 23.7741C72.1575 22.424 70.2556 21.3415 67.9181 21.3562C65.5805 21.3709 63.6924 22.4772 63.7009 23.8273C63.7094 25.1773 65.6112 26.2598 67.9488 26.2451Z" fill="white" stroke="#CCCCCC" stroke-width="0.75" stroke-linecap="round" stroke-linejoin="round"/>
<path d="M63.6992 23.791V23.813" stroke="#CCCCCC" stroke-width="0.75" stroke-linecap="round" stroke-linejoin="round"/>
<path d="M72.1701 23.791V30.1796C72.1645 31.532 70.2575 32.6297 67.9205 32.6354C65.5835 32.641 63.6936 31.5489 63.6992 30.1965V23.8136C63.6992 25.166 65.5892 26.2468 67.9205 26.2468C70.2575 26.2412 72.1645 25.1434 72.1701 23.791Z" fill="#F5F5F5" stroke="#CCCCCC" stroke-width="0.75" stroke-linecap="round" stroke-linejoin="round"/>
<path d="M84.18 24.7904C87.9738 24.7666 91.0382 22.9713 91.0244 20.7807C91.0107 18.59 87.924 16.8334 84.1301 16.8572C80.3363 16.8811 77.2719 18.6763 77.2857 20.867C77.2994 23.0577 80.3861 24.8142 84.18 24.7904Z" fill="#EBEBEB" stroke="#CCCCCC" stroke-width="0.75" stroke-linecap="round" stroke-linejoin="round"/>
<path d="M84.1695 16.8819C86.5071 16.8672 88.3952 15.7608 88.3867 14.4108C88.3782 13.0608 86.4763 11.9782 84.1388 11.9929C81.8012 12.0076 79.9131 13.114 79.9216 14.464C79.9301 15.814 81.8319 16.8965 84.1695 16.8819Z" fill="white" stroke="#CCCCCC" stroke-width="0.75" stroke-linecap="round" stroke-linejoin="round"/>
<path d="M79.917 14.4277V14.4498" stroke="#CCCCCC" stroke-width="0.75" stroke-linecap="round" stroke-linejoin="round"/>
<path d="M88.3879 14.4277V20.8163C88.3822 22.1687 86.4753 23.2664 84.1383 23.2721C81.8013 23.2778 79.9113 22.1856 79.917 20.8332V14.4504C79.917 15.8028 81.807 16.8836 84.1383 16.8836C86.4753 16.8779 88.3822 15.7801 88.3879 14.4277Z" fill="#F5F5F5" stroke="#CCCCCC" stroke-width="0.75" stroke-linecap="round" stroke-linejoin="round"/>
<path d="M82.5354 53.6413V50.7497L80.0117 52.204V50.4498L82.5354 48.9956V46.121L84.0689 45.2383V48.1128L86.5757 46.6642V48.4184L84.0689 49.867V52.7585L82.5354 53.6413Z" fill="#CCCCCC"/>
<path d="M102.145 39.4263V37.6722L106.519 35.1484V36.9026L102.145 39.4263Z" fill="#CCCCCC"/>
<path d="M73.0303 119.543V92.1836" stroke="#CCCCCC" stroke-width="0.75" stroke-linecap="round" stroke-linejoin="round"/>
<path d="M73.0303 92.1803V43.8164" stroke="#CCCCCC" stroke-width="0.75" stroke-linecap="round" stroke-linejoin="round"/>
<path d="M110.903 17.382L88.2971 4.32769C87.0919 3.63168 85.7225 3.26953 84.3361 3.26953C82.9498 3.26953 81.5748 3.63168 80.3751 4.32769L41.3705 26.8488C40.8613 27.1431 40.8047 27.6297 40.8047 27.8278C40.8047 28.0258 40.8613 28.5125 41.3705 28.8067L44.1093 30.3911L80.3751 9.45436C81.5804 8.75835 82.9498 8.39055 84.3361 8.39055C85.7225 8.39055 87.0975 8.75835 88.2971 9.45436L108.164 20.9186L110.903 19.3399C111.412 19.0457 111.469 18.559 111.469 18.361C111.469 18.1629 111.412 17.6763 110.903 17.382Z" fill="#EBEBEB" stroke="#CCCCCC" stroke-width="0.75" stroke-linecap="round" stroke-linejoin="round"/>
<mask id="mask0_18599_9487" style="mask-type:luminance" maskUnits="userSpaceOnUse" x="62" y="43" width="12" height="78">
<path d="M73.0311 43.8164V119.54C69.8793 121.362 65.9975 121.362 62.8457 119.54V43.8164C65.9975 45.6328 69.8793 45.6328 73.0311 43.8164Z" fill="white"/>
</mask>
<g mask="url(#mask0_18599_9487)">
<path d="M62.7708 101.756L54.249 127.321" stroke="#CCCCCC" stroke-width="0.25" stroke-linecap="round" stroke-linejoin="round"/>
<path d="M64.6664 101.756L56.1445 127.321" stroke="#CCCCCC" stroke-width="0.25" stroke-linecap="round" stroke-linejoin="round"/>
<path d="M66.5619 101.756L58.04 127.321" stroke="#CCCCCC" stroke-width="0.25" stroke-linecap="round" stroke-linejoin="round"/>
<path d="M68.4585 101.756L59.9424 127.321" stroke="#CCCCCC" stroke-width="0.25" stroke-linecap="round" stroke-linejoin="round"/>
<path d="M70.3597 101.756L61.8379 127.321" stroke="#CCCCCC" stroke-width="0.25" stroke-linecap="round" stroke-linejoin="round"/>
<path d="M72.2552 101.756L63.7334 127.321" stroke="#CCCCCC" stroke-width="0.25" stroke-linecap="round" stroke-linejoin="round"/>
<path d="M74.1509 101.756L65.6348 127.321" stroke="#CCCCCC" stroke-width="0.25" stroke-linecap="round" stroke-linejoin="round"/>
<path d="M76.0521 101.756L67.5303 127.321" stroke="#CCCCCC" stroke-width="0.25" stroke-linecap="round" stroke-linejoin="round"/>
<path d="M77.9476 101.756L69.4258 127.321" stroke="#CCCCCC" stroke-width="0.25" stroke-linecap="round" stroke-linejoin="round"/>
<path d="M79.8433 101.756L71.3271 127.321" stroke="#CCCCCC" stroke-width="0.25" stroke-linecap="round" stroke-linejoin="round"/>
<path d="M63.6937 76.1895L55.1719 101.755" stroke="#CCCCCC" stroke-width="0.25" stroke-linecap="round" stroke-linejoin="round"/>
<path d="M65.5943 76.1895L57.0781 101.755" stroke="#CCCCCC" stroke-width="0.25" stroke-linecap="round" stroke-linejoin="round"/>
<path d="M67.4955 76.1895L58.9736 101.755" stroke="#CCCCCC" stroke-width="0.25" stroke-linecap="round" stroke-linejoin="round"/>
<path d="M69.391 76.1895L60.8691 101.755" stroke="#CCCCCC" stroke-width="0.25" stroke-linecap="round" stroke-linejoin="round"/>
<path d="M71.2876 76.1895L62.7715 101.755" stroke="#CCCCCC" stroke-width="0.25" stroke-linecap="round" stroke-linejoin="round"/>
<path d="M73.1888 76.1895L64.667 101.755" stroke="#CCCCCC" stroke-width="0.25" stroke-linecap="round" stroke-linejoin="round"/>
<path d="M75.0833 76.1895L66.5615 101.755" stroke="#CCCCCC" stroke-width="0.25" stroke-linecap="round" stroke-linejoin="round"/>
<path d="M76.9798 76.1895L68.458 101.755" stroke="#CCCCCC" stroke-width="0.25" stroke-linecap="round" stroke-linejoin="round"/>
<path d="M78.8802 76.1895L70.3584 101.755" stroke="#CCCCCC" stroke-width="0.25" stroke-linecap="round" stroke-linejoin="round"/>
<path d="M80.7767 76.1895L72.2549 101.755" stroke="#CCCCCC" stroke-width="0.25" stroke-linecap="round" stroke-linejoin="round"/>
<path d="M62.7318 50.6289L54.21 76.1887" stroke="#CCCCCC" stroke-width="0.25" stroke-linecap="round" stroke-linejoin="round"/>
<path d="M64.6273 50.6289L56.1055 76.1887" stroke="#CCCCCC" stroke-width="0.25" stroke-linecap="round" stroke-linejoin="round"/>
<path d="M66.5228 50.6289L58.001 76.1887" stroke="#CCCCCC" stroke-width="0.25" stroke-linecap="round" stroke-linejoin="round"/>
<path d="M68.4242 50.6289L59.9023 76.1887" stroke="#CCCCCC" stroke-width="0.25" stroke-linecap="round" stroke-linejoin="round"/>
<path d="M70.3197 50.6289L61.7979 76.1887" stroke="#CCCCCC" stroke-width="0.25" stroke-linecap="round" stroke-linejoin="round"/>
<path d="M72.2152 50.6289L63.6934 76.1887" stroke="#CCCCCC" stroke-width="0.25" stroke-linecap="round" stroke-linejoin="round"/>
<path d="M74.1165 50.6289L65.5947 76.1887" stroke="#CCCCCC" stroke-width="0.25" stroke-linecap="round" stroke-linejoin="round"/>
<path d="M76.0189 50.6289L67.4971 76.1887" stroke="#CCCCCC" stroke-width="0.25" stroke-linecap="round" stroke-linejoin="round"/>
<path d="M77.9144 50.6289L69.3926 76.1887" stroke="#CCCCCC" stroke-width="0.25" stroke-linecap="round" stroke-linejoin="round"/>
<path d="M79.8089 50.6289L71.2871 76.1887" stroke="#CCCCCC" stroke-width="0.25" stroke-linecap="round" stroke-linejoin="round"/>
<path d="M63.6605 25.0645L55.1387 50.6299" stroke="#CCCCCC" stroke-width="0.25" stroke-linecap="round" stroke-linejoin="round"/>
<path d="M65.5542 25.0645L57.0381 50.6299" stroke="#CCCCCC" stroke-width="0.25" stroke-linecap="round" stroke-linejoin="round"/>
<path d="M67.4564 25.0645L58.9346 50.6299" stroke="#CCCCCC" stroke-width="0.25" stroke-linecap="round" stroke-linejoin="round"/>
<path d="M69.3519 25.0645L60.8301 50.6299" stroke="#CCCCCC" stroke-width="0.25" stroke-linecap="round" stroke-linejoin="round"/>
<path d="M71.2476 25.0645L62.7314 50.6299" stroke="#CCCCCC" stroke-width="0.25" stroke-linecap="round" stroke-linejoin="round"/>
<path d="M73.1488 25.0645L64.627 50.6299" stroke="#CCCCCC" stroke-width="0.25" stroke-linecap="round" stroke-linejoin="round"/>
<path d="M75.0433 25.0645L66.5215 50.6299" stroke="#CCCCCC" stroke-width="0.25" stroke-linecap="round" stroke-linejoin="round"/>
<path d="M76.94 25.0645L68.4238 50.6299" stroke="#CCCCCC" stroke-width="0.25" stroke-linecap="round" stroke-linejoin="round"/>
<path d="M78.8412 25.0645L70.3193 50.6299" stroke="#CCCCCC" stroke-width="0.25" stroke-linecap="round" stroke-linejoin="round"/>
<path d="M80.7367 25.0645L72.2148 50.6299" stroke="#CCCCCC" stroke-width="0.25" stroke-linecap="round" stroke-linejoin="round"/>
</g>
</svg>
