<svg width="312" height="292" viewBox="0 0 312 292" fill="none" xmlns="http://www.w3.org/2000/svg">
<path d="M408.948 185.346L230.148 288.762C226.092 291.108 219.558 291.108 215.556 288.79L-73.9857 121.338C-78.0147 119.02 -77.9875 115.229 -73.9313 112.883L104.868 9.46707C108.925 7.12166 115.458 7.12166 119.46 9.4398L409.002 176.919C413.031 179.237 413.004 183.028 408.948 185.373V185.346Z" fill="#F5F5F5"/>
<path d="M15.2968 145.838L18.1279 141.039L9.79777 142.702L8.27328 139.293L16.8757 138.311L10.2878 135.011L14.589 132.475L20.3602 136.293L22.1025 131.33L27.9554 132.23L25.097 137.029L33.4272 135.366L34.9517 138.775L26.3765 139.757L32.9372 143.057L28.636 145.593L22.8647 141.775L21.1497 146.738L15.2968 145.838Z" fill="#FAFAFA"/>
<path d="M385.972 179.394L207.172 282.81C203.116 285.156 196.583 285.156 192.581 282.838L-96.9884 115.359C-101.017 113.041 -100.99 109.25 -96.934 106.904L24.6977 36.5691L153.217 36.2964L385.999 170.94C390.028 173.258 390.001 177.049 385.945 179.394H385.972Z" fill="white"/>
<mask id="mask0_226_10079" style="mask-type:luminance" maskUnits="userSpaceOnUse" x="-100" y="1" width="490" height="284">
<path d="M386.656 179.295L207.602 282.566C203.54 284.909 196.997 284.909 192.99 282.594L-96.9909 115.35C-101.026 113.035 -100.998 109.25 -96.9364 106.908L82.1174 3.63647C86.1793 1.29435 92.7221 1.29435 96.7296 3.60924L386.683 170.853C390.718 173.168 390.691 176.953 386.629 179.295H386.656Z" fill="white"/>
</mask>
<g mask="url(#mask0_226_10079)">
<path d="M159.014 267.254L230.847 230.815L136.878 220.276L154.816 183.183L244.914 200.94L214.136 148.977L278.5 138.601L296.765 192.797L359.956 151.347L406.518 178.199L334.494 214.557L428.463 225.096L410.498 262.243L320.564 244.568L351.178 296.449L286.814 306.771L268.549 252.575L205.522 294.107L158.959 267.254H159.014Z" fill="#F5F5F5"/>
</g>
<path d="M153.296 36.2561L24.7766 36.5288L81.9445 3.44754C86.0007 1.10213 92.5342 1.10213 96.536 3.42027L153.296 36.2561Z" fill="#F5F5F5"/>
<path d="M194.913 60.4573L-17.48 60.8936L6.66664 46.9302L170.929 46.5757L194.913 60.4573Z" fill="#F5F5F5"/>
<path d="M385.972 179.354L207.172 282.77C203.116 285.116 196.583 285.116 192.581 282.797L-96.9884 115.318C-101.017 113 -100.99 109.209 -96.934 106.864L81.8657 3.44754C85.9219 1.10213 92.4554 1.10213 96.4571 3.42027L385.999 170.899C390.028 173.217 390.001 177.008 385.945 179.354H385.972Z" stroke="#CCCCCC" stroke-width="1.75" stroke-miterlimit="10"/>
<path d="M-11.23 131.488L8.1527 120.279L12.1544 122.597L4.85874 126.824L4.96762 126.906C5.5393 126.77 6.19265 126.688 6.92767 126.661C7.66268 126.633 8.45215 126.661 9.26883 126.824C10.0855 126.988 10.9022 127.288 11.6917 127.751C12.7534 128.351 13.4339 129.088 13.7878 129.906C14.1417 130.724 14.0056 131.624 13.4339 132.579C12.8622 133.533 11.7461 134.488 10.0855 135.442C8.42492 136.397 6.84599 137.024 5.21263 137.379C3.57926 137.733 2.02755 137.815 0.584743 137.624C-0.88529 137.433 -2.13754 137.024 -3.25368 136.397C-4.04314 135.96 -4.56037 135.497 -4.83259 135.033C-5.10482 134.569 -5.24094 134.133 -5.18649 133.697C-5.13205 133.26 -4.99593 132.879 -4.77815 132.551L-4.96871 132.442L-7.28265 133.779L-11.23 131.488ZM-0.0413809 129.551C-0.912512 130.042 -1.53863 130.56 -1.94697 131.079C-2.35531 131.597 -2.51866 132.088 -2.40976 132.551C-2.3281 133.015 -1.94698 133.451 -1.29363 133.806C-0.640281 134.16 0.0947399 134.406 0.911425 134.46C1.72811 134.515 2.57202 134.406 3.44315 134.188C4.31428 133.969 5.1854 133.588 6.02931 133.097C6.87322 132.606 7.49935 132.115 7.90769 131.624C8.31603 131.133 8.47936 130.642 8.37047 130.179C8.28881 129.715 7.90769 129.279 7.25434 128.897C6.60099 128.515 5.86598 128.297 5.07651 128.242C4.28705 128.188 3.44315 128.27 2.57202 128.488C1.70089 128.733 0.82975 129.088 -0.0413809 129.579V129.551Z" fill="#C2C2C2"/>
<path d="M23.9538 132.708C23.3549 132.353 23.0554 131.944 23.0282 131.481C23.0282 131.017 23.2732 130.608 23.8449 130.281C24.4166 129.953 25.0971 129.79 25.9138 129.817C26.7305 129.844 27.4383 130.008 28.0372 130.362C28.6361 130.717 28.9356 131.126 28.9628 131.59C28.9628 132.053 28.7178 132.462 28.1461 132.79C27.5744 133.117 26.8938 133.28 26.0772 133.253C25.2605 133.253 24.5527 133.062 23.9538 132.708ZM5.52393 141.026L20.0609 132.626L24.0627 134.944L9.52568 143.344L5.52393 141.026Z" fill="#C2C2C2"/>
<path d="M34.9714 141.258L31.9501 143.004L23.2674 137.986L26.2887 136.241L34.9714 141.258ZM31.7324 135.369L35.7335 137.686L22.1787 145.512C21.7976 145.73 21.5799 145.921 21.471 146.112C21.3893 146.303 21.3893 146.467 21.5254 146.63C21.6343 146.794 21.852 146.957 22.097 147.121C22.2875 147.23 22.4781 147.339 22.723 147.421C22.968 147.503 23.1041 147.585 23.2402 147.612L20.8722 149.712C20.6 149.63 20.2461 149.521 19.8106 149.357C19.3751 149.193 18.858 148.975 18.3408 148.675C17.3338 148.13 16.6261 147.585 16.1906 146.985C15.7551 146.385 15.6734 145.812 15.8912 145.212C16.1089 144.612 16.7077 144.04 17.6604 143.494L31.7324 135.341V135.369Z" fill="#C2C2C2"/>
<path d="M38.815 160.736L46.2469 156.945L36.5283 155.854L38.3795 152.009L47.6897 153.836L44.5046 148.436L51.147 147.373L53.0254 152.991L59.5588 148.682L64.3773 151.463L56.9182 155.227L66.6368 156.318L64.7856 160.163L55.4754 158.336L58.6333 163.709L51.9909 164.772L50.1125 159.154L43.6063 163.463L38.7878 160.681L38.815 160.736Z" fill="#C2C2C2"/>
<path d="M94.7064 44.362L87.0308 39.9173C85.8331 39.2356 85.697 38.1721 86.7314 37.5995L87.0308 37.4359C88.0651 36.836 89.8615 36.9178 91.0591 37.5995L98.7347 42.0442C99.9323 42.7259 100.068 43.7893 99.0341 44.362L98.7347 44.5256C97.7004 45.1255 95.904 45.0437 94.7064 44.362Z" fill="#C2C2C2"/>
<path d="M130.712 65.1784L123.037 60.7337C121.839 60.052 121.703 58.9885 122.737 58.4159L123.037 58.2523C124.071 57.6524 125.867 57.7342 127.065 58.4159L134.741 62.8606C135.938 63.5423 136.074 64.6058 135.04 65.1784L134.741 65.342C133.706 65.9419 131.91 65.8601 130.712 65.1784Z" fill="#C2C2C2"/>
<path d="M118.906 53.7533L106.903 46.8C105.787 46.1728 103.991 46.1728 102.875 46.8C101.759 47.4544 101.759 48.4906 102.875 49.1177L114.878 56.0711C115.994 56.6982 117.79 56.6982 118.906 56.0711C120.022 55.4166 120.022 54.3805 118.906 53.7533Z" fill="#C2C2C2"/>
<path d="M154.914 74.5541L142.91 67.6007C141.794 66.9736 139.998 66.9736 138.882 67.6007C137.766 68.2552 137.766 69.2914 138.882 69.9185L150.885 76.8719C152.001 77.499 153.798 77.499 154.914 76.8719C156.03 76.2174 156.03 75.1812 154.914 74.5541Z" fill="#C2C2C2"/>
<path d="M388.983 175.211V181.265C388.983 182.793 387.976 184.32 385.934 185.492L207.135 288.936C203.079 291.254 196.545 291.282 192.516 288.963L-96.9987 121.484C-99.0132 120.339 -99.9932 118.812 -99.9932 117.284V111.257C-99.9932 112.321 -99.5304 113.357 -98.5776 114.257C-98.142 114.694 -97.6248 115.103 -96.9987 115.457L192.516 282.909C196.545 285.254 203.079 285.227 207.135 282.882L385.934 179.465C386.588 179.083 387.132 178.674 387.568 178.238C388.52 177.311 388.983 176.247 388.983 175.211Z" fill="white" stroke="#CCCCCC" stroke-width="1.75" stroke-miterlimit="10"/>
<path d="M224.314 175.295L212.254 182.222C211.138 182.876 209.287 182.876 208.225 182.222L196.302 175.349L208.498 168.313C208.96 168.068 209.559 167.931 210.213 167.931C211.029 167.931 211.873 168.095 212.527 168.477L224.287 175.267L224.341 175.322L224.314 175.295Z" fill="#C2C2C2"/>
<path d="M221.733 188.526L210.19 195.235L187.922 182.335C187.377 181.98 187.051 181.599 187.051 181.299C187.051 180.944 187.35 180.753 187.568 180.617L195.245 176.199L207.74 183.371C208.421 183.808 209.319 183.971 210.272 183.971C211.143 183.971 212.041 183.753 212.749 183.426L221.705 188.553L221.733 188.526Z" fill="#C2C2C2"/>
<path d="M248.71 189.889C248.71 190.189 248.411 190.407 248.166 190.571L240.489 194.989L228.048 187.762C226.578 186.943 224.346 186.943 222.93 187.762L214.056 182.607L225.544 175.953L247.866 188.852C248.384 189.152 248.738 189.534 248.738 189.889H248.71Z" fill="#C2C2C2"/>
<path d="M239.292 195.597L227.096 202.634C226.116 203.234 224.265 203.152 223.067 202.47L211.307 195.679L223.312 188.725C224.428 188.07 226.279 188.07 227.341 188.725L239.264 195.597H239.292Z" fill="#C2C2C2"/>
<path d="M250.701 204.405C249.585 205.059 248.36 205.632 247.053 206.123C246.4 206.368 245.502 206.259 245.066 205.877C244.631 205.495 244.821 204.977 245.502 204.732C247.761 203.887 249.775 202.714 251.245 201.405C251.68 201.024 252.551 200.914 253.232 201.16C253.885 201.405 254.076 201.923 253.64 202.305C252.796 203.069 251.789 203.778 250.701 204.405Z" fill="#C2C2C2"/>
<path d="M257.661 208.361C255.293 209.724 252.571 210.815 249.577 211.606C248.842 211.796 247.998 211.606 247.699 211.196C247.372 210.787 247.699 210.297 248.434 210.106C251.128 209.397 253.551 208.415 255.674 207.215C257.797 206.016 259.484 204.598 260.709 203.016C261.036 202.607 261.88 202.416 262.615 202.607C263.322 202.798 263.649 203.289 263.322 203.698C261.961 205.443 260.056 207.024 257.715 208.388L257.661 208.361Z" fill="#C2C2C2"/>
<path d="M264.544 212.437C260.951 214.51 256.731 216.037 251.967 216.964C251.205 217.1 250.416 216.882 250.143 216.446C249.898 216.009 250.307 215.546 251.042 215.382C255.398 214.537 259.236 213.146 262.503 211.237C265.769 209.328 268.192 207.119 269.662 204.61C269.907 204.173 270.724 203.928 271.486 204.092C272.248 204.255 272.63 204.719 272.385 205.128C270.751 207.882 268.111 210.337 264.544 212.41V212.437Z" fill="#C2C2C2"/>
<path d="M389.102 175.195V181.249C389.102 182.777 388.095 184.304 386.053 185.476L207.254 288.92C205.076 290.175 202.163 290.747 199.305 290.638V284.611C202.163 284.72 205.076 284.12 207.254 282.866L386.053 179.449C386.707 179.067 387.251 178.658 387.687 178.222C388.639 177.295 389.102 176.231 389.102 175.195Z" fill="#EBEBEB"/>
<path d="M388.983 175.211V181.265C388.983 182.793 387.976 184.32 385.934 185.492L207.135 288.936C203.079 291.254 196.545 291.282 192.516 288.963L-96.9987 121.484C-99.0132 120.339 -99.9932 118.812 -99.9932 117.284V111.257C-99.9932 112.321 -99.5304 113.357 -98.5776 114.257C-98.142 114.694 -97.6248 115.103 -96.9987 115.457L192.516 282.909C196.545 285.254 203.079 285.227 207.135 282.882L385.934 179.465C386.588 179.083 387.132 178.674 387.568 178.238C388.52 177.311 388.983 176.247 388.983 175.211Z" stroke="#CCCCCC" stroke-width="1.75" stroke-miterlimit="10"/>
</svg>
