<svg width="1025" height="730" viewBox="0 0 1025 730" fill="none" xmlns="http://www.w3.org/2000/svg">
<mask id="mask0_247_5347" style="mask-type:luminance" maskUnits="userSpaceOnUse" x="402" y="516" width="254" height="146">
<path d="M529.72 661.705C599.458 661.267 655.786 628.296 655.533 588.063C655.28 547.829 598.542 515.569 528.804 516.007C459.067 516.445 402.739 549.415 402.992 589.649C403.245 629.882 459.983 662.143 529.72 661.705Z" fill="white"/>
</mask>
<g mask="url(#mask0_247_5347)">
<path d="M405.1 548.433L262.534 589.783" stroke="#EBEBEB" stroke-width="1.25" stroke-miterlimit="10"/>
<path d="M412.997 552.986L270.431 594.336" stroke="#EBEBEB" stroke-width="1.25" stroke-miterlimit="10"/>
<path d="M420.885 557.54L278.319 598.889" stroke="#EBEBEB" stroke-width="1.25" stroke-miterlimit="10"/>
<path d="M428.782 562.094L286.216 603.443" stroke="#EBEBEB" stroke-width="1.25" stroke-miterlimit="10"/>
<path d="M436.672 566.645L294.114 607.995" stroke="#EBEBEB" stroke-width="1.25" stroke-miterlimit="10"/>
<path d="M444.569 571.199L302.003 612.557" stroke="#EBEBEB" stroke-width="1.25" stroke-miterlimit="10"/>
<path d="M452.458 575.752L309.901 617.11" stroke="#EBEBEB" stroke-width="1.25" stroke-miterlimit="10"/>
<path d="M460.355 580.314L317.79 621.664" stroke="#EBEBEB" stroke-width="1.25" stroke-miterlimit="10"/>
<path d="M468.244 584.866L325.687 626.215" stroke="#EBEBEB" stroke-width="1.25" stroke-miterlimit="10"/>
<path d="M476.142 589.42L333.576 630.769" stroke="#EBEBEB" stroke-width="1.25" stroke-miterlimit="10"/>
<path d="M492.408 475.204L349.851 516.553" stroke="#EBEBEB" stroke-width="1.25" stroke-miterlimit="10"/>
<path d="M500.305 479.756L357.739 521.106" stroke="#EBEBEB" stroke-width="1.25" stroke-miterlimit="10"/>
<path d="M508.195 484.31L365.638 525.659" stroke="#EBEBEB" stroke-width="1.25" stroke-miterlimit="10"/>
<path d="M516.092 488.863L373.527 530.212" stroke="#EBEBEB" stroke-width="1.25" stroke-miterlimit="10"/>
<path d="M523.981 493.416L381.423 534.766" stroke="#EBEBEB" stroke-width="1.25" stroke-miterlimit="10"/>
<path d="M531.878 497.97L389.312 539.328" stroke="#EBEBEB" stroke-width="1.25" stroke-miterlimit="10"/>
<path d="M539.776 502.521L397.21 543.879" stroke="#EBEBEB" stroke-width="1.25" stroke-miterlimit="10"/>
<path d="M547.664 507.083L405.099 548.433" stroke="#EBEBEB" stroke-width="1.25" stroke-miterlimit="10"/>
<path d="M555.562 511.637L412.997 552.987" stroke="#EBEBEB" stroke-width="1.25" stroke-miterlimit="10"/>
<path d="M563.451 516.19L420.885 557.539" stroke="#EBEBEB" stroke-width="1.25" stroke-miterlimit="10"/>
<path d="M571.348 520.744L428.782 562.093" stroke="#EBEBEB" stroke-width="1.25" stroke-miterlimit="10"/>
<path d="M579.237 525.297L436.671 566.647" stroke="#EBEBEB" stroke-width="1.25" stroke-miterlimit="10"/>
<path d="M587.135 529.85L444.569 571.2" stroke="#EBEBEB" stroke-width="1.25" stroke-miterlimit="10"/>
<path d="M595.023 534.403L452.457 575.752" stroke="#EBEBEB" stroke-width="1.25" stroke-miterlimit="10"/>
<path d="M602.922 538.956L460.356 580.313" stroke="#EBEBEB" stroke-width="1.25" stroke-miterlimit="10"/>
<path d="M610.81 543.517L468.245 584.867" stroke="#EBEBEB" stroke-width="1.25" stroke-miterlimit="10"/>
<path d="M618.707 548.07L476.141 589.419" stroke="#EBEBEB" stroke-width="1.25" stroke-miterlimit="10"/>
<path d="M706.017 474.841L563.451 516.19" stroke="#EBEBEB" stroke-width="1.25" stroke-miterlimit="10"/>
<path d="M713.905 479.393L571.348 520.742" stroke="#EBEBEB" stroke-width="1.25" stroke-miterlimit="10"/>
<path d="M721.802 483.947L579.237 525.297" stroke="#EBEBEB" stroke-width="1.25" stroke-miterlimit="10"/>
<path d="M729.693 488.501L587.135 529.851" stroke="#EBEBEB" stroke-width="1.25" stroke-miterlimit="10"/>
<path d="M737.59 493.053L595.024 534.402" stroke="#EBEBEB" stroke-width="1.25" stroke-miterlimit="10"/>
<path d="M745.477 497.607L602.92 538.956" stroke="#EBEBEB" stroke-width="1.25" stroke-miterlimit="10"/>
<path d="M753.375 502.159L610.809 543.517" stroke="#EBEBEB" stroke-width="1.25" stroke-miterlimit="10"/>
<path d="M761.264 506.713L618.707 548.071" stroke="#EBEBEB" stroke-width="1.25" stroke-miterlimit="10"/>
<path d="M476.141 589.421L333.575 630.77" stroke="#EBEBEB" stroke-width="1.25" stroke-miterlimit="10"/>
<path d="M484.029 593.974L341.472 635.323" stroke="#EBEBEB" stroke-width="1.25" stroke-miterlimit="10"/>
<path d="M491.927 598.527L349.361 639.877" stroke="#EBEBEB" stroke-width="1.25" stroke-miterlimit="10"/>
<path d="M499.815 603.08L357.257 644.429" stroke="#EBEBEB" stroke-width="1.25" stroke-miterlimit="10"/>
<path d="M507.714 607.633L365.148 648.991" stroke="#EBEBEB" stroke-width="1.25" stroke-miterlimit="10"/>
<path d="M515.602 612.188L373.045 653.545" stroke="#EBEBEB" stroke-width="1.25" stroke-miterlimit="10"/>
<path d="M523.5 616.749L380.934 658.098" stroke="#EBEBEB" stroke-width="1.25" stroke-miterlimit="10"/>
<path d="M531.388 621.301L388.831 662.65" stroke="#EBEBEB" stroke-width="1.25" stroke-miterlimit="10"/>
<path d="M539.286 625.854L396.72 667.204" stroke="#EBEBEB" stroke-width="1.25" stroke-miterlimit="10"/>
<path d="M547.183 630.407L404.617 671.757" stroke="#EBEBEB" stroke-width="1.25" stroke-miterlimit="10"/>
<path d="M555.073 634.962L412.507 676.311" stroke="#EBEBEB" stroke-width="1.25" stroke-miterlimit="10"/>
<path d="M562.969 639.514L420.403 680.863" stroke="#EBEBEB" stroke-width="1.25" stroke-miterlimit="10"/>
<path d="M570.858 644.066L428.292 685.424" stroke="#EBEBEB" stroke-width="1.25" stroke-miterlimit="10"/>
<path d="M578.756 648.621L436.19 689.979" stroke="#EBEBEB" stroke-width="1.25" stroke-miterlimit="10"/>
<path d="M586.644 653.183L444.079 694.532" stroke="#EBEBEB" stroke-width="1.25" stroke-miterlimit="10"/>
<path d="M594.542 657.734L451.976 699.084" stroke="#EBEBEB" stroke-width="1.25" stroke-miterlimit="10"/>
<path d="M602.43 662.287L459.864 703.636" stroke="#EBEBEB" stroke-width="1.25" stroke-miterlimit="10"/>
<path d="M618.707 548.07L476.141 589.419" stroke="#EBEBEB" stroke-width="1.25" stroke-miterlimit="10"/>
<path d="M626.596 552.625L484.03 593.974" stroke="#EBEBEB" stroke-width="1.25" stroke-miterlimit="10"/>
<path d="M634.493 557.176L491.927 598.526" stroke="#EBEBEB" stroke-width="1.25" stroke-miterlimit="10"/>
<path d="M642.382 561.73L499.816 603.08" stroke="#EBEBEB" stroke-width="1.25" stroke-miterlimit="10"/>
<path d="M650.279 566.283L507.713 607.632" stroke="#EBEBEB" stroke-width="1.25" stroke-miterlimit="10"/>
<path d="M658.169 570.836L515.603 612.186" stroke="#EBEBEB" stroke-width="1.25" stroke-miterlimit="10"/>
<path d="M666.065 575.389L523.499 616.747" stroke="#EBEBEB" stroke-width="1.25" stroke-miterlimit="10"/>
<path d="M673.955 579.942L531.389 621.3" stroke="#EBEBEB" stroke-width="1.25" stroke-miterlimit="10"/>
<path d="M681.853 584.504L539.287 625.853" stroke="#EBEBEB" stroke-width="1.25" stroke-miterlimit="10"/>
<path d="M689.741 589.058L547.184 630.408" stroke="#EBEBEB" stroke-width="1.25" stroke-miterlimit="10"/>
<path d="M697.639 593.61L555.073 634.959" stroke="#EBEBEB" stroke-width="1.25" stroke-miterlimit="10"/>
<path d="M705.527 598.163L562.969 639.512" stroke="#EBEBEB" stroke-width="1.25" stroke-miterlimit="10"/>
<path d="M713.424 602.717L570.858 644.067" stroke="#EBEBEB" stroke-width="1.25" stroke-miterlimit="10"/>
<path d="M721.313 607.269L578.756 648.619" stroke="#EBEBEB" stroke-width="1.25" stroke-miterlimit="10"/>
<path d="M729.211 611.824L586.645 653.182" stroke="#EBEBEB" stroke-width="1.25" stroke-miterlimit="10"/>
<path d="M737.1 616.377L594.542 657.734" stroke="#EBEBEB" stroke-width="1.25" stroke-miterlimit="10"/>
<path d="M744.997 620.938L602.431 662.287" stroke="#EBEBEB" stroke-width="1.25" stroke-miterlimit="10"/>
<path d="M752.887 625.49L610.33 666.839" stroke="#EBEBEB" stroke-width="1.25" stroke-miterlimit="10"/>
<path d="M760.784 630.044L618.218 671.393" stroke="#EBEBEB" stroke-width="1.25" stroke-miterlimit="10"/>
<path d="M768.671 634.596L626.114 675.946" stroke="#EBEBEB" stroke-width="1.25" stroke-miterlimit="10"/>
<path d="M776.569 639.151L634.003 680.5" stroke="#EBEBEB" stroke-width="1.25" stroke-miterlimit="10"/>
<path d="M784.459 643.703L641.902 685.052" stroke="#EBEBEB" stroke-width="1.25" stroke-miterlimit="10"/>
<path d="M792.356 648.255L649.79 689.605" stroke="#EBEBEB" stroke-width="1.25" stroke-miterlimit="10"/>
<path d="M761.264 506.713L618.706 548.071" stroke="#EBEBEB" stroke-width="1.25" stroke-miterlimit="10"/>
<path d="M769.16 511.275L626.595 552.624" stroke="#EBEBEB" stroke-width="1.25" stroke-miterlimit="10"/>
<path d="M777.058 515.828L634.492 557.177" stroke="#EBEBEB" stroke-width="1.25" stroke-miterlimit="10"/>
<path d="M784.948 520.381L642.382 561.731" stroke="#EBEBEB" stroke-width="1.25" stroke-miterlimit="10"/>
<path d="M792.844 524.934L650.278 566.283" stroke="#EBEBEB" stroke-width="1.25" stroke-miterlimit="10"/>
</g>
<path d="M1011.3 618.671L730.298 456.544C728.307 455.398 725.691 454.841 723.076 454.867H700.607V465.524L542.584 556.697C538.661 558.965 538.635 562.625 542.533 564.876L807.593 717.811V728.654H829.547C832.449 728.823 835.47 728.267 837.706 726.977L1011.24 626.849C1015.17 624.581 1015.19 620.922 1011.3 618.671H1011.3Z" fill="#F5F5F5"/>
<path d="M629.077 588.662L631.827 584.024L623.744 585.626L622.268 582.321L630.604 581.368L624.217 578.172L628.393 575.727L633.987 579.42L635.683 574.623L641.353 575.491L638.585 580.129L646.668 578.527L648.145 581.84L639.826 582.793L646.196 585.989L642.019 588.434L636.425 584.741L634.755 589.547L629.085 588.678L629.077 588.662Z" fill="#FAFAFA"/>
<path d="M988.853 621.005L815.314 721.133C811.39 723.401 805.037 723.409 801.139 721.166L520.133 559.04C516.235 556.789 516.26 553.13 520.184 550.862L638.248 482.741L762.968 482.48L988.895 612.835C992.793 615.086 992.768 618.746 988.845 621.014L988.853 621.005Z" fill="white"/>
<mask id="mask1_247_5347" style="mask-type:luminance" maskUnits="userSpaceOnUse" x="517" y="449" width="475" height="274">
<path d="M988.853 621.006L815.314 721.134C811.391 723.402 805.037 723.41 801.139 721.167L520.133 559.041C516.235 556.79 516.261 553.131 520.184 550.863L693.723 450.735C697.647 448.467 704 448.459 707.898 450.702L988.904 612.828C992.802 615.079 992.777 618.738 988.853 621.006Z" fill="white"/>
</mask>
<g mask="url(#mask1_247_5347)">
<path d="M768.26 706.226L837.893 670.888L746.812 660.677L764.201 624.708L851.528 641.917L821.693 591.529L884.079 581.478L901.772 634.025L963.019 593.847L1008.16 619.893L938.357 655.129L1029.44 665.34L1012.03 701.344L924.857 684.219L954.531 734.514L892.162 744.531L874.469 691.985L813.4 732.263L768.26 706.217V706.226Z" fill="#F5F5F5"/>
</g>
<path d="M762.978 482.471L638.257 482.733L693.733 450.726C697.656 448.457 704.01 448.449 707.908 450.692L762.978 482.471Z" fill="#F5F5F5"/>
<path d="M803.536 505.878L597.403 506.308L620.842 492.783L780.266 492.446L803.536 505.878Z" fill="#F5F5F5"/>
<path d="M988.853 621.006L815.314 721.134C811.39 723.402 805.037 723.41 801.139 721.167L520.133 559.041C516.235 556.79 516.26 553.131 520.184 550.863L693.723 450.735C697.646 448.467 704 448.459 707.898 450.702L988.904 612.828C992.802 615.079 992.776 618.738 988.853 621.006Z" stroke="#CCCCCC" stroke-width="1.25" stroke-miterlimit="10"/>
<path d="M575.954 558.754L569.33 554.934L588.146 544.083L594.82 547.936C596.701 549.024 597.941 550.17 598.541 551.384C599.148 552.599 599.114 553.821 598.448 555.052C597.781 556.283 596.465 557.464 594.516 558.594C592.558 559.723 590.508 560.482 588.365 560.879C586.222 561.266 584.096 561.283 581.978 560.938C579.86 560.583 577.852 559.858 575.954 558.771V558.754ZM576.688 555.246L579.194 556.696C580.358 557.371 581.556 557.818 582.771 558.037C583.986 558.256 585.243 558.223 586.534 557.953C587.825 557.675 589.167 557.135 590.576 556.325C591.968 555.524 592.896 554.749 593.377 554.007C593.849 553.265 593.9 552.54 593.52 551.84C593.141 551.14 592.364 550.457 591.2 549.782L588.686 548.332L576.688 555.255V555.246Z" fill="#C2C2C2"/>
<path d="M594.046 569.504C592.603 568.669 591.658 567.784 591.219 566.848C590.772 565.912 590.814 564.968 591.346 564.015C591.869 563.062 592.881 562.16 594.366 561.3C595.818 560.465 597.37 559.892 599.024 559.58C600.677 559.268 602.323 559.234 603.951 559.47C605.58 559.706 607.09 560.221 608.457 561.013C609.376 561.544 610.094 562.135 610.6 562.759C611.106 563.391 611.359 564.049 611.359 564.74C611.359 565.431 611.089 566.131 610.524 566.84C609.959 567.548 609.081 568.256 607.875 568.947L606.803 569.563L594.974 562.742L597.395 561.342L605.571 566.055C606.136 565.735 606.508 565.372 606.702 564.985C606.896 564.597 606.896 564.2 606.719 563.813C606.541 563.425 606.162 563.062 605.605 562.742C605.014 562.404 604.356 562.177 603.631 562.076C602.905 561.974 602.188 561.974 601.479 562.092C600.77 562.21 600.129 562.43 599.564 562.742L597.26 564.074C596.56 564.479 596.088 564.9 595.843 565.339C595.59 565.777 595.564 566.216 595.767 566.654C595.969 567.084 596.391 567.489 597.041 567.868C597.471 568.113 597.927 568.307 598.408 568.45C598.889 568.593 599.378 568.661 599.884 568.661C600.382 568.661 600.88 568.602 601.369 568.475L604.727 570.684C603.673 571.081 602.542 571.3 601.336 571.351C600.129 571.401 598.906 571.275 597.657 570.971C596.417 570.668 595.218 570.179 594.063 569.512L594.046 569.504Z" fill="#C2C2C2"/>
<path d="M603.36 574.564L622.175 563.712L626.056 565.955L618.986 570.036L619.104 570.103C619.652 569.985 620.285 569.901 621.01 569.859C621.728 569.817 622.487 569.876 623.28 570.028C624.073 570.179 624.858 570.474 625.643 570.93C626.664 571.52 627.339 572.22 627.668 573.029C627.997 573.839 627.879 574.699 627.322 575.618C626.765 576.537 625.676 577.456 624.056 578.392C622.479 579.302 620.901 579.918 619.323 580.255C617.737 580.593 616.243 580.668 614.826 580.491C613.408 580.314 612.168 579.918 611.105 579.302C610.354 578.864 609.839 578.426 609.561 577.979C609.291 577.532 609.173 577.102 609.224 576.689C609.274 576.276 609.401 575.905 609.62 575.576L609.443 575.474L607.182 576.781L603.351 574.572L603.36 574.564ZM614.218 572.684C613.383 573.164 612.767 573.653 612.371 574.151C611.983 574.648 611.831 575.12 611.915 575.567C612.008 576.023 612.362 576.427 612.995 576.79C613.628 577.152 614.337 577.363 615.13 577.414C615.914 577.464 616.741 577.372 617.602 577.144C618.462 576.916 619.298 576.562 620.116 576.09C620.935 575.618 621.534 575.146 621.93 574.657C622.327 574.168 622.479 573.695 622.386 573.248C622.301 572.793 621.93 572.38 621.297 572.017C620.665 571.655 619.964 571.444 619.188 571.385C618.42 571.326 617.61 571.41 616.758 571.638C615.906 571.866 615.062 572.211 614.227 572.7L614.218 572.684Z" fill="#C2C2C2"/>
<path d="M637.48 575.87C636.898 575.533 636.602 575.145 636.577 574.681C636.552 574.218 636.813 573.83 637.362 573.518C637.91 573.206 638.577 573.054 639.378 573.071C640.18 573.088 640.863 573.256 641.437 573.585C642.011 573.914 642.314 574.31 642.34 574.774C642.365 575.229 642.104 575.617 641.555 575.938C641.007 576.25 640.34 576.401 639.539 576.393C638.737 576.376 638.054 576.207 637.471 575.879L637.48 575.87ZM619.601 583.931L633.708 575.786L637.59 578.029L623.482 586.174L619.601 583.931Z" fill="#C2C2C2"/>
<path d="M648.146 584.117L645.201 585.812L636.764 580.947L639.708 579.252L648.146 584.117ZM645.007 578.409L648.888 580.651L635.734 588.24C635.372 588.451 635.144 588.645 635.059 588.822C634.975 588.999 634.984 589.168 635.102 589.328C635.22 589.488 635.405 589.64 635.667 589.791C635.853 589.893 636.047 589.994 636.266 590.078C636.485 590.162 636.646 590.23 636.764 590.272L634.46 592.304C634.207 592.228 633.861 592.11 633.423 591.958C632.992 591.807 632.511 591.587 631.988 591.301C631.018 590.778 630.326 590.238 629.904 589.665C629.491 589.092 629.39 588.518 629.609 587.945C629.828 587.372 630.402 586.815 631.33 586.292L644.999 578.409H645.007Z" fill="#C2C2C2"/>
<path d="M652.025 602.961L659.231 599.302L649.798 598.248L651.595 594.521L660.64 596.3L657.552 591.081L664.006 590.044L665.837 595.482L672.174 591.326L676.848 594.024L669.626 597.675L679.059 598.729L677.253 602.456L668.225 600.685L671.296 605.896L664.842 606.933L663.011 601.494L656.691 605.66L652.017 602.961H652.025Z" fill="#C2C2C2"/>
<path d="M706.261 490.372L698.803 486.064C697.647 485.398 697.52 484.386 698.524 483.812L698.811 483.652C699.815 483.07 701.562 483.146 702.718 483.812L710.176 488.121C711.332 488.787 711.459 489.799 710.455 490.372L710.168 490.532C709.164 491.114 707.417 491.038 706.261 490.372Z" fill="#C2C2C2"/>
<path d="M741.209 510.541L733.75 506.233C732.594 505.567 732.468 504.555 733.472 503.981L733.758 503.821C734.763 503.239 736.509 503.315 737.665 503.981L745.124 508.29C746.279 508.956 746.406 509.968 745.402 510.541L745.115 510.702C744.111 511.283 742.365 511.207 741.209 510.541Z" fill="#C2C2C2"/>
<path d="M729.741 499.412L718.089 492.691C717.018 492.076 715.271 492.076 714.191 492.691C713.111 493.315 713.103 494.319 714.174 494.943L725.826 501.663C726.898 502.278 728.644 502.278 729.724 501.663C730.804 501.039 730.813 500.036 729.741 499.412Z" fill="#C2C2C2"/>
<path d="M764.69 519.58L753.038 512.86C751.966 512.244 750.22 512.244 749.14 512.86C748.06 513.484 748.051 514.487 749.123 515.111L760.775 521.831C761.846 522.446 763.593 522.446 764.673 521.831C765.753 521.207 765.761 520.204 764.69 519.58Z" fill="#C2C2C2"/>
<path d="M991.806 616.891V622.751C991.806 624.227 990.828 625.711 988.845 626.841L815.314 726.985C811.374 729.228 805.037 729.253 801.122 727.01L520.142 564.867C518.184 563.754 517.239 562.279 517.239 560.803V554.968C517.239 555.997 517.687 557 518.615 557.869C519.036 558.291 519.543 558.687 520.15 559.033L801.131 721.142C805.037 723.41 811.382 723.384 815.322 721.116L988.853 620.998C989.486 620.627 990.018 620.23 990.439 619.809C991.368 618.915 991.815 617.878 991.815 616.874L991.806 616.891Z" fill="white" stroke="#CCCCCC" stroke-width="1.25" stroke-miterlimit="10"/>
<path d="M832.096 617.195L820.394 623.899C819.314 624.523 817.517 624.523 816.479 623.899L804.903 617.238L816.732 610.416C817.188 610.163 817.77 610.045 818.394 610.045C819.187 610.045 820.014 610.214 820.638 610.585L832.046 617.162L832.088 617.204L832.096 617.195Z" fill="#C2C2C2"/>
<path d="M829.556 629.8L818.352 636.293L796.744 623.805C796.204 623.476 795.908 623.097 795.908 622.81C795.908 622.481 796.204 622.271 796.406 622.144L803.856 617.861L815.972 624.808C816.639 625.222 817.516 625.39 818.427 625.39C819.263 625.39 820.132 625.18 820.841 624.851L829.548 629.8H829.556Z" fill="#C2C2C2"/>
<path d="M855.586 631.26C855.586 631.555 855.29 631.758 855.046 631.926L847.595 636.21L835.521 629.22C834.104 628.427 831.944 628.427 830.569 629.22L821.946 624.228L833.108 617.778L854.759 630.265C855.256 630.56 855.594 630.931 855.594 631.26H855.586Z" fill="#C2C2C2"/>
<path d="M846.549 636.79L834.72 643.611C833.758 644.193 831.97 644.109 830.805 643.443L819.398 636.866L831.058 630.12C832.138 629.496 833.935 629.496 834.973 630.12L846.549 636.781V636.79Z" fill="#C2C2C2"/>
<path d="M857.578 645.366C856.498 645.99 855.308 646.546 854.043 647.019C853.393 647.263 852.532 647.154 852.119 646.783C851.705 646.412 851.891 645.914 852.541 645.67C854.743 644.843 856.675 643.73 858.109 642.457C858.531 642.086 859.392 641.976 860.033 642.213C860.674 642.449 860.86 642.946 860.438 643.317C859.62 644.051 858.658 644.734 857.578 645.358V645.366Z" fill="#C2C2C2"/>
<path d="M864.234 649.202C861.947 650.517 859.307 651.58 856.379 652.338C855.679 652.524 854.852 652.338 854.54 651.942C854.227 651.537 854.539 651.065 855.24 650.88C857.855 650.197 860.218 649.252 862.268 648.072C864.318 646.892 865.955 645.526 867.145 644.016C867.465 643.612 868.292 643.435 868.984 643.612C869.685 643.789 869.988 644.269 869.676 644.674C868.343 646.36 866.512 647.887 864.226 649.202H864.234Z" fill="#C2C2C2"/>
<path d="M870.891 653.046C867.407 655.053 863.298 656.537 858.674 657.439C857.948 657.582 857.155 657.355 856.919 656.942C856.674 656.52 857.071 656.065 857.796 655.921C862.015 655.095 865.761 653.746 868.934 651.916C872.115 650.087 874.452 647.92 875.878 645.491C876.122 645.07 876.915 644.842 877.641 644.985C878.367 645.129 878.755 645.576 878.51 645.997C876.941 648.662 874.376 651.031 870.891 653.046Z" fill="#C2C2C2"/>
<path d="M991.808 616.89V622.75C991.808 624.225 990.83 625.709 988.847 626.839L815.316 726.983C813.198 728.198 810.371 728.754 807.604 728.644V722.81C810.38 722.919 813.206 722.337 815.316 721.123L988.847 621.004C989.48 620.633 990.011 620.237 990.433 619.816C991.361 618.922 991.808 617.885 991.808 616.881V616.89Z" fill="#EBEBEB"/>
<path d="M991.806 616.891V622.751C991.806 624.227 990.828 625.711 988.845 626.841L815.314 726.985C811.374 729.228 805.037 729.253 801.122 727.01L520.142 564.867C518.184 563.754 517.239 562.279 517.239 560.803V554.968C517.239 555.997 517.687 557 518.615 557.869C519.036 558.291 519.543 558.687 520.15 559.033L801.131 721.142C805.037 723.41 811.382 723.384 815.322 721.116L988.853 620.998C989.486 620.627 990.018 620.23 990.439 619.809C991.368 618.915 991.815 617.878 991.815 616.874L991.806 616.891Z" stroke="#CCCCCC" stroke-width="1.25" stroke-miterlimit="10"/>
<path d="M902.801 187.072H818.959V132.266L902.801 187.072Z" fill="#F5F5F5"/>
<path d="M771.71 245.841H700.364V187.072L771.71 245.841Z" fill="#F5F5F5"/>
<path d="M757.88 292.52C755.569 299.265 750.894 305.066 744.549 308.726L738.28 312.343V315.522C738.28 324.054 733.724 331.93 726.342 336.188L364.27 545.102C359.233 548.027 353.664 549.596 348.028 549.832C347.471 549.874 346.914 549.891 346.357 549.891H287.507V532.606L120.051 436.003L700.363 248.734L752.497 278.826C757.256 281.567 759.661 287.3 757.889 292.511L757.88 292.52Z" fill="#F5F5F5"/>
<path d="M981.892 144.989L916.714 182.595C907.897 187.688 899.898 188.286 894.026 185.141C893.747 185.006 893.469 184.846 893.207 184.661C887.571 181.204 884.129 174.096 884.129 164.054V88.5977L981.884 144.981L981.892 144.989Z" fill="white" stroke="#CCCCCC" stroke-width="1.25" stroke-linecap="round" stroke-linejoin="round"/>
<path d="M884.138 94.6777L976.628 148.026" stroke="#CCCCCC" stroke-width="1.25" stroke-linecap="round" stroke-linejoin="round"/>
<path d="M893.216 184.67L818.959 141.828V125.276C818.959 120.487 819.752 115.453 821.186 110.403C822.84 104.618 825.346 98.809 828.51 93.3789C834.399 83.2186 842.541 74.3231 851.536 69.1376C859.973 64.264 867.659 63.5052 873.447 66.1949C880.012 69.2388 884.137 76.7177 884.137 87.6706V164.062C884.137 174.105 887.58 181.204 893.216 184.67Z" fill="#EBEBEB" stroke="#CCCCCC" stroke-width="1.25" stroke-linecap="round" stroke-linejoin="round"/>
<path d="M762.479 243.219L656.008 181.802V167.088C656.008 151.616 661.484 134.474 670.334 119.238C679.168 104.002 691.394 90.6797 704.885 82.8804C706.142 82.1637 707.374 81.4891 708.606 80.9073C719.811 75.4014 729.961 74.8196 737.782 78.479C737.901 78.5211 738.002 78.5802 738.078 78.6392C747.73 83.2935 753.78 94.4319 753.78 110.68V222.856C753.78 232.662 757.087 239.686 762.479 243.219Z" fill="#EBEBEB" stroke="#CCCCCC" stroke-width="1.25" stroke-miterlimit="10"/>
<path d="M700.364 206.027V282.874C700.364 293.532 694.669 303.397 685.439 308.726L623.964 344.19L554.204 192.502L448.965 131.802L510.06 96.5572C520.548 90.4948 530.065 89.7949 537.026 93.5555C537.346 93.7326 684.038 178.362 688.62 181.01C688.662 181.027 688.696 181.069 688.738 181.069C695.926 184.99 700.364 193.615 700.364 206.027Z" fill="white" stroke="#CCCCCC" stroke-width="1.25" stroke-miterlimit="10"/>
<path d="M651.368 190.014L661.712 184.045C683.058 171.726 700.363 181.566 700.363 206.018V282.873C700.363 293.539 694.668 303.388 685.429 308.725L623.971 344.189" fill="#EBEBEB"/>
<path d="M651.368 190.014L661.712 184.045C683.058 171.726 700.363 181.566 700.363 206.018V282.873C700.363 293.539 694.668 303.388 685.429 308.725L623.971 344.189" stroke="#CCCCCC" stroke-width="1.25" stroke-miterlimit="10"/>
<path d="M68.2805 378.381C68.2637 378.558 68.2637 378.735 68.2637 378.921V378.381H68.2805Z" fill="white" stroke="#CCCCCC" stroke-width="1.25" stroke-linecap="round" stroke-linejoin="round"/>
<path d="M679.152 213.363V315.531C679.152 324.064 674.596 331.939 667.213 336.197L305.141 545.111C294.055 551.519 280.403 551.519 269.317 545.111L80.2102 436.021C72.8276 431.763 68.2714 423.888 68.2714 415.355V378.921C68.2714 383.297 70.617 387.294 75.3756 390.043L268.405 501.418C278.792 507.404 296.822 505.153 308.626 496.409L669.508 228.667C675.777 224.03 679.043 218.465 679.144 213.372H679.161L679.152 213.363Z" fill="white" stroke="#CCCCCC" stroke-width="1.25" stroke-linecap="round" stroke-linejoin="round"/>
<path d="M679.152 213.363V315.531C679.152 324.064 674.596 331.939 667.214 336.197L305.142 545.111C302.796 546.46 300.324 547.539 297.801 548.29V502.092C301.699 500.701 305.403 498.787 308.626 496.401L669.509 228.659C675.777 224.021 679.043 218.456 679.144 213.363H679.161H679.152Z" fill="#EBEBEB"/>
<path d="M666.961 205.723L473.94 94.365C466.017 89.795 452.306 91.5067 443.312 98.1762L82.4129 365.893C73.4102 372.571 72.5328 381.686 80.4554 386.256L273.494 497.631C281.416 502.201 295.127 500.49 304.13 493.812L665.012 226.078C674.006 219.4 674.884 210.285 666.969 205.715L666.961 205.723Z" fill="white" stroke="#CCCCCC" stroke-width="1.25" stroke-miterlimit="10"/>
<path d="M466.801 340.034L295.278 241.07C289.338 237.647 279.053 238.928 272.303 243.928L108.965 365.093C102.215 370.101 101.557 376.94 107.497 380.363L279.028 479.326C284.968 482.75 295.253 481.468 302.003 476.468L465.333 355.295C472.083 350.287 472.741 343.449 466.801 340.025V340.034Z" fill="white" stroke="#CCCCCC" stroke-width="1.25" stroke-miterlimit="10"/>
<path d="M615.88 229.433L444.357 130.478C438.417 127.055 428.132 128.336 421.383 133.337L312.625 214.012C305.875 219.02 305.217 225.858 311.157 229.282L482.68 328.245C488.62 331.669 498.905 330.387 505.655 325.387L614.412 244.703C621.162 239.695 621.82 232.857 615.88 229.433Z" fill="white" stroke="#CCCCCC" stroke-width="1.25" stroke-miterlimit="10"/>
<path d="M296.714 305.884L253.523 280.96C249.962 278.902 250.351 274.805 254.4 271.794L276.034 255.749C280.084 252.747 286.251 251.98 289.82 254.029L333.011 278.953C334.994 280.091 334.775 282.376 332.522 284.046L304.375 304.931C302.122 306.601 298.697 307.031 296.714 305.884Z" fill="white" stroke="#CCCCCC" stroke-width="1.25" stroke-miterlimit="10"/>
<path d="M355.859 340.007L309.799 313.43C307.817 312.292 308.036 310.007 310.289 308.337L338.436 287.452C340.688 285.782 344.114 285.352 346.097 286.499L392.156 313.076C394.139 314.214 393.92 316.499 391.667 318.169L363.52 339.054C361.267 340.724 357.842 341.154 355.859 340.007Z" fill="white" stroke="#CCCCCC" stroke-width="1.25" stroke-miterlimit="10"/>
<path d="M412.135 372.479L368.936 347.554C366.954 346.416 367.173 344.131 369.426 342.461L397.573 321.576C399.825 319.906 403.251 319.476 405.234 320.623L448.433 345.547C451.994 347.605 451.605 351.703 447.556 354.713L425.922 370.758C421.872 373.76 415.704 374.527 412.135 372.479Z" fill="white" stroke="#CCCCCC" stroke-width="1.25" stroke-miterlimit="10"/>
<path d="M254.365 337.292L211.166 312.368C207.606 310.311 207.994 306.213 212.044 303.203L233.677 287.157C237.727 284.155 243.895 283.388 247.464 285.437L290.655 310.361C292.637 311.5 292.418 313.785 290.165 315.454L262.018 336.34C259.765 338.009 256.34 338.439 254.357 337.292H254.365Z" fill="white" stroke="#CCCCCC" stroke-width="1.25" stroke-miterlimit="10"/>
<path d="M313.511 371.416L267.452 344.84C265.469 343.701 265.688 341.416 267.941 339.747L296.088 318.861C298.341 317.192 301.766 316.762 303.749 317.908L349.809 344.485C351.791 345.624 351.572 347.909 349.319 349.578L321.172 370.464C318.919 372.133 315.494 372.563 313.511 371.416Z" fill="white" stroke="#CCCCCC" stroke-width="1.25" stroke-miterlimit="10"/>
<path d="M369.789 403.887L326.589 378.963C324.607 377.824 324.826 375.539 327.079 373.87L355.226 352.984C357.479 351.315 360.904 350.885 362.887 352.032L406.086 376.956C409.647 379.013 409.259 383.111 405.209 386.121L383.575 402.167C379.525 405.169 373.358 405.936 369.789 403.887Z" fill="white" stroke="#CCCCCC" stroke-width="1.25" stroke-miterlimit="10"/>
<path d="M211.724 368.533L168.525 343.609C164.964 341.552 165.353 337.454 169.402 334.444L191.036 318.398C195.086 315.396 201.253 314.629 204.822 316.678L248.022 341.602C250.004 342.741 249.785 345.026 247.532 346.695L219.385 367.581C217.133 369.25 213.707 369.68 211.724 368.533Z" fill="white" stroke="#CCCCCC" stroke-width="1.25" stroke-miterlimit="10"/>
<path d="M270.87 402.665L224.802 376.088C222.819 374.949 223.038 372.664 225.291 370.995L253.438 350.109C255.691 348.44 259.116 348.01 261.099 349.157L307.159 375.733C309.141 376.872 308.922 379.157 306.669 380.826L278.522 401.712C276.27 403.381 272.844 403.811 270.861 402.665H270.87Z" fill="white" stroke="#CCCCCC" stroke-width="1.25" stroke-miterlimit="10"/>
<path d="M327.147 435.135L283.948 410.211C281.965 409.072 282.184 406.787 284.437 405.118L312.584 384.232C314.837 382.563 318.263 382.133 320.245 383.279L363.445 408.204C367.005 410.261 366.617 414.359 362.567 417.369L340.934 433.415C336.884 436.416 330.716 437.184 327.147 435.135Z" fill="white" stroke="#CCCCCC" stroke-width="1.25" stroke-miterlimit="10"/>
<path d="M169.671 400.126L126.472 375.202C122.912 373.145 123.3 369.047 127.35 366.037L148.983 349.991C153.033 346.989 159.201 346.222 162.77 348.271L205.969 373.195C207.952 374.333 207.732 376.618 205.48 378.288L177.333 399.173C175.08 400.843 171.654 401.273 169.671 400.126Z" fill="white" stroke="#CCCCCC" stroke-width="1.25" stroke-miterlimit="10"/>
<path d="M252.923 400.287L216.626 427.218L182.75 407.674C180.767 406.527 180.986 404.25 183.239 402.581L211.386 381.695C213.639 380.026 217.064 379.596 219.047 380.743L252.923 400.287Z" fill="white" stroke="#CCCCCC" stroke-width="1.25" stroke-miterlimit="10"/>
<path d="M290.385 421.897L254.087 448.828L216.626 427.218L252.923 400.286L290.385 421.897Z" fill="white" stroke="#CCCCCC" stroke-width="1.25" stroke-miterlimit="10"/>
<path d="M320.515 448.955L298.881 465.001C294.831 468.011 288.664 468.778 285.095 466.721L254.088 448.829L290.385 421.898L321.392 439.79C324.961 441.847 324.565 445.945 320.515 448.955Z" fill="white" stroke="#CCCCCC" stroke-width="1.25" stroke-miterlimit="10"/>
<path d="M615.88 229.433L444.357 130.478C438.417 127.055 428.132 128.336 421.383 133.337L312.625 214.012C305.875 219.02 305.217 225.858 311.157 229.282L482.68 328.245C488.62 331.669 498.905 330.387 505.655 325.387L614.412 244.703C621.162 239.695 621.82 232.857 615.88 229.433Z" fill="white" stroke="#CCCCCC" stroke-width="1.25" stroke-miterlimit="10"/>
<path d="M609.941 242.123L501.184 322.807C497.252 325.724 491.245 326.475 487.785 324.476L316.262 225.521C312.803 223.523 313.191 219.526 317.115 216.617L425.872 135.942C429.804 133.025 435.811 132.274 439.271 134.273L610.793 233.228C614.253 235.226 613.873 239.223 609.941 242.132V242.123Z" fill="white" stroke="#CCCCCC" stroke-width="1.25" stroke-miterlimit="10"/>
<path d="M615.88 229.434L444.357 130.478C438.417 127.047 428.132 128.328 421.382 133.337L312.625 214.012C305.875 219.02 305.217 225.85 311.157 229.282L482.68 328.245C488.62 331.677 498.905 330.395 505.655 325.387L614.412 244.703C621.162 239.695 621.82 232.865 615.88 229.434ZM501.183 322.798C497.251 325.716 491.244 326.466 487.784 324.468L316.261 225.513C312.802 223.514 313.19 219.518 317.114 216.609L425.871 135.934C429.803 133.016 435.81 132.266 439.27 134.264L610.792 233.219C614.252 235.218 613.872 239.214 609.94 242.123L501.183 322.807V322.798Z" fill="white" stroke="#CCCCCC" stroke-width="1.25" stroke-miterlimit="10"/>
<mask id="mask2_247_5347" style="mask-type:luminance" maskUnits="userSpaceOnUse" x="391" y="181" width="90" height="61">
<path d="M465.037 228.246C446.568 241.948 418.429 245.447 402.179 236.071C385.928 226.695 387.726 207.993 406.186 194.292C424.656 180.59 452.794 177.091 469.045 186.467C485.295 195.843 483.498 214.545 465.037 228.246Z" fill="white"/>
</mask>
<g mask="url(#mask2_247_5347)">
<path d="M392.906 176.4L318.16 209.486" stroke="#E6E6E6" stroke-width="1.25" stroke-miterlimit="10"/>
<path d="M396.678 178.575L321.932 211.661" stroke="#E6E6E6" stroke-width="1.25" stroke-miterlimit="10"/>
<path d="M400.458 180.75L325.712 213.845" stroke="#E6E6E6" stroke-width="1.25" stroke-miterlimit="10"/>
<path d="M404.229 182.927L329.483 216.022" stroke="#E6E6E6" stroke-width="1.25" stroke-miterlimit="10"/>
<path d="M408.001 185.11L333.263 218.196" stroke="#E6E6E6" stroke-width="1.25" stroke-miterlimit="10"/>
<path d="M411.781 187.286L337.035 220.38" stroke="#E6E6E6" stroke-width="1.25" stroke-miterlimit="10"/>
<path d="M415.553 189.46L340.807 222.555" stroke="#E6E6E6" stroke-width="1.25" stroke-miterlimit="10"/>
<path d="M419.333 191.645L344.587 224.731" stroke="#E6E6E6" stroke-width="1.25" stroke-miterlimit="10"/>
<path d="M423.105 193.82L348.358 226.906" stroke="#E6E6E6" stroke-width="1.25" stroke-miterlimit="10"/>
<path d="M426.877 195.996L352.139 229.09" stroke="#E6E6E6" stroke-width="1.25" stroke-miterlimit="10"/>
<path d="M430.656 198.17L355.909 231.265" stroke="#E6E6E6" stroke-width="1.25" stroke-miterlimit="10"/>
<path d="M434.427 200.354L359.681 233.44" stroke="#E6E6E6" stroke-width="1.25" stroke-miterlimit="10"/>
<path d="M438.208 202.53L363.462 235.624" stroke="#E6E6E6" stroke-width="1.25" stroke-miterlimit="10"/>
<path d="M441.979 204.705L367.232 237.8" stroke="#E6E6E6" stroke-width="1.25" stroke-miterlimit="10"/>
<path d="M445.75 206.888L371.012 239.974" stroke="#E6E6E6" stroke-width="1.25" stroke-miterlimit="10"/>
<path d="M475.195 147.663L400.457 180.75" stroke="#E6E6E6" stroke-width="1.25" stroke-miterlimit="10"/>
<path d="M478.968 149.839L404.23 182.926" stroke="#E6E6E6" stroke-width="1.25" stroke-miterlimit="10"/>
<path d="M482.747 152.014L408 185.109" stroke="#E6E6E6" stroke-width="1.25" stroke-miterlimit="10"/>
<path d="M486.518 154.199L411.78 187.285" stroke="#E6E6E6" stroke-width="1.25" stroke-miterlimit="10"/>
<path d="M490.298 156.373L415.552 189.46" stroke="#E6E6E6" stroke-width="1.25" stroke-miterlimit="10"/>
<path d="M494.07 158.55L419.332 191.645" stroke="#E6E6E6" stroke-width="1.25" stroke-miterlimit="10"/>
<path d="M497.842 160.725L423.104 193.82" stroke="#E6E6E6" stroke-width="1.25" stroke-miterlimit="10"/>
<path d="M501.621 162.909L426.875 195.995" stroke="#E6E6E6" stroke-width="1.25" stroke-miterlimit="10"/>
<path d="M505.393 165.084L430.655 198.171" stroke="#E6E6E6" stroke-width="1.25" stroke-miterlimit="10"/>
<path d="M509.173 167.259L434.426 200.354" stroke="#E6E6E6" stroke-width="1.25" stroke-miterlimit="10"/>
<path d="M512.944 169.444L438.206 202.53" stroke="#E6E6E6" stroke-width="1.25" stroke-miterlimit="10"/>
<path d="M516.715 171.619L441.977 204.705" stroke="#E6E6E6" stroke-width="1.25" stroke-miterlimit="10"/>
<path d="M520.496 173.793L445.75 206.888" stroke="#E6E6E6" stroke-width="1.25" stroke-miterlimit="10"/>
<path d="M445.75 206.887L371.012 239.973" stroke="#E6E6E6" stroke-width="1.25" stroke-miterlimit="10"/>
<path d="M449.53 209.064L374.784 242.158" stroke="#E6E6E6" stroke-width="1.25" stroke-miterlimit="10"/>
<path d="M453.302 211.24L378.555 244.334" stroke="#E6E6E6" stroke-width="1.25" stroke-miterlimit="10"/>
<path d="M457.081 213.422L382.335 246.508" stroke="#E6E6E6" stroke-width="1.25" stroke-miterlimit="10"/>
<path d="M460.853 215.598L386.106 248.684" stroke="#E6E6E6" stroke-width="1.25" stroke-miterlimit="10"/>
<path d="M464.625 217.773L389.887 250.867" stroke="#E6E6E6" stroke-width="1.25" stroke-miterlimit="10"/>
<path d="M468.404 219.949L393.658 253.043" stroke="#E6E6E6" stroke-width="1.25" stroke-miterlimit="10"/>
<path d="M472.175 222.132L397.437 255.218" stroke="#E6E6E6" stroke-width="1.25" stroke-miterlimit="10"/>
<path d="M475.955 224.308L401.209 257.403" stroke="#E6E6E6" stroke-width="1.25" stroke-miterlimit="10"/>
<path d="M479.727 226.483L404.981 259.577" stroke="#E6E6E6" stroke-width="1.25" stroke-miterlimit="10"/>
<path d="M483.498 228.667L408.76 261.754" stroke="#E6E6E6" stroke-width="1.25" stroke-miterlimit="10"/>
<path d="M487.278 230.843L412.532 263.938" stroke="#E6E6E6" stroke-width="1.25" stroke-miterlimit="10"/>
<path d="M491.05 233.017L416.312 266.112" stroke="#E6E6E6" stroke-width="1.25" stroke-miterlimit="10"/>
<path d="M494.829 235.193L420.082 268.287" stroke="#E6E6E6" stroke-width="1.25" stroke-miterlimit="10"/>
<path d="M498.601 237.377L423.855 270.464" stroke="#E6E6E6" stroke-width="1.25" stroke-miterlimit="10"/>
<path d="M502.373 239.553L427.635 272.648" stroke="#E6E6E6" stroke-width="1.25" stroke-miterlimit="10"/>
<path d="M506.153 241.727L431.407 274.822" stroke="#E6E6E6" stroke-width="1.25" stroke-miterlimit="10"/>
<path d="M520.496 173.793L445.75 206.888" stroke="#E6E6E6" stroke-width="1.25" stroke-miterlimit="10"/>
<path d="M524.268 175.969L449.53 209.064" stroke="#E6E6E6" stroke-width="1.25" stroke-miterlimit="10"/>
<path d="M528.047 178.153L453.301 211.239" stroke="#E6E6E6" stroke-width="1.25" stroke-miterlimit="10"/>
<path d="M531.82 180.327L457.082 213.422" stroke="#E6E6E6" stroke-width="1.25" stroke-miterlimit="10"/>
<path d="M535.591 182.503L460.853 215.598" stroke="#E6E6E6" stroke-width="1.25" stroke-miterlimit="10"/>
<path d="M539.37 184.688L464.624 217.774" stroke="#E6E6E6" stroke-width="1.25" stroke-miterlimit="10"/>
<path d="M543.141 186.863L468.403 219.949" stroke="#E6E6E6" stroke-width="1.25" stroke-miterlimit="10"/>
<path d="M546.922 189.038L472.176 222.133" stroke="#E6E6E6" stroke-width="1.25" stroke-miterlimit="10"/>
<path d="M550.694 191.213L475.956 224.308" stroke="#E6E6E6" stroke-width="1.25" stroke-miterlimit="10"/>
<path d="M554.466 193.398L479.728 226.484" stroke="#E6E6E6" stroke-width="1.25" stroke-miterlimit="10"/>
</g>
<path d="M421.746 250.993L446.374 234.467L416.143 234.256L423.248 219.627L451.977 222.705L443.725 204.442L465.029 197.991L469.13 217.587L491.109 199.534L505.36 207.755L480.681 224.248L510.912 224.459L503.807 239.096L475.129 236.052L483.338 254.29L462.043 260.724L457.942 241.128L436.022 259.214L421.771 250.993H421.746Z" fill="#C2C2C2"/>
<mask id="mask3_247_5347" style="mask-type:luminance" maskUnits="userSpaceOnUse" x="313" y="133" width="301" height="193">
<path d="M501.184 322.8C497.252 325.718 491.245 326.468 487.785 324.47L316.263 225.515C312.803 223.516 313.191 219.52 317.115 216.611L425.872 135.935C429.804 133.018 435.811 132.268 439.271 134.266L610.794 233.221C614.253 235.219 613.873 239.216 609.941 242.125L501.184 322.809V322.8Z" fill="white"/>
</mask>
<g mask="url(#mask3_247_5347)">
<path d="M530.266 301.231L462.185 309.705L494.053 328.094L530.266 301.231Z" fill="#F5F5F5"/>
<path d="M446.636 300.734L455.647 305.936L537.7 295.717L547.926 288.128L446.636 300.734Z" fill="#F5F5F5"/>
<path d="M397.26 158.574L416.784 138.591L384.418 144.029L386.013 129.079L417.94 126.584L401.647 111.111L421.753 101.137L434.156 118.624L450.229 97.7133L468.808 102.713L449.217 122.671L481.582 117.233L479.988 132.191L448.128 134.703L464.353 150.159L444.247 160.125L431.844 142.638L415.839 163.565L397.26 158.565V158.574Z" fill="#FAFAFA"/>
</g>
<path d="M501.184 322.8C497.252 325.718 491.245 326.468 487.785 324.47L316.263 225.514C312.803 223.516 313.191 219.519 317.115 216.61L425.872 135.935C429.804 133.018 435.811 132.267 439.271 134.266L610.794 233.221C614.253 235.219 613.873 239.216 609.941 242.125L501.184 322.809V322.8Z" stroke="#CCCCCC" stroke-width="1.25" stroke-miterlimit="10"/>
<path d="M341.929 315.371L343.642 314.098L350.873 313.381C351.505 313.314 352.054 313.238 352.518 313.154C352.982 313.078 353.404 312.977 353.758 312.85C354.121 312.724 354.45 312.547 354.745 312.327C355.074 312.083 355.294 311.83 355.403 311.577C355.513 311.324 355.513 311.08 355.42 310.852C355.319 310.624 355.125 310.422 354.838 310.262C354.534 310.085 354.205 309.983 353.834 309.958C353.463 309.933 353.092 309.983 352.712 310.101C352.332 310.219 351.961 310.413 351.598 310.683L349.615 309.536C350.349 308.988 351.134 308.601 351.969 308.364C352.805 308.128 353.632 308.061 354.458 308.145C355.285 308.23 356.045 308.474 356.728 308.87C357.437 309.284 357.909 309.739 358.154 310.253C358.399 310.768 358.416 311.299 358.205 311.838C357.994 312.378 357.572 312.892 356.922 313.373C356.5 313.685 356.002 313.955 355.446 314.182C354.889 314.402 354.163 314.596 353.286 314.756C352.408 314.916 351.278 315.059 349.894 315.186L346.839 315.548L346.764 315.607L350.923 318.002L348.983 319.444L341.929 315.371Z" fill="#C2C2C2"/>
<path d="M404.02 351.475C403.294 351.061 402.796 350.581 402.518 350.05C402.239 349.518 402.189 348.97 402.366 348.414C402.543 347.857 402.957 347.335 403.598 346.837L405.707 348.051C405.446 348.262 405.285 348.49 405.226 348.726C405.167 348.962 405.201 349.198 405.336 349.417C405.471 349.645 405.682 349.847 405.994 350.024C406.306 350.201 406.661 350.319 407.032 350.37C407.403 350.421 407.774 350.395 408.137 350.311C408.5 350.227 408.837 350.067 409.133 349.847C409.436 349.628 409.631 349.384 409.715 349.131C409.799 348.878 409.774 348.616 409.631 348.363C409.487 348.11 409.234 347.874 408.863 347.655L407.943 347.124L409.69 345.825L410.609 346.357C410.921 346.542 411.267 346.652 411.639 346.702C412.01 346.753 412.364 346.728 412.727 346.643C413.081 346.559 413.41 346.407 413.706 346.188C414.001 345.969 414.178 345.758 414.271 345.53C414.364 345.303 414.372 345.083 414.28 344.873C414.187 344.662 414.001 344.476 413.723 344.316C413.444 344.156 413.124 344.046 412.769 343.996C412.415 343.945 412.069 343.962 411.715 344.038C411.36 344.114 411.04 344.257 410.744 344.459L408.736 343.304C409.394 342.832 410.128 342.495 410.938 342.318C411.748 342.132 412.558 342.09 413.377 342.191C414.195 342.292 414.938 342.537 415.621 342.933C416.304 343.33 416.76 343.776 416.988 344.282C417.216 344.788 417.241 345.303 417.047 345.817C416.853 346.34 416.456 346.812 415.866 347.25C415.241 347.723 414.541 348.009 413.773 348.127C413.005 348.237 412.288 348.178 411.622 347.942L411.537 348.009C412.162 348.507 412.432 349.038 412.339 349.611C412.255 350.176 411.858 350.716 411.158 351.239C410.516 351.719 409.791 352.048 408.964 352.225C408.137 352.402 407.293 352.436 406.441 352.318C405.581 352.2 404.779 351.922 404.045 351.5L404.02 351.475Z" fill="#C2C2C2"/>
<path d="M241.051 310.489L242.924 309.098L254.458 305.995L255.875 306.813L253.285 308.736L252.441 308.246L245.151 310.22L245.067 310.287L250.939 313.677L249.033 315.093L241.051 310.489ZM243.827 314.697L246.375 312.808L247.244 312.218L255.116 306.383L257.082 307.513L245.835 315.86L243.835 314.705L243.827 314.697Z" fill="#C2C2C2"/>
<path d="M302.568 348.692C301.885 348.296 301.421 347.841 301.167 347.318C300.923 346.795 300.889 346.264 301.083 345.708C301.269 345.151 301.682 344.637 302.323 344.148L304.357 345.32C303.943 345.657 303.749 346.011 303.783 346.382C303.808 346.753 304.036 347.065 304.441 347.301C304.77 347.487 305.141 347.596 305.563 347.622C305.985 347.647 306.415 347.588 306.854 347.444C307.293 347.31 307.715 347.09 308.103 346.804C308.499 346.509 308.769 346.213 308.93 345.901C309.082 345.598 309.115 345.303 309.023 345.033C308.93 344.763 308.727 344.527 308.398 344.333C308.111 344.164 307.757 344.055 307.352 343.996C306.947 343.937 306.55 343.954 306.162 344.038L304.677 342.681L311.081 338.549L317.131 342.04L315.19 343.482L310.862 340.986L307.791 342.925L307.85 342.959C308.305 342.849 308.795 342.832 309.326 342.9C309.858 342.967 310.347 343.127 310.778 343.38C311.377 343.726 311.748 344.148 311.891 344.654C312.043 345.159 311.976 345.699 311.689 346.264C311.402 346.829 310.904 347.385 310.179 347.917C309.428 348.482 308.601 348.895 307.698 349.148C306.804 349.401 305.909 349.493 305.015 349.426C304.121 349.35 303.311 349.106 302.576 348.684L302.568 348.692Z" fill="#C2C2C2"/>
<path d="M362.709 382.816C362.203 382.521 361.806 382.167 361.528 381.754C361.249 381.341 361.131 380.868 361.19 380.337C361.241 379.806 361.519 379.216 362.009 378.558C362.498 377.909 363.257 377.201 364.287 376.442C365.232 375.742 366.177 375.169 367.113 374.73C368.05 374.283 368.953 373.971 369.822 373.794C370.691 373.617 371.517 373.558 372.277 373.642C373.045 373.727 373.728 373.946 374.344 374.292C375.002 374.671 375.441 375.118 375.66 375.624C375.871 376.13 375.888 376.661 375.694 377.209C375.5 377.757 375.129 378.28 374.58 378.777L372.513 377.588C372.825 377.251 372.96 376.922 372.927 376.61C372.893 376.298 372.682 376.029 372.302 375.809C371.661 375.438 370.851 375.388 369.881 375.674C368.91 375.953 367.873 376.501 366.776 377.31L366.843 377.352C367.324 377.192 367.813 377.091 368.303 377.066C368.792 377.04 369.265 377.066 369.712 377.158C370.159 377.251 370.564 377.403 370.927 377.614C371.517 377.951 371.88 378.373 372.024 378.87C372.167 379.368 372.1 379.89 371.821 380.447C371.543 381.003 371.045 381.543 370.345 382.066C369.585 382.631 368.75 383.044 367.847 383.305C366.944 383.567 366.042 383.659 365.156 383.592C364.261 383.516 363.451 383.271 362.726 382.841L362.709 382.816ZM364.565 381.425C364.886 381.61 365.265 381.712 365.696 381.728C366.126 381.745 366.565 381.686 367.012 381.543C367.459 381.4 367.864 381.197 368.244 380.919C368.623 380.641 368.877 380.354 369.037 380.051C369.189 379.747 369.231 379.46 369.155 379.182C369.079 378.904 368.877 378.676 368.556 378.491C368.311 378.347 368.041 378.263 367.729 378.221C367.425 378.179 367.096 378.179 366.767 378.229C366.43 378.28 366.101 378.364 365.772 378.491C365.443 378.617 365.147 378.786 364.877 378.988C364.514 379.258 364.253 379.545 364.101 379.848C363.949 380.152 363.907 380.447 363.983 380.725C364.059 381.003 364.253 381.239 364.574 381.425H364.565Z" fill="#C2C2C2"/>
<path d="M198.713 344.52L212.044 340.042L212.12 339.983L207.336 337.226L209.277 335.784L216.221 339.789L214.246 341.257L200.865 345.768L198.705 344.52H198.713Z" fill="#C2C2C2"/>
<path d="M259.572 380.455C258.83 380.025 258.306 379.544 258.003 379.005C257.699 378.465 257.623 377.926 257.775 377.378C257.927 376.829 258.306 376.332 258.914 375.885C259.378 375.539 259.91 375.27 260.492 375.093C261.074 374.907 261.656 374.814 262.247 374.806C262.837 374.806 263.369 374.882 263.841 375.059L263.917 375C263.512 374.603 263.377 374.14 263.504 373.609C263.639 373.077 264.01 372.58 264.626 372.125C265.208 371.695 265.875 371.391 266.634 371.231C267.393 371.062 268.161 371.037 268.946 371.146C269.731 371.256 270.456 371.501 271.123 371.888C271.789 372.276 272.253 372.715 272.515 373.212C272.776 373.71 272.827 374.216 272.667 374.73C272.515 375.244 272.144 375.708 271.57 376.146C270.946 376.602 270.237 376.905 269.444 377.057C268.651 377.209 267.933 377.175 267.292 376.973L267.216 377.032C267.537 377.318 267.731 377.647 267.79 378.027C267.849 378.406 267.79 378.802 267.579 379.199C267.377 379.604 267.048 379.974 266.575 380.329C265.959 380.776 265.25 381.087 264.449 381.248C263.639 381.416 262.812 381.433 261.951 381.307C261.099 381.18 260.298 380.902 259.555 380.472L259.572 380.455ZM261.319 379.157C261.648 379.351 262.01 379.46 262.399 379.502C262.787 379.544 263.166 379.511 263.554 379.418C263.943 379.325 264.289 379.148 264.609 378.912C264.93 378.668 265.149 378.415 265.259 378.145C265.36 377.875 265.369 377.614 265.259 377.361C265.158 377.108 264.938 376.888 264.618 376.703C264.297 376.517 263.943 376.408 263.546 376.374C263.149 376.332 262.753 376.374 262.365 376.475C261.968 376.576 261.605 376.754 261.285 376.99C260.964 377.226 260.753 377.47 260.652 377.732C260.551 377.993 260.551 378.246 260.669 378.491C260.787 378.735 261.006 378.954 261.335 379.148L261.319 379.157ZM266.347 375.43C266.626 375.59 266.938 375.683 267.284 375.716C267.63 375.742 267.976 375.716 268.322 375.615C268.676 375.514 268.997 375.362 269.292 375.135C269.587 374.915 269.781 374.688 269.882 374.46C269.984 374.232 269.984 373.996 269.899 373.786C269.815 373.566 269.629 373.381 269.342 373.212C269.056 373.044 268.752 372.951 268.406 372.926C268.06 372.892 267.722 372.926 267.377 373.018C267.031 373.111 266.718 373.271 266.423 373.482C266.128 373.693 265.925 373.929 265.824 374.173C265.723 374.41 265.714 374.637 265.799 374.865C265.883 375.084 266.069 375.278 266.347 375.438V375.43Z" fill="#C2C2C2"/>
<path d="M330.783 405.675C331.289 405.97 331.686 406.324 331.964 406.738C332.243 407.151 332.352 407.631 332.302 408.154C332.251 408.685 331.981 409.276 331.5 409.916C331.011 410.566 330.268 411.265 329.247 412.024C328.294 412.733 327.349 413.314 326.413 413.753C325.476 414.2 324.565 414.52 323.696 414.706C322.827 414.891 322 414.942 321.232 414.857C320.464 414.773 319.772 414.554 319.156 414.2C318.498 413.82 318.06 413.373 317.84 412.868C317.629 412.362 317.612 411.83 317.815 411.282C318.009 410.734 318.389 410.203 318.954 409.697L321.021 410.886C320.692 411.24 320.54 411.569 320.574 411.889C320.608 412.201 320.81 412.471 321.19 412.69C321.831 413.061 322.641 413.104 323.62 412.825C324.59 412.547 325.636 411.991 326.758 411.164L326.691 411.122C326.21 411.282 325.729 411.375 325.24 411.409C324.75 411.443 324.278 411.409 323.831 411.316C323.375 411.223 322.97 411.072 322.607 410.861C322.025 410.523 321.662 410.11 321.51 409.613C321.367 409.115 321.435 408.593 321.713 408.036C321.991 407.48 322.481 406.94 323.181 406.426C323.932 405.861 324.759 405.456 325.653 405.195C326.556 404.933 327.45 404.84 328.336 404.916C329.231 404.992 330.041 405.237 330.775 405.667L330.783 405.675ZM328.927 407.066C328.598 406.881 328.227 406.78 327.796 406.763C327.366 406.746 326.936 406.805 326.489 406.94C326.041 407.075 325.645 407.277 325.282 407.556C324.911 407.834 324.649 408.12 324.497 408.416C324.345 408.711 324.312 409.006 324.388 409.276C324.464 409.545 324.658 409.781 324.987 409.967C325.231 410.11 325.501 410.195 325.813 410.237C326.126 410.279 326.446 410.279 326.775 410.237C327.104 410.195 327.442 410.102 327.763 409.975C328.092 409.849 328.387 409.689 328.648 409.486C329.003 409.225 329.256 408.938 329.408 408.635C329.56 408.331 329.602 408.036 329.526 407.758C329.45 407.48 329.256 407.244 328.935 407.058L328.927 407.066Z" fill="#C2C2C2"/>
<path d="M299.783 275.488L288.536 283.836L286.444 282.63L295.438 275.961L295.379 275.927L291.498 275.817L293.607 274.249L297.817 274.359L299.783 275.497V275.488Z" fill="#C2C2C2"/>
<path d="M522.604 153.202C522.554 153.177 522.512 153.143 522.478 153.101C522.199 152.815 522.377 152.376 522.883 152.106C523.744 151.651 524.553 151.137 525.304 150.58C526.055 150.024 526.73 149.433 527.313 148.818C527.658 148.455 528.308 148.287 528.772 148.43C529.236 148.582 529.337 148.987 528.992 149.349C528.317 150.057 527.54 150.732 526.688 151.373C525.828 152.005 524.899 152.595 523.912 153.118C523.474 153.354 522.934 153.371 522.621 153.186L522.604 153.202Z" fill="#D6D6D6"/>
<path d="M524.082 157.52C523.998 157.469 523.93 157.41 523.888 157.343C523.686 157.023 523.956 156.584 524.496 156.365C526.512 155.539 528.36 154.501 529.988 153.296C531.617 152.09 532.95 150.758 533.962 149.35C534.232 148.97 534.865 148.743 535.371 148.835C535.878 148.928 536.072 149.307 535.802 149.687C534.671 151.264 533.178 152.748 531.364 154.097C529.541 155.446 527.483 156.601 525.23 157.528C524.808 157.697 524.352 157.689 524.074 157.528L524.082 157.52Z" fill="#D6D6D6"/>
<path d="M525.498 161.677C525.397 161.618 525.321 161.534 525.271 161.441C525.119 161.104 525.456 160.674 526.013 160.48C529.236 159.375 532.156 157.874 534.678 156.002C537.201 154.13 539.125 152.048 540.39 149.822C540.61 149.434 541.217 149.164 541.757 149.223C542.289 149.274 542.55 149.636 542.331 150.024C540.939 152.469 538.838 154.754 536.062 156.803C533.295 158.852 530.097 160.513 526.553 161.719C526.157 161.854 525.752 161.829 525.498 161.685V161.677Z" fill="#D6D6D6"/>
<path d="M564.362 181.356L544.281 169.77C541.244 168.017 541.581 164.526 545.032 161.971C548.483 159.416 553.731 158.758 556.769 160.512L576.85 172.098C579.887 173.851 579.549 177.342 576.099 179.897C572.648 182.452 567.4 183.109 564.362 181.356Z" fill="#D6D6D6"/>
<path d="M564.362 181.356L544.281 169.77C541.244 168.017 541.581 164.526 545.032 161.971C548.483 159.416 553.731 158.758 556.769 160.512L576.85 172.098C579.887 173.851 579.549 177.342 576.099 179.897C572.648 182.452 567.4 183.109 564.362 181.356Z" fill="#D6D6D6"/>
<path d="M333.82 220.691C334.174 220.447 334.537 220.227 334.917 220.059C334.723 220.337 334.453 220.607 334.124 220.851C333.769 221.096 333.406 221.315 332.993 221.484C333.212 221.18 333.491 220.936 333.82 220.691Z" fill="#C2C2C2"/>
<path d="M335.465 218C335.44 217.89 335.381 217.781 335.33 217.696C335.161 217.368 334.891 217.089 334.503 216.87C332.934 215.968 330.242 216.297 328.487 217.612C326.732 218.928 326.564 220.715 328.099 221.592C328.513 221.836 328.977 221.98 329.475 222.056C329.643 222.081 329.778 222.081 329.939 222.081C330.074 222.106 330.242 222.106 330.403 222.106C330.344 221.997 330.318 221.912 330.293 221.803C330.158 221.035 330.597 220.125 331.584 219.383C332.571 218.641 333.896 218.261 335.077 218.261C335.212 218.261 335.381 218.261 335.516 218.287C335.516 218.177 335.49 218.067 335.457 217.983L335.465 218ZM328.428 221.381C327.028 220.555 327.188 218.961 328.757 217.781C330.352 216.6 332.765 216.297 334.174 217.123C334.478 217.292 334.697 217.477 334.832 217.73C333.516 217.814 332.115 218.278 331.01 219.079C329.913 219.872 329.39 220.867 329.441 221.744C329.053 221.685 328.724 221.55 328.428 221.39V221.381Z" fill="#C2C2C2"/>
<path d="M335.878 218.035C335.878 217.925 335.853 217.816 335.793 217.731C335.625 217.318 335.296 216.939 334.806 216.635C333.102 215.649 330.132 216.028 328.208 217.461C326.259 218.886 326.065 220.868 327.77 221.854C328.293 222.158 328.925 222.318 329.609 222.377C329.778 222.403 329.913 222.403 330.073 222.403C330.233 222.403 330.377 222.403 330.537 222.377C330.478 222.293 330.427 222.209 330.402 222.133C330.343 222.023 330.318 221.939 330.292 221.829C330.157 221.829 330.014 221.829 329.879 221.804C329.71 221.804 329.575 221.779 329.44 221.753C329.052 221.694 328.723 221.559 328.428 221.399C327.027 220.573 327.187 218.979 328.757 217.799C330.351 216.618 332.764 216.315 334.174 217.141C334.477 217.31 334.697 217.495 334.832 217.748C334.916 217.832 334.941 217.917 334.967 217.993C335.026 218.077 335.076 218.187 335.076 218.296C335.211 218.296 335.38 218.296 335.515 218.322C335.65 218.322 335.793 218.347 335.928 218.372C335.954 218.263 335.928 218.153 335.869 218.043L335.878 218.035ZM334.941 220.067H334.916C334.528 220.236 334.173 220.455 333.819 220.699C333.49 220.944 333.212 221.197 332.992 221.492V221.517C332.857 221.627 332.773 221.762 332.689 221.905C332.908 221.846 333.102 221.77 333.296 221.661C333.684 221.492 334.064 221.273 334.393 221.028C334.747 220.784 335.026 220.48 335.245 220.202C335.38 220.067 335.464 219.924 335.574 219.814C335.355 219.839 335.135 219.949 334.941 220.058V220.067Z" fill="#C2C2C2"/>
<path d="M336.647 222.318C336.976 222.073 337.364 221.854 337.744 221.686C337.55 221.964 337.28 222.234 336.917 222.478C336.588 222.723 336.2 222.942 335.82 223.111C336.04 222.807 336.284 222.563 336.647 222.318Z" fill="#C2C2C2"/>
<path d="M338.267 219.628C338.241 219.518 338.182 219.408 338.132 219.324C337.963 218.995 337.693 218.717 337.305 218.498C336.891 218.253 336.402 218.085 335.879 218.034C335.744 218.009 335.601 218.009 335.466 218.009C335.297 217.983 335.137 217.983 334.968 217.983C333.728 218.009 332.327 218.447 331.289 219.248C330.243 220.041 329.753 220.977 329.888 221.803C329.888 221.913 329.914 222.022 329.948 222.107C329.973 222.216 330.032 222.326 330.083 222.41C330.251 222.739 330.521 223.017 330.909 223.236C331.323 223.481 331.787 223.624 332.31 223.7C332.445 223.725 332.614 223.725 332.749 223.725C332.918 223.751 333.078 223.751 333.247 223.751C333.187 223.666 333.162 223.557 333.162 223.447H333.137C332.968 222.68 333.415 221.769 334.402 221.027C335.39 220.285 336.714 219.897 337.896 219.897C338.031 219.897 338.199 219.897 338.334 219.923C338.334 219.813 338.309 219.703 338.275 219.619L338.267 219.628ZM331.23 223.009C330.926 222.815 330.682 222.596 330.547 222.376C330.488 222.292 330.437 222.208 330.412 222.132C330.353 222.022 330.327 221.938 330.302 221.828C330.167 221.061 330.606 220.15 331.593 219.408C332.58 218.666 333.905 218.287 335.086 218.287C335.221 218.287 335.39 218.287 335.525 218.312C335.66 218.312 335.803 218.338 335.938 218.363C336.326 218.447 336.681 218.582 336.984 218.751C337.288 218.919 337.507 219.105 337.642 219.358C336.959 219.383 336.242 219.552 335.584 219.796V219.822C335.364 219.847 335.145 219.956 334.951 220.066H334.926C334.537 220.235 334.183 220.454 333.829 220.698C333.5 220.943 333.221 221.196 333.002 221.491V221.516C332.867 221.626 332.783 221.761 332.698 221.904C332.369 222.402 332.234 222.891 332.259 223.363C331.871 223.312 331.542 223.169 331.247 223.009H331.23Z" fill="#C2C2C2"/>
<path d="M337.744 221.685C337.356 221.853 336.976 222.073 336.647 222.317C336.293 222.562 336.04 222.815 335.821 223.11L335.795 223.135C335.66 223.245 335.576 223.38 335.466 223.523C335.686 223.472 335.88 223.388 336.099 223.278C336.487 223.11 336.867 222.891 337.196 222.646C337.55 222.402 337.829 222.123 338.048 221.853C338.183 221.719 338.293 221.55 338.402 221.415C338.183 221.466 337.964 221.584 337.744 221.693V221.685ZM338.731 219.653C338.706 219.543 338.672 219.459 338.622 219.349C338.487 218.911 338.124 218.523 337.635 218.253C337.111 217.95 336.479 217.789 335.795 217.73C335.626 217.705 335.492 217.705 335.331 217.705C335.171 217.705 335.002 217.705 334.833 217.73C333.517 217.815 332.117 218.278 331.011 219.079C329.914 219.872 329.391 220.867 329.442 221.744C329.417 221.853 329.442 221.963 329.467 222.073C329.493 222.182 329.526 222.292 329.602 222.376C329.737 222.789 330.066 223.169 330.589 223.472C331.087 223.776 331.712 223.936 332.403 223.995C332.572 224.02 332.707 224.02 332.868 224.02C333.028 224.02 333.197 224.02 333.332 223.995C333.306 223.936 333.247 223.86 333.222 223.751C333.163 223.666 333.137 223.557 333.137 223.447H333.112C332.977 223.447 332.808 223.447 332.673 223.422C332.505 223.422 332.37 223.396 332.235 223.363C331.847 223.312 331.518 223.169 331.222 223.009C330.918 222.815 330.674 222.595 330.539 222.376C330.48 222.292 330.429 222.208 330.404 222.132C330.345 222.022 330.319 221.938 330.294 221.828C330.159 221.061 330.598 220.15 331.585 219.408C332.572 218.666 333.897 218.287 335.078 218.287C335.213 218.287 335.382 218.287 335.517 218.312C335.652 218.312 335.795 218.337 335.93 218.363C336.318 218.447 336.673 218.582 336.976 218.751C337.28 218.919 337.5 219.105 337.635 219.358C337.719 219.442 337.77 219.526 337.803 219.636C337.854 219.72 337.888 219.805 337.888 219.914C338.023 219.914 338.191 219.914 338.326 219.939C338.495 219.939 338.63 219.965 338.765 219.998C338.791 219.889 338.765 219.779 338.74 219.67L338.731 219.653Z" fill="#C2C2C2"/>
<path d="M341.101 221.272C341.076 221.162 341.017 221.052 340.966 220.943C340.797 220.614 340.502 220.336 340.114 220.116C339.726 219.872 339.262 219.729 338.739 219.653C338.604 219.627 338.435 219.627 338.274 219.627C338.139 219.602 337.971 219.602 337.81 219.627C336.958 219.627 336.055 219.821 335.254 220.201C334.84 220.395 334.486 220.614 334.132 220.858C333.803 221.103 333.499 221.381 333.305 221.651C332.807 222.224 332.621 222.857 332.697 223.405C332.697 223.514 332.723 223.624 332.756 223.708C332.782 223.818 332.841 223.928 332.891 224.012C333.06 224.341 333.356 224.619 333.744 224.838C334.132 225.083 334.596 225.226 335.119 225.302C335.254 225.327 335.397 225.327 335.558 225.327C335.726 225.353 335.887 225.353 336.055 225.353C335.996 225.243 335.971 225.159 335.971 225.049H335.946C335.811 224.282 336.224 223.371 337.211 222.629C338.199 221.887 339.523 221.508 340.704 221.508C340.873 221.508 341.008 221.508 341.168 221.533C341.168 221.449 341.143 221.339 341.109 221.255L341.101 221.272ZM334.039 224.619C333.735 224.425 333.516 224.231 333.356 223.987C333.33 223.928 333.271 223.852 333.246 223.742C333.187 223.658 333.161 223.548 333.161 223.439H333.136C332.967 222.671 333.415 221.761 334.402 221.019C335.389 220.277 336.714 219.889 337.895 219.889C338.03 219.889 338.199 219.889 338.334 219.914C338.502 219.914 338.637 219.939 338.772 219.973C339.16 220.057 339.489 220.192 339.785 220.361C340.08 220.53 340.308 220.715 340.468 220.968C339.785 220.993 339.068 221.162 338.409 221.406C338.19 221.457 337.971 221.575 337.751 221.685C337.363 221.853 336.984 222.073 336.655 222.317C336.3 222.562 336.047 222.815 335.828 223.11L335.802 223.135C335.667 223.245 335.583 223.38 335.473 223.523C335.17 224.02 335.035 224.509 335.06 224.982C334.672 224.923 334.343 224.788 334.047 224.627L334.039 224.619Z" fill="#C2C2C2"/>
<path d="M341.54 221.297C341.54 221.188 341.481 221.078 341.431 220.969C341.296 220.53 340.933 220.142 340.443 219.872C339.946 219.569 339.313 219.409 338.629 219.35C338.461 219.324 338.3 219.324 338.132 219.324C337.963 219.324 337.802 219.324 337.634 219.35C336.95 219.375 336.233 219.544 335.575 219.788V219.813C335.356 219.839 335.136 219.948 334.942 220.058H334.917C334.529 220.227 334.174 220.446 333.82 220.69C333.491 220.935 333.213 221.188 332.993 221.483V221.508C332.858 221.618 332.774 221.753 332.689 221.896C332.36 222.394 332.225 222.883 332.251 223.355C332.251 223.464 332.276 223.574 332.31 223.684C332.31 223.793 332.36 223.903 332.419 223.987C332.588 224.4 332.917 224.78 333.407 225.083C333.93 225.387 334.563 225.547 335.221 225.606C335.389 225.631 335.524 225.631 335.685 225.631C335.845 225.631 336.014 225.631 336.182 225.606C336.123 225.522 336.073 225.437 336.047 225.362C335.988 225.252 335.963 225.168 335.963 225.058H335.938C335.803 225.058 335.634 225.058 335.499 225.033C335.33 225.033 335.195 225.007 335.06 224.974C334.672 224.915 334.343 224.78 334.048 224.62C333.744 224.426 333.525 224.232 333.364 223.987C333.339 223.928 333.28 223.852 333.255 223.743C333.196 223.658 333.17 223.549 333.17 223.439H333.145C332.976 222.672 333.423 221.761 334.411 221.019C335.398 220.277 336.722 219.889 337.904 219.889C338.039 219.889 338.207 219.889 338.342 219.915C338.511 219.915 338.646 219.94 338.781 219.974C339.169 220.058 339.498 220.193 339.794 220.361C340.089 220.53 340.317 220.716 340.477 220.969C340.536 221.053 340.587 221.163 340.612 221.272C340.671 221.356 340.696 221.441 340.696 221.517C340.865 221.517 341 221.517 341.16 221.542C341.295 221.542 341.439 221.567 341.574 221.601C341.599 221.491 341.574 221.407 341.549 221.297H341.54Z" fill="#C2C2C2"/>
<path d="M342.915 221.737C342.527 221.518 342.063 221.349 341.54 221.298C341.405 221.273 341.262 221.273 341.101 221.273C340.933 221.248 340.772 221.248 340.604 221.273C339.751 221.273 338.874 221.467 338.047 221.846C337.634 222.015 337.279 222.234 336.925 222.479C336.596 222.723 336.292 223.002 336.098 223.271C335.634 223.845 335.415 224.477 335.491 225.025C335.491 225.135 335.516 225.244 335.55 225.329C335.575 225.438 335.634 225.548 335.685 225.632C335.853 225.961 336.149 226.239 336.537 226.459C338.072 227.361 340.764 227.032 342.527 225.717C344.316 224.427 344.476 222.639 342.915 221.737ZM342.257 225.556C340.663 226.737 338.25 227.04 336.874 226.239C336.571 226.045 336.326 225.826 336.191 225.607C336.132 225.523 336.081 225.438 336.056 225.362C335.997 225.253 335.972 225.169 335.972 225.059H335.946C335.811 224.292 336.225 223.381 337.212 222.639C338.199 221.897 339.524 221.518 340.705 221.518C340.874 221.518 341.009 221.518 341.169 221.543C341.304 221.543 341.447 221.568 341.582 221.602C341.97 221.686 342.325 221.821 342.629 221.99C344.004 222.782 343.869 224.41 342.274 225.556H342.257Z" fill="#C2C2C2"/>
<path d="M343.245 221.492C342.747 221.188 342.114 221.028 341.431 220.969C341.262 220.944 341.127 220.944 340.967 220.944C340.807 220.944 340.638 220.944 340.469 220.969C339.786 220.994 339.069 221.163 338.41 221.407C338.191 221.458 337.972 221.576 337.752 221.686C337.364 221.854 336.985 222.073 336.656 222.318C336.301 222.562 336.048 222.815 335.829 223.111L335.803 223.136C335.668 223.245 335.584 223.38 335.474 223.524C335.171 224.021 335.036 224.51 335.061 224.982C335.061 225.092 335.086 225.202 335.111 225.311C335.111 225.421 335.171 225.53 335.221 225.615C335.356 226.053 335.719 226.441 336.208 226.711C337.913 227.697 340.883 227.343 342.832 225.885C344.755 224.46 344.949 222.478 343.245 221.492ZM336.875 226.239C336.571 226.045 336.326 225.826 336.191 225.606C336.132 225.522 336.082 225.438 336.056 225.362C335.997 225.252 335.972 225.168 335.972 225.058H335.947C335.812 224.291 336.225 223.38 337.212 222.638C338.2 221.896 339.524 221.517 340.705 221.517C340.874 221.517 341.009 221.517 341.169 221.542C341.304 221.542 341.448 221.567 341.583 221.601C341.971 221.686 342.325 221.82 342.629 221.989C344.004 222.782 343.869 224.409 342.275 225.556C340.68 226.736 338.267 227.04 336.892 226.239H336.875Z" fill="#C2C2C2"/>
<path d="M343.278 228.313C345.592 227.662 347.139 225.963 346.732 224.52C346.325 223.077 344.119 222.435 341.805 223.086C339.49 223.738 337.944 225.436 338.351 226.879C338.757 228.323 340.963 228.964 343.278 228.313Z" fill="white"/>
<path d="M339.017 228.329C337.313 227.342 337.498 225.378 339.439 223.936C341.38 222.494 344.341 222.131 346.046 223.109C347.75 224.096 347.564 226.06 345.624 227.502C343.683 228.944 340.722 229.307 339.017 228.329ZM345.404 223.59C344.012 222.789 341.591 223.084 340.004 224.265C338.418 225.445 338.266 227.047 339.658 227.848C341.051 228.649 343.472 228.354 345.058 227.174C346.645 226.001 346.796 224.391 345.404 223.59Z" fill="#C2C2C2"/>
<path d="M346.045 223.11C344.341 222.148 341.371 222.503 339.456 223.936C337.507 225.395 337.313 227.342 339.017 228.329C340.721 229.315 343.691 228.936 345.64 227.503C347.564 226.078 347.758 224.096 346.054 223.11H346.045ZM345.218 223.742C344.999 224.509 344.476 225.277 343.683 225.968L342.856 225.471L342.029 225.007C342.966 224.4 344.037 223.961 345.193 223.742H345.218ZM340.409 228.16C340.797 228.051 341.177 227.941 341.54 227.806C342.282 227.528 342.966 227.174 343.598 226.761L344.721 227.418C343.404 228.211 341.7 228.489 340.409 228.16ZM339.835 227.722C340.055 226.929 340.603 226.153 341.405 225.496L342.198 225.96L343.025 226.423C342.122 227.03 340.991 227.469 339.835 227.713V227.722ZM340.409 224.012C341.7 223.219 343.404 222.941 344.67 223.295C344.316 223.379 343.986 223.489 343.657 223.599C342.864 223.877 342.122 224.256 341.455 224.67L340.358 224.037C340.358 224.037 340.384 224.012 340.409 224.012ZM339.692 224.509L340.814 225.167C340.24 225.664 339.768 226.179 339.464 226.702C339.295 226.946 339.186 227.165 339.11 227.418C338.426 226.626 338.612 225.471 339.683 224.509H339.692ZM345.353 226.929L344.256 226.297C344.805 225.833 345.244 225.31 345.573 224.788C345.741 224.543 345.851 224.29 345.961 224.046C346.644 224.838 346.425 225.993 345.353 226.929Z" fill="#C2C2C2"/>
<path d="M583.11 236.828C583.11 236.828 583.034 236.769 583.017 236.735C582.992 236.685 582.469 235.538 583.523 234.762L584.519 234.02C584.654 233.919 584.848 233.868 585.008 233.902L586.088 234.113C586.434 234.18 586.704 234.341 586.848 234.551L587.303 235.226C587.371 235.327 587.32 235.462 587.185 235.563L586.189 236.305C585.143 237.081 583.329 236.887 583.253 236.878C583.194 236.878 583.144 236.853 583.101 236.828H583.11ZM584.856 234.518L584.089 235.091C583.633 235.428 583.7 236.01 583.793 236.322C584.274 236.347 585.169 236.322 585.624 235.976L586.392 235.403L586.046 234.897C585.97 234.787 585.835 234.712 585.666 234.678L584.848 234.518H584.856ZM581.625 234.922L579.414 233.649C578.992 233.405 578.756 233.27 578.672 233.059C578.596 232.873 578.613 232.663 578.731 232.443C578.866 232.207 579.127 232.005 579.608 231.651L582.637 229.399C583.118 229.045 583.388 228.843 583.734 228.725C584.038 228.624 584.359 228.582 584.654 228.607C584.983 228.641 585.219 228.776 585.641 229.02L590.417 231.777C590.838 232.022 591.075 232.157 591.159 232.367C591.235 232.553 591.218 232.764 591.1 232.983C590.965 233.219 590.703 233.421 590.222 233.776L589.109 234.602C588.932 234.737 588.662 234.771 588.501 234.678C588.341 234.585 588.358 234.408 588.543 234.273L588.619 234.214L582.165 230.487L580.174 231.963C579.802 232.241 579.583 232.401 579.524 232.502C579.473 232.595 579.465 232.679 579.499 232.764C579.532 232.857 579.735 232.966 580.056 233.152L582.266 234.425C582.426 234.518 582.41 234.695 582.224 234.83C582.047 234.964 581.777 234.998 581.616 234.905L581.625 234.922ZM582.806 230.015L589.261 233.742L589.657 233.447C590.028 233.169 590.248 233.008 590.307 232.907C590.358 232.814 590.366 232.73 590.332 232.646C590.298 232.553 590.096 232.443 589.775 232.258L585 229.501C584.671 229.315 584.477 229.197 584.333 229.189C584.207 229.18 584.072 229.189 583.945 229.239C583.802 229.29 583.574 229.45 583.203 229.728L582.806 230.023V230.015Z" fill="#C2C2C2"/>
<path d="M592.399 241.973C591.741 241.593 591.344 241.062 591.252 240.43C591.226 240.278 591.404 240.118 591.64 240.059C591.876 240.008 592.087 240.084 592.104 240.236C592.256 241.273 593.488 241.981 595.074 241.947C595.31 241.947 595.453 242.065 595.394 242.226C595.344 242.386 595.116 242.521 594.88 242.521C593.909 242.538 593.049 242.352 592.391 241.973H592.399ZM593.834 240.91C592.821 240.328 592.939 239.165 594.087 238.313C595.234 237.462 596.981 237.242 597.993 237.824C599.006 238.406 598.887 239.57 597.74 240.421C596.593 241.273 594.838 241.492 593.834 240.91ZM597.343 238.305C596.652 237.9 595.437 238.052 594.652 238.642C593.859 239.232 593.783 240.033 594.483 240.438C595.175 240.843 596.39 240.691 597.183 240.101C597.976 239.511 598.052 238.71 597.352 238.313L597.343 238.305ZM597.926 241.543C597.926 241.543 597.9 241.526 597.892 241.517C597.765 241.408 597.816 241.231 598.01 241.113C598.693 240.708 599.2 240.202 599.487 239.662C599.773 239.114 599.807 238.575 599.596 238.102C599.537 237.968 599.672 237.79 599.9 237.706C600.128 237.63 600.364 237.672 600.423 237.816C600.685 238.398 600.642 239.064 600.288 239.73C599.934 240.396 599.309 241.011 598.482 241.509C598.305 241.619 598.061 241.635 597.926 241.551V241.543ZM592.357 238.33C592.222 238.246 592.214 238.094 592.357 237.959C593.007 237.36 593.859 236.871 594.829 236.568C595.799 236.256 596.795 236.146 597.715 236.239C597.934 236.264 598.035 236.408 597.942 236.568C597.85 236.728 597.597 236.838 597.386 236.812C596.635 236.737 595.816 236.821 595.032 237.082C594.238 237.335 593.547 237.731 593.015 238.22C592.863 238.364 592.593 238.423 592.408 238.347C592.391 238.347 592.374 238.33 592.365 238.33H592.357Z" fill="#C2C2C2"/>
<path d="M158.99 377.674C158.163 377.193 157.69 376.611 157.555 375.928C157.42 375.245 157.631 374.486 158.18 373.66C158.728 372.834 159.623 371.965 160.846 371.055C162.069 370.152 163.268 369.469 164.449 369.014C165.63 368.559 166.735 368.34 167.781 368.348C168.828 368.356 169.764 368.601 170.583 369.073C171.41 369.545 171.89 370.127 172.034 370.802C172.177 371.476 171.983 372.227 171.443 373.053C170.903 373.871 170.026 374.739 168.802 375.641C167.571 376.552 166.364 377.235 165.174 377.699C163.985 378.163 162.863 378.39 161.808 378.39C160.753 378.39 159.817 378.146 158.99 377.674ZM160.956 376.215C161.521 376.544 162.289 376.561 163.276 376.274C164.255 375.987 165.394 375.372 166.676 374.41C167.528 373.778 168.153 373.213 168.566 372.707C168.98 372.201 169.191 371.763 169.199 371.392C169.207 371.021 169.022 370.726 168.651 370.515C168.094 370.195 167.317 370.169 166.347 370.448C165.377 370.726 164.246 371.333 162.972 372.277C162.112 372.918 161.47 373.491 161.048 374.006C160.627 374.52 160.416 374.959 160.407 375.338C160.407 375.709 160.584 376.004 160.956 376.223V376.215Z" fill="#C2C2C2"/>
<path d="M285.187 450.456C284.191 449.883 283.576 449.208 283.331 448.432C283.086 447.657 283.204 446.83 283.677 445.962C284.149 445.093 284.959 444.233 286.107 443.382C287.263 442.522 288.469 441.889 289.735 441.468C290.992 441.055 292.232 440.869 293.439 440.937C294.645 440.996 295.751 441.316 296.746 441.889C297.742 442.463 298.358 443.137 298.602 443.913C298.847 444.689 298.729 445.515 298.257 446.383C297.784 447.252 296.966 448.12 295.81 448.972C294.662 449.824 293.456 450.456 292.199 450.869C290.941 451.282 289.701 451.468 288.495 451.4C287.288 451.341 286.183 451.021 285.187 450.448V450.456ZM287.609 448.677C288.064 448.938 288.587 449.048 289.186 449.006C289.785 448.964 290.418 448.795 291.085 448.508C291.751 448.222 292.409 447.834 293.059 447.353C293.709 446.872 294.215 446.392 294.569 445.928C294.924 445.456 295.101 445.026 295.093 444.63C295.093 444.233 294.856 443.904 294.401 443.643C293.945 443.382 293.413 443.264 292.806 443.306C292.198 443.348 291.566 443.508 290.899 443.803C290.233 444.09 289.574 444.478 288.925 444.958C288.275 445.439 287.769 445.92 287.415 446.383C287.06 446.856 286.891 447.286 286.908 447.682C286.925 448.078 287.161 448.407 287.617 448.677H287.609Z" fill="#C2C2C2"/>
<path d="M247.735 422.909L250.291 421.012L263.782 422.858L260.846 425.042L251.877 423.575L252.114 423.508L251.751 423.777L251.818 423.617L255.168 429.258L252.232 431.442L247.735 422.917V422.909Z" fill="#C2C2C2"/>
<path d="M219.957 397.581L217.781 401.653L223.737 399.756L226.631 401.425L217.907 404.014L215.157 410.043L212.279 408.382L214.271 404.258L208.305 406.08L205.395 404.402L214.195 401.855L217.063 395.886L219.974 397.564L219.957 397.581Z" fill="#C2C2C2"/>
<path d="M666.961 205.723C674.884 210.293 674.006 219.408 665.004 226.086L304.121 493.82C295.119 500.498 281.408 502.201 273.485 497.639L80.4474 386.264C72.5247 381.694 73.4022 372.579 82.4048 365.901L443.304 98.176C452.298 91.4981 466.017 89.7949 473.932 94.3649L666.953 205.723M672.04 201.946L479.019 90.5875C468.641 84.6009 450.611 86.8437 438.815 95.5959L77.9162 363.313C66.1208 372.065 64.9733 384.047 75.3512 390.033L268.389 501.408C278.767 507.395 296.806 505.152 308.593 496.4L669.475 228.666C681.262 219.922 682.418 207.932 672.04 201.946Z" fill="white"/>
<path d="M666.961 205.723C674.884 210.293 674.006 219.408 665.004 226.086L304.121 493.82C295.119 500.498 281.408 502.201 273.485 497.639L80.4474 386.264C72.5247 381.694 73.4022 372.579 82.4048 365.902L443.304 98.176C452.298 91.4981 466.017 89.7949 473.932 94.3649L666.953 205.723M672.04 201.946L479.019 90.5875C468.641 84.6009 450.611 86.8437 438.815 95.5959L77.9162 363.313C66.1208 372.065 64.9733 384.047 75.3512 390.033L268.389 501.408C278.767 507.395 296.806 505.152 308.593 496.4L669.475 228.666C681.262 219.922 682.418 207.932 672.04 201.946Z" stroke="#CCCCCC" stroke-width="1.25" stroke-miterlimit="10"/>
<path d="M656.001 180.31C655.326 180.31 654.642 180.142 654.018 179.779L543.666 116.136C541.759 115.04 541.109 112.603 542.206 110.706C543.303 108.801 545.741 108.151 547.64 109.247L657.992 172.89C659.899 173.987 660.548 176.423 659.451 178.321C658.717 179.594 657.376 180.31 656.001 180.31Z" fill="white" stroke="#CCCCCC" stroke-width="1.25" stroke-miterlimit="10"/>
<path d="M291.759 503.803V549.604C289.633 549.899 287.499 549.983 285.347 549.84V504.671C287.456 504.553 289.608 504.25 291.759 503.794V503.803Z" fill="#EBEBEB"/>
<path d="M291.759 503.803V549.604C289.633 549.899 287.499 549.983 285.347 549.84V504.671C287.456 504.553 289.608 504.25 291.759 503.794V503.803Z" fill="#EBEBEB"/>
<path d="M679.152 213.363V315.531C679.152 324.064 674.596 331.939 667.213 336.197L305.141 545.111C294.055 551.519 280.403 551.519 269.317 545.111L80.2102 436.021C72.8276 431.763 68.2714 423.888 68.2714 415.355V378.921C68.2714 383.297 70.617 387.294 75.3756 390.043L268.405 501.418C278.792 507.404 296.822 505.153 308.626 496.409L669.508 228.667C675.777 224.03 679.043 218.465 679.144 213.372H679.161L679.152 213.363Z" stroke="#CCCCCC" stroke-width="1.25" stroke-linecap="round" stroke-linejoin="round"/>
<path d="M737.774 78.4796C729.953 74.8202 719.802 75.3936 708.598 80.908C707.366 81.4813 706.134 82.1643 704.877 82.881C691.385 90.6804 679.16 104.003 670.326 119.239C661.467 134.475 655.999 151.617 655.999 167.089V172.899C655.999 174.433 654.346 175.386 653.012 174.619L645.09 170.057L600.819 144.526L548.626 114.424C546.778 113.362 545.639 111.389 545.639 109.256V103.455C545.639 72.5268 567.534 34.8368 594.542 19.2465C602.439 14.6933 609.889 12.5432 616.496 12.5432C620.756 12.5432 624.654 13.437 628.08 15.1655C628.139 15.2077 628.198 15.2245 628.257 15.2667C628.257 15.2667 630.223 16.3965 630.265 16.4387L708.598 61.6414L737.774 78.4881V78.4796Z" fill="white" stroke="#CCCCCC" stroke-width="1.25" stroke-linecap="round" stroke-linejoin="round"/>
<path d="M348.02 549.841V549.9H346.349C346.906 549.9 347.463 549.883 348.02 549.841Z" fill="#F5F5F5"/>
<path d="M873.448 66.186C867.66 63.5047 859.973 64.2551 851.536 69.1287C842.542 74.3226 834.4 83.2097 828.51 93.37C825.346 98.8001 822.841 104.61 821.187 110.394C819.752 115.444 818.959 120.478 818.959 125.267V185.234C818.959 205.858 804.354 230.976 786.357 241.356C781.101 244.4 776.131 245.833 771.71 245.833C768.782 245.833 766.116 245.201 763.771 243.961C763.729 243.945 763.669 243.919 763.636 243.885C763.281 243.708 762.935 243.506 762.598 243.287H762.581C762.581 243.287 762.522 243.245 762.48 243.211C757.088 239.67 753.781 232.646 753.781 222.848V110.672C753.781 94.424 747.731 83.2856 738.079 78.6313C738.003 78.5723 737.902 78.5132 737.784 78.4711L708.607 61.6244C708.607 41.0003 723.195 15.8821 741.209 5.47727C746.466 2.4334 751.435 1 755.84 1C759.425 1 762.623 1.95279 765.289 3.78248C765.365 3.82464 765.433 3.85837 765.492 3.90053L873.456 66.1691L873.448 66.186Z" stroke="#CCCCCC" stroke-width="1.25" stroke-linecap="round" stroke-linejoin="round"/>
<path d="M873.448 66.186C867.66 63.5047 859.973 64.2551 851.536 69.1287C842.542 74.3226 834.4 83.2097 828.51 93.37C825.346 98.8001 822.841 104.61 821.187 110.394C819.752 115.444 818.959 120.478 818.959 125.267V185.234C818.959 205.858 804.354 230.976 786.357 241.356C781.101 244.4 776.131 245.833 771.71 245.833C768.782 245.833 766.116 245.201 763.771 243.961C763.729 243.945 763.669 243.919 763.636 243.885C763.281 243.708 762.935 243.506 762.598 243.287H762.581C762.581 243.287 762.522 243.245 762.48 243.211C757.088 239.67 753.781 232.646 753.781 222.848V110.672C753.781 94.424 747.731 83.2856 738.079 78.6313C738.003 78.5723 737.902 78.5132 737.784 78.4711L708.607 61.6244C708.607 41.0003 723.195 15.8821 741.209 5.47727C746.466 2.4334 751.435 1 755.84 1C759.425 1 762.623 1.95279 765.289 3.78248C765.365 3.82464 765.433 3.85837 765.492 3.90053L873.456 66.1691L873.448 66.186Z" fill="white" stroke="#CCCCCC" stroke-width="1.25" stroke-linecap="round" stroke-linejoin="round"/>
<path d="M573.998 89.7942L638.113 126.776C639.185 127.391 640.535 126.886 640.965 125.722C641.294 124.82 641.64 123.918 641.995 123.024C642.543 121.641 642.028 120.073 640.737 119.322L576.622 82.3406C575.576 81.7335 574.217 82.1888 573.762 83.3102C573.382 84.263 573.011 85.2242 572.656 86.177C572.159 87.5345 572.741 89.0522 573.99 89.7774L573.998 89.7942Z" fill="#EBEBEB"/>
<path d="M597.098 48.9517L661.956 86.3466C663.036 86.9706 663.272 88.4124 662.454 89.3567C661.644 90.3011 660.843 91.2539 660.049 92.232C659.433 92.9908 658.37 93.2016 657.518 92.7126L592.627 55.3261C591.563 54.719 591.293 53.2856 592.061 52.3329C592.888 51.321 593.732 50.3261 594.592 49.348C595.217 48.6313 596.272 48.4711 597.098 48.9517Z" fill="#EBEBEB"/>
<path d="M610.227 35.1322C609.265 35.8067 608.303 36.515 607.358 37.257C606.236 38.1339 606.32 39.8624 607.561 40.5707L671.642 77.5524C672.722 78.1763 674.064 78.0499 675.034 77.2742C675.886 76.5827 676.755 75.9166 677.624 75.2758C678.78 74.4242 678.687 72.6788 677.439 71.9621L613.416 35.0226C612.421 34.4492 611.172 34.4745 610.227 35.1406V35.1322Z" fill="#EBEBEB"/>
<path d="M599.343 133.48L599.622 128.742L596.044 129.425L594.568 125.588L598.424 125.664L594.568 121.288L596.044 119.155L599.622 123.969L599.343 118.91L602.313 120.622L602.026 125.352L605.604 124.669L607.089 128.514L603.241 128.447L607.089 132.823L605.604 134.956L602.026 130.141L602.313 135.209L599.343 133.497V133.48Z" fill="#EBEBEB"/>
<path d="M466.397 708.738C450.198 718.089 428.978 722.76 407.817 722.76H367.09V716.521C360.99 714.497 355.252 711.993 350.063 708.999C318.035 690.534 318.238 660.458 350.46 641.849C382.716 623.265 434.799 623.156 466.828 641.621C498.831 660.087 498.653 690.129 466.397 708.747V708.738Z" fill="#F5F5F5"/>
<path d="M449.344 653.157V675.307C449.209 687.415 441.092 699.473 425.053 708.748C392.806 727.348 340.705 727.458 308.702 708.992C292.604 699.717 284.656 687.5 284.816 675.307V654.025C284.926 658.84 286.335 663.646 289.009 668.275C292.874 674.978 299.455 681.302 308.702 686.631C340.705 705.097 392.806 704.987 425.053 686.361C434.52 680.897 441.227 674.439 445.151 667.601C447.859 662.921 449.26 658.031 449.344 653.165V653.157Z" fill="white" stroke="#CCCCCC" stroke-width="1.25" stroke-miterlimit="10"/>
<path d="M367.37 700.389C412.807 700.103 449.508 678.623 449.343 652.41C449.178 626.198 412.21 605.18 366.773 605.466C321.336 605.751 284.636 627.231 284.801 653.444C284.966 679.656 321.933 700.674 367.37 700.389Z" fill="white" stroke="#CCCCCC" stroke-width="1.25" stroke-miterlimit="10"/>
<path d="M351.049 662.162L343.11 644.109L334.875 671.496L382.36 666.757L351.049 662.162Z" fill="#C2C2C2"/>
<path d="M386.098 664.59L399.277 634.345L346.856 641.942L354.796 660.003L386.098 664.59Z" fill="#C2C2C2"/>
<path d="M449.345 653.155C449.37 653.071 449.37 652.995 449.345 652.911" stroke="#CCCCCC" stroke-width="1.25" stroke-miterlimit="10"/>
<path d="M284.807 670.785V670.473" stroke="#CCCCCC" stroke-width="1.25" stroke-miterlimit="10"/>
<path d="M449.345 653.138V675.305C449.193 687.413 441.085 699.454 425.071 708.746V686.351C434.521 680.87 441.228 674.428 445.16 667.573C447.869 662.91 449.278 658.02 449.345 653.13V653.138Z" fill="#EBEBEB"/>
<path d="M414.86 691.369V713.738C411.553 715.138 408.127 716.361 404.566 717.415V695.045C408.135 693.966 411.553 692.769 414.86 691.369Z" fill="#EBEBEB"/>
<path d="M449.344 653.157V675.307C449.209 687.415 441.092 699.473 425.053 708.748C392.806 727.348 340.705 727.458 308.702 708.992C292.604 699.717 284.656 687.5 284.816 675.307V654.025C284.926 658.84 286.335 663.646 289.009 668.275C292.874 674.978 299.455 681.302 308.702 686.631C340.705 705.097 392.806 704.987 425.053 686.361C434.52 680.897 441.227 674.439 445.151 667.601C447.859 662.921 449.26 658.031 449.344 653.165V653.157Z" stroke="#CCCCCC" stroke-width="1.25" stroke-miterlimit="10"/>
<path d="M977.657 378.077C954.994 375.59 929.395 377.706 911.424 384.409C885.31 394.148 885.15 409.873 911.078 419.536C916.975 421.737 923.717 423.432 930.914 424.62C955.365 428.668 985.141 426.931 1005.31 419.41C1031.43 409.671 1031.58 393.946 1005.66 384.283C997.577 381.273 987.925 379.207 977.665 378.077H977.657Z" fill="#F5F5F5"/>
<path d="M966.216 328.566C954.952 307.773 932.939 293.658 907.618 293.658C870.84 293.658 841.031 323.448 841.031 360.202C841.031 368.558 842.575 376.559 845.393 383.929C854.961 408.963 879.218 426.745 907.627 426.745C944.405 426.745 974.214 396.947 974.214 360.202C974.214 348.751 971.32 337.976 966.224 328.566H966.216Z" fill="white"/>
<path d="M974.215 360.209C974.215 396.963 944.406 426.753 907.627 426.753C902.152 426.753 896.827 426.095 891.74 424.839C892.643 424.881 893.537 424.898 894.448 424.898C931.227 424.898 961.036 395.1 961.036 358.354C961.036 346.904 958.142 336.128 953.046 326.718C944.22 310.428 928.788 298.236 910.344 293.725C934.517 294.686 955.366 308.531 966.233 328.573C971.329 337.983 974.223 348.759 974.223 360.209H974.215Z" fill="#EBEBEB"/>
<path d="M966.216 328.566C954.952 307.773 932.939 293.658 907.618 293.658C870.84 293.658 841.031 323.448 841.031 360.202C841.031 368.558 842.575 376.559 845.393 383.929C854.961 408.963 879.218 426.745 907.627 426.745C944.405 426.745 974.214 396.947 974.214 360.202C974.214 348.751 971.32 337.976 966.224 328.566H966.216Z" stroke="#CCCCCC" stroke-width="1.25" stroke-miterlimit="10"/>
<path d="M103.43 570.17L114.474 576.545C125.198 582.734 120.802 599.108 108.424 599.108H80.9947" fill="#F5F5F5"/>
<path d="M75.8562 598.096L5.73341 557.64C-0.577723 554.048 -0.577723 542.319 5.73341 531.442C12.0446 520.566 22.2875 514.655 28.6071 518.247L98.7299 558.702" fill="white"/>
<path d="M75.8562 598.096L5.73341 557.64C-0.577723 554.048 -0.577723 542.319 5.73341 531.442C12.0446 520.566 22.2875 514.655 28.6071 518.247L98.7299 558.702" stroke="#CCCCCC" stroke-width="1.25" stroke-miterlimit="10"/>
<path d="M98.6419 585.041C105.003 574.188 105.079 562.415 98.8103 558.745C92.5418 555.076 82.3033 560.9 75.9418 571.753C69.5804 582.606 69.505 594.378 75.7734 598.048C82.0419 601.717 92.2804 595.894 98.6419 585.041Z" fill="#EBEBEB" stroke="#CCCCCC" stroke-width="1.25" stroke-miterlimit="10"/>
</svg>
