<svg width="198" height="238" viewBox="0 0 198 238" fill="none" xmlns="http://www.w3.org/2000/svg">
<path d="M20.0546 200.734L36.5246 139.284C37.0746 137.224 36.1146 134.144 34.3746 132.404C32.6346 130.664 30.7746 130.924 30.2246 132.984L13.7546 194.434C13.2046 196.494 14.1646 199.574 15.9046 201.314C17.6446 203.054 19.5046 202.794 20.0546 200.734Z" fill="white" stroke="#CCCCCC" stroke-width="0.63" stroke-miterlimit="10"/>
<path d="M19.0352 219.173L32.5852 232.723C36.8652 237.003 43.9852 238.443 52.9252 236.043L96.6652 224.323C105.605 221.923 114.675 216.143 122.075 208.743C129.475 201.343 135.115 192.483 137.475 183.693L154.925 118.543C157.285 109.753 155.845 102.743 151.615 98.5031L138.065 84.9531C140.305 87.1931 141.765 90.2131 142.285 93.8531C142.755 97.0931 142.485 100.843 141.375 104.983L123.925 170.133C121.565 178.923 115.855 187.853 108.525 195.183C101.125 202.583 92.0652 208.373 83.1152 210.773L39.3752 222.493C35.1152 223.633 31.2752 223.903 27.9552 223.413C24.2952 222.873 21.2752 221.413 19.0352 219.173Z" fill="#EBEBEB" stroke="#CCCCCC" stroke-width="0.63" stroke-miterlimit="10"/>
<path d="M48.5745 108.944C55.9845 101.534 65.0445 95.7538 73.9845 93.3538L117.724 81.6338C135.524 76.8638 146.124 87.3238 141.384 104.994L123.925 170.144C121.565 178.934 115.865 187.864 108.524 195.194C101.124 202.594 92.0545 208.384 83.1145 210.784L39.3745 222.504C21.5745 227.274 10.9745 216.814 15.7145 199.144L33.1745 133.994C35.5345 125.204 41.2445 116.274 48.5745 108.944Z" fill="white" stroke="#CCCCCC" stroke-width="0.63" stroke-miterlimit="10"/>
<path d="M16.0647 210.714L19.4947 214.144C22.9347 217.584 28.8247 218.414 36.0847 216.464L79.8247 204.744C87.8347 202.594 96.2347 197.424 103.495 190.164C110.675 182.984 115.785 174.704 117.885 166.854L135.335 101.704C137.245 94.5944 136.425 88.8144 133.025 85.4144L129.595 81.9844C130.175 82.5644 130.675 83.2044 131.095 83.9144C133.185 87.3844 133.485 92.3744 131.905 98.2744L114.445 163.414C112.335 171.274 107.225 179.554 100.055 186.724C92.7947 193.984 84.3947 199.154 76.3847 201.304L32.6547 213.024C26.6047 214.644 21.5147 214.344 17.9947 212.214C17.2847 211.784 16.6347 211.284 16.0547 210.704L16.0647 210.714Z" fill="#EBEBEB" stroke="#CCCCCC" stroke-width="0.63" stroke-miterlimit="10"/>
<path d="M142.454 144.384C142.944 142.564 142.264 140.014 140.944 138.694C139.624 137.374 138.154 137.774 137.664 139.594L132.564 158.614C132.074 160.434 132.754 162.984 134.074 164.304C135.394 165.624 136.864 165.224 137.354 163.404L142.454 144.384Z" fill="#CCCCCC"/>
<path d="M130.955 179.906C131.591 179.74 131.874 178.713 131.586 177.612C131.299 176.512 130.55 175.754 129.914 175.92C129.278 176.086 128.996 177.113 129.283 178.214C129.571 179.315 130.319 180.072 130.955 179.906Z" fill="#CCCCCC"/>
<path d="M48.3445 108.715C41.6445 115.415 36.8845 123.075 34.9545 130.285L17.4945 195.435C15.9845 201.065 16.4645 205.635 18.8045 207.975C21.1845 210.355 25.8745 210.835 31.6445 209.295L75.3845 197.575C82.7445 195.605 90.5345 190.785 97.3145 183.995C104.014 177.295 108.775 169.635 110.705 162.425L128.164 97.2746C129.674 91.6446 129.194 87.0747 126.854 84.7347C124.475 82.3547 119.785 81.8746 114.015 83.4146L70.2745 95.1346C62.9145 97.1046 55.1245 101.925 48.3445 108.715Z" fill="white"/>
<path d="M48.3445 108.715C41.6445 115.415 36.8845 123.075 34.9545 130.285L17.4945 195.435C15.9845 201.065 16.4645 205.635 18.8045 207.975C21.1845 210.355 25.8745 210.835 31.6445 209.295L75.3845 197.575C82.7445 195.605 90.5345 190.785 97.3145 183.995C104.014 177.295 108.775 169.635 110.705 162.425L128.164 97.2746C129.674 91.6446 129.194 87.0747 126.854 84.7347C124.474 82.3547 119.785 81.8746 114.015 83.4146L70.2745 95.1346C62.9145 97.1046 55.1245 101.925 48.3445 108.715Z" stroke="#CCCCCC" stroke-width="0.63" stroke-miterlimit="10"/>
<path d="M48.3448 108.714C55.1248 101.934 62.9148 97.1139 70.2748 95.1339L114.015 83.4139C119.795 81.8639 124.475 82.3439 126.855 84.7339C129.195 87.0739 129.675 91.6439 128.165 97.2739L110.705 162.424C108.775 169.634 104.015 177.294 97.3148 183.994C90.5348 190.774 82.7448 195.594 75.3848 197.574L31.6448 209.294C25.8648 210.844 21.1848 210.364 18.8048 207.974C16.4648 205.634 15.9848 201.064 17.4948 195.434L34.9548 130.284C36.8848 123.074 41.6448 115.414 48.3448 108.714ZM45.6048 105.974C38.4248 113.154 33.3148 121.434 31.2148 129.284L13.7548 194.434C11.8548 201.544 12.6748 207.324 16.0648 210.724C19.5048 214.164 25.3948 214.994 32.6548 213.044L76.3948 201.324C84.4048 199.174 92.8048 194.004 100.065 186.744C107.245 179.564 112.355 171.284 114.455 163.434L131.915 98.2839C133.815 91.1739 132.995 85.3939 129.605 81.9939C126.165 78.5539 120.275 77.7239 113.015 79.6739L69.2748 91.3939C61.2648 93.5439 52.8648 98.7139 45.6048 105.974Z" fill="white" stroke="#CCCCCC" stroke-width="0.63" stroke-miterlimit="10"/>
<mask id="mask0_741_1635" style="mask-type:luminance" maskUnits="userSpaceOnUse" x="12" y="78" width="121" height="137">
<path d="M48.3448 108.714C55.1248 101.934 62.9148 97.1139 70.2748 95.1339L114.015 83.4139C119.795 81.8639 124.475 82.3439 126.855 84.7339C129.195 87.0739 129.675 91.6439 128.165 97.2739L110.705 162.424C108.775 169.634 104.015 177.294 97.3148 183.994C90.5348 190.774 82.7448 195.594 75.3848 197.574L31.6448 209.294C25.8648 210.844 21.1848 210.364 18.8048 207.974C16.4648 205.634 15.9848 201.064 17.4948 195.434L34.9548 130.284C36.8848 123.074 41.6448 115.414 48.3448 108.714ZM45.6048 105.974C38.4248 113.154 33.3148 121.434 31.2148 129.284L13.7548 194.434C11.8548 201.544 12.6748 207.324 16.0648 210.724C19.5048 214.164 25.3948 214.994 32.6548 213.044L76.3948 201.324C84.4048 199.174 92.8048 194.004 100.065 186.744C107.245 179.564 112.355 171.284 114.455 163.434L131.915 98.2839C133.815 91.1739 132.995 85.3939 129.605 81.9939C126.165 78.5539 120.275 77.7239 113.015 79.6739L69.2748 91.3939C61.2648 93.5439 52.8648 98.7139 45.6048 105.974Z" fill="white"/>
</mask>
<g mask="url(#mask0_741_1635)">
<path opacity="0.5" d="M-132.255 31.0352L-137.365 36.2452L184.175 359.135L189.285 353.925L-132.255 31.0352Z" fill="#EBEBEB"/>
<path opacity="0.5" d="M-80.855 -20.3652L-87.415 -13.7052L234.125 309.185L240.685 302.525L-80.855 -20.3652Z" fill="#EBEBEB"/>
<path opacity="0.5" d="M-62.765 -38.4551L-75.915 -25.2051L245.625 297.685L258.775 284.435L-62.765 -38.4551Z" fill="#EBEBEB"/>
<path opacity="0.5" d="M-33.4549 -67.7656L-46.0049 -55.1156L275.535 267.774L288.085 255.124L-33.4549 -67.7656Z" fill="#EBEBEB"/>
</g>
<path d="M50.7049 167.605C50.4449 168.655 50.7149 169.655 51.3949 170.085C52.1949 170.615 53.3149 170.315 54.9949 169.865L79.8149 163.215C81.4949 162.765 82.6149 162.465 83.8449 161.385C84.8749 160.505 85.7649 159.185 86.0649 158.125C86.4349 156.825 86.0049 156.145 85.4649 155.275C82.9549 151.175 77.8249 149.815 71.4249 151.535C65.0249 153.255 58.3249 157.775 53.0549 163.945C51.9249 165.275 51.0349 166.315 50.7049 167.605Z" fill="#CCCCCC"/>
<path d="M80.0152 144.743C85.1749 139.647 86.973 133.102 84.0315 130.123C81.09 127.145 74.5227 128.861 69.363 133.956C64.2033 139.051 62.4051 145.596 65.3466 148.575C68.2881 151.554 74.8555 149.838 80.0152 144.743Z" fill="#CCCCCC"/>
<path d="M48.3448 108.714C55.1248 101.934 62.9148 97.1139 70.2748 95.1339L114.015 83.4139C119.795 81.8639 124.475 82.3439 126.855 84.7339C129.195 87.0739 129.675 91.6439 128.165 97.2739L110.705 162.424C108.775 169.634 104.015 177.294 97.3148 183.994C90.5348 190.774 82.7448 195.594 75.3848 197.574L31.6448 209.294C25.8648 210.844 21.1848 210.364 18.8048 207.974C16.4648 205.634 15.9848 201.064 17.4948 195.434L34.9548 130.284C36.8848 123.074 41.6448 115.414 48.3448 108.714ZM45.6048 105.974C38.4248 113.154 33.3148 121.434 31.2148 129.284L13.7548 194.434C11.8548 201.544 12.6748 207.324 16.0648 210.724C19.5048 214.164 25.3948 214.994 32.6548 213.044L76.3948 201.324C84.4048 199.174 92.8048 194.004 100.065 186.744C107.245 179.564 112.355 171.284 114.455 163.434L131.915 98.2839C133.815 91.1739 132.995 85.3939 129.605 81.9939C126.165 78.5539 120.275 77.7239 113.015 79.6739L69.2748 91.3939C61.2648 93.5439 52.8648 98.7139 45.6048 105.974Z" stroke="#CCCCCC" stroke-width="0.63" stroke-miterlimit="10"/>
<path d="M175.005 36.0742L170.765 51.9042C168.715 59.5542 160.855 64.0942 153.205 62.0442C145.555 59.9942 137.695 64.5342 135.645 72.1842L132.705 83.1442" stroke="#CCCCCC" stroke-width="0.63" stroke-linecap="round" stroke-linejoin="round"/>
<path d="M132.704 94.4852C138.973 94.4852 144.055 89.4036 144.055 83.1351C144.055 76.8667 138.973 71.7852 132.704 71.7852C126.436 71.7852 121.354 76.8667 121.354 83.1351C121.354 89.4036 126.436 94.4852 132.704 94.4852Z" fill="white" stroke="#CCCCCC" stroke-width="0.63" stroke-linecap="round" stroke-linejoin="round"/>
<path d="M66.3446 65.9237C58.4546 68.0937 54.0946 62.0937 56.5946 52.5337C59.0946 42.9737 67.5146 33.4637 75.3946 31.2937L184.045 1.44373C191.935 -0.726272 196.295 5.27373 193.795 14.8337C191.295 24.3937 182.875 33.9037 174.995 36.0737L66.3446 65.9237Z" fill="white" stroke="#CCCCCC" stroke-width="0.75" stroke-miterlimit="10"/>
<path d="M66.3446 65.9237C58.4546 68.0937 54.0946 62.0937 56.5946 52.5337C59.0946 42.9737 67.5146 33.4637 75.3946 31.2937L184.045 1.44373C191.935 -0.726272 196.295 5.27373 193.795 14.8337C191.295 24.3937 182.875 33.9037 174.995 36.0737L66.3446 65.9237Z" fill="white" stroke="#CCCCCC" stroke-width="0.75" stroke-miterlimit="10"/>
<path d="M66.3446 65.9237C58.4546 68.0937 54.0946 62.0937 56.5946 52.5337C59.0946 42.9737 67.5146 33.4637 75.3946 31.2937L184.045 1.44373C191.935 -0.726272 196.295 5.27373 193.795 14.8337C191.295 24.3937 182.875 33.9037 174.995 36.0737L66.3446 65.9237Z" fill="white" stroke="#CCCCCC" stroke-width="0.75" stroke-miterlimit="10"/>
<path d="M192.124 2.93359L194.944 5.72359C197.284 8.03359 198.054 12.2836 196.644 17.6536C194.144 27.2136 185.724 36.7236 177.844 38.8836L69.1841 68.7336C65.8441 69.6536 63.1241 69.1036 61.3041 67.4336L58.4541 64.6236C58.8841 65.0136 59.3641 65.3536 59.8841 65.6036C61.5841 66.4736 63.7641 66.6236 66.3241 65.9236L174.984 36.0736C182.864 33.9136 191.284 24.4036 193.784 14.8436C194.904 10.5636 194.644 7.0036 193.314 4.5636C192.974 3.9536 192.574 3.40359 192.104 2.93359H192.124Z" fill="#EBEBEB" stroke="#CCCCCC" stroke-width="0.75" stroke-miterlimit="10"/>
<path d="M66.3446 65.9237C58.4546 68.0937 54.0946 62.0937 56.5946 52.5337C59.0946 42.9737 67.5146 33.4637 75.3946 31.2937L184.045 1.44373C191.935 -0.726272 196.295 5.27373 193.795 14.8337C191.295 24.3937 182.875 33.9037 174.995 36.0737L66.3446 65.9237Z" stroke="#CCCCCC" stroke-width="0.75" stroke-miterlimit="10"/>
<path d="M139.895 32.2629C138.355 32.6829 137.435 31.7629 137.845 30.2129C138.255 28.6529 139.825 27.0529 141.365 26.6329C142.905 26.2129 143.825 27.1329 143.415 28.6829C143.005 30.2329 141.435 31.8429 139.895 32.2629Z" fill="#EBEBEB"/>
<path d="M139.895 32.2629C138.355 32.6829 137.435 31.7629 137.845 30.2129C138.255 28.6529 139.825 27.0529 141.365 26.6329C142.905 26.2129 143.825 27.1329 143.415 28.6829C143.005 30.2329 141.435 31.8429 139.895 32.2629Z" fill="#EBEBEB"/>
<path d="M126.395 35.9641C124.855 36.3841 123.935 35.4641 124.345 33.9141C124.755 32.3541 126.325 30.7541 127.865 30.3341C129.405 29.9141 130.325 30.8341 129.915 32.3841C129.505 33.9441 127.935 35.5441 126.395 35.9641Z" fill="#EBEBEB"/>
<path d="M112.895 39.6731C111.355 40.0931 110.435 39.1731 110.845 37.6231C111.255 36.0731 112.825 34.4631 114.365 34.0431C115.905 33.6231 116.825 34.5431 116.415 36.0931C116.005 37.6531 114.435 39.2531 112.895 39.6731Z" fill="#EBEBEB"/>
<path d="M155.934 31.1543C155.734 31.2043 155.554 31.1843 155.444 31.0743C155.224 30.8443 155.354 30.3443 155.744 29.9543L161.034 24.6443L151.925 27.0843C151.495 27.2043 151.235 26.9443 151.355 26.5043C151.475 26.0643 151.915 25.6143 152.355 25.5043L161.464 23.0643L158.425 19.9843C158.205 19.7543 158.334 19.2543 158.724 18.8643C159.114 18.4743 159.615 18.3343 159.835 18.5643L163.855 22.6343C163.915 22.6943 163.945 22.7643 163.955 22.8443C163.965 22.9243 163.954 23.0243 163.934 23.1243C163.904 23.2343 163.855 23.3443 163.795 23.4443C163.735 23.5443 163.655 23.6543 163.555 23.7443L156.564 30.7643C156.364 30.9643 156.144 31.0943 155.944 31.1443L155.934 31.1543Z" fill="#C2C2C2"/>
<path d="M175.005 41.7443C178.136 41.7443 180.675 39.2057 180.675 36.0743C180.675 32.9428 178.136 30.4043 175.005 30.4043C171.873 30.4043 169.335 32.9428 169.335 36.0743C169.335 39.2057 171.873 41.7443 175.005 41.7443Z" fill="white" stroke="#CCCCCC" stroke-width="0.63" stroke-linecap="round" stroke-linejoin="round"/>
<path d="M2.32422 78.4862L7.17421 83.3362C8.40421 84.5162 10.4242 84.9162 12.9442 84.2362L26.7842 80.5262C31.8742 79.1662 37.1042 73.9562 38.4542 68.8962L42.1342 55.1562C42.8042 52.6362 42.4042 50.6362 41.1842 49.4262L36.3342 44.5762C37.1742 45.4162 37.6242 46.6362 37.6042 48.1462C37.5942 48.8162 37.4942 49.5362 37.2842 50.3062L33.6042 64.0462C32.2542 69.1062 27.0242 74.3162 21.9242 75.6762L8.08421 79.3862C7.28421 79.5962 6.53422 79.7062 5.85422 79.7162C4.36422 79.7362 3.16422 79.2962 2.32422 78.4862Z" fill="#EBEBEB"/>
<path d="M37.2945 50.3053C38.6545 45.2453 35.6145 42.2553 30.5245 43.6153L16.6845 47.3253C11.5845 48.6953 6.36453 53.8953 5.00453 58.9553L1.32453 72.6953C-0.0354671 77.7553 3.00454 80.7453 8.09454 79.3853L21.9345 75.6753C27.0345 74.3053 32.2545 69.1053 33.6145 64.0453L37.2945 50.3053Z" fill="white" stroke="#CCCCCC" stroke-width="0.75" stroke-linecap="round" stroke-linejoin="round"/>
<path d="M2.32422 78.4862L7.17421 83.3362C8.40421 84.5162 10.4242 84.9162 12.9442 84.2362L26.7842 80.5262C31.8742 79.1662 37.1042 73.9562 38.4542 68.8962L42.1342 55.1562C42.8042 52.6362 42.4042 50.6362 41.1842 49.4262L36.3342 44.5762C37.1742 45.4162 37.6242 46.6362 37.6042 48.1462C37.5942 48.8162 37.4942 49.5362 37.2842 50.3062L33.6042 64.0462C32.2542 69.1062 27.0242 74.3162 21.9242 75.6762L8.08421 79.3862C7.28421 79.5962 6.53422 79.7062 5.85422 79.7162C4.36422 79.7362 3.16422 79.2962 2.32422 78.4862Z" stroke="#CCCCCC" stroke-width="0.75" stroke-linecap="round" stroke-linejoin="round"/>
<path d="M12.8649 68.4348C12.7249 68.4348 12.5949 68.4148 12.4749 68.3848C11.9949 68.2448 11.6449 67.8948 11.5149 67.4148C11.3849 66.9248 11.5249 66.3748 11.8549 65.1648L12.9649 61.0248C13.0749 60.6048 13.1749 60.2548 13.2649 59.9648C13.2649 59.8948 13.2849 59.8248 13.3249 59.7548C13.3249 59.7448 13.3349 59.7348 13.3449 59.7248C13.4749 59.3448 13.6049 59.0548 13.7949 58.7748C14.1149 58.3048 14.5249 57.8948 14.9949 57.5748C15.5349 57.2048 16.1049 57.0548 17.2349 56.7448L23.9149 54.9548C25.1149 54.6348 25.6649 54.4848 26.1549 54.6248C26.6349 54.7648 26.9849 55.1148 27.1149 55.5948C27.1849 55.8548 27.1749 56.1348 27.1149 56.5248C27.1149 56.6148 27.1049 56.7048 27.0649 56.7848C26.9949 57.0748 26.9049 57.4248 26.7949 57.8448L25.6849 61.9848C25.3849 63.0948 25.2249 63.6948 24.8549 64.2348C24.5349 64.7048 24.1249 65.1148 23.6549 65.4348C23.1149 65.8048 22.5449 65.9548 21.4149 66.2648L14.7349 68.0548C13.8349 68.2948 13.3049 68.4348 12.8949 68.4348H12.8649ZM14.0749 60.7248C14.0249 60.8948 13.9849 61.0748 13.9249 61.2748L12.8149 65.4148C12.5749 66.3148 12.4149 66.9148 12.4749 67.1448C12.5149 67.2948 12.5949 67.3748 12.7449 67.4248C12.9649 67.4848 13.5649 67.3248 14.4549 67.0848L21.1349 65.2948C22.1549 65.0248 22.6649 64.8848 23.0649 64.6148C23.4249 64.3648 23.7549 64.0348 24.0049 63.6748C24.2749 63.2748 24.4149 62.7648 24.6949 61.7348L25.7149 57.9148L20.6849 62.0348C20.1549 62.4748 19.8849 62.6948 19.5849 62.8348C19.2949 62.9748 19.0149 63.0448 18.7549 63.0548C18.3949 63.0548 18.1649 62.9248 17.7849 62.7248L14.0849 60.7348L14.0749 60.7248ZM14.3849 59.7548L18.2449 61.8348C18.5249 61.9848 18.6249 62.0648 18.7349 62.0448C18.8549 62.0448 18.9949 62.0048 19.1449 61.9248C19.3349 61.8348 19.5949 61.6248 20.0449 61.2448L26.1249 56.2748C26.1649 56.0748 26.1749 55.9248 26.1449 55.8348C26.1049 55.6848 26.0149 55.6048 25.8749 55.5548C25.6549 55.4948 25.0649 55.6548 24.1649 55.8848L17.4849 57.6748C16.4649 57.9448 15.9549 58.0848 15.5549 58.3548C15.1949 58.6048 14.8649 58.9348 14.6149 59.2948C14.5249 59.4248 14.4549 59.5648 14.3849 59.7248V59.7548Z" fill="#C2C2C2"/>
<path d="M33.1252 115.333L36.2452 118.453C37.0352 119.213 38.3352 119.463 39.9552 119.033L48.8552 116.643C52.1252 115.763 55.4952 112.413 56.3652 109.163L58.7352 100.333C59.1652 98.7135 58.9052 97.4234 58.1252 96.6434L55.0052 93.5234C55.5452 94.0634 55.8352 94.8534 55.8152 95.8234C55.8152 96.2534 55.7452 96.7134 55.6052 97.2134L53.2352 106.043C52.3652 109.293 49.0052 112.643 45.7252 113.523L36.8252 115.913C36.3152 116.053 35.8252 116.123 35.3852 116.123C34.4252 116.123 33.6552 115.853 33.1152 115.333H33.1252Z" fill="#EBEBEB"/>
<path d="M55.6048 97.214C56.4748 93.964 54.5248 92.034 51.2548 92.914L42.3548 95.294C39.0748 96.174 35.7148 99.524 34.8448 102.774L32.4748 111.604C31.6048 114.854 33.5548 116.784 36.8248 115.904L45.7248 113.524C49.0048 112.644 52.3648 109.294 53.2348 106.044L55.6048 97.214Z" fill="white" stroke="#CCCCCC" stroke-width="0.75" stroke-linecap="round" stroke-linejoin="round"/>
<path d="M33.1252 115.333L36.2452 118.453C37.0352 119.213 38.3352 119.463 39.9552 119.033L48.8552 116.643C52.1252 115.763 55.4952 112.413 56.3652 109.163L58.7352 100.333C59.1652 98.7135 58.9052 97.4234 58.1252 96.6434L55.0052 93.5234C55.5452 94.0634 55.8352 94.8534 55.8152 95.8234C55.8152 96.2534 55.7452 96.7134 55.6052 97.2134L53.2352 106.043C52.3652 109.293 49.0052 112.643 45.7252 113.523L36.8252 115.913C36.3152 116.053 35.8252 116.123 35.3852 116.123C34.4252 116.123 33.6552 115.853 33.1152 115.333H33.1252Z" stroke="#CCCCCC" stroke-width="0.75" stroke-linecap="round" stroke-linejoin="round"/>
<path d="M42.0349 109.043L43.9149 102.043L42.0049 103.503L42.4949 101.663L44.4049 100.233L46.0949 99.7832L43.7349 108.603L42.0449 109.053L42.0349 109.043Z" fill="#C2C2C2"/>
<path d="M147.005 118.704C147.432 118.593 147.622 117.9 147.428 117.157C147.234 116.415 146.73 115.903 146.302 116.015C145.875 116.126 145.686 116.819 145.88 117.562C146.074 118.304 146.577 118.816 147.005 118.704Z" fill="#CCCCCC"/>
<path d="M146.274 121.46C146.701 121.349 146.89 120.656 146.696 119.913C146.502 119.17 145.998 118.659 145.571 118.77C145.143 118.882 144.954 119.575 145.148 120.318C145.342 121.06 145.846 121.572 146.274 121.46Z" fill="#CCCCCC"/>
<path d="M145.533 124.208C145.961 124.097 146.15 123.404 145.956 122.661C145.762 121.918 145.258 121.407 144.831 121.519C144.403 121.63 144.214 122.323 144.408 123.066C144.602 123.808 145.106 124.32 145.533 124.208Z" fill="#CCCCCC"/>
<path d="M144.645 118.081C145.072 117.97 145.261 117.277 145.067 116.534C144.873 115.791 144.369 115.28 143.942 115.392C143.515 115.503 143.325 116.196 143.519 116.939C143.713 117.681 144.217 118.193 144.645 118.081Z" fill="#CCCCCC"/>
<path d="M143.904 120.839C144.332 120.727 144.521 120.035 144.327 119.292C144.133 118.549 143.629 118.038 143.202 118.149C142.774 118.261 142.585 118.954 142.779 119.696C142.973 120.439 143.477 120.951 143.904 120.839Z" fill="#CCCCCC"/>
<path d="M143.163 123.587C143.591 123.475 143.78 122.783 143.586 122.04C143.392 121.297 142.888 120.786 142.461 120.897C142.033 121.009 141.844 121.702 142.038 122.444C142.232 123.187 142.736 123.699 143.163 123.587Z" fill="#CCCCCC"/>
<path d="M148.634 122.073C149.061 121.962 149.251 121.269 149.057 120.526C148.863 119.784 148.359 119.272 147.931 119.384C147.504 119.495 147.315 120.188 147.509 120.931C147.703 121.673 148.206 122.185 148.634 122.073Z" fill="#CCCCCC"/>
<path d="M147.902 124.829C148.33 124.718 148.519 124.025 148.325 123.282C148.131 122.54 147.627 122.028 147.2 122.14C146.772 122.251 146.583 122.944 146.777 123.687C146.971 124.429 147.475 124.941 147.902 124.829Z" fill="#CCCCCC"/>
<path d="M147.162 127.575C147.59 127.464 147.779 126.771 147.585 126.028C147.391 125.286 146.887 124.774 146.46 124.886C146.032 124.997 145.843 125.69 146.037 126.433C146.231 127.176 146.735 127.687 147.162 127.575Z" fill="#CCCCCC"/>
<path d="M144.792 126.956C145.22 126.845 145.409 126.152 145.215 125.409C145.021 124.666 144.517 124.155 144.089 124.267C143.662 124.378 143.473 125.071 143.667 125.814C143.861 126.556 144.365 127.068 144.792 126.956Z" fill="#CCCCCC"/>
</svg>
