<svg width="576" height="553" viewBox="0 0 576 553" fill="none" xmlns="http://www.w3.org/2000/svg">
<g clip-path="url(#clip0_214_749)">
<path d="M193.394 489.836C192.586 489.571 191.5 489.54 190.582 489.719L186.049 490.626C185.969 490.589 185.876 490.558 185.79 490.527C185.142 490.317 184.273 490.286 183.545 490.434L179.092 491.322C178.92 491.23 178.741 491.144 178.537 491.082C178.019 490.915 177.328 490.891 176.743 491.008L165.253 493.302L176.773 495.596C176.835 495.609 176.897 495.621 176.965 495.627C177.168 495.658 177.378 495.67 177.587 495.67C177.933 495.67 178.272 495.621 178.556 495.528C178.759 495.461 178.944 495.374 179.117 495.282L183.576 496.17C183.656 496.182 183.736 496.201 183.816 496.213C184.075 496.25 184.334 496.262 184.599 496.262C185.025 496.262 185.451 496.201 185.808 496.083C185.907 496.053 185.999 496.016 186.092 495.979L190.637 496.885C190.73 496.904 190.828 496.916 190.921 496.935C191.241 496.978 191.568 497.002 191.901 496.996C192.438 496.996 192.974 496.922 193.425 496.774C193.862 496.632 194.263 496.441 194.627 496.207C195.059 495.929 195.429 495.596 195.713 495.22C195.984 494.862 196.181 494.462 196.286 494.036H198.79C198.852 494.036 198.913 494.03 198.963 494.024H199.006C199.055 494.011 199.111 493.999 199.154 493.98H199.166C199.222 493.962 199.271 493.943 199.32 493.913C199.32 493.913 199.32 493.913 199.333 493.906C199.376 493.882 199.419 493.857 199.456 493.826C199.456 493.826 199.468 493.82 199.474 493.814C199.511 493.783 199.548 493.752 199.579 493.715C199.579 493.703 199.592 493.697 199.598 493.684C199.61 493.666 199.629 493.654 199.635 493.635C199.703 493.53 199.74 493.419 199.74 493.296C199.74 492.889 199.32 492.562 198.796 492.562H196.274C195.947 491.329 194.849 490.311 193.381 489.83L193.394 489.836Z" fill="#F5F5F5"/>
<path d="M207.782 484.638C208.189 485.557 208.121 486.636 207.523 487.444C206.234 489.195 203.23 490.435 199.734 490.441C196.237 490.447 193.252 489.226 191.981 487.481C191.396 486.673 191.328 485.606 191.735 484.693L199.758 466.686L207.775 484.638H207.782Z" fill="white" stroke="#CCCCCC" stroke-width="1.58" stroke-linecap="round" stroke-linejoin="round"/>
<path d="M191.981 487.488C192.302 487.925 192.722 488.326 193.246 488.696L199.758 466.698L191.735 484.7C191.334 485.613 191.396 486.68 191.975 487.488H191.981Z" fill="#EBEBEB"/>
<path d="M207.782 484.638C208.189 485.557 208.121 486.636 207.523 487.444C206.234 489.195 203.23 490.435 199.734 490.441C196.237 490.447 193.252 489.226 191.981 487.481C191.396 486.673 191.328 485.606 191.735 484.693L199.758 466.686L207.775 484.638H207.782Z" stroke="#CCCCCC" stroke-width="1.58" stroke-linecap="round" stroke-linejoin="round"/>
<path d="M206.178 477.595C206.505 478.329 206.449 479.193 205.975 479.84C204.945 481.24 202.54 482.233 199.746 482.239C196.952 482.239 194.559 481.271 193.548 479.871C193.079 479.23 193.03 478.372 193.351 477.645L199.771 463.238L206.184 477.595H206.178Z" fill="white" stroke="#CCCCCC" stroke-width="1.58" stroke-linecap="round" stroke-linejoin="round"/>
<path d="M193.536 479.877C193.788 480.229 194.128 480.549 194.547 480.839L199.758 463.238L193.338 477.638C193.018 478.366 193.067 479.223 193.529 479.871L193.536 479.877Z" fill="#EBEBEB"/>
<path d="M206.178 477.595C206.505 478.329 206.449 479.193 205.975 479.84C204.945 481.24 202.54 482.233 199.746 482.239C196.952 482.239 194.559 481.271 193.548 479.871C193.079 479.23 193.03 478.372 193.351 477.645L199.771 463.238L206.184 477.595H206.178Z" stroke="#CCCCCC" stroke-width="1.58" stroke-linecap="round" stroke-linejoin="round"/>
<path d="M204.889 470.799C205.148 471.385 205.105 472.075 204.723 472.594C203.896 473.716 201.972 474.505 199.74 474.511C197.507 474.518 195.589 473.734 194.781 472.618C194.405 472.1 194.362 471.416 194.621 470.836L199.758 459.31L204.889 470.799Z" fill="white" stroke="#CCCCCC" stroke-width="1.58" stroke-linecap="round" stroke-linejoin="round"/>
<path d="M194.781 472.618C194.985 472.902 195.256 473.155 195.589 473.389L199.758 459.31L194.621 470.83C194.362 471.409 194.405 472.094 194.775 472.618H194.781Z" fill="#EBEBEB"/>
<path d="M204.889 470.799C205.148 471.385 205.105 472.075 204.723 472.594C203.896 473.716 201.972 474.505 199.74 474.511C197.507 474.518 195.589 473.734 194.781 472.618C194.405 472.1 194.362 471.416 194.621 470.836L199.758 459.31L204.889 470.799Z" stroke="#CCCCCC" stroke-width="1.58" stroke-linecap="round" stroke-linejoin="round"/>
<path d="M198.118 490.355V492.853C198.118 493.383 198.858 493.809 199.771 493.809C200.683 493.809 201.417 493.389 201.417 492.865V490.343C200.874 490.411 200.313 490.448 199.74 490.448C199.185 490.448 198.648 490.417 198.124 490.361L198.118 490.355Z" fill="white"/>
<path d="M198.118 490.354V492.852C198.118 493.228 198.482 493.549 199.018 493.703V490.428C198.71 490.416 198.414 490.391 198.118 490.354Z" fill="#EBEBEB"/>
<path d="M198.118 490.355V492.853C198.118 493.383 198.858 493.809 199.771 493.809C200.683 493.809 201.417 493.389 201.417 492.865V490.343C200.874 490.411 200.313 490.448 199.74 490.448C199.185 490.448 198.648 490.417 198.124 490.361L198.118 490.355Z" stroke="#CCCCCC" stroke-width="1.58" stroke-linecap="round" stroke-linejoin="round"/>
<path d="M108.633 162.204C106.105 161.377 102.731 161.279 99.8699 161.846L85.7349 164.677C85.4759 164.566 85.1922 164.467 84.9147 164.375C82.9042 163.709 80.1907 163.628 77.9089 164.091L64.0267 166.866C63.484 166.576 62.9228 166.311 62.2999 166.108C60.678 165.577 58.5319 165.509 56.7002 165.879L20.8694 173.033H20.9003L20.8694 173.039L56.8051 180.199C57.0024 180.23 57.1998 180.267 57.4095 180.292C58.0447 180.384 58.6984 180.428 59.3459 180.421C60.419 180.409 61.4797 180.267 62.374 179.984C63.0092 179.78 63.5827 179.509 64.1316 179.213L78.0445 181.988C78.3036 182.037 78.5441 182.074 78.8031 182.117C79.6048 182.228 80.425 182.278 81.2391 182.265C82.5712 182.253 83.8909 182.074 85.0072 181.716C85.3094 181.624 85.5992 181.513 85.8829 181.396L100.049 184.227C100.339 184.282 100.641 184.325 100.943 184.375C101.942 184.516 102.972 184.584 104.002 184.572C105.679 184.56 107.344 184.338 108.757 183.887C110.12 183.443 111.378 182.845 112.512 182.124C113.857 181.26 115.01 180.212 115.904 179.034C116.749 177.911 117.372 176.666 117.693 175.334H125.5C125.698 175.334 125.876 175.315 126.043 175.284L126.179 175.266C126.333 175.241 126.499 175.204 126.635 175.155C126.647 175.149 126.666 175.149 126.678 175.142C126.845 175.087 127.011 175.019 127.165 174.939C127.178 174.933 127.178 174.927 127.196 174.92C127.332 174.846 127.468 174.766 127.572 174.674C127.585 174.661 127.616 174.649 127.634 174.631C127.757 174.538 127.862 174.433 127.967 174.328C127.979 174.298 128.01 174.267 128.029 174.236C128.072 174.18 128.121 174.137 128.152 174.082C128.362 173.761 128.485 173.409 128.485 173.033C128.497 171.763 127.165 170.739 125.531 170.739H117.662C116.651 166.885 113.209 163.715 108.639 162.21L108.633 162.204Z" fill="#F5F5F5"/>
<path d="M153.493 145.991C154.769 148.852 154.541 152.219 152.691 154.748C148.676 160.218 139.302 164.066 128.399 164.091C117.502 164.116 108.177 160.305 104.23 154.859C102.411 152.349 102.201 149.006 103.465 146.17L128.497 90.0059L153.499 145.991H153.493Z" fill="white" stroke="#CCCCCC" stroke-width="1.58" stroke-linecap="round" stroke-linejoin="round"/>
<path d="M104.224 154.866C105.217 156.235 106.543 157.493 108.171 158.627L128.485 90.0186L103.459 146.164C102.207 149.001 102.392 152.337 104.218 154.866H104.224Z" fill="#EBEBEB"/>
<path d="M153.493 145.991C154.769 148.852 154.541 152.219 152.691 154.748C148.676 160.218 139.302 164.066 128.399 164.091C117.502 164.116 108.177 160.305 104.23 154.859C102.411 152.349 102.201 149.006 103.465 146.17L128.497 90.0059L153.499 145.991H153.493Z" stroke="#CCCCCC" stroke-width="1.58" stroke-linecap="round" stroke-linejoin="round"/>
<path d="M148.491 124.024C149.515 126.312 149.33 129.007 147.85 131.029C144.637 135.402 137.138 138.486 128.417 138.504C119.697 138.523 112.241 135.476 109.083 131.116C107.628 129.105 107.462 126.435 108.473 124.166L128.497 79.2383L148.497 124.024H148.491Z" fill="white" stroke="#CCCCCC" stroke-width="1.58" stroke-linecap="round" stroke-linejoin="round"/>
<path d="M109.071 131.122C109.867 132.219 110.927 133.225 112.229 134.131L128.479 79.2441L108.461 124.165C107.455 126.435 107.61 129.105 109.065 131.128L109.071 131.122Z" fill="#EBEBEB"/>
<path d="M148.491 124.024C149.515 126.312 149.33 129.007 147.85 131.029C144.637 135.402 137.138 138.486 128.417 138.504C119.697 138.523 112.241 135.476 109.083 131.116C107.628 129.105 107.462 126.435 108.473 124.166L128.497 79.2383L148.497 124.024H148.491Z" stroke="#CCCCCC" stroke-width="1.58" stroke-linecap="round" stroke-linejoin="round"/>
<path d="M144.489 102.815C145.303 104.646 145.161 106.805 143.977 108.421C141.411 111.917 135.405 114.384 128.43 114.403C121.455 114.415 115.491 111.979 112.963 108.495C111.797 106.885 111.661 104.751 112.469 102.932L128.491 66.9902L144.489 102.821V102.815Z" fill="white" stroke="#CCCCCC" stroke-width="1.58" stroke-linecap="round" stroke-linejoin="round"/>
<path d="M112.957 108.495C113.592 109.37 114.443 110.172 115.485 110.9L128.485 66.9902L112.469 102.926C111.668 104.745 111.791 106.879 112.957 108.495Z" fill="#EBEBEB"/>
<path d="M144.489 102.815C145.303 104.646 145.161 106.805 143.977 108.421C141.411 111.917 135.405 114.384 128.43 114.403C121.455 114.415 115.491 111.979 112.963 108.495C111.797 106.885 111.661 104.751 112.469 102.932L128.491 66.9902L144.489 102.821V102.815Z" stroke="#CCCCCC" stroke-width="1.58" stroke-linecap="round" stroke-linejoin="round"/>
<path d="M123.354 163.82V171.615C123.354 173.268 125.673 174.6 128.504 174.6C131.347 174.612 133.635 173.28 133.635 171.646V163.776C131.939 163.986 130.2 164.097 128.399 164.097C126.672 164.097 124.995 164.005 123.36 163.826L123.354 163.82Z" fill="white"/>
<path d="M123.354 163.819V171.615C123.354 172.78 124.489 173.779 126.154 174.266V164.048C125.198 164.004 124.279 163.924 123.354 163.819Z" fill="#EBEBEB"/>
<path d="M123.354 163.82V171.615C123.354 173.268 125.673 174.6 128.504 174.6C131.347 174.612 133.635 173.28 133.635 171.646V163.776C131.939 163.986 130.2 164.097 128.399 164.097C126.672 164.097 124.995 164.005 123.36 163.826L123.354 163.82Z" stroke="#CCCCCC" stroke-width="1.58" stroke-linecap="round" stroke-linejoin="round"/>
<path d="M399.196 44.9733C398.073 44.6033 396.568 44.5601 395.298 44.813L389.014 46.0711C388.897 46.0217 388.773 45.9786 388.65 45.9354C387.756 45.6394 386.553 45.6024 385.536 45.812L379.362 47.0455C379.122 46.916 378.869 46.7988 378.598 46.7063C377.876 46.4719 376.92 46.4411 376.106 46.6014L360.177 49.7837L376.155 52.9659C376.242 52.9782 376.328 52.9967 376.427 53.009C376.71 53.0522 377 53.0707 377.29 53.0645C377.765 53.0645 378.24 52.9967 378.635 52.8672C378.918 52.7747 379.171 52.6575 379.418 52.5218L385.603 53.7553C385.721 53.7738 385.825 53.7923 385.943 53.8108C386.3 53.8601 386.664 53.8848 387.028 53.8786C387.62 53.8786 388.206 53.7923 388.705 53.6319C388.841 53.5887 388.971 53.5394 389.094 53.4901L395.391 54.7482C395.52 54.7728 395.656 54.7913 395.785 54.816C396.229 54.8777 396.686 54.9085 397.142 54.9023C397.888 54.9023 398.628 54.7975 399.257 54.6001C399.862 54.4028 400.423 54.1376 400.929 53.8169C401.527 53.4346 402.039 52.9659 402.433 52.4417C402.81 51.9421 403.087 51.3871 403.229 50.7951H406.701C406.787 50.7951 406.868 50.7889 406.942 50.7766H407.003C407.071 50.7581 407.145 50.7396 407.207 50.721C407.213 50.721 407.219 50.721 407.225 50.721C407.299 50.6964 407.373 50.6655 407.441 50.6285C407.447 50.6285 407.447 50.6285 407.453 50.6224C407.515 50.5915 407.577 50.5545 407.62 50.5114C407.626 50.5114 407.638 50.499 407.645 50.4929C407.7 50.4497 407.743 50.4065 407.793 50.3572C407.799 50.3449 407.811 50.3325 407.817 50.314C407.836 50.2894 407.86 50.2709 407.873 50.2462C407.965 50.1043 408.021 49.9502 408.021 49.7775C408.027 49.2101 407.435 48.7599 406.707 48.7599H403.21C402.76 47.0455 401.231 45.6332 399.202 44.9672L399.196 44.9733Z" fill="#F5F5F5"/>
<path d="M419.14 37.7644C419.707 39.0348 419.609 40.5334 418.782 41.6558C417 44.0857 412.831 45.8001 407.984 45.8125C403.136 45.8248 398.992 44.1288 397.241 41.7052C396.433 40.5889 396.34 39.1027 396.902 37.8446L408.033 12.874L419.146 37.7644H419.14Z" fill="white" stroke="#CCCCCC" stroke-width="1.58" stroke-linecap="round" stroke-linejoin="round"/>
<path d="M397.228 41.7113C397.672 42.3219 398.258 42.8769 398.986 43.3826L408.021 12.874L396.895 37.8384C396.34 39.1027 396.42 40.5828 397.235 41.7052L397.228 41.7113Z" fill="#EBEBEB"/>
<path d="M419.14 37.7644C419.707 39.0348 419.609 40.5334 418.782 41.6558C417 44.0857 412.831 45.8001 407.984 45.8125C403.136 45.8248 398.992 44.1288 397.241 41.7052C396.433 40.5889 396.34 39.1027 396.902 37.8446L408.033 12.874L419.146 37.7644H419.14Z" stroke="#CCCCCC" stroke-width="1.58" stroke-linecap="round" stroke-linejoin="round"/>
<path d="M416.914 28.0024C417.37 29.02 417.29 30.2164 416.63 31.1168C415.205 33.0594 411.869 34.4347 407.99 34.4408C404.117 34.447 400.799 33.0964 399.393 31.1538C398.745 30.2596 398.671 29.0693 399.122 28.0641L408.027 8.08887L416.92 28.0024H416.914Z" fill="white" stroke="#CCCCCC" stroke-width="1.58" stroke-linecap="round" stroke-linejoin="round"/>
<path d="M399.387 31.1538C399.738 31.641 400.213 32.085 400.793 32.492L408.021 8.08887L399.122 28.0579C398.678 29.0693 398.745 30.2534 399.393 31.1538H399.387Z" fill="#EBEBEB"/>
<path d="M416.914 28.0024C417.37 29.02 417.29 30.2164 416.63 31.1168C415.205 33.0594 411.869 34.4347 407.99 34.4408C404.117 34.447 400.799 33.0964 399.393 31.1538C398.745 30.2596 398.671 29.0693 399.122 28.0641L408.027 8.08887L416.92 28.0024H416.914Z" stroke="#CCCCCC" stroke-width="1.58" stroke-linecap="round" stroke-linejoin="round"/>
<path d="M415.131 18.5663C415.495 19.3804 415.427 20.3363 414.903 21.0578C413.762 22.6119 411.092 23.7097 407.99 23.7158C404.888 23.722 402.236 22.6366 401.114 21.0886C400.596 20.3733 400.534 19.4235 400.898 18.6156L408.021 2.63672L415.131 18.5663Z" fill="white" stroke="#CCCCCC" stroke-width="1.58" stroke-linecap="round" stroke-linejoin="round"/>
<path d="M401.114 21.0945C401.397 21.483 401.773 21.8407 402.236 22.1676L408.015 2.64258L400.892 18.6215C400.534 19.4294 400.589 20.3791 401.107 21.1007L401.114 21.0945Z" fill="#EBEBEB"/>
<path d="M415.131 18.5663C415.495 19.3804 415.427 20.3363 414.903 21.0578C413.762 22.6119 411.092 23.7097 407.99 23.7158C404.888 23.722 402.236 22.6366 401.114 21.0887C400.596 20.3733 400.534 19.4235 400.898 18.6156L408.021 2.63672L415.131 18.5663Z" stroke="#CCCCCC" stroke-width="1.58" stroke-linecap="round" stroke-linejoin="round"/>
<path d="M405.739 45.6953V49.1612C405.739 49.895 406.769 50.4871 408.027 50.4871C409.291 50.4933 410.309 49.9012 410.309 49.1735V45.6768C409.556 45.7693 408.779 45.8186 407.978 45.8186C407.213 45.8186 406.46 45.7754 405.739 45.6953Z" fill="white"/>
<path d="M405.739 45.6953V49.1612C405.739 49.6793 406.245 50.1233 406.985 50.3391V45.794C406.559 45.7755 406.152 45.7385 405.739 45.6953Z" fill="#EBEBEB"/>
<path d="M405.739 45.6953V49.1612C405.739 49.895 406.769 50.4871 408.027 50.4871C409.291 50.4933 410.309 49.9012 410.309 49.1735V45.6768C409.556 45.7693 408.779 45.8186 407.978 45.8186C407.213 45.8186 406.46 45.7754 405.739 45.6953Z" stroke="#CCCCCC" stroke-width="1.58" stroke-linecap="round" stroke-linejoin="round"/>
<path d="M544.875 410.541C543.604 410.128 541.902 410.072 540.459 410.362L533.336 411.787C533.207 411.731 533.059 411.682 532.923 411.633C531.912 411.3 530.542 411.256 529.395 411.491L522.402 412.891C522.124 412.743 521.847 412.613 521.532 412.508C520.718 412.243 519.633 412.206 518.714 412.391L500.669 415.993L518.769 419.601C518.868 419.619 518.967 419.638 519.072 419.65C519.392 419.699 519.719 419.718 520.046 419.718C520.589 419.712 521.119 419.638 521.569 419.496C521.89 419.391 522.18 419.255 522.451 419.107L529.457 420.507C529.587 420.532 529.71 420.55 529.839 420.575C530.246 420.63 530.653 420.655 531.067 420.649C531.739 420.643 532.399 420.556 532.966 420.371C533.12 420.322 533.262 420.267 533.41 420.211L540.545 421.636C540.687 421.66 540.841 421.685 540.996 421.71C541.501 421.784 542.019 421.815 542.537 421.808C543.382 421.802 544.221 421.691 544.93 421.463C545.615 421.241 546.25 420.939 546.824 420.575C547.502 420.137 548.082 419.613 548.532 419.021C548.957 418.453 549.272 417.824 549.432 417.158H553.367C553.465 417.158 553.558 417.146 553.644 417.134L553.712 417.121C553.786 417.109 553.873 417.091 553.94 417.066C553.947 417.066 553.953 417.066 553.965 417.06C554.051 417.035 554.132 416.998 554.212 416.955C554.218 416.955 554.218 416.949 554.224 416.942C554.292 416.905 554.36 416.862 554.415 416.819C554.421 416.813 554.44 416.807 554.446 416.801C554.508 416.751 554.563 416.702 554.613 416.646C554.619 416.628 554.637 416.616 554.643 416.597C554.668 416.572 554.687 416.548 554.705 416.517C554.81 416.357 554.872 416.178 554.872 415.987C554.878 415.345 554.206 414.833 553.385 414.833H549.42C548.908 412.891 547.181 411.293 544.875 410.535V410.541Z" fill="#F5F5F5"/>
<path d="M567.465 402.376C568.106 403.813 567.995 405.515 567.064 406.785C565.041 409.542 560.317 411.479 554.828 411.491C549.34 411.503 544.64 409.585 542.655 406.841C541.736 405.577 541.631 403.893 542.266 402.462L554.872 374.174L567.465 402.37V402.376Z" fill="white" stroke="#CCCCCC" stroke-width="1.58" stroke-linecap="round" stroke-linejoin="round"/>
<path d="M542.649 406.841C543.148 407.532 543.814 408.161 544.641 408.734L554.872 374.174L542.266 402.456C541.637 403.887 541.73 405.564 542.649 406.841Z" fill="#EBEBEB"/>
<path d="M567.465 402.376C568.106 403.813 567.995 405.515 567.064 406.785C565.041 409.542 560.317 411.479 554.828 411.491C549.34 411.503 544.64 409.585 542.655 406.841C541.736 405.577 541.631 403.893 542.266 402.462L554.872 374.174L567.465 402.37V402.376Z" stroke="#CCCCCC" stroke-width="1.58" stroke-linecap="round" stroke-linejoin="round"/>
<path d="M564.949 391.305C565.46 392.459 565.374 393.815 564.628 394.833C563.012 397.035 559.232 398.589 554.841 398.601C550.45 398.607 546.694 397.078 545.103 394.882C544.369 393.871 544.283 392.526 544.795 391.379L554.884 368.746L564.955 391.305H564.949Z" fill="white" stroke="#CCCCCC" stroke-width="1.58" stroke-linecap="round" stroke-linejoin="round"/>
<path d="M545.091 394.882C545.491 395.437 546.022 395.943 546.682 396.399L554.865 368.752L544.782 391.379C544.277 392.52 544.351 393.864 545.084 394.888L545.091 394.882Z" fill="#EBEBEB"/>
<path d="M564.949 391.305C565.46 392.459 565.374 393.815 564.628 394.833C563.012 397.035 559.232 398.589 554.841 398.601C550.45 398.607 546.694 397.078 545.103 394.882C544.369 393.871 544.283 392.526 544.795 391.379L554.884 368.746L564.955 391.305H564.949Z" stroke="#CCCCCC" stroke-width="1.58" stroke-linecap="round" stroke-linejoin="round"/>
<path d="M562.932 380.624C563.345 381.543 563.271 382.635 562.673 383.449C561.378 385.213 558.356 386.452 554.841 386.458C551.325 386.465 548.322 385.237 547.052 383.48C546.466 382.672 546.398 381.593 546.805 380.68L554.872 362.573L562.932 380.618V380.624Z" fill="white" stroke="#CCCCCC" stroke-width="1.58" stroke-linecap="round" stroke-linejoin="round"/>
<path d="M547.046 383.486C547.366 383.93 547.792 384.331 548.316 384.701L554.865 362.586L546.799 380.686C546.392 381.599 546.453 382.678 547.046 383.492V383.486Z" fill="#EBEBEB"/>
<path d="M562.932 380.624C563.345 381.543 563.271 382.635 562.673 383.449C561.378 385.213 558.356 386.452 554.841 386.458C551.325 386.465 548.322 385.237 547.052 383.48C546.466 382.672 546.398 381.593 546.805 380.68L554.872 362.573L562.932 380.618V380.624Z" stroke="#CCCCCC" stroke-width="1.58" stroke-linecap="round" stroke-linejoin="round"/>
<path d="M552.288 411.354V415.283C552.288 416.115 553.453 416.788 554.878 416.788C556.308 416.794 557.462 416.122 557.462 415.301V411.336C556.611 411.441 555.729 411.496 554.822 411.496C553.953 411.496 553.108 411.453 552.281 411.361L552.288 411.354Z" fill="white"/>
<path d="M552.288 411.354V415.283C552.288 415.869 552.861 416.375 553.7 416.615V411.472C553.219 411.447 552.756 411.41 552.288 411.354Z" fill="#EBEBEB"/>
<path d="M552.288 411.354V415.283C552.288 416.115 553.453 416.788 554.878 416.788C556.308 416.794 557.462 416.122 557.462 415.301V411.336C556.611 411.441 555.729 411.496 554.822 411.496C553.953 411.496 553.108 411.453 552.281 411.361L552.288 411.354Z" stroke="#CCCCCC" stroke-width="1.58" stroke-linecap="round" stroke-linejoin="round"/>
<path d="M53.3885 484.546C51.8529 484.046 49.7993 483.984 48.054 484.33L39.4509 486.05C39.2967 485.983 39.1179 485.921 38.9513 485.865C37.7241 485.465 36.0775 485.415 34.6899 485.693L26.2471 487.383C25.9141 487.204 25.5749 487.043 25.1987 486.92C24.212 486.599 22.9046 486.556 21.7945 486.778L0 491.132L21.8623 495.486C21.9795 495.505 22.1028 495.529 22.2324 495.542C22.6209 495.597 23.0156 495.622 23.4103 495.622C24.064 495.616 24.7115 495.529 25.2542 495.357C25.6428 495.233 25.9881 495.067 26.3211 494.888L34.7824 496.578C34.9366 496.608 35.0846 496.633 35.2449 496.658C35.7321 496.726 36.2317 496.756 36.725 496.75C37.5329 496.744 38.3346 496.633 39.0192 496.417C39.2042 496.362 39.3769 496.294 39.5557 496.226L48.1773 497.947C48.35 497.978 48.535 498.008 48.72 498.039C49.3306 498.126 49.9534 498.169 50.5825 498.156C51.6062 498.15 52.6176 498.015 53.4748 497.743C54.3012 497.472 55.0659 497.108 55.7567 496.67C56.5769 496.146 57.2738 495.511 57.8165 494.795C58.3345 494.111 58.7107 493.352 58.9019 492.544H63.6505C63.7677 492.544 63.8787 492.532 63.9836 492.514L64.0637 492.501C64.1562 492.483 64.2549 492.464 64.3412 492.433C64.3474 492.433 64.3597 492.433 64.3659 492.427C64.4646 492.396 64.5694 492.353 64.6619 492.304C64.6681 492.304 64.6681 492.298 64.6804 492.291C64.7606 492.248 64.847 492.199 64.9086 492.143C64.9148 492.137 64.9333 492.125 64.9456 492.119C65.0196 492.063 65.0813 492.002 65.1491 491.934C65.1553 491.915 65.1738 491.897 65.1861 491.878C65.2108 491.847 65.2416 491.817 65.2601 491.786C65.3897 491.595 65.4637 491.379 65.4637 491.151C65.4698 490.374 64.6619 489.757 63.669 489.757H58.8834C58.2667 487.413 56.176 485.483 53.3947 484.57L53.3885 484.546Z" fill="#F5F5F5"/>
<path d="M80.6779 474.679C81.4549 476.418 81.3193 478.471 80.1907 480.007C77.7485 483.331 72.044 485.675 65.4143 485.693C58.7847 485.705 53.111 483.387 50.712 480.075C49.6019 478.545 49.4786 476.517 50.2433 474.79L65.4698 440.624L80.6779 474.679Z" fill="white" stroke="#CCCCCC" stroke-width="1.58" stroke-linecap="round" stroke-linejoin="round"/>
<path d="M50.7058 480.081C51.3102 480.913 52.1181 481.678 53.111 482.369L65.4698 440.63L50.2494 474.783C49.4847 476.51 49.6019 478.539 50.712 480.081H50.7058Z" fill="#EBEBEB"/>
<path d="M80.6779 474.679C81.4549 476.418 81.3193 478.471 80.1907 480.007C77.7485 483.331 72.044 485.675 65.4143 485.693C58.7847 485.705 53.111 483.387 50.712 480.075C49.6019 478.545 49.4786 476.517 50.2433 474.79L65.4698 440.624L80.6779 474.679Z" stroke="#CCCCCC" stroke-width="1.58" stroke-linecap="round" stroke-linejoin="round"/>
<path d="M77.6313 461.321C78.2542 462.714 78.1432 464.355 77.2428 465.582C75.2878 468.246 70.7242 470.121 65.4205 470.127C60.1168 470.14 55.5778 468.283 53.6598 465.632C52.7718 464.41 52.6731 462.782 53.2837 461.401L65.4637 434.068L77.6313 461.315V461.321Z" fill="white" stroke="#CCCCCC" stroke-width="1.58" stroke-linecap="round" stroke-linejoin="round"/>
<path d="M53.6537 465.638C54.1347 466.304 54.7822 466.915 55.5778 467.47L65.4636 434.081L53.2836 461.407C52.6731 462.789 52.7656 464.411 53.6537 465.644V465.638Z" fill="#EBEBEB"/>
<path d="M77.6313 461.321C78.2542 462.714 78.1432 464.355 77.2428 465.582C75.2878 468.246 70.7242 470.121 65.4205 470.127C60.1168 470.14 55.5778 468.283 53.6598 465.632C52.7718 464.41 52.6731 462.782 53.2837 461.401L65.4637 434.068L77.6313 461.315V461.321Z" stroke="#CCCCCC" stroke-width="1.58" stroke-linecap="round" stroke-linejoin="round"/>
<path d="M75.2015 448.413C75.701 449.523 75.6085 450.836 74.887 451.823C73.3267 453.951 69.6758 455.449 65.4267 455.462C61.1837 455.468 57.5513 453.988 56.0157 451.866C55.3065 450.886 55.2263 449.584 55.7197 448.487L65.4637 426.618L75.1953 448.413H75.2015Z" fill="white" stroke="#CCCCCC" stroke-width="1.58" stroke-linecap="round" stroke-linejoin="round"/>
<path d="M56.0157 451.872C56.4042 452.409 56.9161 452.896 57.5513 453.334L65.4637 426.624L55.7197 448.486C55.2325 449.59 55.3065 450.892 56.0157 451.872Z" fill="#EBEBEB"/>
<path d="M75.2015 448.413C75.701 449.523 75.6085 450.836 74.887 451.823C73.3267 453.951 69.6758 455.449 65.4267 455.462C61.1837 455.468 57.5513 453.988 56.0157 451.866C55.3065 450.886 55.2263 449.584 55.7197 448.487L65.4637 426.618L75.1953 448.413H75.2015Z" stroke="#CCCCCC" stroke-width="1.58" stroke-linecap="round" stroke-linejoin="round"/>
<path d="M62.3431 485.527V490.269C62.3431 491.274 63.7492 492.082 65.476 492.082C67.209 492.088 68.5966 491.28 68.5966 490.288V485.502C67.5667 485.631 66.5059 485.693 65.4082 485.693C64.3598 485.693 63.336 485.638 62.3431 485.527Z" fill="white"/>
<path d="M62.3431 485.526V490.269C62.3431 490.978 63.0339 491.589 64.0453 491.878V485.662C63.4656 485.637 62.9043 485.588 62.3431 485.526Z" fill="#EBEBEB"/>
<path d="M62.3431 485.527V490.269C62.3431 491.274 63.7492 492.082 65.476 492.082C67.209 492.088 68.5966 491.28 68.5966 490.288V485.502C67.5667 485.631 66.5059 485.693 65.4082 485.693C64.3598 485.693 63.336 485.638 62.3431 485.527Z" stroke="#CCCCCC" stroke-width="1.58" stroke-linecap="round" stroke-linejoin="round"/>
<path d="M109.312 530.306C106.783 529.48 103.41 529.381 100.548 529.949L86.4133 532.779C86.1543 532.668 85.8706 532.57 85.5992 532.477C83.5888 531.811 80.8752 531.731 78.5934 532.193L64.7175 534.969C64.1748 534.679 63.6136 534.414 62.9907 534.21C61.3687 533.68 59.2226 533.612 57.391 533.982L21.5725 541.136H21.6033L21.5725 541.142L57.4958 548.302C57.6932 548.333 57.8905 548.37 58.1002 548.394C58.7354 548.487 59.3891 548.53 60.0366 548.524C61.1097 548.512 62.1705 548.37 63.0647 548.086C63.6999 547.883 64.2734 547.611 64.8223 547.315L78.7291 550.09C78.9881 550.14 79.2286 550.177 79.4876 550.22C80.2894 550.331 81.1096 550.38 81.9236 550.368C83.2557 550.356 84.5693 550.177 85.6917 549.819C85.9939 549.727 86.2838 549.616 86.5675 549.498L100.733 552.329C101.023 552.385 101.325 552.428 101.627 552.477C102.627 552.619 103.656 552.687 104.686 552.674C106.364 552.662 108.029 552.44 109.435 551.99C110.798 551.546 112.05 550.948 113.185 550.226C114.529 549.363 115.682 548.32 116.577 547.143C117.421 546.02 118.044 544.774 118.365 543.442H126.173C126.37 543.442 126.549 543.424 126.715 543.393L126.851 543.374C127.005 543.35 127.172 543.313 127.307 543.263C127.32 543.257 127.338 543.257 127.35 543.251C127.517 543.196 127.683 543.128 127.838 543.048C127.85 543.041 127.85 543.035 127.868 543.029C128.004 542.955 128.14 542.875 128.245 542.789C128.257 542.776 128.288 542.764 128.306 542.745C128.43 542.653 128.535 542.548 128.639 542.443C128.652 542.412 128.683 542.382 128.701 542.351C128.744 542.295 128.794 542.252 128.824 542.197C129.034 541.876 129.157 541.524 129.157 541.148C129.17 539.878 127.844 538.854 126.21 538.854H118.34C117.329 535.006 113.894 531.83 109.324 530.331L109.312 530.306Z" fill="#F5F5F5"/>
<path d="M154.159 514.099C155.435 516.954 155.207 520.328 153.357 522.85C149.348 528.314 139.974 532.168 129.071 532.193C118.18 532.218 108.855 528.406 104.908 522.961C103.089 520.451 102.879 517.108 104.144 514.278L129.164 458.139L154.153 514.105L154.159 514.099Z" fill="white" stroke="#CCCCCC" stroke-width="1.58" stroke-linecap="round" stroke-linejoin="round"/>
<path d="M104.902 522.974C105.895 524.343 107.221 525.601 108.849 526.736L129.157 458.151L104.144 514.278C102.892 517.115 103.083 520.451 104.902 522.98V522.974Z" fill="#EBEBEB"/>
<path d="M154.159 514.099C155.435 516.954 155.207 520.328 153.357 522.85C149.348 528.314 139.974 532.168 129.071 532.193C118.18 532.218 108.855 528.406 104.908 522.961C103.089 520.451 102.879 517.108 104.144 514.278L129.164 458.139L154.153 514.105L154.159 514.099Z" stroke="#CCCCCC" stroke-width="1.58" stroke-linecap="round" stroke-linejoin="round"/>
<path d="M149.157 492.144C150.181 494.432 149.996 497.127 148.516 499.144C145.309 503.516 137.81 506.6 129.09 506.618C120.375 506.637 112.919 503.59 109.762 499.236C108.306 497.226 108.14 494.556 109.151 492.286L129.17 447.371L149.163 492.144H149.157Z" fill="white" stroke="#CCCCCC" stroke-width="1.58" stroke-linecap="round" stroke-linejoin="round"/>
<path d="M109.75 499.236C110.545 500.334 111.606 501.333 112.907 502.246L129.157 447.377L109.145 492.28C108.14 494.549 108.294 497.213 109.75 499.242V499.236Z" fill="#EBEBEB"/>
<path d="M149.157 492.144C150.181 494.432 149.996 497.127 148.516 499.144C145.309 503.516 137.81 506.6 129.09 506.618C120.375 506.637 112.919 503.59 109.762 499.236C108.306 497.226 108.14 494.556 109.151 492.286L129.17 447.371L149.163 492.144H149.157Z" stroke="#CCCCCC" stroke-width="1.58" stroke-linecap="round" stroke-linejoin="round"/>
<path d="M145.155 470.941C145.969 472.773 145.827 474.925 144.643 476.541C142.077 480.038 136.077 482.505 129.102 482.517C122.133 482.529 116.163 480.093 113.641 476.609C112.475 474.999 112.34 472.866 113.148 471.053L129.164 435.123L145.155 470.941Z" fill="white" stroke="#CCCCCC" stroke-width="1.58" stroke-linecap="round" stroke-linejoin="round"/>
<path d="M113.629 476.615C114.264 477.491 115.109 478.293 116.157 479.02L129.158 435.123L113.148 471.046C112.346 472.859 112.469 474.993 113.635 476.615H113.629Z" fill="#EBEBEB"/>
<path d="M145.155 470.941C145.969 472.773 145.827 474.925 144.643 476.541C142.077 480.038 136.077 482.505 129.102 482.517C122.133 482.529 116.163 480.093 113.641 476.609C112.475 474.999 112.34 472.866 113.148 471.053L129.164 435.123L145.155 470.941Z" stroke="#CCCCCC" stroke-width="1.58" stroke-linecap="round" stroke-linejoin="round"/>
<path d="M124.026 531.922V539.717C124.026 541.364 126.339 542.696 129.17 542.696C132.013 542.708 134.301 541.382 134.301 539.748V531.879C132.605 532.089 130.866 532.2 129.065 532.2C127.338 532.2 125.661 532.107 124.026 531.928V531.922Z" fill="white"/>
<path d="M124.026 531.922V539.717C124.026 540.883 125.161 541.882 126.826 542.363V532.15C125.87 532.107 124.951 532.027 124.026 531.922Z" fill="#EBEBEB"/>
<path d="M124.026 531.922V539.717C124.026 541.364 126.339 542.696 129.17 542.696C132.013 542.708 134.301 541.382 134.301 539.748V531.879C132.605 532.089 130.866 532.2 129.065 532.2C127.338 532.2 125.661 532.107 124.026 531.928V531.922Z" stroke="#CCCCCC" stroke-width="1.58" stroke-linecap="round" stroke-linejoin="round"/>
<path d="M488.871 376.467C487.268 375.943 485.122 375.875 483.302 376.239L474.317 378.04C474.151 377.972 473.972 377.904 473.799 377.849C472.522 377.429 470.796 377.374 469.346 377.67L460.527 379.433C460.182 379.248 459.824 379.082 459.43 378.952C458.4 378.619 457.037 378.576 455.871 378.804L433.109 383.35L455.939 387.901C456.062 387.919 456.192 387.944 456.321 387.963C456.722 388.024 457.142 388.049 457.555 388.043C458.239 388.037 458.912 387.944 459.479 387.765C459.88 387.636 460.25 387.463 460.595 387.272L469.433 389.036C469.599 389.066 469.747 389.091 469.914 389.116C470.426 389.184 470.944 389.221 471.462 389.208C472.307 389.202 473.145 389.085 473.854 388.863C474.046 388.801 474.231 388.733 474.41 388.659L483.413 390.46C483.598 390.497 483.79 390.522 483.981 390.553C484.616 390.645 485.27 390.688 485.923 390.676C486.99 390.67 488.051 390.528 488.945 390.244C489.809 389.961 490.61 389.585 491.332 389.122C492.189 388.573 492.917 387.907 493.484 387.161C494.021 386.445 494.416 385.656 494.619 384.811H499.584C499.707 384.811 499.824 384.799 499.929 384.78L500.015 384.768C500.114 384.75 500.219 384.731 500.305 384.7C500.317 384.7 500.324 384.7 500.336 384.694C500.441 384.657 500.546 384.614 500.644 384.565C500.657 384.565 500.657 384.558 500.663 384.552C500.749 384.503 500.835 384.454 500.903 384.398C500.916 384.392 500.934 384.379 500.94 384.373C501.014 384.312 501.082 384.25 501.15 384.182C501.162 384.164 501.181 384.145 501.187 384.12C501.218 384.083 501.243 384.059 501.261 384.022C501.397 383.818 501.471 383.596 501.471 383.356C501.483 382.548 500.632 381.9 499.596 381.9H494.594C493.953 379.452 491.77 377.435 488.865 376.479L488.871 376.467Z" fill="#F5F5F5"/>
<path d="M517.376 366.168C518.19 367.987 518.042 370.127 516.864 371.731C514.317 375.203 508.353 377.651 501.428 377.67C494.502 377.682 488.581 375.265 486.071 371.805C484.912 370.208 484.783 368.086 485.584 366.285L501.489 330.603L517.376 366.174V366.168Z" fill="white" stroke="#CCCCCC" stroke-width="1.58" stroke-linecap="round" stroke-linejoin="round"/>
<path d="M486.066 371.805C486.695 372.675 487.539 373.47 488.576 374.192L501.483 330.597L485.585 366.273C484.789 368.074 484.906 370.196 486.066 371.805Z" fill="#EBEBEB"/>
<path d="M517.376 366.168C518.19 367.987 518.042 370.127 516.864 371.731C514.317 375.203 508.353 377.651 501.428 377.67C494.502 377.682 488.581 375.265 486.071 371.805C484.912 370.208 484.783 368.086 485.584 366.285L501.489 330.603L517.376 366.174V366.168Z" stroke="#CCCCCC" stroke-width="1.58" stroke-linecap="round" stroke-linejoin="round"/>
<path d="M514.2 352.212C514.847 353.667 514.736 355.382 513.793 356.664C511.751 359.446 506.984 361.401 501.446 361.413C495.908 361.425 491.165 359.489 489.161 356.72C488.236 355.443 488.131 353.747 488.773 352.304L501.495 323.757L514.2 352.212Z" fill="white" stroke="#CCCCCC" stroke-width="1.58" stroke-linecap="round" stroke-linejoin="round"/>
<path d="M489.149 356.72C489.655 357.417 490.327 358.052 491.159 358.632L501.489 323.757L488.773 352.298C488.138 353.741 488.23 355.437 489.155 356.72H489.149Z" fill="#EBEBEB"/>
<path d="M514.2 352.212C514.847 353.667 514.736 355.382 513.793 356.664C511.751 359.446 506.984 361.401 501.446 361.413C495.908 361.425 491.165 359.489 489.161 356.72C488.236 355.443 488.131 353.747 488.773 352.304L501.495 323.757L514.2 352.212Z" stroke="#CCCCCC" stroke-width="1.58" stroke-linecap="round" stroke-linejoin="round"/>
<path d="M511.653 338.731C512.171 339.89 512.078 341.265 511.326 342.289C509.691 344.516 505.88 346.082 501.446 346.088C497.012 346.101 493.225 344.546 491.616 342.332C490.876 341.309 490.789 339.952 491.301 338.799L501.483 315.962L511.646 338.725L511.653 338.731Z" fill="white" stroke="#CCCCCC" stroke-width="1.58" stroke-linecap="round" stroke-linejoin="round"/>
<path d="M491.616 342.345C492.017 342.9 492.559 343.412 493.219 343.875L501.483 315.975L491.307 338.805C490.795 339.958 490.876 341.315 491.616 342.345Z" fill="#EBEBEB"/>
<path d="M511.653 338.731C512.171 339.89 512.078 341.265 511.326 342.289C509.691 344.516 505.88 346.082 501.446 346.088C497.012 346.101 493.225 344.546 491.616 342.332C490.876 341.309 490.789 339.952 491.301 338.799L501.483 315.962L511.646 338.725L511.653 338.731Z" stroke="#CCCCCC" stroke-width="1.58" stroke-linecap="round" stroke-linejoin="round"/>
<path d="M498.227 377.498V382.45C498.227 383.498 499.701 384.343 501.495 384.343C503.302 384.355 504.758 383.504 504.758 382.468V377.467C503.678 377.602 502.575 377.67 501.428 377.67C500.33 377.67 499.263 377.615 498.227 377.498Z" fill="white"/>
<path d="M498.227 377.497V382.449C498.227 383.189 498.948 383.825 500.009 384.133V377.639C499.405 377.608 498.819 377.565 498.227 377.497Z" fill="#EBEBEB"/>
<path d="M498.227 377.498V382.45C498.227 383.498 499.701 384.343 501.495 384.343C503.302 384.355 504.758 383.504 504.758 382.468V377.467C503.678 377.602 502.575 377.67 501.428 377.67C500.33 377.67 499.263 377.615 498.227 377.498Z" stroke="#CCCCCC" stroke-width="1.58" stroke-linecap="round" stroke-linejoin="round"/>
<path d="M453.91 74.8717C451.955 74.2365 449.346 74.1563 447.139 74.5942L436.211 76.7835C436.013 76.6972 435.791 76.6231 435.582 76.5491C434.027 76.0373 431.931 75.9756 430.167 76.3271L419.436 78.4733C419.017 78.2513 418.585 78.0416 418.104 77.8874C416.852 77.4804 415.193 77.4249 413.775 77.7086L386.084 83.2404L413.855 88.7785C414.009 88.8032 414.157 88.8278 414.324 88.8525C414.817 88.9265 415.316 88.9573 415.822 88.9512C416.655 88.9388 417.469 88.8278 418.16 88.612C418.653 88.4578 419.097 88.2481 419.516 88.0138L430.266 90.1599C430.463 90.1969 430.654 90.2278 430.851 90.2586C431.474 90.3449 432.103 90.3819 432.732 90.3758C433.762 90.3634 434.78 90.2278 435.643 89.9502C435.878 89.8762 436.1 89.7961 436.322 89.7035L447.274 91.8929C447.496 91.936 447.731 91.973 447.965 92.01C448.736 92.121 449.532 92.1704 450.327 92.1642C451.628 92.1519 452.911 91.9792 454.003 91.6339C455.057 91.2885 456.025 90.826 456.901 90.2709C457.943 89.5987 458.831 88.797 459.522 87.8843C460.176 87.0147 460.657 86.0526 460.904 85.0227H466.941C467.095 85.0227 467.231 85.0042 467.361 84.9857L467.465 84.9672C467.583 84.9487 467.712 84.9179 467.817 84.8809C467.829 84.8809 467.842 84.8809 467.854 84.8686C467.983 84.8254 468.113 84.776 468.23 84.7144C468.242 84.7144 468.242 84.702 468.255 84.6959C468.36 84.6404 468.464 84.5725 468.545 84.5047C468.557 84.4924 468.582 84.4862 468.594 84.4739C468.686 84.3999 468.767 84.3197 468.853 84.2395C468.865 84.2148 468.89 84.1902 468.902 84.1655C468.939 84.1223 468.97 84.0853 468.995 84.0422C469.161 83.7955 469.254 83.5241 469.254 83.2343C469.266 82.2537 468.236 81.4582 466.972 81.4582H460.891C460.108 78.4794 457.45 76.0249 453.916 74.8655L453.91 74.8717Z" fill="#F5F5F5"/>
<path d="M488.582 62.3406C489.568 64.5484 489.396 67.1571 487.965 69.1059C484.863 73.3303 477.616 76.309 469.192 76.3275C460.768 76.346 453.565 73.3982 450.512 69.1922C449.106 67.2496 448.946 64.6656 449.92 62.4762L469.266 19.0723L488.588 62.3406H488.582Z" fill="white" stroke="#CCCCCC" stroke-width="1.58" stroke-linecap="round" stroke-linejoin="round"/>
<path d="M450.5 69.1984C451.264 70.2591 452.288 71.2273 453.552 72.1031L469.254 19.0723L449.914 62.4639C448.946 64.6594 449.094 67.2372 450.5 69.1922V69.1984Z" fill="#EBEBEB"/>
<path d="M488.582 62.3406C489.568 64.5484 489.396 67.1571 487.965 69.1059C484.863 73.3303 477.616 76.309 469.192 76.3275C460.768 76.346 453.565 73.3982 450.512 69.1922C449.106 67.2496 448.946 64.6656 449.92 62.4762L469.266 19.0723L488.588 62.3406H488.582Z" stroke="#CCCCCC" stroke-width="1.58" stroke-linecap="round" stroke-linejoin="round"/>
<path d="M484.715 45.3629C485.504 47.1329 485.362 49.2174 484.221 50.7776C481.742 54.1572 475.945 56.5439 469.198 56.5562C462.464 56.5685 456.698 54.2127 454.256 50.8455C453.127 49.2914 452.997 47.2254 453.781 45.4739L469.26 10.7471L484.715 45.3629Z" fill="white" stroke="#CCCCCC" stroke-width="1.58" stroke-linecap="round" stroke-linejoin="round"/>
<path d="M454.249 50.8513C454.866 51.7024 455.68 52.4733 456.692 53.1763L469.254 10.7529L453.781 45.4675C453.004 47.2251 453.121 49.2849 454.249 50.8513Z" fill="#EBEBEB"/>
<path d="M484.715 45.3629C485.504 47.1329 485.362 49.2174 484.221 50.7776C481.742 54.1572 475.945 56.5439 469.198 56.5562C462.464 56.5685 456.698 54.2127 454.256 50.8455C453.127 49.2914 452.997 47.2254 453.781 45.4739L469.26 10.7471L484.715 45.3629Z" stroke="#CCCCCC" stroke-width="1.58" stroke-linecap="round" stroke-linejoin="round"/>
<path d="M481.625 28.9705C482.254 30.3828 482.143 32.054 481.23 33.2998C479.245 36.0072 474.607 37.9128 469.217 37.919C463.827 37.9313 459.214 36.0442 457.265 33.3491C456.365 32.1096 456.26 30.4568 456.883 29.0507L469.26 1.28027L481.625 28.9705Z" fill="white" stroke="#CCCCCC" stroke-width="1.58" stroke-linecap="round" stroke-linejoin="round"/>
<path d="M457.253 33.3615C457.746 34.0399 458.4 34.6627 459.208 35.2239L469.254 1.28027L456.877 29.0507C456.254 30.4568 456.352 32.1034 457.253 33.3553V33.3615Z" fill="#EBEBEB"/>
<path d="M481.625 28.9705C482.254 30.3828 482.143 32.054 481.23 33.2998C479.245 36.0072 474.607 37.9128 469.217 37.919C463.827 37.9313 459.214 36.0442 457.265 33.3491C456.365 32.1096 456.26 30.4568 456.883 29.0507L469.26 1.28027L481.625 28.9705Z" stroke="#CCCCCC" stroke-width="1.58" stroke-linecap="round" stroke-linejoin="round"/>
<path d="M465.288 76.1178V82.143C465.288 83.4196 467.077 84.4495 469.266 84.4495C471.468 84.4618 473.232 83.4319 473.232 82.1677V76.0869C471.924 76.2534 470.574 76.3336 469.186 76.3336C467.854 76.3336 466.553 76.2658 465.288 76.1239V76.1178Z" fill="white"/>
<path d="M465.288 76.1182V82.1434C465.288 83.0438 466.164 83.8147 467.453 84.1909V76.297C466.713 76.26 466.004 76.2045 465.288 76.1243V76.1182Z" fill="#EBEBEB"/>
<path d="M465.288 76.1178V82.143C465.288 83.4196 467.077 84.4495 469.266 84.4495C471.468 84.4618 473.232 83.4319 473.232 82.1677V76.0869C471.924 76.2534 470.574 76.3336 469.186 76.3336C467.854 76.3336 466.553 76.2658 465.288 76.1239V76.1178Z" stroke="#CCCCCC" stroke-width="1.58" stroke-linecap="round" stroke-linejoin="round"/>
<path d="M473.879 215.007L367.774 153.749C353.393 145.449 330.161 145.399 315.885 153.638L38.7848 313.625C24.508 321.87 24.5944 335.284 38.976 343.585L145.081 404.842C152.037 408.857 161.066 410.936 170.144 411.09H206.974V399.175L474.064 244.973C488.341 236.728 488.255 223.314 473.873 215.013L473.879 215.007Z" fill="#F5F5F5"/>
<path d="M64.4338 307.452V330.104C64.7791 334.655 67.7393 338.947 73.3946 342.228L183.286 405.657C196.601 413.372 219.918 412.385 235.287 403.511L508.353 245.88C516.852 240.946 521.175 234.656 521.088 228.68V206.287C521.088 206.663 521.057 207.07 521.033 207.447C521.002 207.681 520.977 207.884 520.946 208.113C520.916 208.402 520.86 208.692 520.774 209.013C520.515 210.172 520.108 211.332 519.528 212.467C519.324 212.904 519.065 213.336 518.8 213.743C518.455 214.323 518.073 214.872 517.641 215.427C517.351 215.834 517.006 216.241 516.623 216.648C516.216 217.141 515.785 217.635 515.291 218.066C513.435 219.923 511.116 221.631 508.359 223.228L235.293 380.89C219.925 389.764 196.601 390.72 183.292 383.036L73.4007 319.577C72.821 319.231 72.2413 318.88 71.7171 318.503C71.2237 318.183 70.7612 317.837 70.3233 317.486C70.2678 317.455 70.237 317.4 70.1753 317.369C69.3058 316.672 68.5534 315.95 67.912 315.192C67.6777 314.957 67.4803 314.729 67.2768 314.464C66.8143 313.853 66.3764 313.243 66.0619 312.608C65.9139 312.404 65.8029 312.17 65.7165 311.973C65.4822 311.565 64.9333 310.085 64.847 309.74C64.6743 309.105 64.4708 307.594 64.4399 307.446L64.4338 307.452Z" fill="white"/>
<path d="M207.652 388.192V410.831C198.543 411.09 189.743 409.388 183.292 405.663L73.3884 342.235C67.7332 338.947 64.7853 334.668 64.4276 330.11V307.452C64.4584 307.6 64.6681 309.105 64.8346 309.74C64.9333 310.098 65.4822 311.572 65.7104 311.979C65.809 312.188 65.92 312.417 66.0681 312.608C66.3764 313.255 66.8143 313.854 67.283 314.47C67.4803 314.729 67.69 314.957 67.912 315.198C68.5596 315.944 69.3058 316.672 70.1815 317.369C70.2308 317.4 70.2617 317.449 70.3295 317.48C70.7674 317.838 71.2237 318.177 71.7233 318.504C72.2413 318.874 72.8272 319.219 73.3946 319.57L183.298 383.03C189.749 386.755 198.549 388.445 207.658 388.186L207.652 388.192Z" fill="#EBEBEB"/>
<path d="M216.823 387.285V409.925C215.281 410.202 213.727 410.393 212.185 410.541V387.92C213.739 387.772 215.281 387.563 216.823 387.291V387.285Z" fill="#EBEBEB"/>
<path d="M73.3884 319.589L183.28 383.036C196.613 390.732 219.906 389.77 235.305 380.877L508.347 223.234C523.746 214.347 525.418 200.897 512.084 193.2L402.193 129.753C388.86 122.057 365.567 123.019 350.167 131.912L77.1195 289.549C61.7203 298.436 60.049 311.886 73.3822 319.583L73.3884 319.589Z" fill="white" stroke="#CCCCCC" stroke-width="1.58" stroke-miterlimit="10"/>
<path d="M399.677 133.392L505.782 194.65C517.69 201.526 517.764 212.676 505.936 219.503L228.836 379.483C217.014 386.31 197.698 386.267 185.79 379.391L79.685 318.133C67.7763 311.257 67.7023 300.107 79.5308 293.28L356.63 133.299C368.453 126.472 387.768 126.516 399.677 133.392ZM404.08 130.851C389.698 122.55 366.467 122.501 352.19 130.74L75.0905 290.72C60.8137 298.966 60.9 312.379 75.2817 320.68L181.386 381.938C195.768 390.239 219 390.288 233.276 382.049L510.376 222.068C524.653 213.823 524.567 200.41 510.185 192.109L404.08 130.851Z" fill="white" stroke="#CCCCCC" stroke-width="1.58" stroke-miterlimit="10"/>
<path d="M100.591 349.411C101.261 349.019 101.252 347.757 100.57 346.593C99.8885 345.429 98.7926 344.804 98.1226 345.197C97.4525 345.589 97.4619 346.851 98.1436 348.014C98.8253 349.178 99.9212 349.804 100.591 349.411Z" fill="#C2C2C2"/>
<path d="M95.5495 346.498C96.2195 346.105 96.2101 344.844 95.5284 343.68C94.8467 342.516 93.7508 341.891 93.0808 342.283C92.4107 342.676 92.4201 343.938 93.1018 345.101C93.7836 346.265 94.8794 346.89 95.5495 346.498Z" fill="#C2C2C2"/>
<path d="M90.5139 343.586C91.184 343.193 91.1746 341.932 90.4929 340.768C89.8111 339.604 88.7153 338.979 88.0452 339.371C87.3752 339.764 87.3846 341.025 88.0663 342.189C88.748 343.353 89.8439 343.978 90.5139 343.586Z" fill="#C2C2C2"/>
<path d="M85.4668 340.676C86.1369 340.283 86.1275 339.022 85.4458 337.858C84.764 336.694 83.6682 336.069 82.9981 336.461C82.3281 336.854 82.3375 338.115 83.0192 339.279C83.7009 340.443 84.7967 341.068 85.4668 340.676Z" fill="#C2C2C2"/>
<path d="M177.669 393.91C178.339 393.518 178.33 392.256 177.648 391.092C176.967 389.928 175.871 389.303 175.201 389.696C174.531 390.088 174.54 391.35 175.222 392.514C175.903 393.677 176.999 394.303 177.669 393.91Z" fill="#C2C2C2"/>
<path d="M172.628 390.998C173.298 390.605 173.288 389.344 172.607 388.18C171.925 387.016 170.829 386.391 170.159 386.783C169.489 387.176 169.498 388.438 170.18 389.601C170.862 390.765 171.958 391.39 172.628 390.998Z" fill="#C2C2C2"/>
<path d="M167.587 388.088C168.257 387.695 168.247 386.434 167.566 385.27C166.884 384.106 165.788 383.481 165.118 383.873C164.448 384.266 164.457 385.527 165.139 386.691C165.821 387.855 166.917 388.48 167.587 388.088Z" fill="#C2C2C2"/>
<path d="M162.545 385.175C163.215 384.782 163.206 383.521 162.524 382.357C161.842 381.193 160.746 380.568 160.076 380.96C159.406 381.353 159.416 382.614 160.097 383.778C160.779 384.942 161.875 385.567 162.545 385.175Z" fill="#C2C2C2"/>
<path d="M157.503 382.268C158.173 381.876 158.164 380.614 157.482 379.451C156.8 378.287 155.705 377.661 155.035 378.054C154.364 378.446 154.374 379.708 155.056 380.872C155.737 382.036 156.833 382.661 157.503 382.268Z" fill="#C2C2C2"/>
<path d="M152.462 379.358C153.132 378.966 153.123 377.704 152.441 376.54C151.76 375.377 150.664 374.751 149.994 375.144C149.324 375.536 149.333 376.798 150.015 377.962C150.696 379.126 151.792 379.751 152.462 379.358Z" fill="#C2C2C2"/>
<path d="M142.38 373.882C143.218 373.391 143.207 371.817 142.357 370.365C141.507 368.913 140.138 368.134 139.301 368.624C138.463 369.115 138.473 370.69 139.324 372.141C140.174 373.593 141.543 374.372 142.38 373.882Z" fill="#C2C2C2"/>
<path d="M111.287 355.927C112.124 355.436 112.114 353.861 111.263 352.41C110.413 350.958 109.044 350.179 108.207 350.669C107.369 351.16 107.38 352.735 108.23 354.186C109.081 355.638 110.449 356.417 111.287 355.927Z" fill="#C2C2C2"/>
<path d="M118.797 362.413C116.922 361.333 115.405 358.712 115.405 356.56C115.405 354.414 116.922 353.544 118.797 354.63L131.797 362.135C133.672 363.214 135.189 365.835 135.189 367.988C135.189 370.134 133.672 371.003 131.797 369.918L118.797 362.413Z" fill="#C2C2C2"/>
<path d="M76.0094 321.087V343.702" stroke="#CCCCCC" stroke-width="1.58" stroke-miterlimit="10"/>
<path d="M313.048 342.974C315.083 341.815 316.723 342.771 316.711 345.114C316.699 347.458 315.04 350.295 312.998 351.454L291.555 363.677C289.52 364.837 287.88 363.881 287.892 361.537C287.904 359.194 289.563 356.357 291.605 355.197L313.048 342.974Z" fill="#F5F5F5"/>
<path d="M444.949 267.767C446.984 266.608 448.625 267.564 448.613 269.907C448.6 272.251 446.941 275.088 444.9 276.247L423.457 288.47C421.422 289.63 419.781 288.674 419.794 286.33C419.806 283.987 421.465 281.15 423.506 279.99L444.949 267.767Z" fill="#F5F5F5"/>
<mask id="mask0_214_749" style="mask-type:luminance" maskUnits="userSpaceOnUse" x="70" y="128" width="445" height="257">
<path d="M399.677 133.392L505.782 194.65C517.69 201.526 517.764 212.676 505.936 219.503L228.836 379.484C217.014 386.311 197.698 386.267 185.79 379.391L79.685 318.133C67.7764 311.257 67.7024 300.107 79.5308 293.28L356.631 133.3C368.453 126.473 387.768 126.516 399.677 133.392Z" fill="white"/>
</mask>
<g mask="url(#mask0_214_749)">
<path d="M575.858 216.851L519.522 214.872L550.943 242.044L516.543 253.373L503.518 237.85L467.034 253.478L432.739 242.291L464.505 214.989L408.144 217.209L408.286 194.607L464.622 196.673L433.201 169.5L467.638 158.159L501.631 176.297L517.147 158.061L551.406 169.254L519.639 196.556L576 194.249L575.858 216.851Z" fill="#F5F5F5"/>
<path d="M105.513 269.357L105.081 338.016L45.8339 303.807L105.513 269.357Z" fill="#F5F5F5"/>
<path d="M133.98 354.704L117.236 345.04L117.748 262.284L134.609 252.546L133.98 354.704Z" fill="#F5F5F5"/>
<path d="M308.998 193.52C340.176 193.324 365.359 178.573 365.246 160.572C365.133 142.572 339.766 128.139 308.589 128.335C277.411 128.531 252.228 143.282 252.341 161.282C252.454 179.282 277.82 193.715 308.998 193.52Z" fill="#FAFAFA"/>
<path d="M291.859 377.908C324.825 377.701 351.452 362.105 351.333 343.072C351.213 324.04 324.392 308.779 291.426 308.986C258.46 309.193 231.833 324.79 231.953 343.822C232.072 362.855 258.893 378.115 291.859 377.908Z" fill="#FAFAFA"/>
</g>
<path d="M399.677 133.392L505.782 194.65C517.69 201.526 517.764 212.676 505.936 219.503L228.836 379.484C217.014 386.311 197.698 386.267 185.79 379.391L79.685 318.133C67.7764 311.257 67.7024 300.107 79.5308 293.28L356.631 133.3C368.453 126.473 387.768 126.516 399.677 133.392Z" stroke="#CCCCCC" stroke-width="1.58" stroke-miterlimit="10"/>
<path d="M420.09 164.715L451.524 182.864C454.527 184.597 459.775 184.382 463.241 182.377C466.707 180.373 467.083 177.345 464.08 175.612L432.646 157.462C429.643 155.729 424.394 155.945 420.929 157.949C417.463 159.954 417.086 162.982 420.09 164.715Z" fill="#C2C2C2"/>
<path d="M460.613 179.257C460.618 178.361 459.364 177.627 457.811 177.618C456.258 177.608 454.994 178.326 454.989 179.222C454.983 180.118 456.237 180.852 457.791 180.861C459.344 180.871 460.607 180.153 460.613 179.257Z" fill="#F5F5F5"/>
<path d="M64.4338 307.452V330.104C64.7791 334.655 67.7393 338.947 73.3946 342.228L183.286 405.657C196.601 413.372 219.918 412.385 235.287 403.511L508.353 245.88C516.851 240.946 521.175 234.656 521.088 228.68V206.287C521.088 206.663 521.057 207.07 521.033 207.447C521.002 207.681 520.977 207.884 520.946 208.113C520.916 208.402 520.86 208.692 520.774 209.013C520.515 210.172 520.108 211.332 519.528 212.467C519.324 212.904 519.065 213.336 518.8 213.743C518.455 214.323 518.073 214.872 517.641 215.427C517.351 215.834 517.006 216.241 516.623 216.648C516.216 217.141 515.785 217.635 515.291 218.066C513.435 219.923 511.116 221.631 508.359 223.228L235.293 380.89C219.925 389.764 196.601 390.72 183.292 383.036L73.4007 319.577C72.821 319.231 72.2413 318.88 71.7171 318.503C71.2237 318.183 70.7612 317.837 70.3233 317.486C70.2678 317.455 70.237 317.4 70.1753 317.369C69.3058 316.672 68.5534 315.95 67.912 315.192C67.6777 314.957 67.4803 314.729 67.2768 314.464C66.8143 313.853 66.3764 313.243 66.0619 312.608C65.9139 312.404 65.8029 312.17 65.7165 311.973C65.4822 311.565 64.9333 310.085 64.847 309.74C64.6743 309.105 64.4708 307.594 64.4399 307.446L64.4338 307.452Z" stroke="#CCCCCC" stroke-width="1.58" stroke-miterlimit="10"/>
<path d="M180.733 274.945L259.178 229.654L337.05 274.612C293.726 299.626 223.742 299.774 180.733 274.939V274.945Z" fill="white"/>
<mask id="mask1_214_749" style="mask-type:luminance" maskUnits="userSpaceOnUse" x="180" y="229" width="158" height="65">
<path d="M180.733 274.945L259.178 229.654L337.05 274.612C293.726 299.626 223.742 299.774 180.733 274.939V274.945Z" fill="white"/>
</mask>
<g mask="url(#mask1_214_749)">
<path d="M341.207 231.055L313.418 198.795" stroke="#E6E6E6" stroke-width="0.76" stroke-miterlimit="10"/>
<path d="M338.074 232.862L310.291 200.602" stroke="#E6E6E6" stroke-width="0.76" stroke-miterlimit="10"/>
<path d="M334.947 234.669L307.164 202.402" stroke="#E6E6E6" stroke-width="0.76" stroke-miterlimit="10"/>
<path d="M331.82 236.469L304.031 204.209" stroke="#E6E6E6" stroke-width="0.76" stroke-miterlimit="10"/>
<path d="M328.694 238.277L300.905 206.017" stroke="#E6E6E6" stroke-width="0.76" stroke-miterlimit="10"/>
<path d="M325.567 240.083L297.778 207.823" stroke="#E6E6E6" stroke-width="0.76" stroke-miterlimit="10"/>
<path d="M322.44 241.89L294.651 209.63" stroke="#E6E6E6" stroke-width="0.76" stroke-miterlimit="10"/>
<path d="M319.307 243.697L291.525 211.431" stroke="#E6E6E6" stroke-width="0.76" stroke-miterlimit="10"/>
<path d="M316.181 245.498L288.398 213.238" stroke="#E6E6E6" stroke-width="0.76" stroke-miterlimit="10"/>
<path d="M313.054 247.305L285.271 215.045" stroke="#E6E6E6" stroke-width="0.76" stroke-miterlimit="10"/>
<path d="M309.927 249.112L282.138 216.852" stroke="#E6E6E6" stroke-width="0.76" stroke-miterlimit="10"/>
<path d="M306.8 250.919L279.011 218.659" stroke="#E6E6E6" stroke-width="0.76" stroke-miterlimit="10"/>
<path d="M303.674 252.726L275.885 220.46" stroke="#E6E6E6" stroke-width="0.76" stroke-miterlimit="10"/>
<path d="M362.736 266.928L334.947 234.668" stroke="#E6E6E6" stroke-width="0.76" stroke-miterlimit="10"/>
<path d="M359.609 268.735L331.82 236.469" stroke="#E6E6E6" stroke-width="0.76" stroke-miterlimit="10"/>
<path d="M356.483 270.536L328.694 238.276" stroke="#E6E6E6" stroke-width="0.76" stroke-miterlimit="10"/>
<path d="M353.35 272.343L325.567 240.083" stroke="#E6E6E6" stroke-width="0.76" stroke-miterlimit="10"/>
<path d="M350.223 274.15L322.44 241.89" stroke="#E6E6E6" stroke-width="0.76" stroke-miterlimit="10"/>
<path d="M347.096 275.957L319.307 243.697" stroke="#E6E6E6" stroke-width="0.76" stroke-miterlimit="10"/>
<path d="M343.969 277.764L316.181 245.498" stroke="#E6E6E6" stroke-width="0.76" stroke-miterlimit="10"/>
<path d="M340.843 279.565L313.054 247.305" stroke="#E6E6E6" stroke-width="0.76" stroke-miterlimit="10"/>
<path d="M337.716 281.371L309.927 249.111" stroke="#E6E6E6" stroke-width="0.76" stroke-miterlimit="10"/>
<path d="M334.583 283.179L306.8 250.919" stroke="#E6E6E6" stroke-width="0.76" stroke-miterlimit="10"/>
<path d="M331.456 284.986L303.674 252.726" stroke="#E6E6E6" stroke-width="0.76" stroke-miterlimit="10"/>
<path d="M260.245 229.487L232.462 197.227" stroke="#E6E6E6" stroke-width="0.76" stroke-miterlimit="10"/>
<path d="M257.118 231.294L229.336 199.034" stroke="#E6E6E6" stroke-width="0.76" stroke-miterlimit="10"/>
<path d="M253.992 233.101L226.203 200.841" stroke="#E6E6E6" stroke-width="0.76" stroke-miterlimit="10"/>
<path d="M250.865 234.908L223.076 202.647" stroke="#E6E6E6" stroke-width="0.76" stroke-miterlimit="10"/>
<path d="M247.738 236.714L219.949 204.448" stroke="#E6E6E6" stroke-width="0.76" stroke-miterlimit="10"/>
<path d="M244.611 238.516L216.823 206.256" stroke="#E6E6E6" stroke-width="0.76" stroke-miterlimit="10"/>
<path d="M241.479 240.323L213.696 208.062" stroke="#E6E6E6" stroke-width="0.76" stroke-miterlimit="10"/>
<path d="M238.352 242.129L210.569 209.869" stroke="#E6E6E6" stroke-width="0.76" stroke-miterlimit="10"/>
<path d="M235.225 243.937L207.436 211.677" stroke="#E6E6E6" stroke-width="0.76" stroke-miterlimit="10"/>
<path d="M232.098 245.744L204.31 213.478" stroke="#E6E6E6" stroke-width="0.76" stroke-miterlimit="10"/>
<path d="M228.972 247.544L201.183 215.284" stroke="#E6E6E6" stroke-width="0.76" stroke-miterlimit="10"/>
<path d="M225.845 249.351L198.056 217.091" stroke="#E6E6E6" stroke-width="0.76" stroke-miterlimit="10"/>
<path d="M222.712 251.158L194.929 218.898" stroke="#E6E6E6" stroke-width="0.76" stroke-miterlimit="10"/>
<path d="M219.585 252.965L191.803 220.705" stroke="#E6E6E6" stroke-width="0.76" stroke-miterlimit="10"/>
<path d="M216.459 254.772L188.676 222.512" stroke="#E6E6E6" stroke-width="0.76" stroke-miterlimit="10"/>
<path d="M213.332 256.573L185.543 224.312" stroke="#E6E6E6" stroke-width="0.76" stroke-miterlimit="10"/>
<path d="M210.205 258.38L182.416 226.12" stroke="#E6E6E6" stroke-width="0.76" stroke-miterlimit="10"/>
<path d="M207.079 260.187L179.29 227.927" stroke="#E6E6E6" stroke-width="0.76" stroke-miterlimit="10"/>
<path d="M203.952 261.993L176.163 229.733" stroke="#E6E6E6" stroke-width="0.76" stroke-miterlimit="10"/>
<path d="M200.813 263.801L173.03 231.541" stroke="#E6E6E6" stroke-width="0.76" stroke-miterlimit="10"/>
<path d="M197.686 265.608L169.897 233.348" stroke="#E6E6E6" stroke-width="0.76" stroke-miterlimit="10"/>
<path d="M194.559 267.415L166.77 235.155" stroke="#E6E6E6" stroke-width="0.76" stroke-miterlimit="10"/>
<path d="M191.433 269.222L163.644 236.962" stroke="#E6E6E6" stroke-width="0.76" stroke-miterlimit="10"/>
<path d="M188.306 271.029L160.517 238.763" stroke="#E6E6E6" stroke-width="0.76" stroke-miterlimit="10"/>
<path d="M185.173 272.829L157.39 240.569" stroke="#E6E6E6" stroke-width="0.76" stroke-miterlimit="10"/>
<path d="M182.046 274.637L154.264 242.377" stroke="#E6E6E6" stroke-width="0.76" stroke-miterlimit="10"/>
<path d="M303.674 252.725L275.885 220.459" stroke="#E6E6E6" stroke-width="0.76" stroke-miterlimit="10"/>
<path d="M300.547 254.526L272.758 222.266" stroke="#E6E6E6" stroke-width="0.76" stroke-miterlimit="10"/>
<path d="M297.414 256.333L269.631 224.073" stroke="#E6E6E6" stroke-width="0.76" stroke-miterlimit="10"/>
<path d="M294.287 258.14L266.505 225.88" stroke="#E6E6E6" stroke-width="0.76" stroke-miterlimit="10"/>
<path d="M291.161 259.947L263.372 227.687" stroke="#E6E6E6" stroke-width="0.76" stroke-miterlimit="10"/>
<path d="M288.034 261.754L260.245 229.487" stroke="#E6E6E6" stroke-width="0.76" stroke-miterlimit="10"/>
<path d="M284.907 263.555L257.118 231.295" stroke="#E6E6E6" stroke-width="0.76" stroke-miterlimit="10"/>
<path d="M281.781 265.362L253.992 233.102" stroke="#E6E6E6" stroke-width="0.76" stroke-miterlimit="10"/>
<path d="M278.648 267.168L250.865 234.908" stroke="#E6E6E6" stroke-width="0.76" stroke-miterlimit="10"/>
<path d="M275.521 268.976L247.738 236.716" stroke="#E6E6E6" stroke-width="0.76" stroke-miterlimit="10"/>
<path d="M272.394 270.783L244.611 238.517" stroke="#E6E6E6" stroke-width="0.76" stroke-miterlimit="10"/>
<path d="M269.267 272.583L241.479 240.323" stroke="#E6E6E6" stroke-width="0.76" stroke-miterlimit="10"/>
<path d="M266.141 274.39L238.352 242.13" stroke="#E6E6E6" stroke-width="0.76" stroke-miterlimit="10"/>
<path d="M263.014 276.198L235.225 243.938" stroke="#E6E6E6" stroke-width="0.76" stroke-miterlimit="10"/>
<path d="M259.887 278.004L232.098 245.744" stroke="#E6E6E6" stroke-width="0.76" stroke-miterlimit="10"/>
<path d="M256.754 279.811L228.972 247.545" stroke="#E6E6E6" stroke-width="0.76" stroke-miterlimit="10"/>
<path d="M253.628 281.612L225.845 249.352" stroke="#E6E6E6" stroke-width="0.76" stroke-miterlimit="10"/>
<path d="M250.501 283.419L222.712 251.159" stroke="#E6E6E6" stroke-width="0.76" stroke-miterlimit="10"/>
<path d="M247.374 285.226L219.585 252.966" stroke="#E6E6E6" stroke-width="0.76" stroke-miterlimit="10"/>
<path d="M244.248 287.033L216.459 254.772" stroke="#E6E6E6" stroke-width="0.76" stroke-miterlimit="10"/>
<path d="M241.121 288.839L213.332 256.573" stroke="#E6E6E6" stroke-width="0.76" stroke-miterlimit="10"/>
<path d="M237.988 290.641L210.205 258.381" stroke="#E6E6E6" stroke-width="0.76" stroke-miterlimit="10"/>
<path d="M234.861 292.448L207.079 260.188" stroke="#E6E6E6" stroke-width="0.76" stroke-miterlimit="10"/>
<path d="M231.735 294.254L203.952 261.994" stroke="#E6E6E6" stroke-width="0.76" stroke-miterlimit="10"/>
<path d="M228.602 296.068L200.813 263.802" stroke="#E6E6E6" stroke-width="0.76" stroke-miterlimit="10"/>
<path d="M225.475 297.868L197.686 265.608" stroke="#E6E6E6" stroke-width="0.76" stroke-miterlimit="10"/>
<path d="M222.348 299.676L194.559 267.416" stroke="#E6E6E6" stroke-width="0.76" stroke-miterlimit="10"/>
<path d="M219.215 301.483L191.433 269.223" stroke="#E6E6E6" stroke-width="0.76" stroke-miterlimit="10"/>
<path d="M216.089 303.289L188.306 271.029" stroke="#E6E6E6" stroke-width="0.76" stroke-miterlimit="10"/>
<path d="M212.962 305.096L185.173 272.83" stroke="#E6E6E6" stroke-width="0.76" stroke-miterlimit="10"/>
<path d="M209.835 306.898L182.046 274.638" stroke="#E6E6E6" stroke-width="0.76" stroke-miterlimit="10"/>
<path d="M206.709 308.704L178.92 276.444" stroke="#E6E6E6" stroke-width="0.76" stroke-miterlimit="10"/>
<path d="M203.582 310.511L175.793 278.251" stroke="#E6E6E6" stroke-width="0.76" stroke-miterlimit="10"/>
<path d="M200.449 312.319L172.666 280.059" stroke="#E6E6E6" stroke-width="0.76" stroke-miterlimit="10"/>
<path d="M197.322 314.126L169.539 281.859" stroke="#E6E6E6" stroke-width="0.76" stroke-miterlimit="10"/>
<path d="M194.196 315.926L166.413 283.666" stroke="#E6E6E6" stroke-width="0.76" stroke-miterlimit="10"/>
<path d="M191.069 317.733L163.28 285.473" stroke="#E6E6E6" stroke-width="0.76" stroke-miterlimit="10"/>
<path d="M187.942 319.54L160.153 287.28" stroke="#E6E6E6" stroke-width="0.76" stroke-miterlimit="10"/>
<path d="M184.815 321.347L157.026 289.087" stroke="#E6E6E6" stroke-width="0.76" stroke-miterlimit="10"/>
<path d="M181.689 323.154L153.9 290.888" stroke="#E6E6E6" stroke-width="0.76" stroke-miterlimit="10"/>
<path d="M331.456 284.986L303.674 252.726" stroke="#E6E6E6" stroke-width="0.76" stroke-miterlimit="10"/>
<path d="M328.33 286.793L300.547 254.526" stroke="#E6E6E6" stroke-width="0.76" stroke-miterlimit="10"/>
<path d="M325.203 288.593L297.414 256.333" stroke="#E6E6E6" stroke-width="0.76" stroke-miterlimit="10"/>
<path d="M322.076 290.401L294.287 258.141" stroke="#E6E6E6" stroke-width="0.76" stroke-miterlimit="10"/>
<path d="M318.95 292.207L291.161 259.947" stroke="#E6E6E6" stroke-width="0.76" stroke-miterlimit="10"/>
<path d="M315.823 294.014L288.034 261.754" stroke="#E6E6E6" stroke-width="0.76" stroke-miterlimit="10"/>
<path d="M312.69 295.821L284.907 263.555" stroke="#E6E6E6" stroke-width="0.76" stroke-miterlimit="10"/>
<path d="M309.563 297.622L281.781 265.362" stroke="#E6E6E6" stroke-width="0.76" stroke-miterlimit="10"/>
<path d="M306.437 299.429L278.648 267.169" stroke="#E6E6E6" stroke-width="0.76" stroke-miterlimit="10"/>
<path d="M303.31 301.236L275.521 268.976" stroke="#E6E6E6" stroke-width="0.76" stroke-miterlimit="10"/>
<path d="M300.183 303.043L272.394 270.783" stroke="#E6E6E6" stroke-width="0.76" stroke-miterlimit="10"/>
<path d="M297.056 304.85L269.268 272.584" stroke="#E6E6E6" stroke-width="0.76" stroke-miterlimit="10"/>
<path d="M293.924 306.651L266.141 274.391" stroke="#E6E6E6" stroke-width="0.76" stroke-miterlimit="10"/>
<path d="M290.797 308.457L263.014 276.197" stroke="#E6E6E6" stroke-width="0.76" stroke-miterlimit="10"/>
<path d="M287.67 310.265L259.887 278.005" stroke="#E6E6E6" stroke-width="0.76" stroke-miterlimit="10"/>
<path d="M284.543 312.072L256.755 279.812" stroke="#E6E6E6" stroke-width="0.76" stroke-miterlimit="10"/>
<path d="M281.417 313.879L253.628 281.612" stroke="#E6E6E6" stroke-width="0.76" stroke-miterlimit="10"/>
<path d="M278.29 315.679L250.501 283.419" stroke="#E6E6E6" stroke-width="0.76" stroke-miterlimit="10"/>
<path d="M275.163 317.487L247.374 285.227" stroke="#E6E6E6" stroke-width="0.76" stroke-miterlimit="10"/>
<path d="M272.03 319.293L244.248 287.033" stroke="#E6E6E6" stroke-width="0.76" stroke-miterlimit="10"/>
<path d="M268.904 321.1L241.121 288.84" stroke="#E6E6E6" stroke-width="0.76" stroke-miterlimit="10"/>
<path d="M265.777 322.907L237.988 290.641" stroke="#E6E6E6" stroke-width="0.76" stroke-miterlimit="10"/>
<path d="M262.65 324.708L234.861 292.448" stroke="#E6E6E6" stroke-width="0.76" stroke-miterlimit="10"/>
</g>
<path d="M213.536 265.959L321.91 291.596L346.954 276.955L238.58 251.318L213.536 265.959Z" fill="#ADADAD"/>
<path d="M301.121 214.754L276.144 229.358L291.358 250.128L316.403 235.488L301.127 214.754H301.121Z" fill="#ADADAD"/>
<path d="M341.441 220.847L316.396 235.487L346.948 276.955L371.925 262.351L341.435 220.847H341.441Z" fill="#ADADAD"/>
<path d="M495.569 230.61V253.262" stroke="#CCCCCC" stroke-width="1.58" stroke-miterlimit="10"/>
<path d="M437.635 242.662C441.569 242.638 444.747 240.776 444.732 238.504C444.718 236.233 441.517 234.411 437.584 234.436C433.65 234.46 430.472 236.322 430.487 238.594C430.501 240.866 433.701 242.687 437.635 242.662Z" fill="white"/>
<path d="M442.951 241.63C439.985 243.345 435.174 243.351 432.227 241.655C429.279 239.953 429.297 237.178 432.264 235.463C435.23 233.749 440.04 233.743 442.988 235.438C445.936 237.141 445.918 239.916 442.951 241.63ZM432.917 235.839C430.315 237.344 430.296 239.78 432.88 241.279C435.464 242.777 439.689 242.765 442.297 241.26C444.9 239.755 444.918 237.319 442.334 235.821C439.75 234.322 435.526 234.335 432.917 235.839Z" fill="#C2C2C2"/>
<path d="M442.686 239.744C446.62 239.72 449.797 237.858 449.783 235.586C449.769 233.315 446.568 231.493 442.634 231.518C438.701 231.542 435.523 233.404 435.537 235.676C435.552 237.948 438.752 239.769 442.686 239.744Z" fill="white"/>
<path d="M448.008 238.713C445.042 240.428 440.231 240.434 437.284 238.738C434.336 237.036 434.354 234.261 437.321 232.546C440.287 230.832 445.097 230.826 448.045 232.521C450.993 234.224 450.975 236.999 448.008 238.713ZM437.974 232.922C435.372 234.427 435.353 236.863 437.937 238.362C440.521 239.86 444.746 239.848 447.354 238.343C449.957 236.838 449.975 234.402 447.391 232.904C444.807 231.411 440.583 231.418 437.974 232.922Z" fill="#C2C2C2"/>
<path d="M447.743 236.833C451.677 236.809 454.855 234.947 454.84 232.675C454.826 230.403 451.626 228.582 447.692 228.607C443.758 228.631 440.58 230.493 440.595 232.765C440.609 235.036 443.81 236.858 447.743 236.833Z" fill="white"/>
<path d="M453.059 235.796C450.093 237.511 445.282 237.517 442.335 235.821C439.387 234.125 439.405 231.344 442.372 229.629C445.338 227.915 450.148 227.909 453.096 229.604C456.044 231.3 456.025 234.082 453.059 235.796ZM443.025 230.005C440.423 231.51 440.404 233.946 442.988 235.445C445.572 236.937 449.797 236.931 452.405 235.426C455.014 233.921 455.026 231.485 452.442 229.987C449.858 228.488 445.634 228.501 443.025 230.005Z" fill="#C2C2C2"/>
<path d="M452.794 233.915C456.728 233.891 459.906 232.029 459.891 229.757C459.877 227.485 456.676 225.664 452.743 225.689C448.809 225.713 445.631 227.575 445.646 229.847C445.66 232.119 448.86 233.94 452.794 233.915Z" fill="white"/>
<path d="M458.116 232.879C455.15 234.594 450.339 234.6 447.392 232.904C444.444 231.202 444.462 228.427 447.429 226.712C450.395 224.998 455.205 224.992 458.153 226.687C461.101 228.383 461.082 231.165 458.116 232.879ZM448.082 227.088C445.48 228.593 445.461 231.029 448.045 232.528C450.629 234.026 454.854 234.014 457.462 232.509C460.071 231.004 460.083 228.568 457.499 227.07C454.915 225.571 450.691 225.584 448.082 227.088Z" fill="#C2C2C2"/>
<path d="M457.845 230.997C461.779 230.973 464.956 229.111 464.942 226.839C464.928 224.568 461.727 222.746 457.793 222.771C453.86 222.795 450.682 224.657 450.696 226.929C450.711 229.201 453.911 231.022 457.845 230.997Z" fill="white"/>
<path d="M463.161 229.962C460.194 231.677 455.384 231.683 452.436 229.987C449.488 228.285 449.507 225.51 452.473 223.795C455.44 222.081 460.25 222.075 463.198 223.77C466.146 225.473 466.127 228.248 463.161 229.962ZM453.127 224.171C450.524 225.676 450.506 228.112 453.09 229.611C455.674 231.109 459.898 231.097 462.507 229.592C465.116 228.087 465.128 225.651 462.544 224.153C459.96 222.654 455.736 222.667 453.127 224.171Z" fill="#C2C2C2"/>
<path d="M452.769 229.796L462.865 223.968L452.769 229.796ZM452.769 229.796C455.538 231.393 460.04 231.387 462.828 229.777L452.769 229.796ZM452.769 229.796C450 228.198 450.019 225.596 452.806 223.986L452.769 229.796ZM462.865 223.968C465.634 225.565 465.615 228.168 462.828 229.777L462.865 223.968ZM462.865 223.968C460.096 222.37 455.594 222.377 452.806 223.986L462.865 223.968ZM452.806 223.986C455.439 224.048 457.937 224.665 459.837 225.713C461.656 226.811 462.717 228.248 462.828 229.771M452.806 223.986C452.917 225.51 453.978 226.953 455.797 228.044C457.697 229.093 460.194 229.709 462.828 229.771" fill="white"/>
<path d="M463.155 229.962C460.188 231.67 455.384 231.683 452.442 229.987C449.501 228.285 449.519 225.515 452.479 223.801C455.44 222.087 460.25 222.08 463.192 223.776C466.133 225.472 466.115 228.248 463.155 229.962ZM460.478 225.719C461.946 226.681 462.883 227.859 463.192 229.117C464.992 227.686 464.888 225.694 462.852 224.35L460.478 225.719ZM453.435 229.783C455.773 230.955 459.214 231.023 461.699 229.98C459.516 229.802 457.468 229.259 455.81 228.414L453.435 229.783ZM456.463 228.032C458.091 228.858 460.151 229.364 462.328 229.481C462.131 228.223 461.249 227.039 459.818 226.095L456.463 228.032ZM459.824 225.337L462.199 223.968C459.861 222.796 456.42 222.728 453.935 223.77C456.118 223.949 458.165 224.492 459.824 225.337ZM455.816 227.649L459.171 225.713C457.542 224.886 455.483 224.381 453.306 224.264C453.503 225.522 454.385 226.7 455.816 227.649ZM452.782 229.401L455.156 228.032C453.688 227.07 452.751 225.892 452.442 224.634C450.642 226.064 450.746 228.056 452.782 229.401Z" fill="#C2C2C2"/>
</g>
<defs>
<clipPath id="clip0_214_749">
<rect width="576" height="551.874" fill="white" transform="translate(0 0.792969)"/>
</clipPath>
</defs>
</svg>
