<svg width="236" height="145" viewBox="0 0 236 145" fill="none" xmlns="http://www.w3.org/2000/svg">
<path d="M201.02 114.13L205.68 131.55L218.34 118.89L213.68 101.47L201.02 114.13Z" fill="white" stroke="#CCCCCC" stroke-width="0.75" stroke-linecap="round" stroke-linejoin="round"/>
<path d="M213.68 101.47L218.34 118.89L235.63 123.52L230.97 106.11L213.68 101.47Z" fill="white" stroke="#CCCCCC" stroke-width="0.75" stroke-linecap="round" stroke-linejoin="round"/>
<path d="M205.68 131.55L222.97 136.18L235.63 123.52L218.34 118.89L205.68 131.55Z" fill="#EBEBEB" stroke="#CCCCCC" stroke-width="0.75" stroke-linecap="round" stroke-linejoin="round"/>
<path d="M183.73 109.5L188.39 126.91L201.05 114.26L196.38 96.8398L183.73 109.5Z" fill="white" stroke="#CCCCCC" stroke-width="0.75" stroke-linecap="round" stroke-linejoin="round"/>
<path d="M196.38 96.8398L201.05 114.26L218.34 118.89L213.68 101.47L196.38 96.8398Z" fill="white" stroke="#CCCCCC" stroke-width="0.75" stroke-linecap="round" stroke-linejoin="round"/>
<path d="M188.39 126.91L205.68 131.55L218.34 118.89L201.05 114.26L188.39 126.91Z" fill="#EBEBEB" stroke="#CCCCCC" stroke-width="0.75" stroke-linecap="round" stroke-linejoin="round"/>
<path d="M72.4 109.469L89.69 114.099L102.35 101.45L85.06 96.8095L72.4 109.469Z" fill="#EBEBEB" stroke="#CCCCCC" stroke-width="0.75" stroke-linecap="round" stroke-linejoin="round"/>
<path d="M42.4498 117.49L47.1198 134.91L59.7798 122.25L55.1098 104.84L42.4498 117.49Z" fill="white" stroke="#CCCCCC" stroke-width="0.75" stroke-linecap="round" stroke-linejoin="round"/>
<path d="M37.7798 100.08L42.4498 117.49L55.1098 104.84L50.4398 87.4199L37.7798 100.08Z" fill="white" stroke="#CCCCCC" stroke-width="0.75" stroke-linecap="round" stroke-linejoin="round"/>
<path d="M72.3998 109.47L77.0698 126.89L94.3598 131.52L89.6898 114.1L72.3998 109.47Z" fill="white" stroke="#CCCCCC" stroke-width="0.75" stroke-linecap="round" stroke-linejoin="round"/>
<path d="M67.7298 92.0499L72.3998 109.47L89.6898 114.1L85.0198 96.6899L67.7298 92.0499Z" fill="white" stroke="#CCCCCC" stroke-width="0.75" stroke-linecap="round" stroke-linejoin="round"/>
<path d="M64.4097 139.54L81.6997 144.18L94.3597 131.52L77.0697 126.89L64.4097 139.54Z" fill="#EBEBEB" stroke="#CCCCCC" stroke-width="0.75" stroke-linecap="round" stroke-linejoin="round"/>
<path d="M55.1098 104.84L59.7798 122.25L77.0698 126.89L72.3998 109.47L55.1098 104.84Z" fill="white" stroke="#CCCCCC" stroke-width="0.75" stroke-linecap="round" stroke-linejoin="round"/>
<path d="M50.4398 87.4199L55.1098 104.84L72.3998 109.47L67.7298 92.0499L50.4398 87.4199Z" fill="white" stroke="#CCCCCC" stroke-width="0.75" stroke-linecap="round" stroke-linejoin="round"/>
<path d="M47.1198 134.91L64.4098 139.54L77.0698 126.89L59.7798 122.25L47.1198 134.91Z" fill="#EBEBEB" stroke="#CCCCCC" stroke-width="0.75" stroke-linecap="round" stroke-linejoin="round"/>
<path d="M55.11 104.84L59.78 122.25L72.43 109.599L67.77 92.1795L55.11 104.84Z" fill="white" stroke="#CCCCCC" stroke-width="0.75" stroke-linecap="round" stroke-linejoin="round"/>
<path d="M67.73 92.0495L72.4 109.469L85.06 96.8095L80.39 79.3995L67.73 92.0495Z" fill="white" stroke="#CCCCCC" stroke-width="0.75" stroke-linecap="round" stroke-linejoin="round"/>
<path d="M80.39 79.3995L85.06 96.8095L102.35 101.45L97.68 84.0295L80.39 79.3995Z" fill="white" stroke="#CCCCCC" stroke-width="0.75" stroke-linecap="round" stroke-linejoin="round"/>
<path d="M67.77 92.1795L72.43 109.599L89.72 114.229L85.06 96.8095L67.77 92.1795Z" fill="white" stroke="#CCCCCC" stroke-width="0.75" stroke-linecap="round" stroke-linejoin="round"/>
<path d="M59.78 122.25L77.07 126.89L89.72 114.229L72.43 109.599L59.78 122.25Z" fill="#EBEBEB" stroke="#CCCCCC" stroke-width="0.75" stroke-linecap="round" stroke-linejoin="round"/>
<path d="M1 13.6695L5.66 31.0895L18.32 18.4295L13.65 1.01953L1 13.6695Z" fill="white" stroke="#CCCCCC" stroke-width="0.75" stroke-linecap="round" stroke-linejoin="round"/>
<path d="M13.65 1.01953L18.32 18.4295L35.61 23.0595L30.94 5.64954L13.65 1.01953Z" fill="white" stroke="#CCCCCC" stroke-width="0.75" stroke-linecap="round" stroke-linejoin="round"/>
<path d="M5.66 31.0895L22.95 35.7195L35.61 23.0595L18.32 18.4295L5.66 31.0895Z" fill="#EBEBEB" stroke="#CCCCCC" stroke-width="0.75" stroke-linecap="round" stroke-linejoin="round"/>
<path d="M166.44 104.86L171.1 122.28L183.76 109.62L179.09 92.21L166.44 104.86Z" fill="white" stroke="#CCCCCC" stroke-width="0.75" stroke-linecap="round" stroke-linejoin="round"/>
<path d="M179.09 92.21L183.76 109.62L201.05 114.26L196.38 96.84L179.09 92.21Z" fill="white" stroke="#CCCCCC" stroke-width="0.75" stroke-linecap="round" stroke-linejoin="round"/>
<path d="M171.1 122.28L188.39 126.91L201.05 114.26L183.76 109.62L171.1 122.28Z" fill="#EBEBEB" stroke="#CCCCCC" stroke-width="0.75" stroke-linecap="round" stroke-linejoin="round"/>
<mask id="mask0_536_8434" style="mask-type:luminance" maskUnits="userSpaceOnUse" x="64" y="126" width="31" height="19">
<path d="M64.41 139.539L81.7 144.18L94.36 131.52L77.07 126.89L64.41 139.539Z" fill="white"/>
</mask>
<g mask="url(#mask0_536_8434)">
<path d="M88.91 144.38L75.25 172.73" stroke="#CCCCCC" stroke-width="0.75" stroke-linecap="round" stroke-linejoin="round"/>
<path d="M86.3399 143.69L72.6699 172.03" stroke="#CCCCCC" stroke-width="0.75" stroke-linecap="round" stroke-linejoin="round"/>
<path d="M83.7598 143L70.0898 171.34" stroke="#CCCCCC" stroke-width="0.75" stroke-linecap="round" stroke-linejoin="round"/>
<path d="M81.1798 142.31L67.5098 170.65" stroke="#CCCCCC" stroke-width="0.75" stroke-linecap="round" stroke-linejoin="round"/>
<path d="M78.5998 141.62L64.9398 169.96" stroke="#CCCCCC" stroke-width="0.75" stroke-linecap="round" stroke-linejoin="round"/>
<path d="M76.0199 140.93L62.3599 169.27" stroke="#CCCCCC" stroke-width="0.75" stroke-linecap="round" stroke-linejoin="round"/>
<path d="M73.4498 140.24L59.7798 168.58" stroke="#CCCCCC" stroke-width="0.75" stroke-linecap="round" stroke-linejoin="round"/>
<path d="M70.8697 139.55L57.1997 167.89" stroke="#CCCCCC" stroke-width="0.75" stroke-linecap="round" stroke-linejoin="round"/>
<path d="M68.2898 138.86L54.6198 167.2" stroke="#CCCCCC" stroke-width="0.75" stroke-linecap="round" stroke-linejoin="round"/>
<path d="M65.7098 138.16L52.0498 166.51" stroke="#CCCCCC" stroke-width="0.75" stroke-linecap="round" stroke-linejoin="round"/>
<path d="M107.73 117.419L94.0698 145.759" stroke="#CCCCCC" stroke-width="0.75" stroke-linecap="round" stroke-linejoin="round"/>
<path d="M105.16 116.729L91.49 145.069" stroke="#CCCCCC" stroke-width="0.75" stroke-linecap="round" stroke-linejoin="round"/>
<path d="M102.58 116.039L88.9102 144.379" stroke="#CCCCCC" stroke-width="0.75" stroke-linecap="round" stroke-linejoin="round"/>
<path d="M99.9998 115.349L86.3398 143.689" stroke="#CCCCCC" stroke-width="0.75" stroke-linecap="round" stroke-linejoin="round"/>
<path d="M97.42 114.659L83.76 142.999" stroke="#CCCCCC" stroke-width="0.75" stroke-linecap="round" stroke-linejoin="round"/>
<path d="M94.8402 113.97L81.1802 142.31" stroke="#CCCCCC" stroke-width="0.75" stroke-linecap="round" stroke-linejoin="round"/>
<path d="M92.27 113.269L78.6 141.619" stroke="#CCCCCC" stroke-width="0.75" stroke-linecap="round" stroke-linejoin="round"/>
<path d="M89.69 112.579L76.02 140.929" stroke="#CCCCCC" stroke-width="0.75" stroke-linecap="round" stroke-linejoin="round"/>
<path d="M87.1102 111.889L73.4502 140.239" stroke="#CCCCCC" stroke-width="0.75" stroke-linecap="round" stroke-linejoin="round"/>
<path d="M84.53 111.199L70.87 139.549" stroke="#CCCCCC" stroke-width="0.75" stroke-linecap="round" stroke-linejoin="round"/>
<path d="M81.95 110.51L68.29 138.86" stroke="#CCCCCC" stroke-width="0.75" stroke-linecap="round" stroke-linejoin="round"/>
<path d="M79.38 109.819L65.71 138.159" stroke="#CCCCCC" stroke-width="0.75" stroke-linecap="round" stroke-linejoin="round"/>
<path d="M76.79 109.13L63.13 137.469" stroke="#CCCCCC" stroke-width="0.75" stroke-linecap="round" stroke-linejoin="round"/>
<path d="M74.2101 108.439L60.5501 136.779" stroke="#CCCCCC" stroke-width="0.75" stroke-linecap="round" stroke-linejoin="round"/>
<path d="M71.6401 107.75L57.9701 136.09" stroke="#CCCCCC" stroke-width="0.75" stroke-linecap="round" stroke-linejoin="round"/>
<path d="M69.06 107.06L55.39 135.4" stroke="#CCCCCC" stroke-width="0.75" stroke-linecap="round" stroke-linejoin="round"/>
<path d="M66.4802 106.37L52.8202 134.71" stroke="#CCCCCC" stroke-width="0.75" stroke-linecap="round" stroke-linejoin="round"/>
</g>
<path d="M67.7702 92.1797L62.9202 74.0898C60.8702 66.4398 53.0102 61.8998 45.3602 63.9498C37.7102 65.9998 29.8502 61.4598 27.8002 53.8098L22.9502 35.7197" stroke="#CCCCCC" stroke-width="0.75" stroke-linecap="round" stroke-linejoin="round"/>
<path d="M67.7701 97.8497C70.9016 97.8497 73.4401 95.3112 73.4401 92.1797C73.4401 89.0483 70.9016 86.5098 67.7701 86.5098C64.6387 86.5098 62.1001 89.0483 62.1001 92.1797C62.1001 95.3112 64.6387 97.8497 67.7701 97.8497Z" fill="white" stroke="#CCCCCC" stroke-width="0.75" stroke-linecap="round" stroke-linejoin="round"/>
<path d="M22.9498 41.3898C26.0812 41.3898 28.6198 38.8512 28.6198 35.7198C28.6198 32.5883 26.0812 30.0498 22.9498 30.0498C19.8183 30.0498 17.2798 32.5883 17.2798 35.7198C17.2798 38.8512 19.8183 41.3898 22.9498 41.3898Z" fill="white" stroke="#CCCCCC" stroke-width="0.75" stroke-linecap="round" stroke-linejoin="round"/>
<path d="M66.2999 86.6998L62.9199 74.0898" stroke="#CCCCCC" stroke-width="0.75" stroke-linecap="round" stroke-linejoin="round"/>
<path d="M89.66 119.65C92.7915 119.65 95.33 117.111 95.33 113.979C95.33 110.848 92.7915 108.31 89.66 108.31C86.5285 108.31 83.99 110.848 83.99 113.979C83.99 117.111 86.5285 119.65 89.66 119.65Z" fill="white" stroke="#CCCCCC" stroke-width="0.75" stroke-linecap="round" stroke-linejoin="round"/>
<path d="M166.44 104.86L148.35 100.01C140.7 97.9598 132.84 102.5 130.79 110.15C128.74 117.8 120.88 122.34 113.23 120.29L95.1401 115.44" stroke="#CCCCCC" stroke-width="0.75" stroke-linecap="round" stroke-linejoin="round"/>
<path d="M166.44 110.53C169.571 110.53 172.11 107.991 172.11 104.859C172.11 101.728 169.571 99.1895 166.44 99.1895C163.309 99.1895 160.77 101.728 160.77 104.859C160.77 107.991 163.309 110.53 166.44 110.53Z" fill="white" stroke="#CCCCCC" stroke-width="0.75" stroke-linecap="round" stroke-linejoin="round"/>
<mask id="mask1_536_8434" style="mask-type:luminance" maskUnits="userSpaceOnUse" x="188" y="114" width="31" height="18">
<path d="M188.36 126.79L205.65 131.42L218.31 118.76L201.02 114.13L188.36 126.79Z" fill="white"/>
</mask>
<g mask="url(#mask1_536_8434)">
<path d="M212.87 131.63L199.2 159.97" stroke="#CCCCCC" stroke-width="0.75" stroke-linecap="round" stroke-linejoin="round"/>
<path d="M210.29 130.941L196.62 159.281" stroke="#CCCCCC" stroke-width="0.75" stroke-linecap="round" stroke-linejoin="round"/>
<path d="M207.71 130.24L194.05 158.59" stroke="#CCCCCC" stroke-width="0.75" stroke-linecap="round" stroke-linejoin="round"/>
<path d="M205.13 129.55L191.47 157.9" stroke="#CCCCCC" stroke-width="0.75" stroke-linecap="round" stroke-linejoin="round"/>
<path d="M202.55 128.86L188.89 157.21" stroke="#CCCCCC" stroke-width="0.75" stroke-linecap="round" stroke-linejoin="round"/>
<path d="M199.98 128.17L186.31 156.52" stroke="#CCCCCC" stroke-width="0.75" stroke-linecap="round" stroke-linejoin="round"/>
<path d="M197.4 127.481L183.73 155.831" stroke="#CCCCCC" stroke-width="0.75" stroke-linecap="round" stroke-linejoin="round"/>
<path d="M194.82 126.79L181.16 155.13" stroke="#CCCCCC" stroke-width="0.75" stroke-linecap="round" stroke-linejoin="round"/>
<path d="M192.24 126.101L178.58 154.441" stroke="#CCCCCC" stroke-width="0.75" stroke-linecap="round" stroke-linejoin="round"/>
<path d="M189.66 125.41L176 153.75" stroke="#CCCCCC" stroke-width="0.75" stroke-linecap="round" stroke-linejoin="round"/>
<path d="M231.69 104.659L218.02 133.01" stroke="#CCCCCC" stroke-width="0.75" stroke-linecap="round" stroke-linejoin="round"/>
<path d="M229.11 103.97L215.44 132.32" stroke="#CCCCCC" stroke-width="0.75" stroke-linecap="round" stroke-linejoin="round"/>
<path d="M226.53 103.28L212.87 131.63" stroke="#CCCCCC" stroke-width="0.75" stroke-linecap="round" stroke-linejoin="round"/>
<path d="M223.95 102.59L210.29 130.94" stroke="#CCCCCC" stroke-width="0.75" stroke-linecap="round" stroke-linejoin="round"/>
<path d="M221.37 101.9L207.71 130.24" stroke="#CCCCCC" stroke-width="0.75" stroke-linecap="round" stroke-linejoin="round"/>
<path d="M218.8 101.21L205.13 129.55" stroke="#CCCCCC" stroke-width="0.75" stroke-linecap="round" stroke-linejoin="round"/>
<path d="M216.22 100.52L202.55 128.86" stroke="#CCCCCC" stroke-width="0.75" stroke-linecap="round" stroke-linejoin="round"/>
<path d="M213.64 99.8304L199.98 128.17" stroke="#CCCCCC" stroke-width="0.75" stroke-linecap="round" stroke-linejoin="round"/>
<path d="M211.06 99.1399L197.4 127.48" stroke="#CCCCCC" stroke-width="0.75" stroke-linecap="round" stroke-linejoin="round"/>
<path d="M208.48 98.4495L194.82 126.789" stroke="#CCCCCC" stroke-width="0.75" stroke-linecap="round" stroke-linejoin="round"/>
<path d="M205.91 97.7599L192.24 126.1" stroke="#CCCCCC" stroke-width="0.75" stroke-linecap="round" stroke-linejoin="round"/>
<path d="M203.33 97.0599L189.66 125.41" stroke="#CCCCCC" stroke-width="0.75" stroke-linecap="round" stroke-linejoin="round"/>
<path d="M200.74 96.3703L187.08 124.72" stroke="#CCCCCC" stroke-width="0.75" stroke-linecap="round" stroke-linejoin="round"/>
<path d="M198.17 95.6799L184.5 124.03" stroke="#CCCCCC" stroke-width="0.75" stroke-linecap="round" stroke-linejoin="round"/>
<path d="M195.59 94.9894L181.92 123.329" stroke="#CCCCCC" stroke-width="0.75" stroke-linecap="round" stroke-linejoin="round"/>
<path d="M193.01 94.3L179.35 122.64" stroke="#CCCCCC" stroke-width="0.75" stroke-linecap="round" stroke-linejoin="round"/>
<path d="M190.43 93.6096L176.77 121.95" stroke="#CCCCCC" stroke-width="0.75" stroke-linecap="round" stroke-linejoin="round"/>
</g>
</svg>
