<svg width="60" height="48" viewBox="0 0 60 48" fill="none" xmlns="http://www.w3.org/2000/svg">
<g clip-path="url(#clip0_247_5282)">
<path d="M57.6932 39.5906L45.2791 46.7921C44.1169 47.4648 42.579 47.8063 40.96 47.8318H22.7652V34.443C22.8769 34.3614 22.9936 34.2799 23.1154 34.1983C23.1864 34.1525 23.2575 34.1066 23.3336 34.0658L35.7477 26.8694C38.4275 25.32 41.7619 24.739 44.8528 26.5279L56.9471 33.5409C60.038 35.3298 60.3729 38.0412 57.6932 39.5906Z" fill="#F5F5F5"/>
<path d="M22.7703 30.4268V42.8983C22.7703 43.0104 22.7703 43.1174 22.7601 43.2245C22.6383 46.4608 20.659 47.9745 18.1924 46.7258C18.101 46.68 18.0097 46.629 17.9234 46.578L5.5093 39.3765C2.83463 37.8271 0.662415 33.6632 0.662415 30.0803V17.6088C0.662415 14.0259 2.83463 12.3797 5.5093 13.9291L6.03205 14.2298L17.4514 20.8554C17.4514 20.8554 17.4666 20.8656 17.4768 20.8707L17.9234 21.1306C20.4915 22.6188 22.5977 26.5228 22.7601 30.0038C22.7652 30.1465 22.7703 30.2841 22.7703 30.4268Z" fill="white" stroke="#CCCCCC" stroke-width="0.63" stroke-miterlimit="10"/>
<path d="M44.8528 17.6088V30.0803C44.8528 33.6632 42.6857 37.8271 40.0059 39.3765L27.5918 46.578C27.5106 46.6239 27.4243 46.6749 27.338 46.7156C24.8613 47.9796 22.882 46.471 22.7602 43.2245C22.75 43.1174 22.75 43.0104 22.75 42.8983V30.4268C22.75 30.2841 22.7551 30.1465 22.7602 30.0038C22.9226 26.5228 25.0237 22.6188 27.5918 21.1306L40.0059 13.9291C42.6857 12.3797 44.8528 14.0259 44.8528 17.6088Z" fill="#EBEBEB" stroke="#CCCCCC" stroke-width="0.63" stroke-miterlimit="10"/>
<path d="M27.5918 21.1306C25.0237 22.6188 22.9226 26.5228 22.7602 30.0038C22.5978 26.5228 20.4915 22.6188 17.9234 21.1306L17.4768 20.8707C20.5626 22.4965 25.0085 22.629 27.5918 21.1306Z" fill="#F5F5F5" stroke="#CCCCCC" stroke-width="0.63" stroke-miterlimit="10"/>
<path d="M40.0059 13.9291L27.5918 21.1306C25.0085 22.629 20.5625 22.4965 17.4768 20.8707C17.4666 20.8707 17.4615 20.8605 17.4514 20.8554C17.3499 20.8044 17.2484 20.7483 17.152 20.6923L6.39746 14.4591C6.27057 14.3878 6.14877 14.3113 6.03204 14.2298C3.36752 12.4969 3.09346 10.0454 5.42808 8.53684C5.49913 8.49097 5.57019 8.4451 5.64632 8.40433L18.0604 1.20789C20.7402 -0.34148 25.4145 -0.147808 28.5053 1.64111L39.2598 7.87937C42.3507 9.66829 42.6856 12.3797 40.0059 13.9291Z" fill="white" stroke="#CCCCCC" stroke-width="0.63" stroke-miterlimit="10"/>
<path d="M44.8528 17.6088C44.8528 14.0259 42.6856 12.3797 40.0059 13.9291C42.6856 12.3797 42.3507 9.66829 39.2598 7.87938C43.1424 10.127 44.8528 11.7273 44.8528 17.6088Z" fill="#EBEBEB" stroke="#CCCCCC" stroke-width="0.63" stroke-miterlimit="10"/>
<path d="M6.03205 14.2298L5.5093 13.9291C2.83463 12.3797 0.662415 14.0259 0.662415 17.6088C0.662415 13.2308 1.59119 10.8303 5.42809 8.53683C3.09347 10.0454 3.36753 12.4969 6.03205 14.2298Z" fill="#F5F5F5" stroke="#CCCCCC" stroke-width="0.63" stroke-miterlimit="10"/>
<path d="M5.64634 8.40433C5.57021 8.4451 5.49915 8.49097 5.4281 8.53684" stroke="#CCCCCC" stroke-width="0.63" stroke-miterlimit="10"/>
<path d="M27.338 46.7156C24.4045 48.2956 20.8264 48.1274 18.1924 46.7258C20.659 47.9745 22.6383 46.4608 22.7601 43.2245C22.8819 46.471 24.8613 47.9796 27.338 46.7156Z" fill="#F5F5F5" stroke="#CCCCCC" stroke-width="0.63" stroke-miterlimit="10"/>
<path d="M27.338 46.7156C27.4243 46.6749 27.5106 46.6239 27.5918 46.578" stroke="#CCCCCC" stroke-width="0.63" stroke-miterlimit="10"/>
<path d="M18.1924 46.7258C18.101 46.68 18.0097 46.629 17.9234 46.578" stroke="#CCCCCC" stroke-width="0.63" stroke-miterlimit="10"/>
<path d="M41.1326 47.8318H40.96" stroke="#CCCCCC" stroke-width="0.63" stroke-miterlimit="10"/>
</g>
<defs>
<clipPath id="clip0_247_5282">
<rect width="59" height="48" fill="white" transform="translate(0.5)"/>
</clipPath>
</defs>
</svg>
