<svg width="188" height="32" viewBox="0 0 188 32" fill="none" xmlns="http://www.w3.org/2000/svg">
<g clip-path="url(#clip0_247_5253)">
<path d="M5.2476 0.394089L0.393951 14.9438" stroke="#E6E6E6" stroke-miterlimit="10"/>
<path d="M12.7014 0.394089L2.30075 31.6059" stroke="#E6E6E6" stroke-miterlimit="10"/>
<path d="M20.171 0.394089L9.77032 31.6059" stroke="#E6E6E6" stroke-miterlimit="10"/>
<path d="M27.6406 0.394089L17.2399 31.6059" stroke="#E6E6E6" stroke-miterlimit="10"/>
<path d="M35.0944 0.394089L24.6937 31.6059" stroke="#E6E6E6" stroke-miterlimit="10"/>
<path d="M42.5639 0.394089L32.1633 31.6059" stroke="#E6E6E6" stroke-miterlimit="10"/>
<path d="M50.0335 0.394089L39.6328 31.6059" stroke="#E6E6E6" stroke-miterlimit="10"/>
<path d="M57.4873 0.394089L47.0867 31.6059" stroke="#E6E6E6" stroke-miterlimit="10"/>
<path d="M64.9569 0.394089L54.5562 31.6059" stroke="#E6E6E6" stroke-miterlimit="10"/>
<path d="M72.4265 0.394089L62.0258 31.6059" stroke="#E6E6E6" stroke-miterlimit="10"/>
<path d="M79.8803 0.394089L69.4796 31.6059" stroke="#E6E6E6" stroke-miterlimit="10"/>
<path d="M87.3499 0.394089L76.9492 31.6059" stroke="#E6E6E6" stroke-miterlimit="10"/>
<path d="M94.8194 0.394089L84.4188 31.6059" stroke="#E6E6E6" stroke-miterlimit="10"/>
<path d="M102.273 0.394089L91.8726 31.6059" stroke="#E6E6E6" stroke-miterlimit="10"/>
<path d="M109.743 0.394089L99.3421 31.6059" stroke="#E6E6E6" stroke-miterlimit="10"/>
<path d="M117.228 0.394089L106.827 31.6059" stroke="#E6E6E6" stroke-miterlimit="10"/>
<path d="M124.698 0.394089L114.297 31.6059" stroke="#E6E6E6" stroke-miterlimit="10"/>
<path d="M132.152 0.394089L121.751 31.6059" stroke="#E6E6E6" stroke-miterlimit="10"/>
<path d="M139.621 0.394089L129.22 31.6059" stroke="#E6E6E6" stroke-miterlimit="10"/>
<path d="M147.091 0.394089L136.69 31.6059" stroke="#E6E6E6" stroke-miterlimit="10"/>
<path d="M154.544 0.394089L144.144 31.6059" stroke="#E6E6E6" stroke-miterlimit="10"/>
<path d="M162.014 0.394089L151.613 31.6059" stroke="#E6E6E6" stroke-miterlimit="10"/>
<path d="M169.484 0.394089L159.083 31.6059" stroke="#E6E6E6" stroke-miterlimit="10"/>
<path d="M176.937 0.394089L166.537 31.6059" stroke="#E6E6E6" stroke-miterlimit="10"/>
<path d="M184.407 0.394089L174.006 31.6059" stroke="#E6E6E6" stroke-miterlimit="10"/>
<path d="M187.606 13.1941L181.476 31.6059" stroke="#E6E6E6" stroke-miterlimit="10"/>
</g>
<defs>
<clipPath id="clip0_247_5253">
<rect width="188" height="32" fill="white"/>
</clipPath>
</defs>
</svg>
