<svg width="125" height="162" viewBox="0 0 125 162" fill="none" xmlns="http://www.w3.org/2000/svg">
<path d="M3.54923 159.59L83.8893 137.52C85.7093 137.02 87.5692 135.15 88.0392 133.34L122.129 2.81986C122.599 1.00986 121.509 -0.0501404 119.689 0.43986L39.3492 22.5099C37.5292 23.0099 35.6692 24.8799 35.1992 26.6899L1.10922 157.21C0.639225 159.02 1.72923 160.08 3.54923 159.59Z" fill="white"/>
<path d="M1.46924 159.26L3.20923 160.97C3.64923 161.4 4.36925 161.55 5.28925 161.29L85.6293 139.23C87.4393 138.72 89.2992 136.85 89.7792 135.04L123.859 4.5199C124.099 3.6199 123.939 2.89985 123.509 2.46985L121.779 0.759888C122.079 1.05989 122.249 1.4899 122.239 2.0199C122.239 2.2699 122.209 2.52988 122.139 2.80988L88.0492 133.32C87.5792 135.14 85.7192 137.01 83.8992 137.51L3.56921 159.58C3.27921 159.66 2.99922 159.7 2.75922 159.7C2.21922 159.71 1.78926 159.54 1.48926 159.25L1.46924 159.26Z" fill="white" stroke="#CCCCCC" stroke-width="0.63" stroke-miterlimit="10"/>
<path d="M1.46924 159.26L3.20923 160.97C3.64923 161.4 4.36925 161.55 5.28925 161.29L85.6293 139.23C86.6093 138.96 87.5993 138.29 88.3793 137.43L86.6492 135.72C85.8692 136.57 84.8692 137.24 83.8992 137.51L3.56921 159.58C3.27921 159.66 2.99922 159.7 2.75922 159.7C2.21922 159.71 1.78926 159.54 1.48926 159.25L1.46924 159.26Z" fill="#EBEBEB"/>
<mask id="mask0_526_7590" style="mask-type:luminance" maskUnits="userSpaceOnUse" x="1" y="0" width="122" height="160">
<path d="M3.54923 159.59L83.8893 137.52C85.7093 137.02 87.5692 135.15 88.0392 133.34L122.129 2.81986C122.599 1.00986 121.509 -0.0501404 119.689 0.43986L39.3492 22.5099C37.5292 23.0099 35.6692 24.8799 35.1992 26.6899L1.10922 157.21C0.639225 159.02 1.72923 160.08 3.54923 159.59Z" fill="white"/>
</mask>
<g mask="url(#mask0_526_7590)">
<path d="M74.8449 60.5917C97.2474 37.6189 104.658 8.51194 91.3958 -4.42061C78.1341 -17.3532 49.2224 -9.214 26.8199 13.7588C4.41731 36.7316 -2.99274 65.8386 10.269 78.7712C23.5307 91.7037 52.4423 83.5645 74.8449 60.5917Z" fill="#FAFAFA"/>
<path d="M109.099 103.307C120.682 91.4294 124.514 76.3804 117.658 69.6943C110.802 63.0082 95.8537 67.2171 84.2707 79.0949C72.6877 90.9727 68.8559 106.022 75.7122 112.708C82.5684 119.394 97.5163 115.185 109.099 103.307Z" fill="#FAFAFA"/>
<path d="M-25.6011 87.4809L-38.957 101.177L75.4424 212.737L88.7984 199.041L-25.6011 87.4809Z" fill="#FAFAFA"/>
<path d="M-12.7284 74.2602L-19.4028 81.1045L94.9967 192.664L101.671 185.82L-12.7284 74.2602Z" fill="#FAFAFA"/>
</g>
<path d="M1.46924 159.26L3.20923 160.97C3.64923 161.4 4.36925 161.55 5.28925 161.29L85.6293 139.23C87.4393 138.72 89.2992 136.85 89.7792 135.04L123.859 4.5199C124.099 3.6199 123.939 2.89985 123.509 2.46985L121.779 0.759888C122.079 1.05989 122.249 1.4899 122.239 2.0199C122.239 2.2699 122.209 2.52988 122.139 2.80988L88.0492 133.32C87.5792 135.14 85.7192 137.01 83.8992 137.51L3.56921 159.58C3.27921 159.66 2.99922 159.7 2.75922 159.7C2.21922 159.71 1.78926 159.54 1.48926 159.25L1.46924 159.26Z" stroke="#CCCCCC" stroke-width="0.63" stroke-miterlimit="10"/>
<path d="M3.54923 159.59L83.8893 137.52C85.7093 137.02 87.5692 135.15 88.0392 133.34L122.129 2.81986C122.599 1.00986 121.509 -0.0501404 119.689 0.43986L39.3492 22.5099C37.5292 23.0099 35.6692 24.8799 35.1992 26.6899L1.10922 157.21C0.639225 159.02 1.72923 160.08 3.54923 159.59Z" stroke="#CCCCCC" stroke-width="0.63" stroke-miterlimit="10"/>
<path d="M81.8492 125.219L93.2292 81.6695C93.9592 78.8895 92.5992 77.1695 90.1992 77.8295L78.4892 81.0495C76.0892 81.7095 73.5592 84.4995 72.8292 87.2795L61.4492 130.829C60.7192 133.609 62.0792 135.329 64.4792 134.669L76.1892 131.449C78.5892 130.789 81.1192 127.999 81.8492 125.219Z" fill="white"/>
<path d="M75.9492 121.62L70.2792 123.18L70.7593 121.33C70.7593 121.33 70.7992 121.19 70.8392 121.05C70.8792 120.91 70.9192 120.77 70.9692 120.64C71.1492 120.16 71.4093 119.73 71.7493 119.34C72.0993 118.95 72.4892 118.61 72.9392 118.33C73.3892 118.05 73.8492 117.85 74.3292 117.72C74.8092 117.59 75.2292 117.55 75.5892 117.61C75.9492 117.67 76.2192 117.82 76.3992 118.07C76.5792 118.32 76.6392 118.67 76.5692 119.11C76.5492 119.24 76.5293 119.37 76.4893 119.51C76.4493 119.65 76.4292 119.74 76.4192 119.79L75.9392 121.64L75.9492 121.62ZM75.2292 120.8L75.4292 120.04C75.4492 119.97 75.4693 119.87 75.4993 119.75C75.5293 119.63 75.5492 119.52 75.5492 119.43C75.5692 119.19 75.4993 119.02 75.3593 118.91C75.2193 118.8 75.0292 118.75 74.7992 118.74C74.5692 118.74 74.3092 118.77 74.0392 118.84C73.7592 118.92 73.4792 119.03 73.1992 119.18C72.9192 119.33 72.6792 119.51 72.4592 119.71C72.2392 119.92 72.0792 120.15 71.9692 120.4C71.9192 120.5 71.8792 120.62 71.8492 120.74C71.8192 120.86 71.7893 120.96 71.7693 121.03L71.5692 121.79L75.2192 120.79L75.2292 120.8Z" fill="#C2C2C2"/>
<path d="M78.0593 113.94C77.9493 114.38 77.7493 114.79 77.4693 115.18C77.1893 115.57 76.8693 115.9 76.4893 116.18C76.1093 116.46 75.7092 116.66 75.2792 116.77C74.8192 116.9 74.4393 116.92 74.1393 116.82C73.8393 116.73 73.6392 116.55 73.5392 116.27C73.4392 116 73.4392 115.65 73.5392 115.22C73.6592 114.77 73.8592 114.36 74.1592 113.98C74.4492 113.61 74.8093 113.29 75.2293 113.04C75.6493 112.78 76.1093 112.61 76.6093 112.51L76.3293 113.58L75.9393 113.69C75.5093 113.81 75.1793 113.96 74.9493 114.16C74.7193 114.36 74.5693 114.61 74.4893 114.92C74.3893 115.29 74.4293 115.53 74.6093 115.64C74.7893 115.75 75.0893 115.75 75.5193 115.64C75.9193 115.53 76.2493 115.36 76.5093 115.13C76.7693 114.9 76.9492 114.61 77.0292 114.28C77.0892 114.07 77.0892 113.9 77.0292 113.77C76.9792 113.64 76.8793 113.56 76.7193 113.53L77.3093 112.36C77.6593 112.42 77.8893 112.59 78.0093 112.88C78.1293 113.17 78.1392 113.52 78.0292 113.94H78.0593ZM75.7393 115.9L74.9493 116.12L75.6893 113.27L76.4793 113.05L75.7393 115.9Z" fill="#C2C2C2"/>
<path d="M78.6893 111.149L73.0194 112.709L73.2993 111.619L76.0493 110.859L76.0094 110.999L78.9193 110.199L78.6693 111.149H78.6893ZM79.3594 108.999C79.2494 109.429 79.0593 109.809 78.7893 110.149C78.5193 110.489 78.1893 110.779 77.8193 111.019C77.4393 111.259 77.0394 111.429 76.6194 111.549C76.1994 111.669 75.8293 111.699 75.5293 111.649C75.2293 111.599 75.0194 111.459 74.8894 111.239C74.7594 111.019 74.7594 110.699 74.8594 110.289C74.9594 109.879 75.1593 109.489 75.4293 109.139C75.6993 108.779 76.0293 108.469 76.4093 108.209C76.7893 107.949 77.1994 107.759 77.6294 107.639C78.0594 107.519 78.4194 107.499 78.7094 107.569C79.0094 107.639 79.2093 107.799 79.3293 108.039C79.4493 108.279 79.4594 108.599 79.3494 108.999H79.3594ZM78.3594 109.439C78.4194 109.209 78.4094 109.029 78.3394 108.909C78.2594 108.789 78.1394 108.729 77.9594 108.709C77.7794 108.689 77.5794 108.709 77.3394 108.779C77.0994 108.849 76.8793 108.939 76.6593 109.069C76.4493 109.199 76.2594 109.359 76.0994 109.539C75.9394 109.729 75.8294 109.939 75.7694 110.179C75.7094 110.409 75.7193 110.569 75.7893 110.679C75.8593 110.789 75.9893 110.849 76.1593 110.859C76.3293 110.869 76.5493 110.839 76.8093 110.769C77.0693 110.699 77.2994 110.599 77.5094 110.489C77.7194 110.379 77.8993 110.229 78.0393 110.049C78.1793 109.869 78.2894 109.669 78.3494 109.429L78.3594 109.439Z" fill="#C2C2C2"/>
<path d="M75.1693 107.42L74.2294 107.68L74.5094 106.6L75.4493 106.34L75.1693 107.42ZM80.0094 106.09L75.7594 107.26L76.0393 106.18L80.2893 105.01L80.0094 106.09Z" fill="#C2C2C2"/>
<path d="M77.0492 105.24L76.2192 105.47L77.0193 102.42L77.8492 102.19L77.0492 105.24ZM81.2693 101.25C81.2493 101.53 81.1993 101.82 81.1093 102.1C81.0293 102.39 80.9093 102.66 80.7593 102.9C80.6093 103.15 80.4092 103.36 80.1792 103.53C79.9592 103.69 79.7492 103.8 79.5392 103.86C79.3392 103.92 79.1093 103.99 78.8593 104.06L75.2292 105.06L75.5093 103.98L79.0692 103C79.2392 102.95 79.3793 102.91 79.5193 102.87C79.6493 102.83 79.7693 102.77 79.8593 102.7C80.0293 102.56 80.1592 102.39 80.2192 102.18C80.2892 101.97 80.3393 101.74 80.3693 101.49L81.2593 101.25H81.2693Z" fill="#C2C2C2"/>
<path d="M85.4392 92.6799C85.4292 92.7399 85.3993 92.7999 85.3493 92.8599L82.0093 97.4999C81.9193 97.6199 81.7992 97.7099 81.6792 97.7399L77.0893 98.9999C76.9693 99.0299 76.8793 98.9999 76.8493 98.9099L75.6093 95.5299C75.5793 95.4399 75.6092 95.3199 75.6992 95.1999L79.0392 90.5599C79.1292 90.4399 79.2493 90.3499 79.3693 90.3199L83.9593 89.0599C84.0793 89.0299 84.1692 89.0599 84.1992 89.1499L85.4392 92.5299C85.4392 92.5299 85.4592 92.6299 85.4392 92.6799ZM81.6692 97.1299L84.7393 92.8699L83.5993 89.7699L79.3893 90.9299L76.3192 95.1899L77.4593 98.2899L81.6692 97.1299Z" fill="#C2C2C2"/>
<path d="M85.439 92.6798C85.429 92.7398 85.399 92.7998 85.349 92.8598L82.0091 97.4998C81.9191 97.6198 81.799 97.7098 81.679 97.7398L77.089 98.9998C76.969 99.0298 76.879 98.9997 76.849 98.9097C76.819 98.8197 76.849 98.6998 76.939 98.5798L80.279 93.9398C80.369 93.8198 80.489 93.7298 80.609 93.6998L85.199 92.4398C85.319 92.4098 85.409 92.4398 85.439 92.5298C85.459 92.5698 85.459 92.6298 85.439 92.6798ZM81.669 97.1298L84.459 93.2498L80.6291 94.2998L77.839 98.1798L81.669 97.1298Z" fill="#C2C2C2"/>
<path d="M85.4392 92.6799C85.4292 92.7399 85.3993 92.7999 85.3493 92.8599L82.0093 97.4999C81.9193 97.6199 81.7992 97.7099 81.6792 97.7399L77.0893 98.9999C76.9693 99.0299 76.8793 98.9999 76.8493 98.9099L75.6093 95.5299C75.5793 95.4399 75.6092 95.3199 75.6992 95.1999L79.0392 90.5599C79.1292 90.4399 79.2493 90.3499 79.3693 90.3199L83.9593 89.0599C84.0793 89.0299 84.1692 89.0599 84.1992 89.1499L85.4392 92.5299C85.4392 92.5299 85.4592 92.6299 85.4392 92.6799ZM81.6692 97.1299L84.7393 92.8699L83.5993 89.7699L79.3893 90.9299L76.3192 95.1899L77.4593 98.2899L81.6692 97.1299Z" fill="#C2C2C2"/>
<path d="M80.859 93.9397C80.849 93.9997 80.819 94.0597 80.769 94.1197L77.4289 98.7597C77.2989 98.9397 77.0789 99.0497 76.9489 98.9997C76.8189 98.9497 76.8189 98.7597 76.9489 98.5797L80.1489 94.1297L78.959 90.8897C78.909 90.7597 79.0189 90.5397 79.1989 90.3997C79.3789 90.2597 79.569 90.2597 79.619 90.3997L80.859 93.7797C80.859 93.7797 80.879 93.8797 80.859 93.9297V93.9397Z" fill="#C2C2C2"/>
<path d="M85.4395 92.6796C85.3895 92.8596 85.2094 93.0496 85.0294 93.0996L80.4395 94.3596C80.2595 94.4096 80.1495 94.2996 80.1995 94.1196C80.2495 93.9396 80.4295 93.7496 80.6095 93.6996L85.1995 92.4396C85.3795 92.3896 85.4895 92.4996 85.4395 92.6796Z" fill="#C2C2C2"/>
</svg>
