<svg width="57" height="82" viewBox="0 0 57 82" fill="none" xmlns="http://www.w3.org/2000/svg">
<path d="M8.20373 2.26978L1.94373 8.44977C1.17373 9.23977 0.793729 10.3998 1.11373 11.6198L15.9237 68.2997C16.7737 71.5397 19.2837 74.0897 22.5137 74.9797L45.3537 81.2498C46.5937 81.5898 47.7837 81.1997 48.5837 80.4097L54.8437 74.2297C54.0437 75.0197 52.8537 75.4198 51.6137 75.0698L48.7037 74.2698L28.7637 68.7897C25.5337 67.8997 23.0137 65.3497 22.1737 62.1097L8.13373 8.34973L7.37373 5.42975C7.05373 4.20975 7.44373 3.04977 8.20373 2.25977V2.26978Z" fill="white"/>
<path d="M51.6137 75.07L28.7737 68.79C25.5437 67.9 23.0237 65.36 22.1837 62.11L7.38374 5.43001C6.73374 2.94001 9.02374 0.690012 11.4937 1.37001L34.3337 7.65004C37.5637 8.54004 40.0837 11.08 40.9237 14.33L55.7237 71.01C56.3737 73.5 54.0837 75.75 51.6137 75.07Z" fill="white" stroke="#CCCCCC" stroke-width="0.75" stroke-miterlimit="10"/>
<path d="M48.2336 42.8096L14.7236 33.5996" stroke="#CCCCCC" stroke-width="0.75" stroke-miterlimit="10"/>
<path d="M36.8537 28.9303C35.1137 28.4503 34.0737 29.4803 34.5337 31.2303C34.9937 32.9803 36.7637 34.7703 38.4937 35.2503C40.2337 35.7303 41.2737 34.7003 40.8237 32.9603C40.3737 31.2203 38.5936 29.4103 36.8636 28.9403L36.8537 28.9303Z" fill="#EBEBEB" stroke="#CCCCCC" stroke-width="0.75" stroke-linecap="round" stroke-linejoin="round"/>
<path d="M15.6837 7.44003C13.9437 6.96003 12.9037 7.99002 13.3637 9.74002C13.8237 11.49 15.6037 13.29 17.3337 13.77C19.0737 14.25 20.1137 13.22 19.6537 11.47C19.1937 9.72 17.4237 7.91003 15.6837 7.44003Z" fill="#EBEBEB" stroke="#CCCCCC" stroke-width="0.75" stroke-linecap="round" stroke-linejoin="round"/>
<path d="M38.9337 48.06C39.3937 49.81 41.1737 51.6101 42.9137 52.0901C44.6537 52.5701 45.6837 51.54 45.2237 49.79C44.7637 48.04 42.9837 46.24 41.2437 45.77C39.5037 45.29 38.4737 46.32 38.9337 48.07V48.06Z" fill="#EBEBEB" stroke="#CCCCCC" stroke-width="0.75" stroke-linecap="round" stroke-linejoin="round"/>
<path d="M22.1637 43.45C22.6237 45.2 24.4037 47 26.1337 47.47C27.8637 47.94 28.9037 46.92 28.4537 45.17C27.9937 43.43 26.2137 41.63 24.4837 41.15C22.7537 40.67 21.7137 41.7 22.1637 43.44V43.45Z" fill="#EBEBEB" stroke="#CCCCCC" stroke-width="0.75" stroke-linecap="round" stroke-linejoin="round"/>
<path d="M43.3837 64.95C43.8437 66.7 45.6337 68.51 47.3737 68.99C49.1137 69.47 50.1537 68.43 49.6837 66.68C49.2237 64.93 47.4337 63.12 45.6937 62.64C43.9537 62.16 42.9137 63.19 43.3837 64.95Z" fill="#EBEBEB" stroke="#CCCCCC" stroke-width="0.75" stroke-linecap="round" stroke-linejoin="round"/>
<path d="M26.5837 60.3401C27.0437 62.0901 28.8237 63.9 30.5637 64.38C32.3037 64.86 33.3437 63.82 32.8837 62.07C32.4237 60.32 30.6437 58.5101 28.9037 58.0301C27.1637 57.5501 26.1237 58.58 26.5837 60.33V60.3401Z" fill="#EBEBEB" stroke="#CCCCCC" stroke-width="0.75" stroke-linecap="round" stroke-linejoin="round"/>
<path d="M18.2939 72.4996C19.4339 73.6696 20.8839 74.5296 22.5139 74.9796L45.354 81.2496C46.584 81.5996 47.7839 81.1995 48.5839 80.4095L54.8439 74.2296C54.0439 75.0196 52.8539 75.4196 51.6139 75.0696L48.7039 74.2696L28.7739 68.7896C27.1539 68.3496 25.7039 67.4796 24.5539 66.3096L18.2939 72.4996Z" fill="#EBEBEB"/>
<path d="M8.20373 2.26978L1.94373 8.44977C1.17373 9.23977 0.793729 10.3998 1.11373 11.6198L15.9237 68.2997C16.7737 71.5397 19.2837 74.0897 22.5137 74.9797L45.3537 81.2498C46.5937 81.5898 47.7837 81.1997 48.5837 80.4097L54.8437 74.2297C54.0437 75.0197 52.8537 75.4198 51.6137 75.0698L48.7037 74.2698L28.7637 68.7897C25.5337 67.8997 23.0137 65.3497 22.1737 62.1097L8.13373 8.34973L7.37373 5.42975C7.05373 4.20975 7.44373 3.04977 8.20373 2.25977V2.26978Z" stroke="#CCCCCC" stroke-width="0.75" stroke-miterlimit="10"/>
</svg>
