<svg width="176" height="217" viewBox="0 0 176 217" fill="none" xmlns="http://www.w3.org/2000/svg">
<path d="M173.12 198.81L157.85 214.28C156.56 215.58 154.63 216.25 152.6 215.73L53.3102 189.79C47.6602 188.32 43.2302 183.94 41.6802 178.31L0.910163 29.8897C-0.199837 25.8497 1.08016 21.9597 3.67016 19.3497L18.9402 3.87973C16.3602 6.49973 15.0702 10.3797 16.1802 14.4197L56.9502 162.84C58.4902 168.47 62.9302 172.85 68.5802 174.32L167.87 200.26C169.9 200.79 171.84 200.12 173.12 198.81Z" fill="white"/>
<path d="M133.72 45.1097L160.9 144.06L43.3602 113.36L16.1801 14.3997C13.9601 6.30971 21.3202 -1.14028 29.4402 0.96972L110.47 22.1397C121.77 25.0897 130.63 33.8397 133.72 45.0997V45.1097Z" fill="white" stroke="#CCCCCC" stroke-width="0.75" stroke-linecap="round" stroke-linejoin="round"/>
<path d="M160.9 144.07L174.49 193.55C175.6 197.59 171.92 201.32 167.86 200.26L68.5704 174.32C62.9204 172.84 58.4904 168.47 56.9404 162.84L43.3604 113.37L160.9 144.07Z" fill="white" stroke="#CCCCCC" stroke-width="0.75" stroke-linecap="round" stroke-linejoin="round"/>
<path d="M17.9301 13.9297C17.0601 10.7697 17.9201 7.47973 20.2201 5.14973C22.5301 2.80973 25.8001 1.91973 28.9701 2.74973L110 23.9197C115.23 25.2897 120.04 28.0197 123.89 31.8197C127.74 35.6197 130.53 40.3897 131.97 45.6097L158.32 141.53L44.8401 111.89L17.9301 13.9397V13.9297Z" fill="white" stroke="#CCCCCC" stroke-width="0.75" stroke-linecap="round" stroke-linejoin="round"/>
<path d="M133.72 45.1097C133.43 44.0497 133.09 43.0097 132.7 42.0097C132.43 41.3397 132.16 40.6797 131.86 40.0297C131.56 39.3797 131.24 38.7397 130.9 38.1197C129.36 35.2997 127.43 32.7497 125.17 30.5197C124.42 29.7797 123.63 29.0697 122.81 28.3997C122.26 27.9597 121.7 27.5297 121.12 27.1197C120.54 26.7097 119.96 26.3197 119.35 25.9397C119.05 25.7597 118.75 25.5797 118.44 25.3997C117.82 25.0497 117.19 24.7097 116.55 24.3997C115.91 24.0897 115.26 23.7997 114.59 23.5197C113.26 22.9797 111.88 22.5197 110.47 22.1497L29.4301 0.979737C25.4001 -0.0702632 21.5501 1.23973 18.9801 3.81973C18.9601 3.82973 18.9401 3.84972 18.9301 3.86972C18.8201 3.97972 18.7201 4.08974 18.6101 4.19974C18.3901 4.44974 18.1601 4.71973 17.9501 4.99973C17.9401 5.01973 17.9301 5.02971 17.9201 5.04971C17.7101 5.32971 17.5201 5.61973 17.3401 5.90973C17.2601 6.04973 17.1802 6.17973 17.1002 6.31973C17.1002 6.31973 17.1002 6.32305 17.1002 6.32971C17.1002 6.32971 17.0901 6.35972 17.0901 6.36972C17.0101 6.49972 16.9401 6.64973 16.8701 6.78973C16.7201 7.10973 16.5801 7.42974 16.4501 7.75974C16.3901 7.93974 16.3301 8.11973 16.2701 8.28973C16.1501 8.68973 16.0501 9.08973 15.9801 9.49973C15.9201 9.75973 15.8801 10.0297 15.8601 10.2997C15.7101 11.6197 15.8001 13.0097 16.1901 14.4097L18.7301 23.6497L43.3701 113.36L160.91 144.07L133.73 45.1097H133.72ZM20.2801 8.13974C20.6001 7.49974 21.0201 6.91972 21.5401 6.39972C21.8901 6.03972 22.2601 5.73973 22.6601 5.46973C22.9901 5.24973 23.3401 5.05972 23.7001 4.89972C23.9801 4.76972 24.2701 4.65973 24.5601 4.56973C25.8201 4.18973 27.1801 4.14973 28.5201 4.49973L40.0201 7.49973L109.55 25.6597C114.48 26.9497 118.99 29.5197 122.62 33.0997C126.25 36.6797 128.87 41.1597 130.22 46.0697L154.9 135.93C155.27 137.28 154.04 138.52 152.69 138.17L49.3502 111.18C47.4702 110.68 45.9901 109.23 45.4701 107.35L22.7701 24.7097L19.7501 13.7197C19.2301 11.8297 19.4201 9.81974 20.2801 8.13974Z" fill="white" stroke="#CCCCCC" stroke-width="0.75" stroke-linecap="round" stroke-linejoin="round"/>
<path d="M109.61 155.98C111.64 163.39 107.66 167.92 100.7 166.11L81.8101 161.17C74.8501 159.35 67.5701 151.87 65.5301 144.46C63.5001 137.05 67.4801 132.52 74.4401 134.33L93.3301 139.26C100.29 141.08 107.57 148.56 109.61 155.97V155.98Z" fill="#F5F5F5" stroke="#CCCCCC" stroke-width="0.75" stroke-miterlimit="10"/>
<path d="M85.3701 152.15L83.7701 153.77C82.9501 154.6 81.6301 154.89 79.9701 154.46C76.4901 153.55 72.8501 149.81 71.8401 146.11C71.3101 144.17 71.6001 142.63 72.4901 141.73L74.0801 140.12C73.8101 140.39 73.6001 140.73 73.4401 141.11C73.0801 141.99 73.0501 143.14 73.4301 144.49C74.4401 148.19 78.0901 151.93 81.5601 152.84C82.6901 153.13 83.6501 153.09 84.4001 152.78C84.7701 152.64 85.0901 152.43 85.3601 152.16L85.3701 152.15Z" fill="#EBEBEB" stroke="#CCCCCC" stroke-width="0.75" stroke-miterlimit="10"/>
<path d="M86.02 147.779C87.04 151.479 85.04 153.749 81.57 152.839C78.09 151.929 74.45 148.189 73.43 144.489C72.41 140.789 74.41 138.519 77.88 139.429C81.36 140.339 85 144.079 86.02 147.779Z" fill="white" stroke="#CCCCCC" stroke-width="0.75" stroke-miterlimit="10"/>
<path d="M104.26 157.09L102.66 158.71C101.84 159.54 100.52 159.83 98.8601 159.4C95.3801 158.49 91.7401 154.75 90.7301 151.05C90.2001 149.11 90.4902 147.57 91.3802 146.67L92.9701 145.06C92.7001 145.33 92.4902 145.67 92.3302 146.05C91.9702 146.93 91.9402 148.08 92.3202 149.43C93.3302 153.13 96.9801 156.87 100.45 157.78C101.58 158.07 102.54 158.03 103.29 157.72C103.66 157.58 103.98 157.37 104.25 157.1L104.26 157.09Z" fill="#EBEBEB" stroke="#CCCCCC" stroke-width="0.75" stroke-miterlimit="10"/>
<path d="M104.92 152.71C105.94 156.41 103.94 158.68 100.47 157.77C96.9904 156.86 93.3504 153.12 92.3304 149.42C91.3104 145.72 93.3104 143.45 96.7804 144.36C100.26 145.27 103.9 149.01 104.92 152.71Z" fill="white" stroke="#CCCCCC" stroke-width="0.75" stroke-miterlimit="10"/>
<path d="M39.4702 5.47974L38.9202 3.46973L29.4301 0.979737C25.4001 -0.0702632 21.5501 1.23973 18.9801 3.81973C18.9601 3.82973 18.9401 3.84972 18.9301 3.86972C18.8201 3.97972 18.7202 4.08974 18.6102 4.19974C18.3902 4.44974 18.1601 4.71973 17.9501 4.99973C17.9401 5.01973 17.9302 5.02971 17.9202 5.04971C17.7102 5.31971 17.5202 5.60972 17.3502 5.89972C17.2702 6.03972 17.1902 6.16972 17.1102 6.30972C17.1102 6.30972 17.1102 6.31307 17.1102 6.31973C17.0302 6.46973 16.9502 6.61972 16.8802 6.77972C16.7302 7.09972 16.5902 7.41973 16.4602 7.74973C16.4002 7.92973 16.3402 8.10972 16.2802 8.27972C16.1202 8.77972 16.0002 9.29973 15.9202 9.81973V9.83972C15.9002 9.98972 15.8801 10.1397 15.8701 10.2897C15.8701 10.3197 15.8701 10.3397 15.8701 10.3697C15.8401 10.6697 15.8202 10.9597 15.8102 11.2597C15.8102 11.2997 15.8102 11.3297 15.8102 11.3697C15.8102 11.6797 15.8101 11.9797 15.8401 12.2897C15.8401 12.3297 15.8402 12.3697 15.8502 12.4097C15.9102 13.0597 16.0101 13.7197 16.2001 14.3897L18.7402 23.6397H18.7502L20.7802 24.1697L22.8002 24.6997L19.7802 13.7097C19.2702 11.8297 19.4502 9.81973 20.3102 8.12973C20.6302 7.48973 21.0502 6.90974 21.5702 6.38974C21.9202 6.03974 22.2902 5.72972 22.6902 5.45972C23.0202 5.23972 23.3701 5.04974 23.7301 4.88974C24.0101 4.75974 24.3001 4.64972 24.5901 4.55972C25.8501 4.16972 27.2101 4.13974 28.5401 4.47974L40.0502 7.48972L39.5002 5.46973L39.4702 5.47974Z" fill="white"/>
<path d="M133.72 45.1097C133.43 44.0497 133.09 43.0097 132.7 42.0097C132.43 41.3397 132.16 40.6797 131.86 40.0297C131.56 39.3797 131.24 38.7397 130.9 38.1197C129.36 35.2997 127.43 32.7497 125.17 30.5197C124.42 29.7797 123.63 29.0697 122.81 28.3997C122.26 27.9597 121.7 27.5297 121.12 27.1197C120.54 26.7097 119.96 26.3197 119.35 25.9397C119.05 25.7597 118.75 25.5797 118.44 25.3997C117.82 25.0497 117.19 24.7097 116.55 24.3997C115.91 24.0897 115.26 23.7997 114.59 23.5197C113.26 22.9797 111.88 22.5197 110.47 22.1497L29.4301 0.979737C25.4001 -0.0702632 21.5501 1.23973 18.9801 3.81973C18.9601 3.82973 18.9401 3.84972 18.9301 3.86972C18.8201 3.97972 18.7201 4.08974 18.6101 4.19974C18.3901 4.44974 18.1601 4.71973 17.9501 4.99973C17.9401 5.01973 17.9301 5.02971 17.9201 5.04971C17.7101 5.32971 17.5201 5.61973 17.3401 5.90973C17.2601 6.04973 17.1802 6.17973 17.1002 6.31973C17.1002 6.31973 17.1002 6.32305 17.1002 6.32971C17.1002 6.32971 17.0901 6.35972 17.0901 6.36972C17.0101 6.49972 16.9401 6.64973 16.8701 6.78973C16.7201 7.10973 16.5801 7.42974 16.4501 7.75974C16.3901 7.93974 16.3301 8.11973 16.2701 8.28973C16.1501 8.68973 16.0501 9.08973 15.9801 9.49973C15.9201 9.75973 15.8801 10.0297 15.8601 10.2997C15.7101 11.6197 15.8001 13.0097 16.1901 14.4097L18.7301 23.6497L43.3701 113.36L160.91 144.07L133.73 45.1097H133.72ZM20.2801 8.13974C20.6001 7.49974 21.0201 6.91972 21.5401 6.39972C21.8901 6.03972 22.2601 5.73973 22.6601 5.46973C22.9901 5.24973 23.3401 5.05972 23.7001 4.89972C23.9801 4.76972 24.2701 4.65973 24.5601 4.56973C25.8201 4.18973 27.1801 4.14973 28.5201 4.49973L40.0201 7.49973L109.55 25.6597C114.48 26.9497 118.99 29.5197 122.62 33.0997C126.25 36.6797 128.87 41.1597 130.22 46.0697L154.9 135.93C155.27 137.28 154.04 138.52 152.69 138.17L49.3502 111.18C47.4702 110.68 45.9901 109.23 45.4701 107.35L22.7701 24.7097L19.7501 13.7197C19.2301 11.8297 19.4201 9.81974 20.2801 8.13974Z" stroke="#CCCCCC" stroke-width="0.75" stroke-linecap="round" stroke-linejoin="round"/>
<path d="M173.12 198.81L157.85 214.28C156.56 215.58 154.62 216.25 152.59 215.72L53.3002 189.78C52.3002 189.52 51.3401 189.17 50.4301 188.72L65.6902 173.26C66.6002 173.7 67.5702 174.05 68.5702 174.31L167.87 200.26C169.9 200.78 171.83 200.12 173.12 198.81Z" fill="#EBEBEB"/>
<path d="M62.0101 170.87L46.7402 186.33C45.6402 185.38 44.6802 184.3 43.8802 183.1L59.1501 167.63C59.9601 168.83 60.9201 169.92 62.0101 170.87Z" fill="#EBEBEB"/>
<path d="M173.12 198.81L157.85 214.28C156.56 215.58 154.63 216.25 152.6 215.73L53.3102 189.79C47.6602 188.32 43.2302 183.94 41.6802 178.31L0.910163 29.8897C-0.199837 25.8497 1.08016 21.9597 3.67016 19.3497L18.9402 3.87973C16.3602 6.49973 15.0702 10.3797 16.1802 14.4197L56.9502 162.84C58.4902 168.47 62.9302 172.85 68.5802 174.32L167.87 200.26C169.9 200.79 171.84 200.12 173.12 198.81Z" stroke="#CCCCCC" stroke-width="0.75" stroke-linecap="round" stroke-linejoin="round"/>
<path d="M134.72 153.36L132.79 146.32C132.58 145.57 132.99 145.11 133.69 145.3L139.55 146.83C140.25 147.01 140.99 147.77 141.2 148.52L143.13 155.56C143.23 155.92 143.19 156.23 143.02 156.42L140.95 158.78C140.6 159.18 139.79 158.97 139.15 158.31L135.36 154.42C135.05 154.1 134.82 153.72 134.72 153.36Z" fill="white" stroke="#CCCCCC" stroke-width="0.75" stroke-linecap="round" stroke-linejoin="round"/>
<path d="M148.96 167.97L155.57 169.7C156.27 169.88 156.68 169.43 156.47 168.68L154.75 162.44C154.54 161.69 153.81 160.93 153.1 160.75L146.49 159.02C146.15 158.93 145.87 158.99 145.7 159.18L143.63 161.54C143.28 161.94 143.51 162.8 144.16 163.46L147.95 167.35C148.26 167.67 148.62 167.89 148.96 167.98V167.97Z" fill="white" stroke="#CCCCCC" stroke-width="0.75" stroke-linecap="round" stroke-linejoin="round"/>
<path d="M147.11 170.07L149.04 177.11C149.25 177.86 148.84 178.32 148.14 178.13L142.28 176.6C141.58 176.42 140.84 175.66 140.63 174.91L138.7 167.87C138.6 167.51 138.64 167.2 138.81 167.01L140.88 164.65C141.23 164.25 142.04 164.46 142.68 165.12L146.47 169.01C146.78 169.33 147.01 169.71 147.11 170.07Z" fill="white" stroke="#CCCCCC" stroke-width="0.75" stroke-linecap="round" stroke-linejoin="round"/>
<path d="M132.87 155.449L126.26 153.719C125.56 153.539 125.15 153.989 125.36 154.739L127.07 160.979C127.28 161.729 128.01 162.489 128.72 162.669L135.33 164.399C135.67 164.489 135.95 164.429 136.12 164.239L138.19 161.879C138.54 161.479 138.31 160.619 137.66 159.959L133.87 156.069C133.56 155.749 133.2 155.529 132.86 155.439L132.87 155.449Z" fill="white" stroke="#CCCCCC" stroke-width="0.75" stroke-linecap="round" stroke-linejoin="round"/>
<path d="M140.93 158.79L139.03 160.71C138.85 160.9 138.58 160.95 138.25 160.86C138.14 160.56 137.94 160.25 137.67 159.97L133.88 156.08C133.58 155.77 133.21 155.55 132.87 155.45H132.86C132.83 155.4 132.82 155.35 132.81 155.3L130.87 148.26C130.76 147.86 130.83 147.54 131.02 147.35L132.91 145.43C132.73 145.62 132.66 145.93 132.77 146.32L133.12 147.6L134.71 153.37C134.81 153.72 135.04 154.11 135.35 154.42L139.14 158.31C139.61 158.79 140.16 159.04 140.57 158.97C140.71 158.96 140.83 158.9 140.93 158.8V158.79Z" fill="#EBEBEB" stroke="#CCCCCC" stroke-width="0.75" stroke-linecap="round" stroke-linejoin="round"/>
<path d="M156.32 169.58L154.41 171.52C154.24 171.68 153.99 171.73 153.66 171.65L147.06 169.92C146.94 169.61 146.74 169.3 146.48 169.02L142.69 165.13C142.37 164.8 142 164.58 141.67 164.5C141.51 164.09 141.52 163.71 141.72 163.48L143.79 161.12L145.71 159.18L144.17 160.94L143.63 161.55C143.28 161.94 143.52 162.8 144.16 163.47L147.95 167.36C148.26 167.68 148.63 167.9 148.96 167.99L154.2 169.36L155.56 169.72C155.89 169.8 156.14 169.75 156.31 169.59L156.32 169.58Z" fill="#EBEBEB" stroke="#CCCCCC" stroke-width="0.75" stroke-linecap="round" stroke-linejoin="round"/>
<path d="M136.1 164.28L134.21 166.19C134.04 166.38 133.76 166.44 133.42 166.36L126.81 164.63C126.11 164.45 125.37 163.69 125.16 162.94L123.45 156.69C123.34 156.29 123.41 155.97 123.6 155.79L125.5 153.87C125.32 154.06 125.25 154.37 125.36 154.76L125.71 156.04L127.08 161.01C127.28 161.76 128.03 162.52 128.73 162.7L135.34 164.43C135.49 164.47 135.63 164.47 135.75 164.45C135.89 164.44 136.01 164.38 136.1 164.29V164.28Z" fill="#EBEBEB" stroke="#CCCCCC" stroke-width="0.75" stroke-linecap="round" stroke-linejoin="round"/>
<path d="M148.91 177.989L147 179.929C146.83 180.099 146.57 180.159 146.23 180.079L140.37 178.539C139.66 178.349 138.93 177.599 138.72 176.849L136.78 169.809C136.68 169.459 136.72 169.139 136.89 168.949L138.96 166.589L140.87 164.649L139.33 166.399L138.79 167.009C138.62 167.199 138.59 167.509 138.68 167.869L140.62 174.909C140.82 175.659 141.56 176.409 142.27 176.599L146.76 177.769L148.13 178.129C148.46 178.219 148.73 178.159 148.89 177.989H148.91Z" fill="#EBEBEB" stroke="#CCCCCC" stroke-width="0.75" stroke-linecap="round" stroke-linejoin="round"/>
</svg>
