<svg width="528" height="323" viewBox="0 0 528 323" fill="none" xmlns="http://www.w3.org/2000/svg">
<mask id="mask0_226_3058" style="mask-type:luminance" maskUnits="userSpaceOnUse" x="1" y="114" width="186" height="108">
<path d="M94.3479 221.071C145.537 220.749 186.884 196.537 186.698 166.992C186.513 137.447 144.865 113.757 93.6755 114.078C42.4861 114.4 1.13949 138.612 1.32518 168.157C1.51088 197.702 43.1586 221.392 94.3479 221.071Z" fill="white"/>
</mask>
<g mask="url(#mask0_226_3058)">
<path d="M2.87925 137.887L-101.769 168.253" stroke="#EBEBEB" stroke-width="0.75" stroke-miterlimit="10"/>
<path d="M8.66874 141.23L-95.9736 171.596" stroke="#EBEBEB" stroke-width="0.75" stroke-miterlimit="10"/>
<path d="M14.4638 144.573L-90.1785 174.939" stroke="#EBEBEB" stroke-width="0.75" stroke-miterlimit="10"/>
<path d="M20.2591 147.924L-84.3894 178.283" stroke="#EBEBEB" stroke-width="0.75" stroke-miterlimit="10"/>
<path d="M26.0548 151.267L-78.5937 181.626" stroke="#EBEBEB" stroke-width="0.75" stroke-miterlimit="10"/>
<path d="M31.8438 154.609L-72.7986 184.969" stroke="#EBEBEB" stroke-width="0.75" stroke-miterlimit="10"/>
<path d="M37.6388 157.953L-67.0035 188.318" stroke="#EBEBEB" stroke-width="0.75" stroke-miterlimit="10"/>
<path d="M43.4342 161.295L-61.2144 191.661" stroke="#EBEBEB" stroke-width="0.75" stroke-miterlimit="10"/>
<path d="M49.2298 164.638L-55.4187 195.004" stroke="#EBEBEB" stroke-width="0.75" stroke-miterlimit="10"/>
<path d="M55.0188 167.981L-49.6237 198.347" stroke="#EBEBEB" stroke-width="0.75" stroke-miterlimit="10"/>
<path d="M66.9677 84.1104L-37.6808 114.476" stroke="#EBEBEB" stroke-width="0.75" stroke-miterlimit="10"/>
<path d="M72.7628 87.4531L-31.8857 117.819" stroke="#EBEBEB" stroke-width="0.75" stroke-miterlimit="10"/>
<path d="M78.5523 90.8042L-26.09 121.164" stroke="#EBEBEB" stroke-width="0.75" stroke-miterlimit="10"/>
<path d="M84.3474 94.147L-20.295 124.507" stroke="#EBEBEB" stroke-width="0.75" stroke-miterlimit="10"/>
<path d="M90.1427 97.4897L-14.5059 127.856" stroke="#EBEBEB" stroke-width="0.75" stroke-miterlimit="10"/>
<path d="M95.9378 100.833L-8.71082 131.199" stroke="#EBEBEB" stroke-width="0.75" stroke-miterlimit="10"/>
<path d="M101.727 104.176L-2.9151 134.542" stroke="#EBEBEB" stroke-width="0.75" stroke-miterlimit="10"/>
<path d="M107.522 107.519L2.88 137.884" stroke="#EBEBEB" stroke-width="0.75" stroke-miterlimit="10"/>
<path d="M113.318 110.867L8.66913 141.226" stroke="#EBEBEB" stroke-width="0.75" stroke-miterlimit="10"/>
<path d="M119.113 114.212L14.4648 144.572" stroke="#EBEBEB" stroke-width="0.75" stroke-miterlimit="10"/>
<path d="M124.902 117.555L20.2599 147.921" stroke="#EBEBEB" stroke-width="0.75" stroke-miterlimit="10"/>
<path d="M130.698 120.898L26.0556 151.264" stroke="#EBEBEB" stroke-width="0.75" stroke-miterlimit="10"/>
<path d="M136.493 124.241L31.8448 154.607" stroke="#EBEBEB" stroke-width="0.75" stroke-miterlimit="10"/>
<path d="M142.288 127.584L37.6398 157.95" stroke="#EBEBEB" stroke-width="0.75" stroke-miterlimit="10"/>
<path d="M148.077 130.927L43.4349 161.293" stroke="#EBEBEB" stroke-width="0.75" stroke-miterlimit="10"/>
<path d="M153.873 134.278L49.2306 164.637" stroke="#EBEBEB" stroke-width="0.75" stroke-miterlimit="10"/>
<path d="M159.668 137.621L55.0198 167.98" stroke="#EBEBEB" stroke-width="0.75" stroke-miterlimit="10"/>
<path d="M223.756 83.8462L119.114 114.212" stroke="#EBEBEB" stroke-width="0.75" stroke-miterlimit="10"/>
<path d="M229.551 87.189L124.903 117.555" stroke="#EBEBEB" stroke-width="0.75" stroke-miterlimit="10"/>
<path d="M235.347 90.5317L130.698 120.898" stroke="#EBEBEB" stroke-width="0.75" stroke-miterlimit="10"/>
<path d="M241.136 93.8774L136.493 124.243" stroke="#EBEBEB" stroke-width="0.75" stroke-miterlimit="10"/>
<path d="M246.931 97.2256L142.289 127.585" stroke="#EBEBEB" stroke-width="0.75" stroke-miterlimit="10"/>
<path d="M252.726 100.568L148.078 130.928" stroke="#EBEBEB" stroke-width="0.75" stroke-miterlimit="10"/>
<path d="M258.522 103.912L153.873 134.277" stroke="#EBEBEB" stroke-width="0.75" stroke-miterlimit="10"/>
<path d="M264.311 107.254L159.668 137.62" stroke="#EBEBEB" stroke-width="0.75" stroke-miterlimit="10"/>
<path d="M55.0197 167.98L-49.6227 198.346" stroke="#EBEBEB" stroke-width="0.75" stroke-miterlimit="10"/>
<path d="M60.8149 171.328L-43.8275 201.688" stroke="#EBEBEB" stroke-width="0.75" stroke-miterlimit="10"/>
<path d="M66.6103 174.673L-38.0383 205.033" stroke="#EBEBEB" stroke-width="0.75" stroke-miterlimit="10"/>
<path d="M72.4059 178.017L-32.2426 208.382" stroke="#EBEBEB" stroke-width="0.75" stroke-miterlimit="10"/>
<path d="M78.1949 181.359L-26.4476 211.725" stroke="#EBEBEB" stroke-width="0.75" stroke-miterlimit="10"/>
<path d="M83.9905 184.702L-20.6519 215.068" stroke="#EBEBEB" stroke-width="0.75" stroke-miterlimit="10"/>
<path d="M89.7859 188.045L-14.8627 218.411" stroke="#EBEBEB" stroke-width="0.75" stroke-miterlimit="10"/>
<path d="M95.5809 191.388L-9.06763 221.754" stroke="#EBEBEB" stroke-width="0.75" stroke-miterlimit="10"/>
<path d="M101.37 194.739L-3.27197 225.098" stroke="#EBEBEB" stroke-width="0.75" stroke-miterlimit="10"/>
<path d="M107.166 198.082L2.52313 228.442" stroke="#EBEBEB" stroke-width="0.75" stroke-miterlimit="10"/>
<path d="M112.961 201.425L8.31226 231.791" stroke="#EBEBEB" stroke-width="0.75" stroke-miterlimit="10"/>
<path d="M118.756 204.768L14.1073 235.133" stroke="#EBEBEB" stroke-width="0.75" stroke-miterlimit="10"/>
<path d="M124.545 208.111L19.903 238.477" stroke="#EBEBEB" stroke-width="0.75" stroke-miterlimit="10"/>
<path d="M130.34 211.454L25.6981 241.819" stroke="#EBEBEB" stroke-width="0.75" stroke-miterlimit="10"/>
<path d="M136.136 214.796L31.4938 245.162" stroke="#EBEBEB" stroke-width="0.75" stroke-miterlimit="10"/>
<path d="M141.931 218.147L37.283 248.507" stroke="#EBEBEB" stroke-width="0.75" stroke-miterlimit="10"/>
<path d="M159.668 137.621L55.0194 167.981" stroke="#EBEBEB" stroke-width="0.75" stroke-miterlimit="10"/>
<path d="M165.463 140.964L60.8145 171.33" stroke="#EBEBEB" stroke-width="0.75" stroke-miterlimit="10"/>
<path d="M171.253 144.307L66.6102 174.673" stroke="#EBEBEB" stroke-width="0.75" stroke-miterlimit="10"/>
<path d="M177.048 147.65L72.4053 178.016" stroke="#EBEBEB" stroke-width="0.75" stroke-miterlimit="10"/>
<path d="M182.843 150.993L78.1945 181.359" stroke="#EBEBEB" stroke-width="0.75" stroke-miterlimit="10"/>
<path d="M188.639 154.338L83.9902 184.704" stroke="#EBEBEB" stroke-width="0.75" stroke-miterlimit="10"/>
<path d="M194.428 157.687L89.7852 188.046" stroke="#EBEBEB" stroke-width="0.75" stroke-miterlimit="10"/>
<path d="M200.223 161.03L95.5809 191.389" stroke="#EBEBEB" stroke-width="0.75" stroke-miterlimit="10"/>
<path d="M206.019 164.373L101.37 194.738" stroke="#EBEBEB" stroke-width="0.75" stroke-miterlimit="10"/>
<path d="M211.814 167.715L107.165 198.081" stroke="#EBEBEB" stroke-width="0.75" stroke-miterlimit="10"/>
<path d="M217.603 171.059L112.96 201.424" stroke="#EBEBEB" stroke-width="0.75" stroke-miterlimit="10"/>
<path d="M223.398 174.401L118.756 204.767" stroke="#EBEBEB" stroke-width="0.75" stroke-miterlimit="10"/>
<path d="M229.194 177.747L124.545 208.113" stroke="#EBEBEB" stroke-width="0.75" stroke-miterlimit="10"/>
<path d="M234.989 181.095L130.34 211.455" stroke="#EBEBEB" stroke-width="0.75" stroke-miterlimit="10"/>
<path d="M240.778 184.438L136.136 214.798" stroke="#EBEBEB" stroke-width="0.75" stroke-miterlimit="10"/>
<path d="M246.573 187.781L141.931 218.147" stroke="#EBEBEB" stroke-width="0.75" stroke-miterlimit="10"/>
<path d="M252.369 191.124L147.727 221.49" stroke="#EBEBEB" stroke-width="0.75" stroke-miterlimit="10"/>
<path d="M258.164 194.467L153.516 224.833" stroke="#EBEBEB" stroke-width="0.75" stroke-miterlimit="10"/>
<path d="M263.959 197.812L159.311 228.178" stroke="#EBEBEB" stroke-width="0.75" stroke-miterlimit="10"/>
<path d="M269.748 201.155L165.106 231.521" stroke="#EBEBEB" stroke-width="0.75" stroke-miterlimit="10"/>
<path d="M275.544 204.503L170.902 234.863" stroke="#EBEBEB" stroke-width="0.75" stroke-miterlimit="10"/>
<path d="M281.339 207.846L176.691 238.206" stroke="#EBEBEB" stroke-width="0.75" stroke-miterlimit="10"/>
<path d="M287.134 211.189L182.486 241.555" stroke="#EBEBEB" stroke-width="0.75" stroke-miterlimit="10"/>
<path d="M264.311 107.255L159.668 137.621" stroke="#EBEBEB" stroke-width="0.75" stroke-miterlimit="10"/>
<path d="M270.106 110.598L165.463 140.963" stroke="#EBEBEB" stroke-width="0.75" stroke-miterlimit="10"/>
<path d="M275.901 113.941L171.252 144.307" stroke="#EBEBEB" stroke-width="0.75" stroke-miterlimit="10"/>
<path d="M281.697 117.284L177.048 147.649" stroke="#EBEBEB" stroke-width="0.75" stroke-miterlimit="10"/>
<path d="M287.486 120.634L182.843 150.994" stroke="#EBEBEB" stroke-width="0.75" stroke-miterlimit="10"/>
</g>
<path d="M447.846 189.465L241.585 70.4151C240.126 69.5716 238.204 69.1652 236.283 69.1837H219.796V77.0091L103.803 143.959C100.921 145.621 100.902 148.312 103.766 149.962L298.326 262.258V270.218H314.437C316.568 270.348 318.785 269.935 320.429 268.987L447.809 195.461C450.692 193.799 450.71 191.109 447.846 189.459V189.465Z" fill="#F5F5F5"/>
<path d="M167.28 167.429L169.294 164.025L163.364 165.201L162.28 162.775L168.401 162.079L163.715 159.733L166.782 157.936L170.883 160.645L172.127 157.117L176.291 157.751L174.258 161.156L180.189 159.98L181.273 162.412L175.17 163.114L179.844 165.459L176.777 167.251L172.675 164.542L171.45 168.07L167.287 167.436L167.28 167.429Z" fill="#FAFAFA"/>
<path d="M431.365 191.183L303.985 264.709C301.103 266.371 296.441 266.384 293.583 264.734L87.3222 145.684C84.4584 144.034 84.4769 141.343 87.3592 139.681L174.018 89.6625L265.567 89.4717L431.402 185.187C434.266 186.837 434.248 189.527 431.365 191.19V191.183Z" fill="white"/>
<mask id="mask1_226_3058" style="mask-type:luminance" maskUnits="userSpaceOnUse" x="85" y="64" width="349" height="202">
<path d="M431.365 191.179L303.985 264.705C301.102 266.367 296.44 266.38 293.583 264.73L87.3218 145.68C84.458 144.03 84.4765 141.339 87.3588 139.677L214.739 66.1515C217.621 64.4891 222.283 64.4768 225.141 66.1268L431.402 185.176C434.266 186.826 434.247 189.517 431.365 191.179Z" fill="white"/>
</mask>
<g mask="url(#mask1_226_3058)">
<path d="M269.447 253.755L320.558 227.81L253.705 220.31L266.466 193.897L330.566 206.538L308.672 169.541L354.468 162.159L367.456 200.744L412.415 171.246L445.549 190.37L394.308 216.241L461.161 223.74L448.388 250.178L384.399 237.605L406.182 274.54L360.405 281.898L347.416 243.313L302.587 272.884L269.453 253.761L269.447 253.755Z" fill="#F5F5F5"/>
</g>
<path d="M265.567 89.4585L174.018 89.6494L214.739 66.1485C217.621 64.4862 222.284 64.4739 225.141 66.1239L265.567 89.4585Z" fill="#F5F5F5"/>
<path d="M295.338 106.642L144.031 106.956L161.239 97.0251L278.254 96.7788L295.338 106.642Z" fill="#F5F5F5"/>
<path d="M431.365 191.181L303.985 264.707C301.103 266.369 296.441 266.382 293.583 264.732L87.3222 145.682C84.4584 144.032 84.4769 141.341 87.3592 139.679L214.739 66.1534C217.622 64.4911 222.284 64.4788 225.141 66.1288L431.402 185.178C434.266 186.828 434.248 189.519 431.365 191.181Z" stroke="#CCCCCC" stroke-width="1.58" stroke-miterlimit="10"/>
<path d="M128.283 145.465L123.424 142.657L137.232 134.684L142.134 137.51C143.514 138.304 144.425 139.154 144.869 140.041C145.312 140.933 145.288 141.832 144.795 142.737C144.302 143.642 143.342 144.51 141.907 145.336C140.465 146.167 138.963 146.727 137.392 147.01C135.822 147.3 134.257 147.312 132.705 147.053C131.153 146.795 129.675 146.265 128.283 145.459V145.465ZM128.825 142.891L130.667 143.956C131.523 144.449 132.398 144.775 133.297 144.941C134.19 145.102 135.114 145.083 136.056 144.88C137.004 144.677 137.99 144.277 139.018 143.685C140.04 143.094 140.724 142.528 141.075 141.986C141.426 141.438 141.463 140.915 141.18 140.398C140.903 139.887 140.336 139.382 139.48 138.883L137.632 137.818L128.825 142.904V142.891Z" fill="#C2C2C2"/>
<path d="M141.562 153.363C140.502 152.754 139.813 152.101 139.486 151.411C139.16 150.722 139.191 150.026 139.579 149.33C139.967 148.635 140.706 147.97 141.796 147.335C142.861 146.72 144.001 146.301 145.22 146.073C146.433 145.846 147.64 145.815 148.835 145.987C150.03 146.16 151.139 146.535 152.142 147.12C152.82 147.514 153.343 147.939 153.713 148.407C154.082 148.875 154.267 149.355 154.273 149.86C154.273 150.365 154.07 150.876 153.657 151.399C153.245 151.922 152.598 152.44 151.717 152.944L150.929 153.4L142.245 148.388L144.025 147.36L150.024 150.82C150.436 150.58 150.714 150.322 150.855 150.032C150.997 149.743 151.003 149.46 150.868 149.17C150.738 148.881 150.461 148.622 150.048 148.382C149.617 148.13 149.131 147.97 148.601 147.89C148.072 147.816 147.542 147.816 147.018 147.902C146.495 147.988 146.027 148.148 145.614 148.382L143.921 149.361C143.409 149.657 143.058 149.964 142.88 150.291C142.695 150.617 142.677 150.937 142.824 151.257C142.972 151.578 143.28 151.873 143.76 152.144C144.075 152.329 144.413 152.47 144.764 152.569C145.115 152.667 145.479 152.723 145.848 152.723C146.212 152.723 146.581 152.68 146.938 152.587L149.402 154.213C148.632 154.502 147.801 154.668 146.914 154.705C146.027 154.742 145.128 154.65 144.216 154.422C143.305 154.2 142.424 153.843 141.574 153.351L141.562 153.363Z" fill="#C2C2C2"/>
<path d="M148.404 157.078L162.212 149.104L165.063 150.748L159.872 153.747L159.958 153.796C160.364 153.71 160.826 153.648 161.356 153.617C161.885 153.587 162.44 153.63 163.019 153.741C163.598 153.851 164.177 154.073 164.755 154.406C165.507 154.837 165.999 155.354 166.24 155.945C166.48 156.536 166.394 157.17 165.987 157.847C165.581 158.518 164.78 159.202 163.591 159.885C162.434 160.55 161.276 161.012 160.118 161.252C158.954 161.498 157.858 161.554 156.817 161.424C155.776 161.295 154.871 161.006 154.089 160.556C153.534 160.236 153.159 159.91 152.955 159.584C152.752 159.257 152.672 158.937 152.703 158.635C152.74 158.334 152.838 158.057 152.992 157.816L152.863 157.743L151.206 158.697L148.398 157.078H148.404ZM156.373 155.699C155.758 156.056 155.308 156.413 155.019 156.776C154.729 157.139 154.618 157.484 154.686 157.816C154.754 158.149 155.019 158.451 155.474 158.715C155.936 158.98 156.46 159.134 157.039 159.171C157.617 159.208 158.221 159.14 158.849 158.974C159.477 158.808 160.093 158.543 160.697 158.198C161.294 157.853 161.738 157.502 162.027 157.145C162.317 156.788 162.427 156.444 162.366 156.111C162.304 155.779 162.033 155.477 161.565 155.206C161.103 154.935 160.586 154.781 160.019 154.744C159.453 154.701 158.855 154.763 158.233 154.929C157.611 155.095 156.989 155.354 156.373 155.711V155.699Z" fill="#C2C2C2"/>
<path d="M173.451 158.032C173.026 157.785 172.804 157.496 172.786 157.157C172.767 156.819 172.958 156.535 173.359 156.301C173.759 156.068 174.252 155.963 174.843 155.969C175.434 155.975 175.933 156.104 176.358 156.351C176.783 156.597 177.005 156.886 177.023 157.225C177.042 157.564 176.851 157.847 176.45 158.075C176.05 158.309 175.557 158.419 174.972 158.407C174.387 158.395 173.882 158.272 173.457 158.025L173.451 158.032ZM160.327 163.954L170.686 157.976L173.537 159.62L163.178 165.598L160.327 163.954Z" fill="#C2C2C2"/>
<path d="M181.279 164.096L179.118 165.34L172.928 161.769L175.09 160.525L181.279 164.096ZM178.976 159.903L181.827 161.547L172.17 167.119C171.906 167.273 171.739 167.415 171.672 167.544C171.61 167.673 171.616 167.797 171.702 167.914C171.789 168.031 171.93 168.147 172.121 168.258C172.257 168.338 172.405 168.406 172.558 168.468C172.712 168.529 172.836 168.578 172.922 168.615L171.234 170.105C171.05 170.05 170.791 169.964 170.471 169.847C170.15 169.73 169.799 169.57 169.418 169.367C168.703 168.985 168.198 168.585 167.89 168.166C167.588 167.747 167.515 167.329 167.675 166.904C167.835 166.479 168.254 166.079 168.937 165.685L178.97 159.891L178.976 159.903Z" fill="#C2C2C2"/>
<path d="M184.13 177.931L189.421 175.247L182.498 174.471L183.822 171.737L190.462 173.049L188.195 169.219L192.937 168.456L194.28 172.451L198.936 169.398L202.366 171.38L197.064 174.058L203.986 174.834L202.662 177.574L196.035 176.275L198.289 180.098L193.547 180.862L192.204 176.866L187.561 179.926L184.13 177.943V177.931Z" fill="#C2C2C2"/>
<path d="M223.934 95.2597L218.459 92.1013C217.609 91.6087 217.517 90.8699 218.256 90.4451L218.465 90.3219C219.198 89.8971 220.485 89.9525 221.335 90.4389L226.81 93.5974C227.66 94.0899 227.753 94.8288 227.014 95.2536L226.804 95.3767C226.071 95.8015 224.784 95.7461 223.934 95.2597Z" fill="#C2C2C2"/>
<path d="M249.591 110.068L244.116 106.91C243.266 106.417 243.174 105.678 243.913 105.254L244.122 105.131C244.855 104.706 246.143 104.761 246.992 105.247L252.468 108.406C253.317 108.899 253.41 109.637 252.671 110.062L252.461 110.185C251.728 110.61 250.441 110.555 249.591 110.068Z" fill="#C2C2C2"/>
<path d="M241.172 101.896L232.618 96.9585C231.83 96.5029 230.549 96.5091 229.754 96.9585C228.96 97.4142 228.954 98.153 229.742 98.6086L238.296 103.546C239.085 104.002 240.366 103.996 241.16 103.546C241.955 103.091 241.961 102.352 241.172 101.896Z" fill="#C2C2C2"/>
<path d="M266.823 116.705L258.269 111.767C257.48 111.312 256.199 111.318 255.405 111.767C254.61 112.223 254.604 112.962 255.393 113.417L263.947 118.355C264.735 118.811 266.016 118.804 266.811 118.355C267.605 117.899 267.611 117.161 266.823 116.705Z" fill="#C2C2C2"/>
<path d="M433.534 188.159V192.462C433.534 193.546 432.813 194.636 431.36 195.467L303.985 269.005C301.097 270.655 296.441 270.673 293.571 269.023L87.3286 149.968C85.8936 149.155 85.1977 148.065 85.1977 146.981V142.696C85.1977 143.454 85.5303 144.186 86.2077 144.827C86.5157 145.134 86.8852 145.43 87.3347 145.682L293.577 264.72C296.447 266.388 301.103 266.37 303.991 264.701L431.366 191.182C431.834 190.911 432.222 190.621 432.53 190.307C433.207 189.649 433.54 188.891 433.54 188.153L433.534 188.159Z" fill="white" stroke="#CCCCCC" stroke-width="1.58" stroke-miterlimit="10"/>
<path d="M316.302 188.382L307.711 193.302C306.916 193.757 305.604 193.757 304.835 193.302L296.336 188.413L305.013 183.402C305.352 183.217 305.777 183.125 306.239 183.125C306.818 183.125 307.428 183.248 307.889 183.525L316.265 188.352L316.296 188.382H316.302Z" fill="#C2C2C2"/>
<path d="M314.442 197.642L306.22 202.407L290.355 193.24C289.955 192.993 289.746 192.723 289.746 192.507C289.746 192.261 289.961 192.107 290.115 192.021L295.584 188.875L304.477 193.979C304.964 194.286 305.61 194.403 306.282 194.403C306.891 194.403 307.532 194.249 308.055 194.003L314.442 197.642Z" fill="#C2C2C2"/>
<path d="M333.54 198.708C333.54 198.923 333.324 199.077 333.14 199.194L327.671 202.34L318.808 197.205C317.767 196.627 316.179 196.627 315.168 197.205L308.844 193.536L317.035 188.801L332.93 197.969C333.294 198.184 333.54 198.455 333.54 198.702V198.708Z" fill="#C2C2C2"/>
<path d="M326.907 202.77L318.223 207.782C317.521 208.206 316.203 208.151 315.353 207.658L306.977 202.831L315.538 197.881C316.332 197.426 317.644 197.426 318.414 197.881L326.913 202.77H326.907Z" fill="#C2C2C2"/>
<path d="M335.006 209.062C334.218 209.517 333.343 209.924 332.413 210.275C331.939 210.453 331.304 210.373 331.003 210.102C330.701 209.831 330.836 209.462 331.311 209.29C332.924 208.686 334.347 207.867 335.394 206.932C335.702 206.661 336.336 206.581 336.804 206.753C337.278 206.932 337.408 207.295 337.1 207.566C336.496 208.101 335.788 208.606 335 209.062H335.006Z" fill="#C2C2C2"/>
<path d="M339.896 211.881C338.215 212.847 336.281 213.623 334.131 214.189C333.614 214.325 333.011 214.189 332.783 213.894C332.555 213.598 332.783 213.247 333.3 213.112C335.222 212.607 336.952 211.917 338.455 211.049C339.958 210.181 341.159 209.178 342.033 208.069C342.267 207.774 342.871 207.638 343.388 207.774C343.899 207.909 344.127 208.254 343.893 208.55C342.92 209.787 341.571 210.908 339.896 211.874V211.881Z" fill="#C2C2C2"/>
<path d="M344.779 214.7C342.223 216.172 339.206 217.262 335.812 217.927C335.276 218.031 334.698 217.865 334.519 217.557C334.34 217.249 334.63 216.917 335.166 216.812C338.257 216.203 341.01 215.217 343.338 213.869C345.672 212.521 347.384 210.938 348.438 209.153C348.616 208.845 349.201 208.679 349.731 208.777C350.261 208.876 350.55 209.215 350.365 209.522C349.214 211.48 347.329 213.223 344.773 214.694L344.779 214.7Z" fill="#C2C2C2"/>
<path d="M433.533 188.159V192.463C433.533 193.547 432.813 194.636 431.359 195.468L303.985 269.005C302.433 269.898 300.358 270.304 298.325 270.224V265.939C300.364 266.019 302.439 265.588 303.985 264.696L431.359 191.176C431.827 190.905 432.215 190.616 432.523 190.302C433.201 189.643 433.533 188.886 433.533 188.147V188.159Z" fill="#EBEBEB"/>
<path d="M433.534 188.159V192.462C433.534 193.546 432.813 194.636 431.36 195.467L303.985 269.005C301.097 270.655 296.441 270.673 293.571 269.023L87.3286 149.968C85.8936 149.155 85.1977 148.065 85.1977 146.981V142.696C85.1977 143.454 85.5303 144.186 86.2077 144.827C86.5157 145.134 86.8852 145.43 87.3347 145.682L293.577 264.72C296.447 266.388 301.103 266.37 303.991 264.701L431.366 191.182C431.834 190.911 432.222 190.621 432.53 190.307C433.207 189.649 433.54 188.891 433.54 188.153L433.534 188.159Z" stroke="#CCCCCC" stroke-width="1.58" stroke-miterlimit="10"/>
<path d="M510.457 111.157C499.427 117.523 484.972 120.712 470.561 120.712H442.828V116.458C438.671 115.079 434.767 113.373 431.231 111.329C409.417 98.7444 409.553 78.2605 431.502 65.5834C453.47 52.9249 488.932 52.8448 510.746 65.4295C532.536 78.0142 532.425 98.4797 510.457 111.157Z" fill="#F5F5F5"/>
<path d="M498.842 73.293V88.3835C498.749 96.6337 493.225 104.847 482.299 111.164C460.338 123.835 424.857 123.909 403.062 111.33C392.099 105.013 386.686 96.6891 386.797 88.3835V73.884C386.87 77.1595 387.825 80.4411 389.654 83.5873C392.29 88.1557 396.767 92.4655 403.068 96.0919C424.863 108.67 460.344 108.597 482.306 95.9072C488.754 92.1885 493.324 87.7863 495.996 83.1255C497.838 79.9424 498.799 76.6054 498.854 73.293H498.842Z" fill="white" stroke="#CCCCCC" stroke-width="1.58" stroke-miterlimit="10"/>
<path d="M443.017 105.477C473.958 105.283 498.95 90.6485 498.838 72.7902C498.726 54.9319 473.552 40.6124 442.61 40.8068C411.669 41.0011 386.677 55.6357 386.789 73.494C386.901 91.3523 412.075 105.672 443.017 105.477Z" fill="white" stroke="#CCCCCC" stroke-width="1.58" stroke-miterlimit="10"/>
<path d="M431.903 79.4307L426.489 67.123L420.885 85.7907L453.224 82.5584L431.903 79.4307Z" fill="#C2C2C2"/>
<path d="M455.767 81.0807L464.74 60.4736L429.045 65.6516L434.452 77.9592L455.767 81.0807Z" fill="#C2C2C2"/>
<path d="M498.842 73.2912C498.86 73.2358 498.86 73.1804 498.842 73.125" stroke="#CCCCCC" stroke-width="1.58" stroke-miterlimit="10"/>
<path d="M386.784 85.3068V85.0913" stroke="#CCCCCC" stroke-width="1.58" stroke-miterlimit="10"/>
<path d="M498.841 73.2806V88.3834C498.743 96.6336 493.212 104.835 482.311 111.164V95.9071C488.747 92.1761 493.317 87.7862 495.99 83.1131C497.831 79.9362 498.792 76.6053 498.841 73.2744V73.2806Z" fill="#EBEBEB"/>
<path d="M475.352 99.3232V114.562C473.098 115.516 470.77 116.347 468.344 117.067V101.829C470.77 101.09 473.105 100.278 475.352 99.3232Z" fill="#EBEBEB"/>
<path d="M498.842 73.293V88.3835C498.749 96.6337 493.225 104.847 482.299 111.164C460.338 123.835 424.857 123.909 403.062 111.33C392.099 105.013 386.686 96.6891 386.797 88.3835V73.884C386.87 77.1595 387.825 80.4411 389.654 83.5873C392.29 88.1557 396.767 92.4655 403.068 96.0919C424.863 108.67 460.344 108.597 482.306 95.9072C488.754 92.1885 493.324 87.7863 495.996 83.1255C497.838 79.9424 498.799 76.6054 498.854 73.293H498.842Z" stroke="#CCCCCC" stroke-width="1.58" stroke-miterlimit="10"/>
<path d="M434.366 311.354C430.369 313.663 425.128 314.814 419.905 314.814H409.854V313.275C408.346 312.776 406.935 312.155 405.654 311.416C397.746 306.853 397.796 299.428 405.753 294.835C413.716 290.248 426.569 290.217 434.471 294.78C442.366 299.342 442.329 306.755 434.366 311.354Z" fill="#F5F5F5"/>
<path d="M430.16 297.631V303.098C430.129 306.09 428.121 309.064 424.161 311.354C416.204 315.947 403.345 315.972 395.443 311.416C391.471 309.126 389.506 306.109 389.549 303.098V297.84C389.574 299.028 389.925 300.217 390.584 301.356C391.538 303.012 393.158 304.576 395.443 305.887C403.345 310.443 416.204 310.419 424.161 305.819C426.495 304.471 428.152 302.876 429.125 301.189C429.79 300.032 430.141 298.825 430.16 297.625V297.631Z" fill="white" stroke="#CCCCCC" stroke-width="1.58" stroke-miterlimit="10"/>
<path d="M409.927 309.301C421.141 309.231 430.198 303.928 430.158 297.457C430.117 290.987 420.993 285.798 409.779 285.869C398.565 285.939 389.507 291.242 389.548 297.712C389.589 304.183 398.713 309.372 409.927 309.301Z" fill="white" stroke="#CCCCCC" stroke-width="1.58" stroke-miterlimit="10"/>
<path d="M430.16 297.631C430.16 297.631 430.166 297.588 430.16 297.569" stroke="#CCCCCC" stroke-width="1.58" stroke-miterlimit="10"/>
<path d="M389.543 301.983V301.903" stroke="#CCCCCC" stroke-width="1.58" stroke-miterlimit="10"/>
<path d="M430.153 297.625V303.098C430.116 306.09 428.115 309.058 424.161 311.354V305.825C426.495 304.471 428.152 302.883 429.119 301.189C429.784 300.038 430.135 298.831 430.153 297.625Z" fill="#EBEBEB"/>
<path d="M421.642 307.068V312.591C420.823 312.936 419.979 313.238 419.099 313.496V307.973C419.979 307.709 420.823 307.413 421.642 307.068Z" fill="#EBEBEB"/>
<path d="M430.16 297.631V303.098C430.129 306.09 428.121 309.064 424.161 311.354C416.204 315.947 403.345 315.972 395.443 311.416C391.471 309.126 389.506 306.109 389.549 303.098V297.84C389.574 299.028 389.925 300.217 390.584 301.356C391.538 303.012 393.158 304.576 395.443 305.887C403.345 310.443 416.204 310.419 424.161 305.819C426.495 304.471 428.152 302.876 429.125 301.189C429.79 300.032 430.141 298.825 430.16 297.625V297.631Z" stroke="#CCCCCC" stroke-width="1.58" stroke-miterlimit="10"/>
<path d="M305.114 33.7822L311.802 37.6426C318.293 41.3921 315.633 51.3109 308.138 51.3109H291.521" fill="#F5F5F5"/>
<path d="M288.405 50.7079L245.934 26.1912C242.11 24.0178 242.11 16.9066 245.934 10.3187C249.759 3.72471 255.961 0.147555 259.785 2.32094L302.256 26.8377" fill="white"/>
<path d="M288.405 50.7079L245.934 26.1912C242.11 24.0178 242.11 16.9066 245.934 10.3187C249.759 3.72471 255.961 0.147555 259.785 2.32094L302.256 26.8377" stroke="#CCCCCC" stroke-width="1.58" stroke-miterlimit="10"/>
<path d="M302.208 42.7989C306.06 36.2237 306.105 29.0906 302.307 26.8667C298.509 24.6427 292.307 28.1702 288.455 34.7454C284.602 41.3206 284.557 48.4537 288.355 50.6777C292.153 52.9016 298.355 49.3742 302.208 42.7989Z" fill="#EBEBEB" stroke="#CCCCCC" stroke-width="1.58" stroke-miterlimit="10"/>
<path d="M175.941 294.688C163.377 293.309 149.187 294.485 139.222 298.197C124.743 303.597 124.657 312.321 139.031 317.678C142.302 318.897 146.034 319.839 150.031 320.498C163.586 322.745 180.092 321.778 191.276 317.604C205.755 312.204 205.841 303.48 191.467 298.124C186.989 296.455 181.631 295.304 175.947 294.682L175.941 294.688Z" fill="#F5F5F5"/>
<path d="M169.597 267.234C163.352 255.702 151.146 247.876 137.116 247.876C116.731 247.876 100.201 264.402 100.201 284.781C100.201 289.417 101.057 293.856 102.615 297.938C107.918 311.822 121.362 321.685 137.116 321.685C157.508 321.685 174.031 305.16 174.031 284.781C174.031 278.427 172.424 272.455 169.597 267.234Z" fill="white"/>
<path d="M174.026 284.773C174.026 305.153 157.496 321.678 137.11 321.678C134.074 321.678 131.124 321.315 128.303 320.619C128.802 320.644 129.301 320.65 129.806 320.65C150.198 320.65 166.721 304.125 166.721 283.745C166.721 277.391 165.114 271.419 162.287 266.198C157.391 257.166 148.843 250.4 138.613 247.9C152.014 248.436 163.574 256.113 169.591 267.226C172.418 272.447 174.026 278.42 174.026 284.773Z" fill="#EBEBEB"/>
<path d="M169.597 267.234C163.352 255.702 151.146 247.876 137.116 247.876C116.731 247.876 100.201 264.402 100.201 284.781C100.201 289.417 101.057 293.856 102.615 297.938C107.918 311.822 121.362 321.685 137.116 321.685C157.508 321.685 174.031 305.16 174.031 284.781C174.031 278.427 172.424 272.455 169.597 267.234Z" stroke="#CCCCCC" stroke-width="1.58" stroke-miterlimit="10"/>
</svg>
