<svg width="230" height="275" viewBox="0 0 230 275" fill="none" xmlns="http://www.w3.org/2000/svg">
<path d="M4.47803 261.51L14.968 272C17.238 273.95 20.5979 274.57 24.7379 273.46L105.038 251.93C114.778 249.34 125.128 238.08 128.138 226.84L181.618 27.2898C183.268 21.0698 182.358 16.1498 179.548 13.4198L169.178 3.0498C169.348 3.2198 169.528 3.4298 169.688 3.6098C169.778 3.7298 169.858 3.83981 169.958 3.95981C170.078 4.10981 170.188 4.26981 170.298 4.45981C170.718 5.11981 171.068 5.83983 171.318 6.63983C171.428 6.93983 171.508 7.25982 171.578 7.56982C171.688 7.99982 171.768 8.42983 171.818 8.88983C171.868 9.20983 171.898 9.55983 171.908 9.91983C171.948 10.3398 171.978 10.7698 171.948 11.1998C171.948 12.9198 171.668 14.7898 171.128 16.7998L117.658 216.36C114.648 227.59 104.288 238.84 94.558 241.45L14.2379 262.96C13.8079 263.07 13.378 263.18 12.958 263.24C12.578 263.32 12.208 263.37 11.838 263.41C11.798 263.42 11.758 263.41 11.718 263.42C10.988 263.5 10.308 263.51 9.65796 263.46C9.43796 263.46 9.23795 263.45 9.02795 263.42C8.52795 263.35 8.04791 263.27 7.60791 263.12C7.44791 263.09 7.28795 263.04 7.14795 262.99C6.84795 262.91 5.90801 262.48 5.70801 262.36C5.32801 262.14 4.53801 261.54 4.45801 261.49L4.47803 261.51Z" fill="white"/>
<path d="M108.238 232.561L118.728 243.051C114.628 247.391 109.768 250.681 105.048 251.941L24.7377 273.471C20.5977 274.571 17.2478 273.951 14.9678 272.011L4.46777 261.511C4.54777 261.561 5.34777 262.161 5.71777 262.381C5.92777 262.501 6.86771 262.931 7.15771 263.011C7.29771 263.061 7.45768 263.121 7.61768 263.141C8.05768 263.301 8.53773 263.371 9.04773 263.441C9.25773 263.471 9.45773 263.481 9.67773 263.491C10.3277 263.541 11.0077 263.531 11.7377 263.441C11.7777 263.441 11.8177 263.441 11.8577 263.431C12.2277 263.391 12.5978 263.341 12.9778 263.261C13.3878 263.191 13.8177 263.081 14.2477 262.981L94.5677 241.461C99.2877 240.201 104.138 236.901 108.238 232.561Z" fill="#EBEBEB"/>
<path d="M112.068 227.891L122.558 238.381C121.968 239.221 121.338 240.031 120.698 240.811L110.218 230.331C110.868 229.541 111.488 228.731 112.068 227.891Z" fill="#EBEBEB"/>
<path d="M14.2479 262.99L94.558 241.47C104.308 238.86 114.648 227.62 117.658 216.37L171.128 16.8301C174.148 5.58011 168.688 -1.42989 158.938 1.18011L78.6279 22.7001C68.8779 25.3101 58.5379 36.5501 55.5279 47.8001L2.05797 247.34C-0.962032 258.59 4.49791 265.6 14.2479 262.99Z" fill="white" stroke="#CCCCCC" stroke-width="0.75" stroke-miterlimit="10"/>
<path d="M79.1579 25.5406L156.698 4.7606C165.398 2.4306 170.598 7.56061 168.288 16.2006L114.028 218.711C111.708 227.351 102.748 236.281 94.0379 238.611L16.4979 259.391C7.7979 261.721 2.59794 256.591 4.90794 247.951L59.1679 45.4406C61.4879 36.8006 70.4479 27.8706 79.1579 25.5406ZM80.0179 22.3206C69.5079 25.1406 58.718 35.8806 55.928 46.3106L1.66795 248.821C-1.13205 259.251 5.12792 265.431 15.6379 262.611L93.178 241.831C103.688 239.011 114.478 228.271 117.268 217.841L171.528 15.3306C174.328 4.90058 168.068 -1.2794 157.558 1.5406L80.0179 22.3206Z" fill="white" stroke="#CCCCCC" stroke-width="0.75" stroke-miterlimit="10"/>
<path d="M40.6786 264.2C40.807 263.708 40.218 263.129 39.363 262.905C38.5081 262.682 37.7109 262.9 37.5825 263.391C37.4541 263.883 38.043 264.462 38.898 264.686C39.753 264.909 40.5502 264.692 40.6786 264.2Z" fill="#C2C2C2"/>
<path d="M36.9966 265.191C37.125 264.699 36.5361 264.12 35.6811 263.897C34.8261 263.673 34.0289 263.891 33.9005 264.382C33.7721 264.874 34.3611 265.454 35.2161 265.677C36.071 265.9 36.8682 265.683 36.9966 265.191Z" fill="#C2C2C2"/>
<path d="M33.3019 266.179C33.4303 265.687 32.8414 265.107 31.9864 264.884C31.1314 264.661 30.3342 264.878 30.2058 265.37C30.0774 265.861 30.6664 266.441 31.5214 266.664C32.3763 266.888 33.1735 266.67 33.3019 266.179Z" fill="#C2C2C2"/>
<path d="M29.6196 267.159C29.748 266.667 29.1591 266.088 28.3041 265.864C27.4491 265.641 26.652 265.858 26.5236 266.35C26.3951 266.842 26.9841 267.421 27.839 267.645C28.694 267.868 29.4912 267.65 29.6196 267.159Z" fill="#C2C2C2"/>
<path d="M97.0064 249.105C97.1348 248.614 96.5458 248.034 95.6909 247.811C94.8359 247.587 94.0387 247.805 93.9103 248.296C93.7819 248.788 94.3709 249.368 95.2258 249.591C96.0808 249.814 96.878 249.597 97.0064 249.105Z" fill="#C2C2C2"/>
<path d="M93.312 250.103C93.4404 249.612 92.8514 249.032 91.9965 248.809C91.1415 248.585 90.3443 248.803 90.2159 249.295C90.0875 249.786 90.6765 250.366 91.5314 250.589C92.3864 250.812 93.1836 250.595 93.312 250.103Z" fill="#C2C2C2"/>
<path d="M89.6294 251.084C89.7579 250.592 89.1688 250.013 88.3139 249.789C87.4589 249.566 86.6617 249.783 86.5333 250.275C86.4049 250.767 86.9938 251.346 87.8488 251.569C88.7038 251.793 89.501 251.575 89.6294 251.084Z" fill="#C2C2C2"/>
<path d="M85.957 252.064C86.0855 251.573 85.4965 250.993 84.6415 250.77C83.7865 250.546 82.9893 250.764 82.8609 251.255C82.7325 251.747 83.3215 252.327 84.1764 252.55C85.0314 252.773 85.8286 252.556 85.957 252.064Z" fill="#C2C2C2"/>
<path d="M82.2725 253.065C82.4009 252.573 81.8119 251.994 80.957 251.77C80.102 251.547 79.3048 251.764 79.1764 252.256C79.048 252.748 79.637 253.327 80.4919 253.551C81.3469 253.774 82.1441 253.556 82.2725 253.065Z" fill="#C2C2C2"/>
<path d="M78.5805 254.044C78.709 253.552 78.12 252.972 77.2651 252.749C76.4101 252.526 75.6129 252.743 75.4845 253.235C75.3561 253.726 75.945 254.306 76.8 254.529C77.6549 254.753 78.4521 254.535 78.5805 254.044Z" fill="#C2C2C2"/>
<path d="M71.3825 256.174C71.543 255.559 70.8068 254.835 69.7381 254.556C68.6694 254.276 67.6729 254.548 67.5123 255.163C67.3518 255.777 68.088 256.502 69.1567 256.781C70.2255 257.06 71.2219 256.788 71.3825 256.174Z" fill="#C2C2C2"/>
<path d="M48.6603 262.274C48.8208 261.66 48.0846 260.935 47.0159 260.656C45.9472 260.377 44.9507 260.649 44.7902 261.263C44.6296 261.878 45.3659 262.602 46.4346 262.881C47.5033 263.161 48.4998 262.889 48.6603 262.274Z" fill="#C2C2C2"/>
<path d="M55.128 261.79C53.758 262.16 51.8381 261.65 50.8481 260.65C49.8581 259.65 50.158 258.55 51.528 258.18L61.028 255.63C62.398 255.26 64.318 255.77 65.308 256.77C66.308 257.77 65.998 258.87 64.628 259.24L55.128 261.79Z" fill="#C2C2C2"/>
<path d="M14.248 262.98L24.7281 273.461" stroke="#CCCCCC" stroke-width="0.75" stroke-miterlimit="10"/>
<path d="M136.118 162.78C136.528 161.3 137.728 160.98 138.808 162.07C139.888 163.16 140.428 165.25 140.028 166.73L135.758 182.33C135.348 183.81 134.148 184.13 133.068 183.04C131.988 181.95 131.448 179.86 131.848 178.38L136.118 162.78Z" fill="#F5F5F5"/>
<path d="M162.388 66.8299C162.798 65.3499 163.998 65.0299 165.078 66.1199C166.158 67.2099 166.698 69.2999 166.298 70.7799L162.028 86.3799C161.618 87.8599 160.418 88.1799 159.338 87.0899C158.258 85.9999 157.718 83.9099 158.118 82.4299L162.388 66.8299Z" fill="#F5F5F5"/>
<mask id="mask0_536_8354" style="mask-type:luminance" maskUnits="userSpaceOnUse" x="4" y="4" width="165" height="256">
<path d="M79.158 25.5401L156.698 4.76011C165.398 2.43011 170.598 7.56011 168.288 16.2001L114.028 218.71C111.708 227.35 102.748 236.28 94.038 238.61L16.4979 259.39C7.79793 261.72 2.59797 256.59 4.90797 247.95L59.168 45.4401C61.488 36.8001 70.448 27.8701 79.158 25.5401Z" fill="white"/>
</mask>
<g mask="url(#mask0_536_8354)">
<path d="M199.448 -17.4202L172.428 7.75986L199.578 5.78986L188.888 26.9799L175.658 25.8199L165.998 49.9598L144.928 60.6699L146.998 33.2998L121.908 60.4398L111.498 49.8998L138.558 24.7599L111.408 26.7299L122.108 5.51984L146.258 -1.83014L144.998 -17.4702L166.058 -28.1602L163.988 -0.790161L189.038 -27.9702L199.448 -17.4301V-17.4202Z" fill="#F5F5F5"/>
<path d="M5.85803 224.83L37.4681 256.84L-5.83191 268.44L5.85803 224.83Z" fill="#F5F5F5"/>
<path d="M58.5883 251.18L46.3582 254.46L8.24817 215.88L11.5482 203.56L58.5883 251.18Z" fill="#F5F5F5"/>
<path d="M64.9938 95.4198C79.3483 80.8838 84.1835 62.3837 75.7936 54.0985C67.4036 45.8134 48.9657 50.8807 34.6113 65.4166C20.2568 79.9526 15.4216 98.4528 23.8115 106.738C32.2014 115.023 50.6394 109.956 64.9938 95.4198Z" fill="#FAFAFA"/>
<path d="M142.483 188.791C157.66 173.422 162.771 153.86 153.897 145.097C145.024 136.335 125.528 141.69 110.35 157.06C95.1732 172.429 90.0629 191.991 98.9362 200.754C107.809 209.516 127.306 204.16 142.483 188.791Z" fill="#FAFAFA"/>
</g>
<path d="M79.158 25.5401L156.698 4.76011C165.398 2.43011 170.598 7.56011 168.288 16.2001L114.028 218.71C111.708 227.35 102.748 236.28 94.038 238.61L16.4979 259.39C7.79793 261.72 2.59797 256.59 4.90797 247.95L59.168 45.4401C61.488 36.8001 70.448 27.8701 79.158 25.5401Z" stroke="#CCCCCC" stroke-width="0.75" stroke-miterlimit="10"/>
<path d="M103.128 30.6001L126.098 24.4401C128.288 23.8501 130.618 21.3201 131.298 18.7901C131.978 16.2601 130.748 14.6801 128.558 15.2701L105.588 21.4301C103.398 22.0201 101.068 24.5501 100.388 27.0801C99.7079 29.6101 100.938 31.1901 103.128 30.6001Z" fill="#C2C2C2"/>
<path d="M128.062 20.5925C128.785 19.8784 129.038 18.9619 128.626 18.5454C128.215 18.1288 127.296 18.37 126.572 19.084C125.849 19.7981 125.597 20.7146 126.008 21.1312C126.419 21.5477 127.339 21.3065 128.062 20.5925Z" fill="#F5F5F5"/>
<path d="M4.47803 261.51L14.968 272C17.238 273.95 20.5979 274.57 24.7379 273.46L105.038 251.93C114.778 249.34 125.128 238.08 128.138 226.84L181.618 27.2898C183.268 21.0698 182.358 16.1498 179.548 13.4198L169.178 3.0498C169.348 3.2198 169.528 3.4298 169.688 3.6098C169.778 3.7298 169.858 3.83981 169.958 3.95981C170.078 4.10981 170.188 4.26981 170.298 4.45981C170.718 5.11981 171.068 5.83983 171.318 6.63983C171.428 6.93983 171.508 7.25982 171.578 7.56982C171.688 7.99982 171.768 8.42983 171.818 8.88983C171.868 9.20983 171.898 9.55983 171.908 9.91983C171.948 10.3398 171.978 10.7698 171.948 11.1998C171.948 12.9198 171.668 14.7898 171.128 16.7998L117.658 216.36C114.648 227.59 104.288 238.84 94.558 241.45L14.2379 262.96C13.8079 263.07 13.378 263.18 12.958 263.24C12.578 263.32 12.208 263.37 11.838 263.41C11.798 263.42 11.758 263.41 11.718 263.42C10.988 263.5 10.308 263.51 9.65796 263.46C9.43796 263.46 9.23795 263.45 9.02795 263.42C8.52795 263.35 8.04791 263.27 7.60791 263.12C7.44791 263.09 7.28795 263.04 7.14795 262.99C6.84795 262.91 5.90801 262.48 5.70801 262.36C5.32801 262.14 4.53801 261.54 4.45801 261.49L4.47803 261.51Z" stroke="#CCCCCC" stroke-width="0.75" stroke-miterlimit="10"/>
<path d="M97.7079 153.56C89.8179 155.73 85.4579 149.73 87.9579 140.17C90.4579 130.61 98.8778 121.1 106.758 118.93L215.408 89.0804C223.298 86.9104 227.658 92.9105 225.158 102.47C222.658 112.03 214.238 121.54 206.358 123.71L97.7079 153.56Z" fill="white" stroke="#CCCCCC" stroke-width="0.75" stroke-miterlimit="10"/>
<path d="M97.7079 153.56C89.8179 155.73 85.4579 149.73 87.9579 140.17C90.4579 130.61 98.8778 121.1 106.758 118.93L215.408 89.0804C223.298 86.9104 227.658 92.9105 225.158 102.47C222.658 112.03 214.238 121.54 206.358 123.71L97.7079 153.56Z" fill="white" stroke="#CCCCCC" stroke-width="0.75" stroke-miterlimit="10"/>
<path d="M97.7079 153.56C89.8179 155.73 85.4579 149.73 87.9579 140.17C90.4579 130.61 98.8778 121.1 106.758 118.93L215.408 89.0804C223.298 86.9104 227.658 92.9105 225.158 102.47C222.658 112.03 214.238 121.54 206.358 123.71L97.7079 153.56Z" fill="white" stroke="#CCCCCC" stroke-width="0.75" stroke-miterlimit="10"/>
<path d="M223.488 90.5704L226.308 93.3604C228.648 95.6704 229.418 99.9204 228.008 105.29C225.508 114.85 217.088 124.36 209.208 126.52L100.548 156.37C97.2079 157.29 94.4878 156.74 92.6678 155.07L89.8179 152.26C90.2479 152.65 90.7278 152.99 91.2478 153.24C92.9478 154.11 95.1279 154.26 97.6879 153.56L206.348 123.71C214.228 121.55 222.648 112.04 225.148 102.48C226.268 98.2004 226.008 94.6404 224.678 92.2004C224.338 91.5904 223.938 91.0404 223.468 90.5704H223.488Z" fill="#EBEBEB" stroke="#CCCCCC" stroke-width="0.75" stroke-miterlimit="10"/>
<path d="M97.7079 153.56C89.8179 155.73 85.4579 149.73 87.9579 140.17C90.4579 130.61 98.8778 121.1 106.758 118.93L215.408 89.0804C223.298 86.9104 227.658 92.9105 225.158 102.47C222.658 112.03 214.238 121.54 206.358 123.71L97.7079 153.56Z" stroke="#CCCCCC" stroke-width="0.75" stroke-miterlimit="10"/>
<path d="M171.248 119.901C169.708 120.321 168.788 119.401 169.198 117.851C169.608 116.291 171.178 114.691 172.718 114.271C174.258 113.851 175.178 114.771 174.768 116.321C174.358 117.871 172.788 119.481 171.248 119.901Z" fill="#EBEBEB"/>
<path d="M171.248 119.901C169.708 120.321 168.788 119.401 169.198 117.851C169.608 116.291 171.178 114.691 172.718 114.271C174.258 113.851 175.178 114.771 174.768 116.321C174.358 117.871 172.788 119.481 171.248 119.901Z" fill="#EBEBEB"/>
<path d="M157.748 123.611C156.208 124.031 155.288 123.111 155.698 121.561C156.108 120.001 157.678 118.401 159.218 117.981C160.758 117.561 161.678 118.481 161.268 120.031C160.858 121.591 159.288 123.191 157.748 123.611Z" fill="#EBEBEB"/>
<path d="M144.248 127.321C142.708 127.741 141.788 126.821 142.198 125.271C142.608 123.721 144.178 122.111 145.718 121.691C147.258 121.271 148.178 122.191 147.768 123.741C147.358 125.301 145.788 126.901 144.248 127.321Z" fill="#EBEBEB"/>
<path d="M187.288 118.79C187.088 118.84 186.908 118.82 186.798 118.71C186.578 118.48 186.708 117.98 187.098 117.59L192.388 112.28L183.278 114.72C182.848 114.84 182.588 114.58 182.708 114.14C182.828 113.7 183.268 113.25 183.708 113.14L192.818 110.7L189.778 107.62C189.558 107.39 189.688 106.89 190.078 106.5C190.468 106.11 190.968 105.97 191.188 106.2L195.208 110.27C195.268 110.33 195.298 110.4 195.308 110.48C195.318 110.56 195.308 110.66 195.288 110.76C195.258 110.87 195.208 110.98 195.148 111.08C195.088 111.18 195.008 111.29 194.908 111.38L187.918 118.4C187.718 118.6 187.498 118.73 187.298 118.78L187.288 118.79Z" fill="#C2C2C2"/>
<path d="M179.518 35.1602L169.028 24.6702" stroke="#CCCCCC" stroke-width="0.75" stroke-miterlimit="10"/>
</svg>
