<svg width="183" height="275" viewBox="0 0 183 275" fill="none" xmlns="http://www.w3.org/2000/svg">
<path d="M4.47803 261.875L14.968 272.365C17.238 274.315 20.5979 274.935 24.7379 273.825L105.038 252.295C114.778 249.705 125.128 238.445 128.138 227.205L181.618 27.6551C183.268 21.4351 182.358 16.5151 179.548 13.7851L169.178 3.41504C169.348 3.58504 169.528 3.79504 169.688 3.97504C169.778 4.09504 169.858 4.20504 169.958 4.32504C170.078 4.47504 170.188 4.63504 170.298 4.82504C170.718 5.48504 171.068 6.20507 171.318 7.00507C171.428 7.30507 171.508 7.62506 171.578 7.93506C171.688 8.36506 171.768 8.79507 171.818 9.25507C171.868 9.57507 171.898 9.92506 171.908 10.2851C171.948 10.7051 171.978 11.1351 171.948 11.5651C171.948 13.2851 171.668 15.155 171.128 17.165L117.658 216.725C114.648 227.955 104.288 239.205 94.558 241.815L14.2379 263.325C13.8079 263.435 13.378 263.545 12.958 263.605C12.578 263.685 12.208 263.735 11.838 263.775C11.798 263.785 11.758 263.775 11.718 263.785C10.988 263.865 10.308 263.875 9.65796 263.825C9.43796 263.825 9.23795 263.815 9.02795 263.785C8.52795 263.715 8.04791 263.635 7.60791 263.485C7.44791 263.455 7.28795 263.405 7.14795 263.355C6.84795 263.275 5.90801 262.845 5.70801 262.725C5.32801 262.505 4.53801 261.905 4.45801 261.855L4.47803 261.875Z" fill="white"/>
<path d="M108.238 232.926L118.728 243.416C114.628 247.756 109.768 251.046 105.048 252.306L24.7377 273.836C20.5977 274.936 17.2478 274.316 14.9678 272.376L4.46777 261.876C4.54777 261.926 5.34777 262.526 5.71777 262.746C5.92777 262.866 6.86771 263.296 7.15771 263.376C7.29771 263.426 7.45768 263.486 7.61768 263.506C8.05768 263.666 8.53773 263.736 9.04773 263.806C9.25773 263.836 9.45773 263.846 9.67773 263.856C10.3277 263.906 11.0077 263.896 11.7377 263.806C11.7777 263.806 11.8177 263.806 11.8577 263.796C12.2277 263.756 12.5978 263.706 12.9778 263.626C13.3878 263.556 13.8177 263.446 14.2477 263.346L94.5677 241.826C99.2878 240.566 104.138 237.266 108.238 232.926Z" fill="#EBEBEB"/>
<path d="M112.068 228.256L122.558 238.746C121.968 239.586 121.338 240.396 120.698 241.176L110.218 230.696C110.868 229.906 111.488 229.096 112.068 228.256Z" fill="#EBEBEB"/>
<path d="M14.2475 263.355L94.5576 241.835C104.308 239.225 114.648 227.985 117.658 216.735L171.128 17.1953C174.148 5.94534 168.688 -1.06465 158.938 1.54535L78.6275 23.0654C68.8775 25.6754 58.5376 36.9153 55.5276 48.1653L2.0576 247.705C-0.962398 258.955 4.49754 265.965 14.2475 263.355Z" fill="white" stroke="#CCCCCC" stroke-width="0.75" stroke-miterlimit="10"/>
<path d="M79.1579 25.9058L156.698 5.12584C165.398 2.79584 170.598 7.92584 168.288 16.5658L114.028 219.076C111.708 227.716 102.748 236.646 94.0379 238.976L16.4979 259.756C7.7979 262.086 2.59794 256.956 4.90794 248.316L59.1679 45.8058C61.4879 37.1658 70.4479 28.2358 79.1579 25.9058ZM80.0179 22.6858C69.5079 25.5058 58.718 36.2458 55.928 46.6758L1.66795 249.186C-1.13205 259.616 5.12792 265.796 15.6379 262.976L93.178 242.196C103.688 239.376 114.478 228.636 117.268 218.206L171.528 15.6958C174.328 5.26581 168.068 -0.914164 157.558 1.90584L80.0179 22.6858Z" fill="white" stroke="#CCCCCC" stroke-width="0.75" stroke-miterlimit="10"/>
<path d="M40.6782 264.565C40.8067 264.074 40.2176 263.494 39.3627 263.271C38.5077 263.047 37.7105 263.265 37.5821 263.756C37.4537 264.248 38.0427 264.827 38.8976 265.051C39.7526 265.274 40.5498 265.057 40.6782 264.565Z" fill="#C2C2C2"/>
<path d="M36.9966 265.556C37.125 265.065 36.5361 264.485 35.6811 264.262C34.8261 264.039 34.0289 264.256 33.9005 264.748C33.7721 265.239 34.3611 265.819 35.2161 266.042C36.071 266.265 36.8682 266.048 36.9966 265.556Z" fill="#C2C2C2"/>
<path d="M33.3023 266.544C33.4307 266.052 32.8417 265.473 31.9868 265.249C31.1318 265.026 30.3346 265.243 30.2061 265.735C30.0777 266.227 30.6668 266.806 31.5217 267.029C32.3767 267.253 33.1738 267.035 33.3023 266.544Z" fill="#C2C2C2"/>
<path d="M29.6196 267.524C29.748 267.032 29.1591 266.453 28.3041 266.23C27.4491 266.006 26.652 266.224 26.5236 266.715C26.3951 267.207 26.9841 267.787 27.839 268.01C28.694 268.233 29.4912 268.016 29.6196 267.524Z" fill="#C2C2C2"/>
<path d="M97.0064 249.47C97.1348 248.979 96.5458 248.399 95.6909 248.176C94.8359 247.953 94.0387 248.17 93.9103 248.662C93.7819 249.153 94.3709 249.733 95.2258 249.956C96.0808 250.179 96.878 249.962 97.0064 249.47Z" fill="#C2C2C2"/>
<path d="M93.312 250.469C93.4404 249.977 92.8514 249.397 91.9965 249.174C91.1415 248.951 90.3443 249.168 90.2159 249.66C90.0875 250.151 90.6765 250.731 91.5314 250.954C92.3864 251.178 93.1836 250.96 93.312 250.469Z" fill="#C2C2C2"/>
<path d="M89.6294 251.449C89.7579 250.957 89.1688 250.378 88.3139 250.154C87.4589 249.931 86.6617 250.149 86.5333 250.64C86.4049 251.132 86.9938 251.711 87.8488 251.935C88.7038 252.158 89.501 251.941 89.6294 251.449Z" fill="#C2C2C2"/>
<path d="M85.9575 252.429C86.0859 251.938 85.4969 251.358 84.642 251.135C83.787 250.912 82.9898 251.129 82.8614 251.621C82.733 252.112 83.322 252.692 84.1769 252.915C85.0319 253.138 85.8291 252.921 85.9575 252.429Z" fill="#C2C2C2"/>
<path d="M82.272 253.43C82.4004 252.938 81.8115 252.359 80.9565 252.136C80.1015 251.912 79.3043 252.13 79.1759 252.621C79.0475 253.113 79.6365 253.693 80.4914 253.916C81.3464 254.139 82.1436 253.922 82.272 253.43Z" fill="#C2C2C2"/>
<path d="M78.5805 254.409C78.709 253.917 78.12 253.338 77.2651 253.114C76.4101 252.891 75.6129 253.108 75.4845 253.6C75.3561 254.092 75.945 254.671 76.8 254.895C77.6549 255.118 78.4521 254.9 78.5805 254.409Z" fill="#C2C2C2"/>
<path d="M71.3825 256.539C71.543 255.924 70.8068 255.2 69.7381 254.921C68.6694 254.642 67.6729 254.913 67.5123 255.528C67.3518 256.142 68.088 256.867 69.1567 257.146C70.2255 257.425 71.2219 257.153 71.3825 256.539Z" fill="#C2C2C2"/>
<path d="M48.6608 262.64C48.8213 262.025 48.0851 261.301 47.0164 261.021C45.9477 260.742 44.9512 261.014 44.7907 261.629C44.6301 262.243 45.3664 262.968 46.4351 263.247C47.5038 263.526 48.5003 263.254 48.6608 262.64Z" fill="#C2C2C2"/>
<path d="M55.1285 262.156C53.7585 262.526 51.8386 262.016 50.8486 261.016C49.8586 260.016 50.1585 258.916 51.5285 258.546L61.0285 255.996C62.3985 255.626 64.3185 256.136 65.3085 257.136C66.3085 258.136 65.9985 259.236 64.6285 259.606L55.1285 262.156Z" fill="#C2C2C2"/>
<path d="M14.248 263.346L24.7281 273.826" stroke="#CCCCCC" stroke-width="0.75" stroke-miterlimit="10"/>
<path d="M136.118 163.145C136.528 161.665 137.728 161.345 138.808 162.435C139.888 163.525 140.428 165.615 140.028 167.095L135.758 182.695C135.348 184.175 134.148 184.495 133.068 183.405C131.988 182.315 131.448 180.225 131.848 178.745L136.118 163.145Z" fill="#F5F5F5"/>
<path d="M162.388 67.1951C162.798 65.7151 163.998 65.3951 165.078 66.4851C166.158 67.5751 166.698 69.6651 166.298 71.1451L162.028 86.7451C161.618 88.2251 160.418 88.5451 159.338 87.4551C158.258 86.3651 157.718 84.2751 158.118 82.7951L162.388 67.1951Z" fill="#F5F5F5"/>
<mask id="mask0_1059_10887" style="mask-type:luminance" maskUnits="userSpaceOnUse" x="4" y="4" width="165" height="257">
<path d="M79.1578 25.9054L156.698 5.12537C165.398 2.79537 170.598 7.92537 168.288 16.5654L114.028 219.075C111.708 227.715 102.748 236.645 94.0378 238.975L16.4978 259.755C7.79781 262.085 2.59784 256.955 4.90784 248.315L59.1679 45.8054C61.4879 37.1654 70.4478 28.2354 79.1578 25.9054Z" fill="white"/>
</mask>
<g mask="url(#mask0_1059_10887)">
<path d="M199.448 -17.0549L172.428 8.12512L199.578 6.15512L188.888 27.3451L175.658 26.1851L165.998 50.3251L144.928 61.0351L146.998 33.6651L121.908 60.8051L111.498 50.2651L138.558 25.1251L111.408 27.0951L122.108 5.8851L146.258 -1.46487L144.998 -17.1049L166.058 -27.7949L163.988 -0.424896L189.038 -27.6049L199.448 -17.0649V-17.0549Z" fill="#F5F5F5"/>
<path d="M5.85791 225.195L37.468 257.205L-5.83203 268.805L5.85791 225.195Z" fill="#F5F5F5"/>
<path d="M58.5881 251.545L46.358 254.825L8.24805 216.245L11.5481 203.925L58.5881 251.545Z" fill="#F5F5F5"/>
<path d="M64.9937 95.785C79.3482 81.2491 84.1834 62.7489 75.7934 54.4637C67.4035 46.1786 48.9656 51.2459 34.6111 65.7819C20.2567 80.3178 15.4215 98.818 23.8114 107.103C32.2013 115.388 50.6393 110.321 64.9937 95.785Z" fill="#FAFAFA"/>
<path d="M142.483 189.156C157.66 173.787 162.77 154.225 153.897 145.462C145.024 136.7 125.527 142.056 110.35 157.425C95.1726 172.794 90.0623 192.356 98.9356 201.119C107.809 209.881 127.306 204.526 142.483 189.156Z" fill="#FAFAFA"/>
</g>
<path d="M79.1578 25.9054L156.698 5.12537C165.398 2.79537 170.598 7.92537 168.288 16.5654L114.028 219.075C111.708 227.715 102.748 236.645 94.0378 238.975L16.4978 259.755C7.79781 262.085 2.59784 256.955 4.90784 248.315L59.1679 45.8054C61.4879 37.1654 70.4478 28.2354 79.1578 25.9054Z" stroke="#CCCCCC" stroke-width="0.75" stroke-miterlimit="10"/>
<path d="M103.128 30.9654L126.098 24.8054C128.288 24.2154 130.618 21.6854 131.298 19.1554C131.978 16.6254 130.748 15.0453 128.558 15.6353L105.588 21.7953C103.398 22.3853 101.068 24.9153 100.388 27.4453C99.7075 29.9753 100.938 31.5554 103.128 30.9654Z" fill="#C2C2C2"/>
<path d="M128.063 20.9577C128.786 20.2437 129.038 19.3272 128.627 18.9106C128.216 18.4941 127.296 18.7352 126.573 19.4492C125.85 20.1633 125.597 21.0799 126.008 21.4964C126.42 21.913 127.34 21.6717 128.063 20.9577Z" fill="#F5F5F5"/>
<path d="M4.47803 261.875L14.968 272.365C17.238 274.315 20.5979 274.935 24.7379 273.825L105.038 252.295C114.778 249.705 125.128 238.445 128.138 227.205L181.618 27.6551C183.268 21.4351 182.358 16.5151 179.548 13.7851L169.178 3.41504C169.348 3.58504 169.528 3.79504 169.688 3.97504C169.778 4.09504 169.858 4.20504 169.958 4.32504C170.078 4.47504 170.188 4.63504 170.298 4.82504C170.718 5.48504 171.068 6.20507 171.318 7.00507C171.428 7.30507 171.508 7.62506 171.578 7.93506C171.688 8.36506 171.768 8.79507 171.818 9.25507C171.868 9.57507 171.898 9.92506 171.908 10.2851C171.948 10.7051 171.978 11.1351 171.948 11.5651C171.948 13.2851 171.668 15.155 171.128 17.165L117.658 216.725C114.648 227.955 104.288 239.205 94.558 241.815L14.2379 263.325C13.8079 263.435 13.378 263.545 12.958 263.605C12.578 263.685 12.208 263.735 11.838 263.775C11.798 263.785 11.758 263.775 11.718 263.785C10.988 263.865 10.308 263.875 9.65796 263.825C9.43796 263.825 9.23795 263.815 9.02795 263.785C8.52795 263.715 8.04791 263.635 7.60791 263.485C7.44791 263.455 7.28795 263.405 7.14795 263.355C6.84795 263.275 5.90801 262.845 5.70801 262.725C5.32801 262.505 4.53801 261.905 4.45801 261.855L4.47803 261.875Z" stroke="#CCCCCC" stroke-width="0.75" stroke-miterlimit="10" stroke-linejoin="round"/>
<path d="M179 36L169 26" stroke="#CCCCCC" stroke-width="0.75" stroke-miterlimit="10" stroke-linecap="square"/>
</svg>
