<svg width="121" height="32" viewBox="0 0 121 32" fill="none" xmlns="http://www.w3.org/2000/svg">
<g clip-path="url(#clip0_18657_25043)">
<path d="M32 15.1721L25.6324 26.0839L18.3295 24.6055L24.697 13.6936L32 15.1721Z" fill="#191919"/>
<path d="M19.2489 2.5L30.2753 8.80018L24.697 13.6936L13.6706 7.39451L19.2489 2.5Z" fill="#191919"/>
<path d="M0 16.8279L6.36758 5.91602L13.6706 7.3945L7.30298 18.3064L0 16.8279Z" fill="#191919"/>
<path d="M12.7512 29.5L1.72469 23.1998L7.30298 18.3064L18.3294 24.6055L12.7512 29.5Z" fill="#191919"/>
</g>
<path d="M48.384 26.32C46.9547 26.32 45.6747 25.968 44.544 25.264C43.4133 24.56 42.5173 23.6 41.856 22.384C41.216 21.168 40.896 19.8027 40.896 18.288C40.896 16.752 41.216 15.376 41.856 14.16C42.5173 12.944 43.4027 11.984 44.512 11.28C45.6427 10.576 46.9333 10.224 48.384 10.224C49.4933 10.224 50.4853 10.448 51.36 10.896C52.256 11.344 52.9707 11.9733 53.504 12.784C54.0587 13.5733 54.3573 14.4693 54.4 15.472V20.976C54.3573 21.9787 54.0693 22.8853 53.536 23.696C53.0027 24.5067 52.288 25.1467 51.392 25.616C50.496 26.0853 49.4933 26.32 48.384 26.32ZM49.088 22.448C49.8773 22.448 50.56 22.2773 51.136 21.936C51.7333 21.5733 52.192 21.0827 52.512 20.464C52.8533 19.824 53.024 19.088 53.024 18.256C53.024 17.4453 52.8533 16.7307 52.512 16.112C52.192 15.472 51.7333 14.9813 51.136 14.64C50.56 14.2773 49.888 14.096 49.12 14.096C48.3307 14.096 47.6373 14.2773 47.04 14.64C46.464 15.0027 46.0053 15.4933 45.664 16.112C45.344 16.7307 45.184 17.4453 45.184 18.256C45.184 19.088 45.344 19.824 45.664 20.464C46.0053 21.0827 46.4747 21.5733 47.072 21.936C47.6693 22.2773 48.3413 22.448 49.088 22.448ZM56.96 26H52.8V21.84L53.472 18.064L52.768 14.352V2.864H56.96V26ZM67.1325 26.32C65.7245 26.32 64.4552 25.968 63.3245 25.264C62.1938 24.56 61.3085 23.6 60.6685 22.384C60.0285 21.168 59.7085 19.8027 59.7085 18.288C59.7085 16.752 60.0285 15.376 60.6685 14.16C61.3085 12.944 62.1938 11.984 63.3245 11.28C64.4552 10.576 65.7245 10.224 67.1325 10.224C68.2418 10.224 69.2338 10.448 70.1085 10.896C70.9832 11.344 71.6765 11.9733 72.1885 12.784C72.7218 13.5733 73.0098 14.4693 73.0525 15.472V21.04C73.0098 22.064 72.7218 22.9707 72.1885 23.76C71.6765 24.5493 70.9832 25.1787 70.1085 25.648C69.2338 26.096 68.2418 26.32 67.1325 26.32ZM67.9005 22.448C69.0738 22.448 70.0232 22.064 70.7485 21.296C71.4738 20.5067 71.8365 19.4933 71.8365 18.256C71.8365 17.4453 71.6658 16.7307 71.3245 16.112C71.0045 15.472 70.5458 14.9813 69.9485 14.64C69.3725 14.2773 68.6898 14.096 67.9005 14.096C67.1325 14.096 66.4498 14.2773 65.8525 14.64C65.2765 14.9813 64.8178 15.472 64.4765 16.112C64.1565 16.7307 63.9965 17.4453 63.9965 18.256C63.9965 19.088 64.1565 19.824 64.4765 20.464C64.8178 21.0827 65.2765 21.5733 65.8525 21.936C66.4498 22.2773 67.1325 22.448 67.9005 22.448ZM71.6125 26V21.84L72.2845 18.064L71.6125 14.352V10.544H75.7725V26H71.6125ZM83.609 26L77.817 10.544H82.041L85.817 21.776L84.537 21.808L88.409 10.544H91.449L95.321 21.808L94.041 21.776L97.817 10.544H102.041L96.281 26H93.241L89.337 15.312H90.521L86.617 26H83.609ZM114.475 26V17.136C114.475 16.2187 114.187 15.472 113.611 14.896C113.035 14.32 112.288 14.032 111.371 14.032C110.773 14.032 110.24 14.16 109.771 14.416C109.301 14.672 108.928 15.0347 108.651 15.504C108.395 15.9733 108.267 16.5173 108.267 17.136L106.635 16.304C106.635 15.088 106.891 14.032 107.403 13.136C107.936 12.2187 108.661 11.504 109.579 10.992C110.517 10.48 111.573 10.224 112.747 10.224C113.877 10.224 114.891 10.512 115.787 11.088C116.683 11.6427 117.387 12.3787 117.899 13.296C118.411 14.192 118.667 15.1627 118.667 16.208V26H114.475ZM104.075 26V10.544H108.267V26H104.075Z" fill="#191919"/>
<defs>
<clipPath id="clip0_18657_25043">
<rect width="32" height="27" fill="white" transform="translate(0 2.5)"/>
</clipPath>
</defs>
</svg>
