<svg width="452" height="309" viewBox="0 0 452 309" fill="none" xmlns="http://www.w3.org/2000/svg">
<path d="M211.967 47.0986C189.549 34.0618 153.335 33.9653 131.085 46.9296L-300.895 298.322C-323.145 311.262 -323.025 332.338 -300.607 345.399L-135.202 441.654C-112.784 454.691 -76.5699 454.787 -54.3195 441.823L377.636 190.431C399.887 177.49 399.767 156.39 377.349 143.353L211.943 47.0986H211.967Z" fill="#F5F5F5"/>
<path d="M-260.896 289.078V324.663C-260.345 331.809 -255.747 338.569 -246.933 343.711L-75.6114 443.37C-54.8698 455.49 -18.5123 453.945 5.46265 439.99L431.143 192.292C444.388 184.542 451.118 174.644 450.998 165.277V130.102C450.998 130.705 450.951 131.333 450.903 131.936C450.855 132.299 450.807 132.612 450.759 132.974C450.711 133.433 450.615 133.892 450.495 134.399C450.088 136.234 449.466 138.044 448.555 139.831C448.244 140.507 447.837 141.207 447.43 141.835C446.879 142.752 446.304 143.621 445.633 144.466C445.178 145.094 444.627 145.746 444.053 146.373C443.43 147.146 442.735 147.918 441.969 148.594C439.071 151.516 435.454 154.195 431.167 156.706L5.48663 404.453C-18.4643 418.407 -54.8219 419.904 -75.5874 407.833L-246.933 308.126C-247.843 307.571 -248.753 307.039 -249.567 306.436C-250.334 305.929 -251.052 305.398 -251.747 304.843C-251.843 304.794 -251.89 304.698 -251.962 304.649C-253.327 303.563 -254.501 302.404 -255.483 301.221C-255.842 300.859 -256.154 300.497 -256.489 300.087C-257.208 299.121 -257.902 298.179 -258.381 297.165C-258.597 296.851 -258.788 296.489 -258.932 296.151C-259.291 295.524 -260.153 293.182 -260.297 292.651C-260.561 291.637 -260.896 289.271 -260.92 289.054L-260.896 289.078Z" fill="white"/>
<path d="M-246.957 308.125L-75.6598 407.808C-54.8704 419.903 -18.5607 418.382 5.43814 404.428L431.071 156.729C455.069 142.751 457.68 121.626 436.891 109.531L265.617 9.84824C244.828 -2.24699 208.518 -0.72603 184.519 13.2281L-241.137 260.927C-265.136 274.905 -267.747 296.029 -246.957 308.125Z" fill="white" stroke="#CCCCCC" stroke-width="1.5" stroke-miterlimit="10"/>
<path d="M261.689 15.5691L427.094 111.824C445.656 122.64 445.776 140.143 427.334 150.886L-4.62164 402.278C-23.0639 412.997 -53.1463 412.949 -71.7322 402.133L-237.138 305.879C-255.7 295.063 -255.819 277.56 -237.377 266.817L194.602 15.4242C213.045 4.70511 243.127 4.7534 261.713 15.5691M268.587 11.5615C246.169 -1.47528 209.955 -1.57185 187.705 11.3925L-244.299 262.785C-266.549 275.725 -266.43 296.801 -244.011 309.862L-78.6062 406.117C-56.1881 419.154 -19.9742 419.25 2.27621 406.286L434.232 154.893C456.482 141.953 456.362 120.853 433.944 107.816L268.563 11.5615H268.587Z" fill="white"/>
<path d="M261.689 15.5691L427.094 111.824C445.656 122.64 445.776 140.143 427.334 150.886L-4.62163 402.278C-23.0639 412.997 -53.1463 412.949 -71.7322 402.133L-237.138 305.879C-255.7 295.063 -255.819 277.56 -237.377 266.817L194.602 15.4242C213.045 4.70511 243.127 4.7534 261.713 15.5691M268.587 11.5615C246.169 -1.47528 209.955 -1.57185 187.705 11.3925L-244.299 262.785C-266.549 275.725 -266.43 296.801 -244.011 309.862L-78.6062 406.117C-56.1881 419.154 -19.9742 419.25 2.27622 406.286L434.232 154.893C456.482 141.953 456.362 120.853 433.944 107.816L268.563 11.5615H268.587Z" stroke="#CCCCCC" stroke-width="1.5" stroke-miterlimit="10"/>
<path d="M332.264 226.717C335.449 224.882 337.988 226.403 337.964 230.072C337.94 233.742 335.353 238.208 332.192 240.043L298.756 259.26C295.571 261.095 293.032 259.574 293.056 255.904C293.08 252.235 295.667 247.769 298.828 245.934L332.264 226.717Z" fill="#F5F5F5"/>
<mask id="mask0_230_425" style="mask-type:luminance" maskUnits="userSpaceOnUse" x="-252" y="7" width="694" height="404">
<path d="M261.69 15.57L427.095 111.825C445.657 122.64 445.777 140.144 427.335 150.887L-4.62106 402.279C-23.0633 412.998 -53.1457 412.95 -71.7317 402.134L-237.137 305.879C-255.699 295.064 -255.819 277.561 -237.376 266.817L194.603 15.4252C213.045 4.70604 243.128 4.75433 261.714 15.57" fill="white"/>
</mask>
<g mask="url(#mask0_230_425)">
<path d="M536.336 146.709L448.508 143.594L497.488 186.278L443.861 204.07L423.551 179.687L366.668 204.239L313.209 186.664L362.716 143.763L274.864 147.24L275.079 111.727L362.907 114.986L313.928 72.3026L367.602 54.4856L420.581 82.9734L444.772 54.3167L498.182 71.9163L448.676 114.817L536.528 111.196L536.312 146.709H536.336Z" fill="#F5F5F5"/>
<path d="M120.332 110.016C168.93 109.708 208.183 86.5335 208.007 58.254C207.831 29.9745 168.291 7.29897 119.694 7.60676C71.0957 7.91455 31.8423 31.0891 32.0186 59.3686C32.1949 87.6481 71.7341 110.324 120.332 110.016Z" fill="#FAFAFA"/>
<path d="M93.6379 399.765C145.027 399.44 186.534 374.932 186.348 345.026C186.162 315.12 144.352 291.14 92.9628 291.466C41.574 291.791 0.0663451 316.299 0.252765 346.205C0.439184 376.111 42.2491 400.091 93.6379 399.765Z" fill="#FAFAFA"/>
</g>
<path d="M261.69 15.57L427.095 111.825C445.657 122.64 445.777 140.144 427.334 150.887L-4.62106 402.279C-23.0633 412.998 -53.1457 412.95 -71.7317 402.134L-237.137 305.879C-255.699 295.064 -255.819 277.561 -237.376 266.817L194.603 15.4252C213.045 4.70604 243.128 4.75433 261.714 15.57" stroke="#CCCCCC" stroke-width="1.5" stroke-miterlimit="10"/>
<path d="M293.511 64.7724L342.515 93.2843C347.185 96.0123 355.377 95.6743 360.79 92.5117C366.203 89.3732 366.777 84.6172 362.107 81.8892L313.103 53.3772C308.433 50.6492 300.242 50.9872 294.829 54.1498C289.416 57.2883 288.841 62.0443 293.511 64.7724Z" fill="#C2C2C2"/>
<path d="M356.695 87.6154C356.704 86.2021 354.749 85.044 352.328 85.0286C349.907 85.0133 347.938 86.1466 347.929 87.5599C347.92 88.9732 349.875 90.1313 352.296 90.1467C354.717 90.162 356.686 89.0287 356.695 87.6154Z" fill="#F5F5F5"/>
<path d="M-260.896 289.078V324.663C-260.345 331.809 -255.747 338.569 -246.933 343.711L-75.6114 443.37C-54.8698 455.49 -18.5123 453.945 5.46265 439.99L431.143 192.292C444.388 184.542 451.118 174.644 450.998 165.277V130.102C450.998 130.705 450.951 131.333 450.903 131.936C450.855 132.299 450.807 132.612 450.759 132.974C450.711 133.433 450.615 133.892 450.495 134.399C450.088 136.234 449.466 138.044 448.555 139.831C448.244 140.507 447.837 141.207 447.43 141.835C446.879 142.752 446.304 143.621 445.633 144.466C445.178 145.094 444.627 145.746 444.053 146.373C443.43 147.146 442.735 147.918 441.969 148.594C439.071 151.516 435.454 154.195 431.167 156.706L5.48662 404.453C-18.4643 418.407 -54.8219 419.904 -75.5874 407.833L-246.933 308.126C-247.843 307.571 -248.753 307.039 -249.567 306.436C-250.334 305.929 -251.052 305.398 -251.747 304.843C-251.843 304.794 -251.89 304.698 -251.962 304.649C-253.327 303.563 -254.501 302.404 -255.483 301.221C-255.842 300.859 -256.154 300.497 -256.489 300.087C-257.208 299.121 -257.902 298.179 -258.381 297.165C-258.597 296.851 -258.788 296.489 -258.932 296.151C-259.291 295.524 -260.153 293.182 -260.297 292.651C-260.561 291.637 -260.896 289.271 -260.92 289.054L-260.896 289.078Z" stroke="#CCCCCC" stroke-width="1.5" stroke-miterlimit="10"/>
<path d="M7.73633 223.025L127.132 251.489L154.723 235.241L35.3278 206.778L7.73633 223.025Z" fill="#C2C2C2"/>
<path d="M104.234 166.17L76.7147 182.393L93.4804 205.449L121.072 189.202L104.234 166.17Z" fill="#C2C2C2"/>
<path d="M148.639 172.931L121.048 189.178L154.699 235.217L182.219 218.994L148.615 172.906L148.639 172.931Z" fill="#C2C2C2"/>
</svg>
