<svg width="98" height="98" viewBox="0 0 98 98" fill="none" xmlns="http://www.w3.org/2000/svg">
<rect x="0.5" y="0.5" width="97" height="97" fill="white"/>
<rect x="0.5" y="0.5" width="97" height="97" stroke="#E9EAEB" stroke-dasharray="4 4"/>
<g opacity="0.5">
<path d="M84.0305 64.4289L71.6164 71.6305C70.4542 72.3032 68.9164 72.6447 67.2974 72.6702H49.1025V59.2814C49.2142 59.1998 49.3309 59.1183 49.4527 59.0367C49.5238 58.9908 49.5948 58.945 49.671 58.9042L62.0851 51.7078C64.7648 50.1584 68.0993 49.5774 71.1901 51.3663L83.2845 58.3792C86.3753 60.1682 86.7103 62.8796 84.0305 64.4289Z" fill="#F5F5F5"/>
<path d="M49.1079 55.2652V67.7367C49.1079 67.8488 49.1079 67.9558 49.0977 68.0628C48.9759 71.2992 46.9966 72.8129 44.53 71.5642C44.4386 71.5183 44.3473 71.4674 44.261 71.4164L31.8469 64.2149C29.1722 62.6655 27 58.5016 27 54.9186V42.4472C27 38.8643 29.1722 37.2181 31.8469 38.7674L32.3696 39.0681L43.789 45.6938C43.789 45.6938 43.8042 45.7039 43.8144 45.709L44.261 45.969C46.8291 47.4572 48.9353 51.3612 49.0977 54.8422C49.1028 54.9849 49.1079 55.1225 49.1079 55.2652Z" fill="white" stroke="#CCCCCC" stroke-width="0.63" stroke-miterlimit="10"/>
<path d="M71.1907 42.4472V54.9186C71.1907 58.5016 69.0235 62.6655 66.3438 64.2149L53.9297 71.4164C53.8485 71.4623 53.7622 71.5133 53.6759 71.554C51.1992 72.818 49.2198 71.3094 49.098 68.0628C49.0879 67.9558 49.0879 67.8488 49.0879 67.7367V55.2652C49.0879 55.1225 49.093 54.9849 49.098 54.8422C49.2604 51.3612 51.3616 47.4572 53.9297 45.969L66.3438 38.7674C69.0235 37.2181 71.1907 38.8643 71.1907 42.4472Z" fill="#EBEBEB" stroke="#CCCCCC" stroke-width="0.63" stroke-miterlimit="10"/>
<path d="M53.9295 45.969C51.3614 47.4572 49.2602 51.3612 49.0978 54.8422C48.9354 51.3612 46.8292 47.4572 44.2611 45.969L43.8145 45.709C46.9002 47.3349 51.3462 47.4674 53.9295 45.969Z" fill="#F5F5F5" stroke="#CCCCCC" stroke-width="0.63" stroke-miterlimit="10"/>
<path d="M66.3437 38.7674L53.9295 45.969C51.3462 47.4674 46.9003 47.3349 43.8145 45.709C43.8044 45.709 43.7993 45.6989 43.7892 45.6938C43.6877 45.6428 43.5862 45.5867 43.4897 45.5307L32.7352 39.2975C32.6083 39.2261 32.4865 39.1497 32.3698 39.0681C29.7053 37.3353 29.4312 34.8838 31.7658 33.3752C31.8369 33.3293 31.908 33.2835 31.9841 33.2427L44.3982 26.0463C47.0779 24.4969 51.7523 24.6906 54.8431 26.4795L65.5976 32.7178C68.6884 34.5067 69.0234 37.2181 66.3437 38.7674Z" fill="white" stroke="#CCCCCC" stroke-width="0.63" stroke-miterlimit="10"/>
<path d="M71.1906 42.4472C71.1906 38.8643 69.0235 37.2181 66.3437 38.7674C69.0235 37.2181 68.6885 34.5067 65.5977 32.7178C69.4802 34.9654 71.1906 36.5657 71.1906 42.4472Z" fill="#EBEBEB" stroke="#CCCCCC" stroke-width="0.63" stroke-miterlimit="10"/>
<path d="M32.3696 39.0681L31.8469 38.7674C29.1722 37.2181 27 38.8643 27 42.4472C27 38.0692 27.9288 35.6687 31.7657 33.3752C29.4311 34.8838 29.7051 37.3353 32.3696 39.0681Z" fill="#F5F5F5" stroke="#CCCCCC" stroke-width="0.63" stroke-miterlimit="10"/>
<path d="M31.9839 33.2427C31.9077 33.2835 31.8367 33.3293 31.7656 33.3752" stroke="#CCCCCC" stroke-width="0.63" stroke-miterlimit="10"/>
<path d="M53.6759 71.554C50.7424 73.134 47.1643 72.9658 44.5303 71.5642C46.9969 72.8129 48.9762 71.2992 49.098 68.0628C49.2198 71.3094 51.1992 72.818 53.6759 71.554Z" fill="#F5F5F5" stroke="#CCCCCC" stroke-width="0.63" stroke-miterlimit="10"/>
<path d="M53.6758 71.554C53.7621 71.5133 53.8483 71.4623 53.9295 71.4164" stroke="#CCCCCC" stroke-width="0.63" stroke-miterlimit="10"/>
<path d="M44.5302 71.5642C44.4389 71.5183 44.3475 71.4674 44.2612 71.4164" stroke="#CCCCCC" stroke-width="0.63" stroke-miterlimit="10"/>
</g>
</svg>
