<svg width="130" height="66" viewBox="0 0 130 66" fill="none" xmlns="http://www.w3.org/2000/svg">
<rect x="0.5" y="0.5" width="129" height="65" fill="white"/>
<rect x="0.5" y="0.5" width="129" height="65" stroke="#E9EAEB" stroke-dasharray="4 4"/>
<g opacity="0.5">
<path d="M90.6766 44.5051L81.3869 49.8941C80.5172 50.3975 79.3665 50.6531 78.155 50.6721H64.5396V40.6531C64.6231 40.5921 64.7105 40.5311 64.8016 40.4701C64.8548 40.4357 64.9079 40.4014 64.9649 40.3709L74.2545 34.9857C76.2598 33.8263 78.755 33.3915 81.0679 34.7302L90.1183 39.9781C92.4312 41.3167 92.6818 43.3457 90.6766 44.5051Z" fill="#F5F5F5"/>
<path d="M64.5436 37.6479V46.9804C64.5436 47.0643 64.5436 47.1444 64.536 47.2245C64.4448 49.6463 62.9636 50.779 61.1179 49.8446C61.0495 49.8103 60.9812 49.7721 60.9166 49.734L51.627 44.345C49.6255 43.1856 48 40.0697 48 37.3885V28.056C48 25.3749 49.6255 24.143 51.627 25.3024L52.0182 25.5274L60.5634 30.4855C60.5634 30.4855 60.5748 30.4931 60.5824 30.4969L60.9166 30.6914C62.8383 31.8051 64.4144 34.7265 64.536 37.3313C64.5398 37.4381 64.5436 37.5411 64.5436 37.6479Z" fill="white" stroke="#CCCCCC" stroke-width="0.63" stroke-miterlimit="10"/>
<path d="M81.0686 28.056V37.3885C81.0686 40.0697 79.4469 43.1856 77.4416 44.345L68.152 49.734C68.0912 49.7683 68.0267 49.8065 67.9621 49.837C66.1087 50.7828 64.6276 49.6539 64.5364 47.2245C64.5288 47.1444 64.5288 47.0643 64.5288 46.9804V37.6479C64.5288 37.5411 64.5326 37.4381 64.5364 37.3313C64.6579 34.7265 66.2303 31.8051 68.152 30.6914L77.4416 25.3024C79.4469 24.143 81.0686 25.3749 81.0686 28.056Z" fill="#EBEBEB" stroke="#CCCCCC" stroke-width="0.63" stroke-miterlimit="10"/>
<path d="M68.1517 30.6913C66.23 31.8049 64.6576 34.7263 64.5361 37.3312C64.4146 34.7263 62.8385 31.8049 60.9167 30.6913L60.5825 30.4968C62.8916 31.7134 66.2186 31.8125 68.1517 30.6913Z" fill="#F5F5F5" stroke="#CCCCCC" stroke-width="0.63" stroke-miterlimit="10"/>
<path d="M77.4415 25.3023L68.1519 30.6913C66.2188 31.8126 62.8919 31.7134 60.5827 30.4968C60.5751 30.4968 60.5714 30.4892 60.5638 30.4854C60.4878 30.4472 60.4118 30.4053 60.3397 30.3633L52.292 25.699C52.197 25.6456 52.1059 25.5884 52.0185 25.5273C50.0246 24.2306 49.8196 22.3962 51.5666 21.2673C51.6197 21.2329 51.6729 21.1986 51.7299 21.1681L61.0195 15.7829C63.0248 14.6235 66.5226 14.7685 68.8355 16.1071L76.8832 20.7753C79.1962 22.1139 79.4468 24.1429 77.4415 25.3023Z" fill="white" stroke="#CCCCCC" stroke-width="0.63" stroke-miterlimit="10"/>
<path d="M81.0681 28.0559C81.0681 25.3748 79.4464 24.1429 77.4411 25.3023C79.4464 24.1429 79.1957 22.1139 76.8828 20.7753C79.7882 22.4572 81.0681 23.6547 81.0681 28.0559Z" fill="#EBEBEB" stroke="#CCCCCC" stroke-width="0.63" stroke-miterlimit="10"/>
<path d="M52.0182 25.5274L51.627 25.3023C49.6255 24.1429 48 25.3748 48 28.0559C48 24.7798 48.695 22.9835 51.5662 21.2673C49.8192 22.3962 50.0243 24.2306 52.0182 25.5274Z" fill="#F5F5F5" stroke="#CCCCCC" stroke-width="0.63" stroke-miterlimit="10"/>
<path d="M51.7297 21.1681C51.6727 21.1986 51.6196 21.2329 51.5664 21.2673" stroke="#CCCCCC" stroke-width="0.63" stroke-miterlimit="10"/>
<path d="M67.9619 49.8368C65.7668 51.0191 63.0893 50.8932 61.1182 49.8444C62.9639 50.7788 64.4451 49.6461 64.5363 47.2243C64.6274 49.6537 66.1086 50.7826 67.9619 49.8368Z" fill="#F5F5F5" stroke="#CCCCCC" stroke-width="0.63" stroke-miterlimit="10"/>
<path d="M67.9619 49.837C68.0265 49.8065 68.091 49.7683 68.1518 49.734" stroke="#CCCCCC" stroke-width="0.63" stroke-miterlimit="10"/>
<path d="M61.1183 49.8446C61.0499 49.8103 60.9816 49.7721 60.917 49.734" stroke="#CCCCCC" stroke-width="0.63" stroke-miterlimit="10"/>
</g>
</svg>
