<svg width="181" height="95" viewBox="0 0 181 95" fill="none" xmlns="http://www.w3.org/2000/svg">
<path d="M2.40002 85.7595L8.95996 92.3195C10.63 93.9195 13.36 94.4495 16.77 93.5395L35.51 88.5195C42.4 86.6695 49.4801 79.6195 51.3101 72.7695L56.29 54.1695C57.2 50.7595 56.65 48.0495 55.01 46.4095L48.45 39.8495C49.59 40.9895 50.2 42.6395 50.16 44.6895C50.15 45.5995 50.01 46.5695 49.73 47.6195L44.75 66.2195C42.92 73.0695 35.8399 80.1195 28.9399 81.9595L10.2 86.9795C9.11995 87.2695 8.10005 87.4195 7.18005 87.4295C5.17005 87.4495 3.54002 86.8695 2.40002 85.7695V85.7595Z" fill="white"/>
<path d="M49.7401 47.61C51.5701 40.76 47.4701 36.71 40.5701 38.56L21.8401 43.58C14.9401 45.43 7.86018 52.48 6.03018 59.32L1.0502 77.92C-0.779797 84.77 3.32013 88.82 10.2201 86.97L28.9501 81.95C35.8501 80.1 42.9302 73.05 44.7602 66.21L49.7401 47.61Z" fill="white" stroke="#CCCCCC" stroke-width="0.75" stroke-linecap="round" stroke-linejoin="round"/>
<path d="M2.41016 85.76L8.97009 92.32C10.6401 93.92 13.3701 94.46 16.7701 93.54L35.5101 88.51C38.2601 87.77 41.0501 86.2 43.5201 84.14L36.9601 77.58C34.4901 79.63 31.7001 81.21 28.9401 81.95L10.2001 86.97C9.13007 87.26 8.11018 87.41 7.18018 87.42C5.16018 87.44 3.53015 86.85 2.40015 85.75L2.41016 85.76Z" fill="#EBEBEB"/>
<path d="M2.40002 85.7595L8.95996 92.3195C10.63 93.9195 13.36 94.4495 16.77 93.5395L35.51 88.5195C42.4 86.6695 49.4801 79.6195 51.3101 72.7695L56.29 54.1695C57.2 50.7595 56.65 48.0495 55.01 46.4095L48.45 39.8495C49.59 40.9895 50.2 42.6395 50.16 44.6895C50.15 45.5995 50.01 46.5695 49.73 47.6195L44.75 66.2195C42.92 73.0695 35.8399 80.1195 28.9399 81.9595L10.2 86.9795C9.11995 87.2695 8.10005 87.4195 7.18005 87.4295C5.17005 87.4495 3.54002 86.8695 2.40002 85.7695V85.7595Z" stroke="#CCCCCC" stroke-width="0.75" stroke-linecap="round" stroke-linejoin="round"/>
<path d="M24.1101 67.04L18.5101 74.11L14.8002 72.04L20.8901 65.23L14.3401 65.17L17.5302 59.33L23.6602 60.14L25.2501 52.94L30.9302 51.42L28.6201 58.81L36.1301 54.35L36.4401 59.25L28.8801 63.09L31.9801 67.44L26.5001 71.97L24.1201 67.04H24.1101Z" fill="#EBEBEB"/>
<path d="M125.43 48.7693L131.99 55.3293C133.66 56.9293 136.39 57.4593 139.8 56.5493L158.54 51.5293C165.43 49.6793 172.51 42.6293 174.34 35.7793L179.32 17.1793C180.23 13.7693 179.68 11.0593 178.04 9.41925L171.48 2.85925C172.62 3.99925 173.23 5.64928 173.19 7.69928C173.18 8.60928 173.04 9.57927 172.76 10.6293L167.78 29.2292C165.95 36.0792 158.87 43.1292 151.97 44.9692L133.23 49.9893C132.15 50.2793 131.13 50.4293 130.21 50.4393C128.2 50.4593 126.57 49.8793 125.43 48.7793V48.7693Z" fill="white"/>
<path d="M172.76 10.6198C174.59 3.76975 170.49 -0.280236 163.59 1.56976L144.86 6.58978C137.96 8.43978 130.88 15.4898 129.05 22.3298L124.07 40.9297C122.24 47.7797 126.34 51.8297 133.24 49.9797L151.97 44.9598C158.87 43.1098 165.95 36.0597 167.78 29.2197L172.76 10.6198Z" fill="white" stroke="#CCCCCC" stroke-width="0.75" stroke-linecap="round" stroke-linejoin="round"/>
<path d="M125.43 48.7697L131.99 55.3297C133.66 56.9297 136.39 57.4697 139.79 56.5497L158.53 51.5197C161.28 50.7797 164.07 49.2097 166.54 47.1497L159.98 40.5897C157.51 42.6397 154.72 44.2197 151.96 44.9597L133.22 49.9797C132.15 50.2697 131.13 50.4197 130.2 50.4297C128.18 50.4497 126.55 49.8597 125.42 48.7597L125.43 48.7697Z" fill="#EBEBEB"/>
<path d="M125.43 48.7693L131.99 55.3293C133.66 56.9293 136.39 57.4593 139.8 56.5493L158.54 51.5293C165.43 49.6793 172.51 42.6293 174.34 35.7793L179.32 17.1793C180.23 13.7693 179.68 11.0593 178.04 9.41925L171.48 2.85925C172.62 3.99925 173.23 5.64928 173.19 7.69928C173.18 8.60928 173.04 9.57927 172.76 10.6293L167.78 29.2292C165.95 36.0792 158.87 43.1292 151.97 44.9692L133.23 49.9893C132.15 50.2793 131.13 50.4293 130.21 50.4393C128.2 50.4593 126.57 49.8793 125.43 48.7793V48.7693Z" stroke="#CCCCCC" stroke-width="0.75" stroke-linecap="round" stroke-linejoin="round"/>
<path d="M125.43 54.4395C128.561 54.4395 131.1 51.901 131.1 48.7695C131.1 45.6381 128.561 43.0995 125.43 43.0995C122.298 43.0995 119.76 45.6381 119.76 48.7695C119.76 51.901 122.298 54.4395 125.43 54.4395Z" fill="white" stroke="#CCCCCC" stroke-width="0.75" stroke-linecap="round" stroke-linejoin="round"/>
<path d="M48.4503 39.8499L66.5404 34.9999C74.1904 32.9499 82.0503 37.49 84.1003 45.14C86.1503 52.79 94.0104 57.33 101.66 55.28L119.75 50.4299" stroke="#CCCCCC" stroke-width="0.75" stroke-linecap="round" stroke-linejoin="round"/>
<path d="M48.4503 45.5196C51.5818 45.5196 54.1204 42.981 54.1204 39.8495C54.1204 36.7181 51.5818 34.1796 48.4503 34.1796C45.3189 34.1796 42.7804 36.7181 42.7804 39.8495C42.7804 42.981 45.3189 45.5196 48.4503 45.5196Z" fill="white" stroke="#CCCCCC" stroke-width="0.75" stroke-linecap="round" stroke-linejoin="round"/>
<path d="M153.64 31.0593L150.63 31.8693L151.9 27.1193C152.2 25.9893 152.57 24.5393 151.03 24.9493C149.49 25.3593 148.89 26.6693 148.55 27.9393L147.26 32.7694L144.25 33.5793L146.87 23.8193L149.76 23.0493L149.4 24.3793H149.44C150.3 23.1993 151.56 22.2994 152.71 22.0294C155.76 21.2094 155.78 23.0794 155.08 25.7094L153.64 31.0593ZM143.83 23.3893C142.87 23.6493 142.29 23.0693 142.55 22.0993C142.81 21.1293 143.8 20.1293 144.77 19.8693C145.73 19.6093 146.31 20.1893 146.05 21.1593C145.79 22.1293 144.8 23.1293 143.83 23.3893ZM142.36 34.0793L139.35 34.8893L141.97 25.1293L144.98 24.3193L142.36 34.0793ZM159.81 13.2293L142.51 17.8693C141.69 18.0793 140.85 18.9193 140.62 19.7493L135.93 37.2493C135.72 38.0693 136.21 38.5493 137.03 38.3193L154.33 33.6793C155.15 33.4693 156 32.6293 156.23 31.7993L160.92 14.2993C161.13 13.4793 160.63 12.9993 159.81 13.2293Z" fill="#C2C2C2"/>
</svg>
