<svg width="189" height="163" viewBox="0 0 189 163" fill="none" xmlns="http://www.w3.org/2000/svg">
<g clip-path="url(#clip0_230_474)">
<path d="M149.036 83.5139C146.849 82.7992 143.932 82.7117 141.452 83.2076L129.229 85.658C129.011 85.5705 128.763 85.483 128.529 85.3954C126.794 84.8266 124.445 84.7537 122.462 85.1475L110.458 87.5541C109.991 87.3061 109.495 87.0728 108.97 86.8977C107.57 86.4456 105.703 86.3872 104.128 86.6935L73.134 92.8777L104.215 99.0765C104.391 99.1057 104.551 99.1349 104.741 99.164C105.295 99.2516 105.849 99.2807 106.418 99.2807C107.351 99.2807 108.27 99.1495 109.043 98.9015C109.597 98.7265 110.093 98.4931 110.56 98.2306L122.593 100.637C122.812 100.681 123.031 100.71 123.249 100.754C123.95 100.841 124.65 100.9 125.364 100.885C126.517 100.885 127.654 100.725 128.631 100.404C128.894 100.316 129.142 100.229 129.39 100.127L141.642 102.577C141.89 102.621 142.152 102.665 142.415 102.708C143.275 102.825 144.165 102.883 145.055 102.883C146.513 102.883 147.943 102.679 149.168 102.285C150.349 101.906 151.428 101.381 152.42 100.754C153.587 100.01 154.579 99.1057 155.352 98.0847C156.081 97.1075 156.621 96.0282 156.898 94.8759H163.651C163.826 94.8759 163.972 94.8614 164.118 94.8322H164.234C164.366 94.7884 164.512 94.7593 164.628 94.7155C164.628 94.7155 164.657 94.7155 164.672 94.7155C164.818 94.6718 164.964 94.6134 165.095 94.5405C165.095 94.5405 165.095 94.5405 165.124 94.5259C165.241 94.4676 165.357 94.3946 165.445 94.3217C165.445 94.3217 165.489 94.2925 165.503 94.2925C165.605 94.205 165.693 94.1175 165.795 94.03C165.795 94.0008 165.839 93.9717 165.853 93.9425C165.897 93.8987 165.926 93.855 165.955 93.8112C166.145 93.5341 166.247 93.2278 166.247 92.9069C166.247 91.813 165.11 90.9233 163.695 90.9233H156.883C156.008 87.5978 153.033 84.8412 149.08 83.5431L149.036 83.5139Z" fill="#F5F5F5"/>
<path d="M187.848 69.4828C188.957 71.9623 188.752 74.8794 187.148 77.0526C183.677 81.7783 175.567 85.1183 166.13 85.1329C156.708 85.1475 148.643 81.8512 145.23 77.1401C143.654 74.9669 143.479 72.079 144.573 69.6286L166.233 21.0447L187.863 69.4682L187.848 69.4828Z" fill="white" stroke="#CCCCCC" stroke-width="1.5" stroke-linecap="round" stroke-linejoin="round"/>
<path d="M145.215 77.1692C146.076 78.3506 147.213 79.4445 148.628 80.4217L166.203 21.0737L144.559 69.6431C143.479 72.0935 143.64 74.9814 145.215 77.1692Z" fill="#EBEBEB"/>
<path d="M187.848 69.4828C188.957 71.9623 188.752 74.8794 187.148 77.0526C183.677 81.7783 175.567 85.1183 166.13 85.1329C156.708 85.1475 148.643 81.8512 145.23 77.1401C143.654 74.9669 143.479 72.079 144.573 69.6286L166.233 21.0447L187.863 69.4682L187.848 69.4828Z" stroke="#CCCCCC" stroke-width="1.5" stroke-linecap="round" stroke-linejoin="round"/>
<path d="M183.516 50.4927C184.406 52.4763 184.246 54.8099 182.962 56.5456C180.191 60.3232 173.7 62.9923 166.145 63.0069C158.604 63.0215 152.158 60.3815 149.416 56.6185C148.161 54.8829 148.015 52.5638 148.891 50.6093L166.218 11.7393L183.516 50.4781V50.4927Z" fill="white" stroke="#CCCCCC" stroke-width="1.5" stroke-linecap="round" stroke-linejoin="round"/>
<path d="M149.416 56.6332C150.101 57.5812 151.02 58.4563 152.143 59.2294L166.203 11.7539L148.891 50.6094C148.03 52.5784 148.161 54.8829 149.416 56.6332Z" fill="#EBEBEB"/>
<path d="M183.516 50.4927C184.406 52.4763 184.246 54.8099 182.962 56.5456C180.191 60.3232 173.7 62.9923 166.145 63.0069C158.604 63.0215 152.158 60.3816 149.416 56.6185C148.161 54.8829 148.015 52.5638 148.891 50.6093L166.218 11.7393L183.516 50.4781V50.4927Z" stroke="#CCCCCC" stroke-width="1.5" stroke-linecap="round" stroke-linejoin="round"/>
<path d="M180.059 32.1441C180.759 33.7339 180.643 35.6009 179.622 36.9865C177.405 40.0202 172.212 42.1497 166.174 42.1643C160.136 42.1643 154.972 40.064 152.799 37.0594C151.793 35.6738 151.676 33.8214 152.376 32.2462L166.218 1.15015L180.059 32.1441Z" fill="white" stroke="#CCCCCC" stroke-width="1.5" stroke-linecap="round" stroke-linejoin="round"/>
<path d="M152.77 37.0594C153.325 37.8178 154.054 38.5179 154.958 39.1451L166.203 1.15015L152.347 32.2316C151.647 33.8069 151.764 35.6446 152.77 37.0448V37.0594Z" fill="#EBEBEB"/>
<path d="M180.059 32.1441C180.759 33.7339 180.643 35.6009 179.622 36.9865C177.405 40.0202 172.212 42.1497 166.174 42.1643C160.136 42.1643 154.972 40.064 152.799 37.0594C151.793 35.6738 151.676 33.8214 152.376 32.2462L166.218 1.15015L180.059 32.1441Z" stroke="#CCCCCC" stroke-width="1.5" stroke-linecap="round" stroke-linejoin="round"/>
<path d="M161.769 84.9141V91.6526C161.769 93.0819 163.768 94.2342 166.218 94.2342C168.683 94.2342 170.652 93.0965 170.652 91.6817V84.8704C169.179 85.06 167.677 85.1475 166.116 85.1475C164.555 85.1475 163.17 85.0746 161.755 84.9141H161.769Z" fill="white"/>
<path d="M161.769 84.9141V91.6525C161.769 92.6589 162.747 93.5194 164.191 93.9424V85.1037C163.359 85.0599 162.572 85.0016 161.769 84.9141Z" fill="#EBEBEB"/>
<path d="M161.769 84.9141V91.6526C161.769 93.0819 163.768 94.2342 166.218 94.2342C168.683 94.2342 170.652 93.0965 170.652 91.6817V84.8704C169.179 85.06 167.677 85.1475 166.116 85.1475C164.555 85.1475 163.17 85.0746 161.755 84.9141H161.769Z" stroke="#CCCCCC" stroke-width="1.5" stroke-linecap="round" stroke-linejoin="round"/>
<path d="M76.124 113.428C73.9362 112.714 71.0191 112.626 68.5396 113.122L56.3171 115.573C56.0983 115.485 55.8503 115.398 55.617 115.31C53.8813 114.741 51.5331 114.668 49.5494 115.062L37.5457 117.469C37.0789 117.221 36.583 116.987 36.0579 116.812C34.6577 116.36 32.7908 116.302 31.2156 116.608L0.207031 122.792L31.2885 128.991C31.4635 129.02 31.624 129.049 31.8136 129.079C32.3678 129.166 32.9221 129.195 33.4909 129.195C34.4244 129.195 35.3433 129.064 36.1163 128.816C36.6705 128.641 37.1664 128.408 37.6332 128.145L49.6661 130.552C49.8849 130.595 50.1037 130.625 50.3225 130.668C51.0226 130.756 51.7227 130.814 52.4373 130.8C53.5896 130.8 54.7272 130.639 55.7045 130.318C55.967 130.231 56.215 130.143 56.4629 130.041L68.7147 132.492C68.9626 132.535 69.2251 132.579 69.4877 132.623C70.3482 132.74 71.2379 132.798 72.1276 132.798C73.5862 132.798 75.0155 132.594 76.2407 132.2C77.4221 131.821 78.5014 131.296 79.4933 130.668C80.6601 129.925 81.6519 129.02 82.4249 127.999C83.1542 127.022 83.6939 125.943 83.971 124.79H90.724C90.899 124.79 91.0449 124.776 91.1908 124.747H91.3074C91.4387 124.703 91.5845 124.674 91.7012 124.63C91.7012 124.63 91.7304 124.63 91.745 124.63C91.8908 124.586 92.0367 124.528 92.168 124.455C92.168 124.455 92.168 124.455 92.1971 124.44C92.3138 124.382 92.4305 124.309 92.518 124.236C92.518 124.236 92.5618 124.207 92.5764 124.207C92.6785 124.12 92.766 124.032 92.8681 123.945C92.8681 123.915 92.9118 123.886 92.9264 123.857C92.9702 123.813 92.9993 123.77 93.0285 123.726C93.2181 123.449 93.3202 123.142 93.3202 122.821C93.3202 121.728 92.1826 120.838 90.7678 120.838H83.9564C83.0813 117.512 80.1058 114.756 76.1532 113.458L76.124 113.428Z" fill="#F5F5F5"/>
<path d="M114.936 99.3973C116.044 101.877 115.84 104.794 114.236 106.967C110.764 111.693 102.655 115.033 93.2181 115.047C83.7959 115.062 75.7302 111.766 72.3172 107.055C70.742 104.881 70.5669 101.994 71.6608 99.5432L93.3202 50.9592L114.95 99.3827L114.936 99.3973Z" fill="white" stroke="#CCCCCC" stroke-width="1.5" stroke-linecap="round" stroke-linejoin="round"/>
<path d="M72.3027 107.084C73.1632 108.265 74.3008 109.359 75.7156 110.336L93.291 50.9883L71.6463 99.5577C70.567 102.008 70.7274 104.896 72.3027 107.084Z" fill="#EBEBEB"/>
<path d="M114.936 99.3973C116.044 101.877 115.84 104.794 114.236 106.967C110.764 111.693 102.655 115.033 93.2181 115.047C83.7959 115.062 75.7302 111.766 72.3172 107.055C70.742 104.881 70.5669 101.994 71.6608 99.5432L93.3202 50.9592L114.95 99.3827L114.936 99.3973Z" stroke="#CCCCCC" stroke-width="1.5" stroke-linecap="round" stroke-linejoin="round"/>
<path d="M110.604 80.4072C111.494 82.3908 111.333 84.7245 110.05 86.4601C107.278 90.2378 100.788 92.9069 93.2327 92.9215C85.692 92.9361 79.2453 90.2961 76.5033 86.5331C75.2489 84.7974 75.1031 82.4783 75.9782 80.5239L93.3056 41.6538L110.604 80.3926V80.4072Z" fill="white" stroke="#CCCCCC" stroke-width="1.5" stroke-linecap="round" stroke-linejoin="round"/>
<path d="M76.5032 86.5477C77.1887 87.4958 78.1076 88.3709 79.2307 89.1439L93.291 41.6685L75.9781 80.524C75.1176 82.493 75.2489 84.7975 76.5032 86.5477Z" fill="#EBEBEB"/>
<path d="M110.604 80.4072C111.494 82.3908 111.333 84.7245 110.05 86.4601C107.278 90.2378 100.788 92.9069 93.2327 92.9215C85.692 92.9361 79.2453 90.2961 76.5033 86.5331C75.2489 84.7974 75.1031 82.4783 75.9782 80.5239L93.3056 41.6538L110.604 80.3926V80.4072Z" stroke="#CCCCCC" stroke-width="1.5" stroke-linecap="round" stroke-linejoin="round"/>
<path d="M107.147 62.0587C107.847 63.6485 107.73 65.5154 106.709 66.901C104.492 69.9348 99.3 72.0643 93.2616 72.0788C87.2233 72.0788 82.0601 69.9785 79.8868 66.9739C78.8804 65.5883 78.7638 63.736 79.4639 62.1608L93.32 31.0647L107.162 62.0587H107.147Z" fill="white" stroke="#CCCCCC" stroke-width="1.5" stroke-linecap="round" stroke-linejoin="round"/>
<path d="M79.8579 66.974C80.4121 67.7324 81.1414 68.4325 82.0457 69.0597L93.291 31.0793L79.4349 62.1608C78.7348 63.736 78.8515 65.5738 79.8579 66.974Z" fill="#EBEBEB"/>
<path d="M107.147 62.0587C107.847 63.6485 107.73 65.5154 106.709 66.901C104.492 69.9348 99.3 72.0643 93.2616 72.0788C87.2233 72.0788 82.0601 69.9785 79.8868 66.9739C78.8804 65.5883 78.7638 63.736 79.4639 62.1608L93.32 31.0647L107.162 62.0587H107.147Z" stroke="#CCCCCC" stroke-width="1.5" stroke-linecap="round" stroke-linejoin="round"/>
<path d="M88.8571 114.829V121.567C88.8571 122.996 90.8553 124.149 93.3056 124.149C95.7706 124.149 97.7396 123.011 97.7396 121.596V114.785C96.2665 114.975 94.7642 115.062 93.2035 115.062C91.6429 115.062 90.2573 114.989 88.8425 114.829H88.8571Z" fill="white"/>
<path d="M88.8571 114.829V121.567C88.8571 122.573 89.8343 123.434 91.2783 123.857V115.018C90.4469 114.974 89.6593 114.916 88.8571 114.829Z" fill="#EBEBEB"/>
<path d="M88.8571 114.829V121.567C88.8571 122.996 90.8553 124.149 93.3056 124.149C95.7706 124.149 97.7396 123.011 97.7396 121.596V114.785C96.2665 114.975 94.7642 115.062 93.2035 115.062C91.6429 115.062 90.2573 114.989 88.8425 114.829H88.8571Z" stroke="#CCCCCC" stroke-width="1.5" stroke-linecap="round" stroke-linejoin="round"/>
<path d="M134.947 149.965C133.503 149.498 131.592 149.44 129.959 149.761L121.922 151.365C121.776 151.307 121.616 151.248 121.455 151.19C120.303 150.811 118.772 150.767 117.474 151.029L109.583 152.605C109.277 152.444 108.956 152.284 108.606 152.167C107.687 151.861 106.462 151.832 105.426 152.036L85.0503 156.105L105.484 160.175C105.601 160.189 105.703 160.218 105.834 160.233C106.199 160.291 106.564 160.306 106.943 160.306C107.556 160.306 108.154 160.218 108.664 160.058C109.029 159.941 109.35 159.795 109.656 159.62L117.576 161.196C117.722 161.225 117.853 161.239 118.013 161.268C118.465 161.327 118.932 161.356 119.399 161.356C120.157 161.356 120.901 161.254 121.543 161.05C121.718 160.991 121.878 160.933 122.039 160.875L130.105 162.479C130.265 162.508 130.44 162.537 130.615 162.567C131.184 162.654 131.767 162.683 132.351 162.683C133.313 162.683 134.247 162.552 135.049 162.289C135.822 162.041 136.537 161.691 137.179 161.283C137.952 160.787 138.593 160.204 139.104 159.533C139.585 158.891 139.935 158.191 140.125 157.432H144.573C144.69 157.432 144.792 157.432 144.88 157.403H144.953C145.04 157.374 145.128 157.36 145.215 157.33C145.215 157.33 145.23 157.33 145.244 157.33C145.332 157.301 145.434 157.257 145.521 157.214C145.521 157.214 145.521 157.214 145.536 157.214C145.609 157.17 145.696 157.126 145.755 157.068C145.755 157.068 145.784 157.053 145.784 157.039C145.857 156.98 145.915 156.922 145.974 156.864C145.974 156.849 146.003 156.834 146.003 156.805C146.032 156.776 146.061 156.747 146.076 156.718C146.192 156.543 146.265 156.339 146.265 156.12C146.265 155.391 145.521 154.822 144.588 154.822H140.11C139.527 152.634 137.572 150.825 134.976 149.965H134.947Z" fill="#F5F5F5"/>
<path d="M160.457 140.732C161.186 142.351 161.055 144.276 160.004 145.706C157.714 148.812 152.391 151.015 146.192 151.015C139.993 151.015 134.684 148.856 132.438 145.764C131.402 144.335 131.286 142.439 132 140.82L146.236 108.878L160.457 140.718V140.732Z" fill="white" stroke="#CCCCCC" stroke-width="1.5" stroke-linecap="round" stroke-linejoin="round"/>
<path d="M132.438 145.793C133.007 146.581 133.751 147.281 134.684 147.937L146.236 108.907L132.001 140.849C131.286 142.468 131.388 144.364 132.438 145.793Z" fill="#EBEBEB"/>
<path d="M160.457 140.732C161.186 142.351 161.055 144.276 160.004 145.706C157.714 148.813 152.391 151.015 146.192 151.015C139.993 151.015 134.684 148.856 132.438 145.764C131.402 144.335 131.286 142.439 132 140.82L146.236 108.878L160.457 140.718V140.732Z" stroke="#CCCCCC" stroke-width="1.5" stroke-linecap="round" stroke-linejoin="round"/>
<path d="M157.613 128.247C158.196 129.545 158.094 131.077 157.248 132.229C155.425 134.723 151.151 136.474 146.192 136.488C141.233 136.488 136.989 134.767 135.195 132.288C134.364 131.15 134.276 129.618 134.845 128.335L146.236 102.781L157.613 128.262V128.247Z" fill="white" stroke="#CCCCCC" stroke-width="1.5" stroke-linecap="round" stroke-linejoin="round"/>
<path d="M135.195 132.287C135.647 132.915 136.245 133.483 136.989 133.994L146.236 102.767L134.845 128.32C134.276 129.618 134.364 131.135 135.195 132.287Z" fill="#EBEBEB"/>
<path d="M157.613 128.247C158.196 129.545 158.094 131.077 157.248 132.229C155.425 134.723 151.151 136.474 146.192 136.488C141.233 136.488 136.989 134.767 135.195 132.288C134.364 131.15 134.276 129.618 134.845 128.335L146.236 102.781L157.613 128.262V128.247Z" stroke="#CCCCCC" stroke-width="1.5" stroke-linecap="round" stroke-linejoin="round"/>
<path d="M155.337 116.185C155.804 117.221 155.716 118.46 155.046 119.379C153.587 121.363 150.174 122.778 146.207 122.778C142.24 122.778 138.841 121.392 137.412 119.423C136.755 118.504 136.668 117.294 137.135 116.258L146.251 95.8093L155.352 116.185H155.337Z" fill="white" stroke="#CCCCCC" stroke-width="1.5" stroke-linecap="round" stroke-linejoin="round"/>
<path d="M137.397 119.408C137.762 119.904 138.243 120.371 138.841 120.779L146.236 95.7947L137.12 116.229C136.668 117.264 136.726 118.475 137.397 119.394V119.408Z" fill="#EBEBEB"/>
<path d="M155.337 116.185C155.804 117.221 155.716 118.46 155.046 119.379C153.587 121.363 150.174 122.778 146.207 122.778C142.24 122.778 138.841 121.392 137.412 119.423C136.755 118.504 136.668 117.294 137.135 116.258L146.251 95.8093L155.352 116.185H155.337Z" stroke="#CCCCCC" stroke-width="1.5" stroke-linecap="round" stroke-linejoin="round"/>
<path d="M143.319 150.884V155.318C143.319 156.251 144.632 157.01 146.251 157.01C147.87 157.01 149.168 156.266 149.168 155.332V150.854C148.205 150.971 147.213 151.03 146.192 151.03C145.171 151.03 144.252 150.971 143.319 150.869V150.884Z" fill="white"/>
<path d="M143.319 150.884V155.318C143.319 155.974 143.961 156.543 144.909 156.82V151.015C144.369 150.986 143.844 150.942 143.319 150.884Z" fill="#EBEBEB"/>
<path d="M143.319 150.884V155.318C143.319 156.251 144.632 157.01 146.251 157.01C147.87 157.01 149.168 156.266 149.168 155.332V150.854C148.205 150.971 147.213 151.03 146.192 151.03C145.171 151.03 144.252 150.971 143.319 150.869V150.884Z" stroke="#CCCCCC" stroke-width="1.5" stroke-linecap="round" stroke-linejoin="round"/>
</g>
<defs>
<clipPath id="clip0_230_474">
<rect width="188.793" height="162" fill="white" transform="translate(0.207031 0.68335)"/>
</clipPath>
</defs>
</svg>
