<svg width="191" height="109" viewBox="0 0 191 109" fill="none" xmlns="http://www.w3.org/2000/svg">
<g clip-path="url(#clip0_18578_8154)">
<path d="M186.302 61.095L107.077 106.22C100.476 109.983 88.9482 109.51 81.3188 105.168L6.54827 62.5749C-1.07346 58.2329 -1.9034 51.6674 4.69804 47.9038L83.9229 2.77886C90.5243 -0.984679 102.052 -0.51142 109.681 3.83055L184.46 46.4239C192.081 50.7659 192.911 57.3314 186.31 61.095H186.302Z" fill="white" stroke="#CCCCCC" stroke-width="0.75" stroke-miterlimit="10"/>
<path d="M119.869 58.9469L92.336 74.6246C89.2827 76.3674 85.6584 77.5843 81.8133 78.2754V78.9816H73.9327C72.4023 78.9816 70.8794 78.9065 69.3718 78.7487C64.377 78.2454 59.6105 76.8932 55.7654 74.6997C45.6996 68.968 45.7605 59.6455 55.8949 53.8688L83.4275 38.1911C93.5619 32.4143 109.94 32.3768 119.998 38.1085C130.064 43.8402 130.003 53.1701 119.869 58.9469Z" fill="#F5F5F5"/>
<path d="M25.2564 56.4751C23.4747 57.4892 20.6042 57.4967 18.8377 56.4901C17.0712 55.4835 17.0789 53.8459 18.8606 52.8317L25.3782 49.1208C27.1599 48.1067 30.0305 48.0991 31.7969 49.1058C33.5634 50.1124 33.5558 51.75 31.7741 52.7641L25.2564 56.4751Z" fill="#F5F5F5" stroke="#CCCCCC" stroke-width="0.75" stroke-miterlimit="10"/>
<path d="M135.128 44.6504V48.459C135.128 52.2451 132.584 56.0387 127.491 58.9383L99.958 74.6235C89.8236 80.4003 73.4456 80.4303 63.3874 74.6986C58.3773 71.8441 55.8799 68.103 55.8799 64.347V60.5384C55.8799 62.3789 56.4814 64.2193 57.6844 65.9546C58.9408 67.75 60.8367 69.4402 63.3874 70.89C73.4456 76.6217 89.8236 76.5842 99.958 70.8149L127.491 55.1297C130.11 53.6348 132.059 51.907 133.323 50.0666C134.526 48.3313 135.128 46.4908 135.128 44.6504Z" fill="#EBEBEB" stroke="#CCCCCC" stroke-width="0.75" stroke-miterlimit="10"/>
<path d="M127.62 34.2997C137.686 40.0314 137.625 49.3614 127.491 55.1306L99.9581 70.8083C89.8237 76.5851 73.4457 76.6151 63.3875 70.8834C53.3216 65.1517 53.3825 55.8217 63.5169 50.0525L91.0496 34.3748C101.184 28.598 117.562 28.568 127.62 34.2997Z" fill="white" stroke="#CCCCCC" stroke-width="0.75" stroke-miterlimit="10"/>
<path d="M90.8437 65.6169C85.7727 68.5015 77.5875 68.524 72.5546 65.6544C67.5217 62.7848 67.5521 58.1273 72.6231 55.2352L100.156 39.5575C105.227 36.6729 113.412 36.6504 118.445 39.52C123.478 42.3896 123.447 47.0471 118.376 49.9392L90.8437 65.6169Z" fill="#F5F5F5" stroke="#CCCCCC" stroke-width="0.75" stroke-miterlimit="10"/>
<path d="M109.31 52.108C116.451 52.0638 122.218 48.732 122.192 44.6662C122.166 40.6005 116.357 37.3404 109.217 37.3847C102.076 37.429 96.3091 40.7608 96.335 44.8265C96.3609 48.8923 102.17 52.1523 109.31 52.108Z" fill="white" stroke="#CCCCCC" stroke-width="0.75" stroke-miterlimit="10"/>
</g>
<defs>
<clipPath id="clip0_18578_8154">
<rect width="191" height="109" fill="white"/>
</clipPath>
</defs>
</svg>
