<svg width="16" height="17" viewBox="0 0 16 17" fill="none" xmlns="http://www.w3.org/2000/svg">
<g clip-path="url(#clip0_230_97)">
<path d="M12.3555 3.51863C12.5074 3.88615 12.7991 4.17827 13.1664 4.33078L14.4543 4.86424C14.8218 5.01649 15.1139 5.3085 15.2661 5.67604C15.4183 6.04358 15.4183 6.45655 15.2661 6.82409L14.733 8.11105C14.5807 8.47876 14.5805 8.89214 14.7335 9.25967L15.2657 10.5463C15.3411 10.7283 15.38 10.9234 15.38 11.1205C15.38 11.3175 15.3413 11.5127 15.2658 11.6947C15.1904 11.8768 15.0799 12.0422 14.9405 12.1816C14.8011 12.3209 14.6357 12.4314 14.4536 12.5067L13.1666 13.0398C12.7991 13.1918 12.507 13.4834 12.3545 13.8507L11.821 15.1386C11.6688 15.5062 11.3768 15.7982 11.0092 15.9504C10.6417 16.1027 10.2287 16.1027 9.86118 15.9504L8.57421 15.4173C8.20666 15.2655 7.79384 15.2658 7.42652 15.4182L6.13863 15.9509C5.77129 16.1028 5.35869 16.1027 4.99144 15.9505C4.6242 15.7984 4.33235 15.5068 4.18001 15.1396L3.64639 13.8513C3.49443 13.4838 3.20274 13.1917 2.83546 13.0392L1.54757 12.5057C1.18019 12.3535 0.888263 12.0617 0.735965 11.6944C0.583668 11.3271 0.583461 10.9143 0.735391 10.5468L1.26847 9.25984C1.42034 8.89229 1.42003 8.47947 1.26761 8.11215L0.735294 6.82333C0.659822 6.64129 0.620961 6.44617 0.620929 6.2491C0.620897 6.05204 0.659697 5.8569 0.73511 5.67484C0.810523 5.49278 0.921071 5.32736 1.06044 5.18803C1.19981 5.04871 1.36526 4.93822 1.54735 4.86286L2.83431 4.32978C3.20151 4.17796 3.49346 3.88664 3.64608 3.51978L4.17954 2.23189C4.33178 1.86435 4.62379 1.57233 4.99134 1.42009C5.35888 1.26785 5.77184 1.26785 6.13939 1.42009L7.42635 1.95317C7.7939 2.10504 8.20672 2.10473 8.57404 1.95231L9.86247 1.42092C10.23 1.26877 10.6428 1.2688 11.0103 1.42101C11.3778 1.57322 11.6698 1.86515 11.822 2.23259L12.3556 3.52086L12.3555 3.51863Z" fill="#2E90FA"/>
<path fill-rule="evenodd" clip-rule="evenodd" d="M11.1333 6.58797C11.2401 6.42009 11.276 6.21662 11.2328 6.02234C11.1897 5.82805 11.0711 5.65885 10.9033 5.55197C10.7354 5.44509 10.5319 5.40928 10.3376 5.45241C10.1433 5.49554 9.97414 5.61409 9.86726 5.78197L6.93026 10.397L5.58626 8.71697C5.46201 8.56155 5.2811 8.46186 5.08335 8.43983C4.88559 8.41779 4.68718 8.47522 4.53176 8.59947C4.37634 8.72373 4.27665 8.90463 4.25462 9.10239C4.23258 9.30014 4.29001 9.49855 4.41426 9.65397L6.41426 12.154C6.4888 12.2473 6.58453 12.3214 6.6935 12.3702C6.80246 12.4191 6.92152 12.4412 7.04075 12.4347C7.15998 12.4283 7.27595 12.3934 7.37901 12.3331C7.48207 12.2728 7.56923 12.1888 7.63326 12.088L11.1333 6.58797Z" fill="white"/>
</g>
<defs>
<clipPath id="clip0_230_97">
<rect width="16" height="16" fill="white" transform="translate(0 0.685059)"/>
</clipPath>
</defs>
</svg>
