<svg width="32" height="32" viewBox="0 0 32 32" fill="none" xmlns="http://www.w3.org/2000/svg">
<path fill-rule="evenodd" clip-rule="evenodd" d="M16.333 16.0002C16.333 13.9751 17.9746 12.3335 19.9997 12.3335C22.0247 12.3335 23.6663 13.9751 23.6663 16.0002C23.6663 18.0252 22.0247 19.6668 19.9997 19.6668C17.9746 19.6668 16.333 18.0252 16.333 16.0002Z" fill="#00B6FF"/>
<path fill-rule="evenodd" clip-rule="evenodd" d="M9 23.3332C9 21.3081 10.6416 19.6665 12.6667 19.6665H16.3333V23.3332C16.3333 25.3582 14.6917 26.9998 12.6667 26.9998C10.6416 26.9998 9 25.3582 9 23.3332Z" fill="#24CB71"/>
<path fill-rule="evenodd" clip-rule="evenodd" d="M16.333 5V12.3333H19.9997C22.0247 12.3333 23.6663 10.6917 23.6663 8.66667C23.6663 6.64162 22.0247 5 19.9997 5H16.333Z" fill="#FF7237"/>
<path fill-rule="evenodd" clip-rule="evenodd" d="M9 8.66667C9 10.6917 10.6416 12.3333 12.6667 12.3333H16.3333V5H12.6667C10.6416 5 9 6.64162 9 8.66667Z" fill="#FF3737"/>
<path fill-rule="evenodd" clip-rule="evenodd" d="M9 16.0002C9 18.0252 10.6416 19.6668 12.6667 19.6668H16.3333V12.3335H12.6667C10.6416 12.3335 9 13.9751 9 16.0002Z" fill="#874FFF"/>
</svg>
