<svg width="32" height="32" viewBox="0 0 32 32" fill="none" xmlns="http://www.w3.org/2000/svg">
<path d="M15.4999 5C9.26869 5 4.22168 10.047 4.22168 16.2782C4.22168 21.2688 7.45007 25.4841 11.9332 26.9785C12.4971 27.0771 12.7085 26.7388 12.7085 26.4427C12.7085 26.1749 12.6945 25.2867 12.6945 24.3422C9.8608 24.8638 9.12771 23.6514 8.90215 23.017C8.77527 22.6927 8.22545 21.6918 7.74613 21.4239C7.35139 21.2125 6.78748 20.6908 7.73203 20.6767C8.62019 20.6626 9.25459 21.4944 9.46606 21.8328C10.4811 23.5386 12.1023 23.0593 12.7508 22.7632C12.8495 22.0301 13.1456 21.5367 13.4698 21.2548C10.9604 20.9728 8.33823 20 8.33823 15.6861C8.33823 14.4596 8.77527 13.4446 9.49425 12.6551C9.38147 12.3731 8.98673 11.2171 9.60704 9.66637C9.60704 9.66637 10.5516 9.37032 12.7085 10.8224C13.6108 10.5686 14.5695 10.4417 15.5281 10.4417C16.4868 10.4417 17.4454 10.5686 18.3477 10.8224C20.5046 9.35622 21.4492 9.66637 21.4492 9.66637C22.0695 11.2171 21.6747 12.3731 21.562 12.6551C22.281 13.4446 22.718 14.4455 22.718 15.6861C22.718 20.0141 20.0817 20.9728 17.5723 21.2548C17.9811 21.6072 18.3336 22.2839 18.3336 23.3412C18.3336 24.8497 18.3195 26.0621 18.3195 26.4427C18.3195 26.7388 18.5309 27.0912 19.0948 26.9785C21.3338 26.2226 23.2793 24.7837 24.6576 22.8642C26.0359 20.9447 26.7775 18.6413 26.7781 16.2782C26.7781 10.047 21.7311 5 15.4999 5Z" fill="black"/>
</svg>
