<svg width="32" height="32" viewBox="0 0 32 32" fill="none" xmlns="http://www.w3.org/2000/svg">
<path d="M5 11.325C5 9.08771 5 7.96907 5.4423 7.1176C5.81503 6.40007 6.40007 5.81503 7.1176 5.4423C7.96907 5 9.08772 5 11.325 5H20.675C22.9123 5 24.0309 5 24.8824 5.4423C25.5999 5.81503 26.185 6.40007 26.5577 7.1176C27 7.96907 27 9.08772 27 11.325V20.675C27 22.9123 27 24.0309 26.5577 24.8824C26.185 25.5999 25.5999 26.185 24.8824 26.5577C24.0309 27 22.9123 27 20.675 27H11.325C9.08771 27 7.96907 27 7.1176 26.5577C6.40007 26.185 5.81503 25.5999 5.4423 24.8824C5 24.0309 5 22.9123 5 20.675V11.325Z" fill="url(#paint0_linear_919_4270)"/>
<path d="M14.9166 22.438L9.5625 17.084C10.0198 19.8207 12.1799 21.9807 14.9166 22.438Z" fill="#F2F3F8"/>
<path d="M9.48242 15.6366L16.3634 22.5175C16.7715 22.495 17.1698 22.4352 17.5546 22.3411L9.65877 14.4453C9.56473 14.8302 9.50486 15.2284 9.48242 15.6366Z" fill="#F2F3F8"/>
<path d="M10.0029 13.4209L18.5802 21.9982C18.8922 21.8638 19.1916 21.7059 19.4762 21.5265L10.4746 12.5249C10.2952 12.8095 10.1373 13.1089 10.0029 13.4209Z" fill="#F2F3F8"/>
<path d="M11.0537 11.739C12.2507 10.3511 14.022 9.47266 15.9986 9.47266C19.6036 9.47266 22.5261 12.3951 22.5261 16.0001C22.5261 17.9767 21.6476 19.748 20.2597 20.945L11.0537 11.739Z" fill="#F2F3F8"/>
<defs>
<linearGradient id="paint0_linear_919_4270" x1="5" y1="27" x2="27" y2="5" gradientUnits="userSpaceOnUse">
<stop stop-color="#29359B"/>
<stop offset="1" stop-color="#6068CA"/>
</linearGradient>
</defs>
</svg>
