<svg width="23" height="24" viewBox="0 0 23 24" fill="none" xmlns="http://www.w3.org/2000/svg">
<path fill-rule="evenodd" clip-rule="evenodd" d="M10.9318 0C10.3743 0 9.92247 0.451875 9.92247 1.00929C9.92247 1.56671 10.3743 2.01858 10.9318 2.01858H11.3188C12.0355 2.01858 12.6164 2.59957 12.6164 3.31625V7.99046C12.6164 8.86639 13.3265 9.57648 14.2025 9.57648H18.9151C19.6317 9.57648 20.2127 10.1575 20.2127 10.8741V13.7253C20.2127 14.442 19.6317 15.023 18.9151 15.023H14.2025C13.3265 15.023 12.6164 15.7331 12.6164 16.609V18.2858V20.6838C12.6164 21.4004 12.0355 21.9814 11.3188 21.9814H8.70558C7.9889 21.9814 7.40792 21.4004 7.40792 20.6838V18.3398C8.31594 17.0085 10.1285 14.2059 11.3736 11.7687C11.7623 11.0078 11.9304 10.2905 11.8815 9.62071C11.8321 8.94275 11.5664 8.3962 11.2265 7.97713C10.6112 7.21856 9.73275 6.8626 9.44073 6.74428L9.40664 6.73043C8.89072 6.51939 8.3014 6.76655 8.09036 7.28247C7.87933 7.7984 8.12649 8.38771 8.64241 8.59875C8.93521 8.71852 9.38492 8.91108 9.65877 9.24871C9.77654 9.39391 9.85299 9.55732 9.8683 9.76742C9.8842 9.98571 9.83947 10.3346 9.576 10.8503C8.63443 12.6934 7.3367 14.7824 6.39862 16.2156C5.46055 14.7824 4.16282 12.6934 3.22125 10.8503C2.95777 10.3346 2.91304 9.98571 2.92895 9.76742C2.94426 9.55732 3.02071 9.39391 3.13848 9.24871C3.41233 8.91108 3.86204 8.71852 4.15484 8.59875C4.67076 8.38771 4.91792 7.7984 4.70689 7.28247C4.49585 6.76655 3.90653 6.51939 3.39061 6.73043L3.35652 6.74428C3.0645 6.8626 2.18603 7.21856 1.57075 7.97713C1.23085 8.3962 0.965108 8.94275 0.915704 9.62071C0.866898 10.2905 1.03493 11.0078 1.42366 11.7687C2.66877 14.2059 4.48131 17.0085 5.38933 18.3398V20.6838C5.38933 22.5153 6.87407 24 8.70558 24H11.3188C13.1503 24 14.635 22.5153 14.635 20.6838V18.2858V17.0416H18.9151C20.7466 17.0416 22.2313 15.5568 22.2313 13.7253V10.8741C22.2313 9.04264 20.7466 7.5579 18.9151 7.5579H14.635V3.31625C14.635 1.48474 13.1503 0 11.3188 0H10.9318Z" fill="#1D4ED8"/>
</svg>
