<svg width="179" height="33" viewBox="0 0 179 33" fill="none" xmlns="http://www.w3.org/2000/svg">
<g clip-path="url(#clip0_214_3458)">
<path d="M16 32.667C24.8366 32.667 32 25.5035 32 16.667C32 7.83044 24.8366 0.666992 16 0.666992C7.16344 0.666992 0 7.83044 0 16.667C0 25.5035 7.16344 32.667 16 32.667Z" fill="#FF5533"/>
<path d="M25.7768 15.8745L21.4519 23.3655L17.5813 22.5766L21.9062 15.082L25.7768 15.8745Z" fill="white"/>
<path d="M24.8646 12.4616L21.9062 15.0819L14.4151 10.757L17.37 8.13672L24.8646 12.4616Z" fill="white"/>
<path d="M6.2232 17.4595L10.5481 9.96484L14.4151 10.7573L10.0902 18.2484L6.2232 17.4595Z" fill="white"/>
<path d="M7.13537 20.8683L10.0902 18.248L17.5813 22.5765L14.6265 25.1932L7.13537 20.8683Z" fill="white"/>
</g>
<g clip-path="url(#clip1_214_3458)">
<path d="M49.7535 27.667C48.0499 27.667 46.6663 27.0349 45.6003 25.7707C44.5343 24.5064 44 22.8149 44 20.6961V16.155C44 14.0361 44.5343 12.3446 45.6003 11.0804C46.6663 9.81617 48.0524 9.18406 49.7535 9.18406C51.4546 9.18406 52.7172 9.75802 53.6648 10.9034C54.6124 12.0488 55.0862 13.6392 55.0862 15.672L53.501 13.2397H54.6326L54.4713 8.53678V3.66699H59.3201V27.3434H54.6326V23.6139H53.501L55.0862 21.1815C55.0862 23.1916 54.6124 24.777 53.6648 25.9325C52.7172 27.088 51.4118 27.667 49.7535 27.667ZM51.6285 23.4495C52.5559 23.4495 53.2616 23.1841 53.7455 22.6556C54.2293 22.1272 54.4738 21.3636 54.4738 20.3699V16.4786C54.4738 15.4849 54.2319 14.7214 53.7455 14.1929C53.2616 13.6619 52.5559 13.399 51.6285 13.399C50.7011 13.399 50.061 13.6468 49.5746 14.1449C49.0882 14.643 48.8463 15.3661 48.8463 16.3168V20.5343C48.8463 21.4647 49.0882 22.1828 49.5746 22.691C50.0585 23.1992 50.744 23.4521 51.6285 23.4521V23.4495Z" fill="#333333"/>
<path d="M68.8589 27.6667C67.0922 27.6667 65.691 27.1534 64.6552 26.1269C63.622 25.1003 63.1028 23.7527 63.1028 22.089C63.1028 20.8778 63.3876 19.8412 63.9597 18.9764C64.5318 18.1117 65.3609 17.4467 66.4496 16.9815C67.5383 16.5163 68.8463 16.2836 70.376 16.2836H73.8664V15.1484C73.8664 14.4783 73.6346 13.9549 73.1709 13.5757C72.7072 13.1964 72.0444 13.0093 71.1825 13.0093C70.3206 13.0093 69.7107 13.1711 69.2268 13.4948C68.7429 13.8184 68.4783 14.2938 68.4355 14.9208H63.8463C63.9118 13.1686 64.5998 11.7754 65.9153 10.7362C67.2309 9.69957 69.0076 9.17871 71.248 9.17871C73.4884 9.17871 75.4289 9.7198 76.7445 10.7994C78.06 11.8816 78.7152 13.3936 78.7152 15.3405V27.3405H74.0277V23.8058H73.2515L74.1235 23.2874C74.1235 24.1749 73.9068 24.9461 73.4758 25.606C73.0449 26.2659 72.435 26.7742 71.6487 27.1307C70.8624 27.4872 69.9299 27.6667 68.8513 27.6667H68.8589ZM70.5726 23.7754C71.5857 23.7754 72.3871 23.5226 72.9819 23.0144C73.5741 22.5061 73.8715 21.8412 73.8715 21.0194V19.204H70.4768C69.6149 19.204 68.9521 19.4139 68.4884 19.8361C68.0247 20.2584 67.7928 20.8045 67.7928 21.4745C67.7928 22.1446 68.0348 22.6958 68.5212 23.1281C69.005 23.5605 69.6905 23.778 70.5751 23.778L70.5726 23.7754Z" fill="#333333"/>
<path d="M83.6951 27.3431L81.0111 9.50488H84.7283L86.1195 19.2343C86.2278 20.0561 86.3135 20.9309 86.379 21.8614C86.4446 22.7919 86.4975 23.5706 86.5403 24.1977C86.5832 23.5706 86.6361 22.7919 86.7016 21.8614C86.7671 20.9309 86.873 20.0561 87.0242 19.2343L88.7379 9.50488H92.4224L94.0706 19.2343C94.2218 20.0561 94.3402 20.936 94.4259 21.8766C94.5116 22.8171 94.5771 23.601 94.62 24.228C94.6628 23.601 94.7056 22.8171 94.7485 21.8766C94.7913 20.936 94.877 20.0561 95.0081 19.2343L96.4622 9.50488H100.084L97.3695 27.3431H92.5207L91.0665 17.29C90.9808 16.6629 90.8826 15.917 90.7767 15.0523C90.6709 14.1876 90.5927 13.4745 90.5499 12.9107C90.5499 13.2773 90.5171 13.7324 90.4541 14.2735C90.3886 14.8146 90.3256 15.3481 90.2601 15.8791C90.1946 16.4075 90.1316 16.8778 90.066 17.29L88.5791 27.3431H83.6976H83.6951Z" fill="#333333"/>
<path d="M102.38 27.3435V9.50528H107.067V12.9111H108.488L106.906 14.0464C106.928 12.5976 107.397 11.4244 108.312 10.5268C109.229 9.62918 110.409 9.18164 111.853 9.18164C113.577 9.18164 114.96 9.78594 116.006 10.9971C117.052 12.2082 117.574 13.8188 117.574 15.8289V27.3435H112.725V16.3169C112.725 15.3864 112.483 14.6684 111.996 14.1601C111.513 13.6519 110.84 13.3991 109.975 13.3991C109.111 13.3991 108.441 13.6519 107.954 14.1601C107.47 14.6684 107.226 15.3864 107.226 16.3169V27.3435H102.377H102.38Z" fill="#333333"/>
<path d="M169.028 15.7303C169.204 15.9073 169.272 16.1753 169.272 16.5065V20.0135C169.272 20.3473 169.184 20.59 169.028 20.7695C168.851 20.9465 168.607 21.035 168.254 21.035C167.921 21.035 167.657 20.9465 167.5 20.7695C167.324 20.5925 167.236 20.3473 167.236 20.0135V16.5065C167.236 16.1728 167.324 15.9073 167.5 15.7303C167.654 15.5761 167.921 15.4851 168.254 15.4851C168.609 15.4851 168.874 15.5735 169.028 15.7303ZM154.688 15.6418H153.693V20.8808H154.688C155.021 20.8808 155.308 20.7695 155.507 20.547C155.729 20.3473 155.84 20.0818 155.84 19.748V16.772C155.84 16.4383 155.729 16.1728 155.507 15.973C155.308 15.7505 155.021 15.6393 154.688 15.6393V15.6418ZM179.003 9.18164V27.3435H123.428V9.18164H179.003ZM137.163 20.0615C137.163 19.3966 136.986 18.8175 136.608 18.3296C136.21 17.8643 135.701 17.5533 135.058 17.3966L134.018 17.1513C133.753 17.1058 133.574 16.9971 133.443 16.8631C133.312 16.729 133.221 16.5521 133.221 16.3296C133.221 16.0641 133.332 15.8643 133.509 15.6848C133.685 15.5306 133.929 15.4623 134.262 15.4623C134.595 15.4623 134.859 15.528 135.036 15.7076C135.235 15.8618 135.323 16.0843 135.323 16.3725H136.984C136.984 15.8845 136.873 15.4623 136.651 15.1058C136.429 14.7493 136.097 14.4838 135.699 14.284C135.3 14.0843 134.814 13.9958 134.26 13.9958C133.705 13.9958 133.241 14.0843 132.821 14.284C132.422 14.4838 132.112 14.7493 131.891 15.1058C131.692 15.4598 131.581 15.882 131.581 16.3928C131.581 16.992 131.757 17.5028 132.155 17.9478C132.531 18.37 133.04 18.681 133.682 18.8125L134.701 19.0577C134.965 19.1235 135.164 19.2347 135.298 19.4345C135.431 19.6115 135.497 19.834 135.497 20.0565C135.497 20.3447 135.409 20.59 135.187 20.767C134.988 20.944 134.701 21.0325 134.325 21.0325C133.95 21.0325 133.662 20.944 133.418 20.767C133.219 20.5672 133.085 20.322 133.085 20.011H131.447C131.447 20.5217 131.558 20.9667 131.802 21.3435C132.047 21.7202 132.377 22.0084 132.798 22.2082C133.241 22.4079 133.75 22.5192 134.325 22.5192C134.9 22.5192 135.409 22.4079 135.83 22.2082C136.273 22.0084 136.583 21.7202 136.825 21.3435C137.047 20.987 137.158 20.5445 137.158 20.0565L137.163 20.0615ZM144.045 14.1121H138.158V15.6443H140.26V22.4155H141.941V15.6443H144.043V14.1121H144.045ZM150.618 14.1121H148.914V19.973C148.914 20.3068 148.826 20.5723 148.65 20.772C148.473 20.949 148.229 21.0375 147.896 21.0375C147.564 21.0375 147.322 20.949 147.143 20.772C146.966 20.5723 146.878 20.3068 146.878 19.973V14.1121H145.174V19.973C145.174 20.772 145.419 21.394 145.905 21.839C146.392 22.284 147.057 22.5268 147.896 22.5268C148.735 22.5268 149.401 22.3043 149.887 21.839C150.373 21.3738 150.618 20.7518 150.618 19.973V14.1121ZM157.543 16.7771C157.543 16.2436 157.41 15.7784 157.168 15.3789C156.946 14.9794 156.613 14.6684 156.172 14.4459C155.752 14.2234 155.265 14.1121 154.691 14.1121H152.014V22.4155H154.691C155.265 22.4155 155.754 22.3043 156.172 22.0818C156.616 21.8593 156.946 21.5483 157.168 21.126C157.412 20.7265 157.543 20.2613 157.543 19.7278V16.7746V16.7771ZM163.96 14.1121H158.98V15.6443H160.618V20.8833H158.98V22.4155H163.96V20.8833H162.322V15.6443H163.96V14.1121ZM170.976 16.6203C170.976 15.7986 170.731 15.1766 170.245 14.7114C169.759 14.2461 169.093 14.0009 168.254 14.0009C167.415 14.0009 166.772 14.2461 166.286 14.7114C165.799 15.1766 165.555 15.7986 165.555 16.6203V19.9073C165.555 20.7063 165.799 21.351 166.286 21.8163C166.772 22.2815 167.437 22.5268 168.254 22.5268C169.071 22.5268 169.759 22.2815 170.245 21.8163C170.731 21.351 170.976 20.7063 170.976 19.9073V16.6203Z" fill="#FF4F2C"/>
</g>
<defs>
<clipPath id="clip0_214_3458">
<rect width="32" height="32" fill="white" transform="translate(0 0.666992)"/>
</clipPath>
<clipPath id="clip1_214_3458">
<rect width="135" height="24" fill="white" transform="translate(44 3.66699)"/>
</clipPath>
</defs>
</svg>
