<svg width="96" height="390" viewBox="0 0 96 390" fill="none" xmlns="http://www.w3.org/2000/svg">
<path d="M96 0.5V1.5H0V0.5H96Z" fill="#E9EAEB"/>
<path d="M47.5 365V25C47.5 12.0213 36.9787 1.5 24 1.5H0V0.5H24C37.531 0.5 48.5 11.469 48.5 25V365C48.5 377.979 59.0213 388.5 72 388.5H96V389.5H72C58.469 389.5 47.5 378.531 47.5 365Z" fill="#E9EAEB"/>
<path d="M47.5 171V25C47.5 12.0213 36.9787 1.5 24 1.5H0V0.5H24C37.531 0.5 48.5 11.469 48.5 25V171C48.5 183.979 59.0213 194.5 72 194.5H96V195.5H72C58.469 195.5 47.5 184.531 47.5 171Z" fill="#E9EAEB"/>
</svg>
