<svg width="80" height="390" viewBox="0 0 80 390" fill="none" xmlns="http://www.w3.org/2000/svg">
<path d="M80 0.5V1.5H0V0.5H80Z" fill="#E9EAEB"/>
<path d="M39.5 365V25C39.5 12.0213 28.9787 1.5 16 1.5H0V0.5H16C29.531 0.5 40.5 11.469 40.5 25V365C40.5 377.979 51.0213 388.5 64 388.5H80V389.5H64C50.469 389.5 39.5 378.531 39.5 365Z" fill="#E9EAEB"/>
<path d="M39.5 171V25C39.5 12.0213 28.9787 1.5 16 1.5H0V0.5H16C29.531 0.5 40.5 11.469 40.5 25V171C40.5 183.979 51.0213 194.5 64 194.5H80V195.5H64C50.469 195.5 39.5 184.531 39.5 171Z" fill="#E9EAEB"/>
</svg>
