<svg width="64" height="293" viewBox="0 0 64 293" fill="none" xmlns="http://www.w3.org/2000/svg">
<path d="M31.5 122V171C31.5 183.979 20.9787 194.5 8 194.5H0V195.5H8C21.531 195.5 32.5 184.531 32.5 171V122C32.5 109.021 43.0213 98.5 56 98.5H64V97.5H56C42.469 97.5 31.5 108.469 31.5 122Z" fill="#E9EAEB"/>
<path d="M31.5 74V25C31.5 12.0213 20.9787 1.5 8 1.5H0V0.5H8C21.531 0.5 32.5 11.469 32.5 25V74C32.5 86.9787 43.0213 97.5 56 97.5H64V98.5H56C42.469 98.5 31.5 87.531 31.5 74Z" fill="#E9EAEB"/>
<path d="M31.5 268V219C31.5 206.021 20.9787 195.5 8 195.5H0V194.5H8C21.531 194.5 32.5 205.469 32.5 219V268C32.5 280.979 43.0213 291.5 56 291.5H64V292.5H56C42.469 292.5 31.5 281.531 31.5 268Z" fill="#E9EAEB"/>
</svg>
