<svg width="216" height="357" viewBox="0 0 216 357" fill="none" xmlns="http://www.w3.org/2000/svg">
<path d="M183.5 67.25V22.75C183.5 10.7378 173.762 1 161.75 1H152V0H161.75C174.314 0 184.5 10.1855 184.5 22.75V67.25C184.5 79.2622 194.238 89 206.25 89H216V90H206.25C193.686 90 183.5 79.8145 183.5 67.25Z" fill="#E9EAEB"/>
<path d="M107.5 245.25V200.75C107.5 188.738 97.7622 179 85.75 179H0V178H85.75C98.3145 178 108.5 188.186 108.5 200.75V245.25C108.5 257.262 118.238 267 130.25 267H216V268H130.25C117.686 268 107.5 257.814 107.5 245.25Z" fill="#E9EAEB"/>
<path d="M107.5 291.5V332.5C107.5 345.479 96.9787 356 84 356H0V357H84C97.531 357 108.5 346.031 108.5 332.5V291.5C108.5 278.521 119.021 268 132 268H216V267H132C118.469 267 107.5 277.969 107.5 291.5Z" fill="#E9EAEB"/>
</svg>
