<svg width="64" height="390" viewBox="0 0 64 390" fill="none" xmlns="http://www.w3.org/2000/svg">
<path d="M64 0.5V1.5H0V0.5H64Z" fill="#E9EAEB"/>
<path d="M31.5 365V25C31.5 12.0213 20.9787 1.5 8 1.5H0V0.5H8C21.531 0.5 32.5 11.469 32.5 25V365C32.5 377.979 43.0213 388.5 56 388.5H64V389.5H56C42.469 389.5 31.5 378.531 31.5 365Z" fill="#E9EAEB"/>
<path d="M31.5 171V25C31.5 12.0213 20.9787 1.5 8 1.5H0V0.5H8C21.531 0.5 32.5 11.469 32.5 25V171C32.5 183.979 43.0213 194.5 56 194.5H64V195.5H56C42.469 195.5 31.5 184.531 31.5 171Z" fill="#E9EAEB"/>
</svg>
