<svg width="212" height="390" viewBox="0 0 212 390" fill="none" xmlns="http://www.w3.org/2000/svg">
<path d="M32 388.5V389.5H0V388.5H32Z" fill="#E9EAEB"/>
<path d="M32 194.5V195.5H0V194.5H32Z" fill="#E9EAEB"/>
<path d="M212 0.5V1.5H148V0.5H212Z" fill="#E9EAEB"/>
<path d="M124.5 316V365C124.5 377.979 113.979 388.5 101 388.5H71.5V389.5H101C114.531 389.5 125.5 378.531 125.5 365V316C125.5 303.021 136.021 292.5 149 292.5H157V291.5H149C135.469 291.5 124.5 302.469 124.5 316Z" fill="#E9EAEB"/>
<path d="M124.5 268V219C124.5 206.021 113.979 195.5 101 195.5H93V194.5H101C114.531 194.5 125.5 205.469 125.5 219V268C125.5 280.979 136.021 291.5 149 291.5H157V292.5H149C135.469 292.5 124.5 281.531 124.5 268Z" fill="#E9EAEB"/>
</svg>
