<svg width="240" height="390" viewBox="0 0 240 390" fill="none" xmlns="http://www.w3.org/2000/svg">
<path d="M240 0.5V1.5H160V0.5H240Z" fill="#E9EAEB"/>
<path d="M132.5 316V365C132.5 377.979 121.979 388.5 109 388.5H71V389.5H109C122.531 389.5 133.5 378.531 133.5 365V316C133.5 303.021 144.021 292.5 157 292.5H173V291.5H157C143.469 291.5 132.5 302.469 132.5 316Z" fill="#E9EAEB"/>
<path d="M132.5 268V219C132.5 206.021 121.979 195.5 109 195.5H93V194.5H109C122.531 194.5 133.5 205.469 133.5 219V268C133.5 280.979 144.021 291.5 157 291.5H173V292.5H157C143.469 292.5 132.5 281.531 132.5 268Z" fill="#E9EAEB"/>
<path d="M0 389H32" stroke="#E9EAEB"/>
<path d="M0 195H32" stroke="#E9EAEB"/>
</svg>
