<svg width="280" height="293" viewBox="0 0 280 293" fill="none" xmlns="http://www.w3.org/2000/svg">
<path d="M231.5 122V268C231.5 280.979 220.979 291.5 208 291.5H184V292.5H208C221.531 292.5 232.5 281.531 232.5 268V122C232.5 109.021 243.021 98.5 256 98.5H280V97.5H256C242.469 97.5 231.5 108.469 231.5 122Z" fill="#E9EAEB"/>
<path d="M231.5 74V25C231.5 12.0213 220.979 1.5 208 1.5H0V0.5H208C221.531 0.5 232.5 11.469 232.5 25V74C232.5 86.9787 243.021 97.5 256 97.5H280V98.5H256C242.469 98.5 231.5 87.531 231.5 74Z" fill="#E9EAEB"/>
<path d="M280 291.5V292.5H23V291.5H280Z" fill="#E9EAEB"/>
</svg>
