<svg width="96" height="293" viewBox="0 0 96 293" fill="none" xmlns="http://www.w3.org/2000/svg">
<path d="M47.5 122V171C47.5 183.979 36.9787 194.5 24 194.5H0V195.5H24C37.531 195.5 48.5 184.531 48.5 171V122C48.5 109.021 59.0213 98.5 72 98.5H96V97.5H72C58.469 97.5 47.5 108.469 47.5 122Z" fill="#E9EAEB"/>
<path d="M47.5 74V25C47.5 12.0213 36.9787 1.5 24 1.5H0V0.5H24C37.531 0.5 48.5 11.469 48.5 25V74C48.5 86.9787 59.0213 97.5 72 97.5H96V98.5H72C58.469 98.5 47.5 87.531 47.5 74Z" fill="#E9EAEB"/>
<path d="M47.5 268V219C47.5 206.021 36.9787 195.5 24 195.5H0V194.5H24C37.531 194.5 48.5 205.469 48.5 219V268C48.5 280.979 59.0213 291.5 72 291.5H96V292.5H72C58.469 292.5 47.5 281.531 47.5 268Z" fill="#E9EAEB"/>
</svg>
