<svg width="286" height="293" viewBox="0 0 286 293" fill="none" xmlns="http://www.w3.org/2000/svg">
<path d="M286 291.5V292.5H45V291.5H286Z" fill="#E9EAEB"/>
<path d="M246.5 268V122C246.5 109.021 257.021 98.5 270 98.5H286V97.5H270C256.469 97.5 245.5 108.469 245.5 122V268C245.5 280.979 234.979 291.5 222 291.5H206V292.5H222C235.531 292.5 246.5 281.531 246.5 268Z" fill="#E9EAEB"/>
<path d="M246.5 25V74C246.5 86.9787 257.021 97.5 270 97.5H286V98.5H270C256.469 98.5 245.5 87.531 245.5 74V25C245.5 12.0213 234.979 1.5 222 1.5H0V0.5H222C235.531 0.5 246.5 11.469 246.5 25Z" fill="#E9EAEB"/>
</svg>
