<svg width="225" height="293" viewBox="0 0 225 293" fill="none" xmlns="http://www.w3.org/2000/svg">
<path d="M225 291.5V292.5H0V291.5H225Z" fill="#E9EAEB"/>
<path d="M192.5 74V25C192.5 12.0213 181.979 1.5 169 1.5H11V0.5H169C182.531 0.5 193.5 11.469 193.5 25V74C193.5 86.9787 204.021 97.5 217 97.5H225V98.5H217C203.469 98.5 192.5 87.531 192.5 74Z" fill="#E9EAEB"/>
<path d="M193.5 268V122C193.5 109.021 204.021 98.5 217 98.5H225V97.5H217C203.469 97.5 192.5 108.469 192.5 122V268C192.5 280.979 181.979 291.5 169 291.5H161V292.5H169C182.531 292.5 193.5 281.531 193.5 268Z" fill="#E9EAEB"/>
</svg>
