<svg width="256" height="390" viewBox="0 0 256 390" fill="none" xmlns="http://www.w3.org/2000/svg">
<path d="M256 0.5V1.5H160V0.5H256Z" fill="#E9EAEB"/>
<path d="M118.5 268V219C118.5 206.021 107.979 195.5 95 195.5H0V194.5H95C108.531 194.5 119.5 205.469 119.5 219V268C119.5 280.979 130.021 291.5 143 291.5H167V292.5H143C129.469 292.5 118.5 281.531 118.5 268Z" fill="#E9EAEB"/>
<path d="M118.5 316V365C118.5 377.979 107.979 388.5 95 388.5H71V389.5H95C108.531 389.5 119.5 378.531 119.5 365V316C119.5 303.021 130.021 292.5 143 292.5H167V291.5H143C129.469 291.5 118.5 302.469 118.5 316Z" fill="#E9EAEB"/>
</svg>
