<svg width="80" height="293" viewBox="0 0 80 293" fill="none" xmlns="http://www.w3.org/2000/svg">
<path d="M39.5 122V171C39.5 183.979 28.9787 194.5 16 194.5H0V195.5H16C29.531 195.5 40.5 184.531 40.5 171V122C40.5 109.021 51.0213 98.5 64 98.5H80V97.5H64C50.469 97.5 39.5 108.469 39.5 122Z" fill="#E9EAEB"/>
<path d="M39.5 74V25C39.5 12.0213 28.9787 1.5 16 1.5H0V0.5H16C29.531 0.5 40.5 11.469 40.5 25V74C40.5 86.9787 51.0213 97.5 64 97.5H80V98.5H64C50.469 98.5 39.5 87.531 39.5 74Z" fill="#E9EAEB"/>
<path d="M39.5 268V219C39.5 206.021 28.9787 195.5 16 195.5H0V194.5H16C29.531 194.5 40.5 205.469 40.5 219V268C40.5 280.979 51.0213 291.5 64 291.5H80V292.5H64C50.469 292.5 39.5 281.531 39.5 268Z" fill="#E9EAEB"/>
</svg>
