<svg width="305" height="390" viewBox="0 0 305 390" fill="none" xmlns="http://www.w3.org/2000/svg">
<path d="M152 268V219C152 206.021 141.479 195.5 128.5 195.5H0V194.5H128.5C142.031 194.5 153 205.469 153 219V268C153 280.979 163.521 291.5 176.5 291.5H305V292.5H176.5C162.969 292.5 152 281.531 152 268Z" fill="#E9EAEB"/>
<path d="M152 316V365C152 377.979 141.479 388.5 128.5 388.5H0V389.5H128.5C142.031 389.5 153 378.531 153 365V316C153 303.021 163.521 292.5 176.5 292.5H305V291.5H176.5C162.969 291.5 152 302.469 152 316Z" fill="#E9EAEB"/>
<path d="M248 74V25C248 12.0213 237.479 1.5 224.5 1.5H193V0.5H224.5C238.031 0.5 249 11.469 249 25V74C249 86.9787 259.521 97.5 272.5 97.5H304V98.5H272.5C258.969 98.5 248 87.531 248 74Z" fill="#E9EAEB"/>
</svg>
