<svg width="24" height="25" viewBox="0 0 24 25" fill="none" xmlns="http://www.w3.org/2000/svg">
<g clip-path="url(#clip0_214_3543)">
<path d="M22.2234 0.666992H1.77187C0.792187 0.666992 0 1.44043 0 2.39668V22.9326C0 23.8889 0.792187 24.667 1.77187 24.667H22.2234C23.2031 24.667 24 23.8889 24 22.9373V2.39668C24 1.44043 23.2031 0.666992 22.2234 0.666992ZM7.12031 21.1186H3.55781V9.6623H7.12031V21.1186ZM5.33906 8.10137C4.19531 8.10137 3.27188 7.17793 3.27188 6.03887C3.27188 4.8998 4.19531 3.97637 5.33906 3.97637C6.47813 3.97637 7.40156 4.8998 7.40156 6.03887C7.40156 7.17324 6.47813 8.10137 5.33906 8.10137ZM20.4516 21.1186H16.8937V15.5498C16.8937 14.2232 16.8703 12.5123 15.0422 12.5123C13.1906 12.5123 12.9094 13.9607 12.9094 15.4561V21.1186H9.35625V9.6623H12.7687V11.2279H12.8156C13.2891 10.3279 14.4516 9.37637 16.1813 9.37637C19.7859 9.37637 20.4516 11.7482 20.4516 14.8326V21.1186Z" fill="#A4A7AE"/>
</g>
<defs>
<clipPath id="clip0_214_3543">
<rect width="24" height="24" fill="white" transform="translate(0 0.666992)"/>
</clipPath>
</defs>
</svg>
